<?xml version="1.0" encoding="UTF-8" standalone="no"?>
<svg id="svg2" xmlns="http://www.w3.org/2000/svg" version="1.1"                 width="20" height="20" viewBox="0 0 20 20">
<rect width="1" height="1" x="2" y="8" fill="#e6e6e6"                     fill-opacity="0.03" />
<rect width="1" height="1" x="3" y="8" fill="#e6e6e6"                     fill-opacity="0.04" />
<rect width="1" height="1" x="4" y="8" fill="#e6e6e6"                     fill-opacity="0.04" />
<rect width="1" height="1" x="5" y="8" fill="#e6e6e6"                     fill-opacity="0.04" />
<rect width="1" height="1" x="6" y="8" fill="#e6e6e6"                     fill-opacity="0.04" />
<rect width="1" height="1" x="7" y="8" fill="#e6e6e6"                     fill-opacity="0.04" />
<rect width="1" height="1" x="8" y="8" fill="#e6e6e6"                     fill-opacity="0.04" />
<rect width="1" height="1" x="9" y="8" fill="#e6e6e6"                     fill-opacity="0.04" />
<rect width="1" height="1" x="10" y="8" fill="#e6e6e6"                     fill-opacity="0.04" />
<rect width="1" height="1" x="11" y="8" fill="#e6e6e6"                     fill-opacity="0.04" />
<rect width="1" height="1" x="12" y="8" fill="#e6e6e6"                     fill-opacity="0.04" />
<rect width="1" height="1" x="13" y="8" fill="#e6e6e6"                     fill-opacity="0.04" />
<rect width="1" height="1" x="14" y="8" fill="#e6e6e6"                     fill-opacity="0.04" />
<rect width="1" height="1" x="15" y="8" fill="#e6e6e6"                     fill-opacity="0.04" />
<rect width="1" height="1" x="16" y="8" fill="#e6e6e6"                     fill-opacity="0.04" />
<rect width="1" height="1" x="17" y="8" fill="#e6e6e6"                     fill-opacity="0.02" />
<rect width="1" height="1" x="2" y="9" fill="#e6e6e6"                     fill-opacity="0.60" />
<rect width="1" height="1" x="3" y="9" fill="#e6e6e6"                     fill-opacity="0.95" />
<rect width="1" height="1" x="4" y="9" fill="#e6e6e6"                     fill-opacity="0.95" />
<rect width="1" height="1" x="5" y="9" fill="#e6e6e6"                     fill-opacity="0.91" />
<rect width="1" height="1" x="6" y="9" fill="#e6e6e6"                     fill-opacity="0.91" />
<rect width="1" height="1" x="7" y="9" fill="#e6e6e6"                     fill-opacity="0.91" />
<rect width="1" height="1" x="8" y="9" fill="#e6e6e6"                     fill-opacity="0.91" />
<rect width="1" height="1" x="9" y="9" fill="#e6e6e6"                     fill-opacity="0.91" />
<rect width="1" height="1" x="10" y="9" fill="#e6e6e6"                     fill-opacity="0.91" />
<rect width="1" height="1" x="11" y="9" fill="#e6e6e6"                     fill-opacity="0.91" />
<rect width="1" height="1" x="12" y="9" fill="#e6e6e6"                     fill-opacity="0.91" />
<rect width="1" height="1" x="13" y="9" fill="#e6e6e6"                     fill-opacity="0.91" />
<rect width="1" height="1" x="14" y="9" fill="#e6e6e6"                     fill-opacity="0.91" />
<rect width="1" height="1" x="15" y="9" fill="#e6e6e6"                     fill-opacity="0.98" />
<rect width="1" height="1" x="16" y="9" fill="#e6e6e6"                     fill-opacity="0.87" />
<rect width="1" height="1" x="17" y="9" fill="#e6e6e6"                     fill-opacity="0.46" />
<rect width="1" height="1" x="2" y="10" fill="#e6e6e6"                     fill-opacity="0.47" />
<rect width="1" height="1" x="3" y="10" fill="#e6e6e6"                     fill-opacity="0.75" />
<rect width="1" height="1" x="4" y="10" fill="#e6e6e6"                     fill-opacity="0.73" />
<rect width="1" height="1" x="5" y="10" fill="#e6e6e6"                     fill-opacity="0.69" />
<rect width="1" height="1" x="6" y="10" fill="#e6e6e6"                     fill-opacity="0.70" />
<rect width="1" height="1" x="7" y="10" fill="#e6e6e6"                     fill-opacity="0.70" />
<rect width="1" height="1" x="8" y="10" fill="#e6e6e6"                     fill-opacity="0.70" />
<rect width="1" height="1" x="9" y="10" fill="#e6e6e6"                     fill-opacity="0.70" />
<rect width="1" height="1" x="10" y="10" fill="#e6e6e6"                     fill-opacity="0.70" />
<rect width="1" height="1" x="11" y="10" fill="#e6e6e6"                     fill-opacity="0.70" />
<rect width="1" height="1" x="12" y="10" fill="#e6e6e6"                     fill-opacity="0.70" />
<rect width="1" height="1" x="13" y="10" fill="#e6e6e6"                     fill-opacity="0.70" />
<rect width="1" height="1" x="14" y="10" fill="#e6e6e6"                     fill-opacity="0.69" />
<rect width="1" height="1" x="15" y="10" fill="#e6e6e6"                     fill-opacity="0.76" />
<rect width="1" height="1" x="16" y="10" fill="#e6e6e6"                     fill-opacity="0.69" />
<rect width="1" height="1" x="17" y="10" fill="#e6e6e6"                     fill-opacity="0.36" />
</svg>
