<?xml version="1.0" encoding="UTF-8" standalone="no"?>
<svg id="svg2" xmlns="http://www.w3.org/2000/svg" version="1.1"                 width="20" height="20" viewBox="0 0 20 20">
<rect width="1" height="1" x="2" y="3" fill="#e6e6e6"                     fill-opacity="0.00" />
<rect width="1" height="1" x="12" y="3" fill="#e6e6e6"                     fill-opacity="0.00" />
<rect width="1" height="1" x="2" y="5" fill="#e6e6e6"                     fill-opacity="0.01" />
<rect width="1" height="1" x="3" y="5" fill="#e6e6e6"                     fill-opacity="0.33" />
<rect width="1" height="1" x="4" y="5" fill="#e6e6e6"                     fill-opacity="0.60" />
<rect width="1" height="1" x="5" y="5" fill="#e6e6e6"                     fill-opacity="0.56" />
<rect width="1" height="1" x="6" y="5" fill="#e6e6e6"                     fill-opacity="0.29" />
<rect width="1" height="1" x="12" y="5" fill="#e6e6e6"                     fill-opacity="0.02" />
<rect width="1" height="1" x="13" y="5" fill="#e6e6e6"                     fill-opacity="0.33" />
<rect width="1" height="1" x="14" y="5" fill="#e6e6e6"                     fill-opacity="0.60" />
<rect width="1" height="1" x="15" y="5" fill="#e6e6e6"                     fill-opacity="0.56" />
<rect width="1" height="1" x="16" y="5" fill="#e6e6e6"                     fill-opacity="0.28" />
<rect width="1" height="1" x="1" y="6" fill="#e6e6e6"                     fill-opacity="0.05" />
<rect width="1" height="1" x="2" y="6" fill="#e6e6e6"                     fill-opacity="0.70" />
<rect width="1" height="1" x="3" y="6" fill="#e6e6e6"                     fill-opacity="1.00" />
<rect width="1" height="1" x="4" y="6" fill="#e6e6e6"                     fill-opacity="0.78" />
<rect width="1" height="1" x="5" y="6" fill="#e6e6e6"                     fill-opacity="0.81" />
<rect width="1" height="1" x="6" y="6" fill="#e6e6e6"                     fill-opacity="1.00" />
<rect width="1" height="1" x="7" y="6" fill="#e6e6e6"                     fill-opacity="0.61" />
<rect width="1" height="1" x="8" y="6" fill="#e6e6e6"                     fill-opacity="0.02" />
<rect width="1" height="1" x="11" y="6" fill="#e6e6e6"                     fill-opacity="0.09" />
<rect width="1" height="1" x="12" y="6" fill="#e6e6e6"                     fill-opacity="0.73" />
<rect width="1" height="1" x="13" y="6" fill="#e6e6e6"                     fill-opacity="1.00" />
<rect width="1" height="1" x="14" y="6" fill="#e6e6e6"                     fill-opacity="0.78" />
<rect width="1" height="1" x="15" y="6" fill="#e6e6e6"                     fill-opacity="0.81" />
<rect width="1" height="1" x="16" y="6" fill="#e6e6e6"                     fill-opacity="1.00" />
<rect width="1" height="1" x="17" y="6" fill="#e6e6e6"                     fill-opacity="0.59" />
<rect width="1" height="1" x="18" y="6" fill="#e6e6e6"                     fill-opacity="0.01" />
<rect width="1" height="1" x="0" y="7" fill="#e6e6e6"                     fill-opacity="0.02" />
<rect width="1" height="1" x="1" y="7" fill="#e6e6e6"                     fill-opacity="0.78" />
<rect width="1" height="1" x="2" y="7" fill="#e6e6e6"                     fill-opacity="0.96" />
<rect width="1" height="1" x="3" y="7" fill="#e6e6e6"                     fill-opacity="0.26" />
<rect width="1" height="1" x="6" y="7" fill="#e6e6e6"                     fill-opacity="0.32" />
<rect width="1" height="1" x="7" y="7" fill="#e6e6e6"                     fill-opacity="1.00" />
<rect width="1" height="1" x="8" y="7" fill="#e6e6e6"                     fill-opacity="0.76" />
<rect width="1" height="1" x="10" y="7" fill="#e6e6e6"                     fill-opacity="0.04" />
<rect width="1" height="1" x="11" y="7" fill="#e6e6e6"                     fill-opacity="0.87" />
<rect width="1" height="1" x="12" y="7" fill="#e6e6e6"                     fill-opacity="0.92" />
<rect width="1" height="1" x="13" y="7" fill="#e6e6e6"                     fill-opacity="0.26" />
<rect width="1" height="1" x="16" y="7" fill="#e6e6e6"                     fill-opacity="0.34" />
<rect width="1" height="1" x="17" y="7" fill="#e6e6e6"                     fill-opacity="1.00" />
<rect width="1" height="1" x="18" y="7" fill="#e6e6e6"                     fill-opacity="0.55" />
<rect width="1" height="1" x="0" y="8" fill="#e6e6e6"                     fill-opacity="0.32" />
<rect width="1" height="1" x="1" y="8" fill="#e6e6e6"                     fill-opacity="1.00" />
<rect width="1" height="1" x="2" y="8" fill="#e6e6e6"                     fill-opacity="0.26" />
<rect width="1" height="1" x="7" y="8" fill="#e6e6e6"                     fill-opacity="0.20" />
<rect width="1" height="1" x="8" y="8" fill="#e6e6e6"                     fill-opacity="0.98" />
<rect width="1" height="1" x="9" y="8" fill="#e6e6e6"                     fill-opacity="0.71" />
<rect width="1" height="1" x="10" y="8" fill="#e6e6e6"                     fill-opacity="0.79" />
<rect width="1" height="1" x="11" y="8" fill="#e6e6e6"                     fill-opacity="0.86" />
<rect width="1" height="1" x="12" y="8" fill="#e6e6e6"                     fill-opacity="0.11" />
<rect width="1" height="1" x="17" y="8" fill="#e6e6e6"                     fill-opacity="0.44" />
<rect width="1" height="1" x="18" y="8" fill="#e6e6e6"                     fill-opacity="1.00" />
<rect width="1" height="1" x="19" y="8" fill="#e6e6e6"                     fill-opacity="0.17" />
<rect width="1" height="1" x="0" y="9" fill="#e6e6e6"                     fill-opacity="0.58" />
<rect width="1" height="1" x="1" y="9" fill="#e6e6e6"                     fill-opacity="0.82" />
<rect width="1" height="1" x="8" y="9" fill="#e6e6e6"                     fill-opacity="0.15" />
<rect width="1" height="1" x="9" y="9" fill="#e6e6e6"                     fill-opacity="1.00" />
<rect width="1" height="1" x="10" y="9" fill="#e6e6e6"                     fill-opacity="0.95" />
<rect width="1" height="1" x="11" y="9" fill="#e6e6e6"                     fill-opacity="0.02" />
<rect width="1" height="1" x="17" y="9" fill="#e6e6e6"                     fill-opacity="0.10" />
<rect width="1" height="1" x="18" y="9" fill="#e6e6e6"                     fill-opacity="0.96" />
<rect width="1" height="1" x="19" y="9" fill="#e6e6e6"                     fill-opacity="0.39" />
<rect width="1" height="1" x="0" y="10" fill="#e6e6e6"                     fill-opacity="0.55" />
<rect width="1" height="1" x="1" y="10" fill="#e6e6e6"                     fill-opacity="0.86" />
<rect width="1" height="1" x="8" y="10" fill="#e6e6e6"                     fill-opacity="0.27" />
<rect width="1" height="1" x="9" y="10" fill="#e6e6e6"                     fill-opacity="1.00" />
<rect width="1" height="1" x="10" y="10" fill="#e6e6e6"                     fill-opacity="1.00" />
<rect width="1" height="1" x="11" y="10" fill="#e6e6e6"                     fill-opacity="0.15" />
<rect width="1" height="1" x="17" y="10" fill="#e6e6e6"                     fill-opacity="0.12" />
<rect width="1" height="1" x="18" y="10" fill="#e6e6e6"                     fill-opacity="0.98" />
<rect width="1" height="1" x="19" y="10" fill="#e6e6e6"                     fill-opacity="0.36" />
<rect width="1" height="1" x="0" y="11" fill="#e6e6e6"                     fill-opacity="0.25" />
<rect width="1" height="1" x="1" y="11" fill="#e6e6e6"                     fill-opacity="1.00" />
<rect width="1" height="1" x="2" y="11" fill="#e6e6e6"                     fill-opacity="0.38" />
<rect width="1" height="1" x="7" y="11" fill="#e6e6e6"                     fill-opacity="0.36" />
<rect width="1" height="1" x="8" y="11" fill="#e6e6e6"                     fill-opacity="1.00" />
<rect width="1" height="1" x="9" y="11" fill="#e6e6e6"                     fill-opacity="0.54" />
<rect width="1" height="1" x="10" y="11" fill="#e6e6e6"                     fill-opacity="0.64" />
<rect width="1" height="1" x="11" y="11" fill="#e6e6e6"                     fill-opacity="1.00" />
<rect width="1" height="1" x="12" y="11" fill="#e6e6e6"                     fill-opacity="0.22" />
<rect width="1" height="1" x="17" y="11" fill="#e6e6e6"                     fill-opacity="0.59" />
<rect width="1" height="1" x="18" y="11" fill="#e6e6e6"                     fill-opacity="0.98" />
<rect width="1" height="1" x="19" y="11" fill="#e6e6e6"                     fill-opacity="0.11" />
<rect width="1" height="1" x="1" y="12" fill="#e6e6e6"                     fill-opacity="0.60" />
<rect width="1" height="1" x="2" y="12" fill="#e6e6e6"                     fill-opacity="1.00" />
<rect width="1" height="1" x="3" y="12" fill="#e6e6e6"                     fill-opacity="0.42" />
<rect width="1" height="1" x="4" y="12" fill="#e6e6e6"                     fill-opacity="0.13" />
<rect width="1" height="1" x="5" y="12" fill="#e6e6e6"                     fill-opacity="0.16" />
<rect width="1" height="1" x="6" y="12" fill="#e6e6e6"                     fill-opacity="0.54" />
<rect width="1" height="1" x="7" y="12" fill="#e6e6e6"                     fill-opacity="1.00" />
<rect width="1" height="1" x="8" y="12" fill="#e6e6e6"                     fill-opacity="0.54" />
<rect width="1" height="1" x="11" y="12" fill="#e6e6e6"                     fill-opacity="0.74" />
<rect width="1" height="1" x="12" y="12" fill="#e6e6e6"                     fill-opacity="1.00" />
<rect width="1" height="1" x="13" y="12" fill="#e6e6e6"                     fill-opacity="0.41" />
<rect width="1" height="1" x="14" y="12" fill="#e6e6e6"                     fill-opacity="0.13" />
<rect width="1" height="1" x="15" y="12" fill="#e6e6e6"                     fill-opacity="0.16" />
<rect width="1" height="1" x="16" y="12" fill="#e6e6e6"                     fill-opacity="0.56" />
<rect width="1" height="1" x="17" y="12" fill="#e6e6e6"                     fill-opacity="1.00" />
<rect width="1" height="1" x="18" y="12" fill="#e6e6e6"                     fill-opacity="0.38" />
<rect width="1" height="1" x="2" y="13" fill="#e6e6e6"                     fill-opacity="0.53" />
<rect width="1" height="1" x="3" y="13" fill="#e6e6e6"                     fill-opacity="1.00" />
<rect width="1" height="1" x="4" y="13" fill="#e6e6e6"                     fill-opacity="0.92" />
<rect width="1" height="1" x="5" y="13" fill="#e6e6e6"                     fill-opacity="0.95" />
<rect width="1" height="1" x="6" y="13" fill="#e6e6e6"                     fill-opacity="0.97" />
<rect width="1" height="1" x="7" y="13" fill="#e6e6e6"                     fill-opacity="0.42" />
<rect width="1" height="1" x="11" y="13" fill="#e6e6e6"                     fill-opacity="0.01" />
<rect width="1" height="1" x="12" y="13" fill="#e6e6e6"                     fill-opacity="0.55" />
<rect width="1" height="1" x="13" y="13" fill="#e6e6e6"                     fill-opacity="1.00" />
<rect width="1" height="1" x="14" y="13" fill="#e6e6e6"                     fill-opacity="0.92" />
<rect width="1" height="1" x="15" y="13" fill="#e6e6e6"                     fill-opacity="0.95" />
<rect width="1" height="1" x="16" y="13" fill="#e6e6e6"                     fill-opacity="0.97" />
<rect width="1" height="1" x="17" y="13" fill="#e6e6e6"                     fill-opacity="0.39" />
<rect width="1" height="1" x="19" y="13" fill="#e6e6e6"                     fill-opacity="0.00" />
<rect width="1" height="1" x="3" y="14" fill="#e6e6e6"                     fill-opacity="0.18" />
<rect width="1" height="1" x="4" y="14" fill="#e6e6e6"                     fill-opacity="0.38" />
<rect width="1" height="1" x="5" y="14" fill="#e6e6e6"                     fill-opacity="0.35" />
<rect width="1" height="1" x="6" y="14" fill="#e6e6e6"                     fill-opacity="0.12" />
<rect width="1" height="1" x="13" y="14" fill="#e6e6e6"                     fill-opacity="0.18" />
<rect width="1" height="1" x="14" y="14" fill="#e6e6e6"                     fill-opacity="0.38" />
<rect width="1" height="1" x="15" y="14" fill="#e6e6e6"                     fill-opacity="0.35" />
<rect width="1" height="1" x="16" y="14" fill="#e6e6e6"                     fill-opacity="0.12" />
</svg>
