<?xml version="1.0" encoding="UTF-8" standalone="no"?>
<svg id="svg2" xmlns="http://www.w3.org/2000/svg" version="1.1"                 width="20" height="20" viewBox="0 0 20 20">
<rect width="1" height="1" x="2" y="2" fill="#e6e6e6"                     fill-opacity="0.05" />
<rect width="1" height="1" x="3" y="2" fill="#e6e6e6"                     fill-opacity="0.24" />
<rect width="1" height="1" x="4" y="2" fill="#e6e6e6"                     fill-opacity="0.52" />
<rect width="1" height="1" x="5" y="2" fill="#e6e6e6"                     fill-opacity="0.53" />
<rect width="1" height="1" x="6" y="2" fill="#e6e6e6"                     fill-opacity="0.51" />
<rect width="1" height="1" x="7" y="2" fill="#e6e6e6"                     fill-opacity="0.51" />
<rect width="1" height="1" x="8" y="2" fill="#e6e6e6"                     fill-opacity="0.51" />
<rect width="1" height="1" x="9" y="2" fill="#e6e6e6"                     fill-opacity="0.51" />
<rect width="1" height="1" x="10" y="2" fill="#e6e6e6"                     fill-opacity="0.51" />
<rect width="1" height="1" x="11" y="2" fill="#e6e6e6"                     fill-opacity="0.51" />
<rect width="1" height="1" x="12" y="2" fill="#e6e6e6"                     fill-opacity="0.51" />
<rect width="1" height="1" x="13" y="2" fill="#e6e6e6"                     fill-opacity="0.51" />
<rect width="1" height="1" x="14" y="2" fill="#e6e6e6"                     fill-opacity="0.53" />
<rect width="1" height="1" x="15" y="2" fill="#e6e6e6"                     fill-opacity="0.48" />
<rect width="1" height="1" x="16" y="2" fill="#e6e6e6"                     fill-opacity="0.18" />
<rect width="1" height="1" x="2" y="3" fill="#e6e6e6"                     fill-opacity="0.24" />
<rect width="1" height="1" x="3" y="3" fill="#e6e6e6"                     fill-opacity="0.65" />
<rect width="1" height="1" x="4" y="3" fill="#e6e6e6"                     fill-opacity="0.98" />
<rect width="1" height="1" x="5" y="3" fill="#e6e6e6"                     fill-opacity="0.93" />
<rect width="1" height="1" x="6" y="3" fill="#e6e6e6"                     fill-opacity="0.92" />
<rect width="1" height="1" x="7" y="3" fill="#e6e6e6"                     fill-opacity="0.92" />
<rect width="1" height="1" x="8" y="3" fill="#e6e6e6"                     fill-opacity="0.92" />
<rect width="1" height="1" x="9" y="3" fill="#e6e6e6"                     fill-opacity="0.92" />
<rect width="1" height="1" x="10" y="3" fill="#e6e6e6"                     fill-opacity="0.92" />
<rect width="1" height="1" x="11" y="3" fill="#e6e6e6"                     fill-opacity="0.92" />
<rect width="1" height="1" x="12" y="3" fill="#e6e6e6"                     fill-opacity="0.92" />
<rect width="1" height="1" x="13" y="3" fill="#e6e6e6"                     fill-opacity="0.92" />
<rect width="1" height="1" x="14" y="3" fill="#e6e6e6"                     fill-opacity="0.93" />
<rect width="1" height="1" x="15" y="3" fill="#e6e6e6"                     fill-opacity="0.96" />
<rect width="1" height="1" x="16" y="3" fill="#e6e6e6"                     fill-opacity="0.54" />
<rect width="1" height="1" x="2" y="4" fill="#e6e6e6"                     fill-opacity="0.52" />
<rect width="1" height="1" x="3" y="4" fill="#e6e6e6"                     fill-opacity="0.93" />
<rect width="1" height="1" x="4" y="4" fill="#e6e6e6"                     fill-opacity="0.65" />
<rect width="1" height="1" x="5" y="4" fill="#e6e6e6"                     fill-opacity="0.35" />
<rect width="1" height="1" x="6" y="4" fill="#e6e6e6"                     fill-opacity="0.40" />
<rect width="1" height="1" x="7" y="4" fill="#e6e6e6"                     fill-opacity="0.40" />
<rect width="1" height="1" x="8" y="4" fill="#e6e6e6"                     fill-opacity="0.40" />
<rect width="1" height="1" x="9" y="4" fill="#e6e6e6"                     fill-opacity="0.40" />
<rect width="1" height="1" x="10" y="4" fill="#e6e6e6"                     fill-opacity="0.40" />
<rect width="1" height="1" x="11" y="4" fill="#e6e6e6"                     fill-opacity="0.40" />
<rect width="1" height="1" x="12" y="4" fill="#e6e6e6"                     fill-opacity="0.40" />
<rect width="1" height="1" x="13" y="4" fill="#e6e6e6"                     fill-opacity="0.39" />
<rect width="1" height="1" x="14" y="4" fill="#e6e6e6"                     fill-opacity="0.37" />
<rect width="1" height="1" x="15" y="4" fill="#e6e6e6"                     fill-opacity="0.82" />
<rect width="1" height="1" x="16" y="4" fill="#e6e6e6"                     fill-opacity="0.80" />
<rect width="1" height="1" x="2" y="5" fill="#e6e6e6"                     fill-opacity="0.55" />
<rect width="1" height="1" x="3" y="5" fill="#e6e6e6"                     fill-opacity="0.94" />
<rect width="1" height="1" x="4" y="5" fill="#e6e6e6"                     fill-opacity="0.31" />
<rect width="1" height="1" x="15" y="5" fill="#e6e6e6"                     fill-opacity="0.55" />
<rect width="1" height="1" x="16" y="5" fill="#e6e6e6"                     fill-opacity="0.81" />
<rect width="1" height="1" x="2" y="6" fill="#e6e6e6"                     fill-opacity="0.53" />
<rect width="1" height="1" x="3" y="6" fill="#e6e6e6"                     fill-opacity="0.93" />
<rect width="1" height="1" x="4" y="6" fill="#e6e6e6"                     fill-opacity="0.38" />
<rect width="1" height="1" x="15" y="6" fill="#e6e6e6"                     fill-opacity="0.61" />
<rect width="1" height="1" x="16" y="6" fill="#e6e6e6"                     fill-opacity="0.81" />
<rect width="1" height="1" x="2" y="7" fill="#e6e6e6"                     fill-opacity="0.53" />
<rect width="1" height="1" x="3" y="7" fill="#e6e6e6"                     fill-opacity="0.93" />
<rect width="1" height="1" x="4" y="7" fill="#e6e6e6"                     fill-opacity="0.39" />
<rect width="1" height="1" x="15" y="7" fill="#e6e6e6"                     fill-opacity="0.61" />
<rect width="1" height="1" x="16" y="7" fill="#e6e6e6"                     fill-opacity="0.81" />
<rect width="1" height="1" x="2" y="8" fill="#e6e6e6"                     fill-opacity="0.53" />
<rect width="1" height="1" x="3" y="8" fill="#e6e6e6"                     fill-opacity="0.93" />
<rect width="1" height="1" x="4" y="8" fill="#e6e6e6"                     fill-opacity="0.39" />
<rect width="1" height="1" x="15" y="8" fill="#e6e6e6"                     fill-opacity="0.61" />
<rect width="1" height="1" x="16" y="8" fill="#e6e6e6"                     fill-opacity="0.81" />
<rect width="1" height="1" x="2" y="9" fill="#e6e6e6"                     fill-opacity="0.53" />
<rect width="1" height="1" x="3" y="9" fill="#e6e6e6"                     fill-opacity="0.93" />
<rect width="1" height="1" x="4" y="9" fill="#e6e6e6"                     fill-opacity="0.39" />
<rect width="1" height="1" x="15" y="9" fill="#e6e6e6"                     fill-opacity="0.61" />
<rect width="1" height="1" x="16" y="9" fill="#e6e6e6"                     fill-opacity="0.81" />
<rect width="1" height="1" x="2" y="10" fill="#e6e6e6"                     fill-opacity="0.53" />
<rect width="1" height="1" x="3" y="10" fill="#e6e6e6"                     fill-opacity="0.93" />
<rect width="1" height="1" x="4" y="10" fill="#e6e6e6"                     fill-opacity="0.39" />
<rect width="1" height="1" x="15" y="10" fill="#e6e6e6"                     fill-opacity="0.61" />
<rect width="1" height="1" x="16" y="10" fill="#e6e6e6"                     fill-opacity="0.81" />
<rect width="1" height="1" x="2" y="11" fill="#e6e6e6"                     fill-opacity="0.53" />
<rect width="1" height="1" x="3" y="11" fill="#e6e6e6"                     fill-opacity="0.93" />
<rect width="1" height="1" x="4" y="11" fill="#e6e6e6"                     fill-opacity="0.39" />
<rect width="1" height="1" x="15" y="11" fill="#e6e6e6"                     fill-opacity="0.61" />
<rect width="1" height="1" x="16" y="11" fill="#e6e6e6"                     fill-opacity="0.81" />
<rect width="1" height="1" x="2" y="12" fill="#e6e6e6"                     fill-opacity="0.53" />
<rect width="1" height="1" x="3" y="12" fill="#e6e6e6"                     fill-opacity="0.93" />
<rect width="1" height="1" x="4" y="12" fill="#e6e6e6"                     fill-opacity="0.39" />
<rect width="1" height="1" x="15" y="12" fill="#e6e6e6"                     fill-opacity="0.61" />
<rect width="1" height="1" x="16" y="12" fill="#e6e6e6"                     fill-opacity="0.81" />
<rect width="1" height="1" x="2" y="13" fill="#e6e6e6"                     fill-opacity="0.53" />
<rect width="1" height="1" x="3" y="13" fill="#e6e6e6"                     fill-opacity="0.93" />
<rect width="1" height="1" x="4" y="13" fill="#e6e6e6"                     fill-opacity="0.38" />
<rect width="1" height="1" x="15" y="13" fill="#e6e6e6"                     fill-opacity="0.60" />
<rect width="1" height="1" x="16" y="13" fill="#e6e6e6"                     fill-opacity="0.81" />
<rect width="1" height="1" x="2" y="14" fill="#e6e6e6"                     fill-opacity="0.55" />
<rect width="1" height="1" x="3" y="14" fill="#e6e6e6"                     fill-opacity="0.95" />
<rect width="1" height="1" x="4" y="14" fill="#e6e6e6"                     fill-opacity="0.33" />
<rect width="1" height="1" x="15" y="14" fill="#e6e6e6"                     fill-opacity="0.56" />
<rect width="1" height="1" x="16" y="14" fill="#e6e6e6"                     fill-opacity="0.82" />
<rect width="1" height="1" x="2" y="15" fill="#e6e6e6"                     fill-opacity="0.49" />
<rect width="1" height="1" x="3" y="15" fill="#e6e6e6"                     fill-opacity="0.91" />
<rect width="1" height="1" x="4" y="15" fill="#e6e6e6"                     fill-opacity="0.78" />
<rect width="1" height="1" x="5" y="15" fill="#e6e6e6"                     fill-opacity="0.54" />
<rect width="1" height="1" x="6" y="15" fill="#e6e6e6"                     fill-opacity="0.59" />
<rect width="1" height="1" x="7" y="15" fill="#e6e6e6"                     fill-opacity="0.59" />
<rect width="1" height="1" x="8" y="15" fill="#e6e6e6"                     fill-opacity="0.59" />
<rect width="1" height="1" x="9" y="15" fill="#e6e6e6"                     fill-opacity="0.59" />
<rect width="1" height="1" x="10" y="15" fill="#e6e6e6"                     fill-opacity="0.59" />
<rect width="1" height="1" x="11" y="15" fill="#e6e6e6"                     fill-opacity="0.59" />
<rect width="1" height="1" x="12" y="15" fill="#e6e6e6"                     fill-opacity="0.59" />
<rect width="1" height="1" x="13" y="15" fill="#e6e6e6"                     fill-opacity="0.59" />
<rect width="1" height="1" x="14" y="15" fill="#e6e6e6"                     fill-opacity="0.56" />
<rect width="1" height="1" x="15" y="15" fill="#e6e6e6"                     fill-opacity="0.92" />
<rect width="1" height="1" x="16" y="15" fill="#e6e6e6"                     fill-opacity="0.78" />
<rect width="1" height="1" x="2" y="16" fill="#e6e6e6"                     fill-opacity="0.17" />
<rect width="1" height="1" x="3" y="16" fill="#e6e6e6"                     fill-opacity="0.52" />
<rect width="1" height="1" x="4" y="16" fill="#e6e6e6"                     fill-opacity="0.86" />
<rect width="1" height="1" x="5" y="16" fill="#e6e6e6"                     fill-opacity="0.83" />
<rect width="1" height="1" x="6" y="16" fill="#e6e6e6"                     fill-opacity="0.82" />
<rect width="1" height="1" x="7" y="16" fill="#e6e6e6"                     fill-opacity="0.82" />
<rect width="1" height="1" x="8" y="16" fill="#e6e6e6"                     fill-opacity="0.82" />
<rect width="1" height="1" x="9" y="16" fill="#e6e6e6"                     fill-opacity="0.82" />
<rect width="1" height="1" x="10" y="16" fill="#e6e6e6"                     fill-opacity="0.82" />
<rect width="1" height="1" x="11" y="16" fill="#e6e6e6"                     fill-opacity="0.82" />
<rect width="1" height="1" x="12" y="16" fill="#e6e6e6"                     fill-opacity="0.82" />
<rect width="1" height="1" x="13" y="16" fill="#e6e6e6"                     fill-opacity="0.82" />
<rect width="1" height="1" x="14" y="16" fill="#e6e6e6"                     fill-opacity="0.83" />
<rect width="1" height="1" x="15" y="16" fill="#e6e6e6"                     fill-opacity="0.83" />
<rect width="1" height="1" x="16" y="16" fill="#e6e6e6"                     fill-opacity="0.39" />
<rect width="1" height="1" x="4" y="17" fill="#e6e6e6"                     fill-opacity="0.01" />
<rect width="1" height="1" x="15" y="17" fill="#e6e6e6"                     fill-opacity="0.01" />
</svg>
