<?xml version="1.0" encoding="UTF-8" standalone="no"?>
<svg id="svg2" xmlns="http://www.w3.org/2000/svg" version="1.1"                 width="20" height="20" viewBox="0 0 20 20">
<rect width="1" height="1" x="0" y="16" fill="#e6e6e6"                     fill-opacity="0.04" />
<rect width="1" height="1" x="1" y="16" fill="#e6e6e6"                     fill-opacity="0.09" />
<rect width="1" height="1" x="2" y="16" fill="#e6e6e6"                     fill-opacity="0.31" />
<rect width="1" height="1" x="3" y="16" fill="#e6e6e6"                     fill-opacity="0.31" />
<rect width="1" height="1" x="4" y="16" fill="#e6e6e6"                     fill-opacity="0.31" />
<rect width="1" height="1" x="5" y="16" fill="#e6e6e6"                     fill-opacity="0.31" />
<rect width="1" height="1" x="6" y="16" fill="#e6e6e6"                     fill-opacity="0.31" />
<rect width="1" height="1" x="7" y="16" fill="#e6e6e6"                     fill-opacity="0.31" />
<rect width="1" height="1" x="8" y="16" fill="#e6e6e6"                     fill-opacity="0.31" />
<rect width="1" height="1" x="9" y="16" fill="#e6e6e6"                     fill-opacity="0.31" />
<rect width="1" height="1" x="10" y="16" fill="#e6e6e6"                     fill-opacity="0.31" />
<rect width="1" height="1" x="11" y="16" fill="#e6e6e6"                     fill-opacity="0.31" />
<rect width="1" height="1" x="12" y="16" fill="#e6e6e6"                     fill-opacity="0.31" />
<rect width="1" height="1" x="13" y="16" fill="#e6e6e6"                     fill-opacity="0.31" />
<rect width="1" height="1" x="14" y="16" fill="#e6e6e6"                     fill-opacity="0.31" />
<rect width="1" height="1" x="15" y="16" fill="#e6e6e6"                     fill-opacity="0.31" />
<rect width="1" height="1" x="16" y="16" fill="#e6e6e6"                     fill-opacity="0.32" />
<rect width="1" height="1" x="17" y="16" fill="#e6e6e6"                     fill-opacity="0.28" />
<rect width="1" height="1" x="18" y="16" fill="#e6e6e6"                     fill-opacity="0.20" />
<rect width="1" height="1" x="0" y="17" fill="#e6e6e6"                     fill-opacity="0.09" />
<rect width="1" height="1" x="1" y="17" fill="#e6e6e6"                     fill-opacity="0.21" />
<rect width="1" height="1" x="2" y="17" fill="#e6e6e6"                     fill-opacity="0.69" />
<rect width="1" height="1" x="3" y="17" fill="#e6e6e6"                     fill-opacity="0.69" />
<rect width="1" height="1" x="4" y="17" fill="#e6e6e6"                     fill-opacity="0.69" />
<rect width="1" height="1" x="5" y="17" fill="#e6e6e6"                     fill-opacity="0.69" />
<rect width="1" height="1" x="6" y="17" fill="#e6e6e6"                     fill-opacity="0.69" />
<rect width="1" height="1" x="7" y="17" fill="#e6e6e6"                     fill-opacity="0.69" />
<rect width="1" height="1" x="8" y="17" fill="#e6e6e6"                     fill-opacity="0.69" />
<rect width="1" height="1" x="9" y="17" fill="#e6e6e6"                     fill-opacity="0.69" />
<rect width="1" height="1" x="10" y="17" fill="#e6e6e6"                     fill-opacity="0.69" />
<rect width="1" height="1" x="11" y="17" fill="#e6e6e6"                     fill-opacity="0.69" />
<rect width="1" height="1" x="12" y="17" fill="#e6e6e6"                     fill-opacity="0.69" />
<rect width="1" height="1" x="13" y="17" fill="#e6e6e6"                     fill-opacity="0.69" />
<rect width="1" height="1" x="14" y="17" fill="#e6e6e6"                     fill-opacity="0.69" />
<rect width="1" height="1" x="15" y="17" fill="#e6e6e6"                     fill-opacity="0.69" />
<rect width="1" height="1" x="16" y="17" fill="#e6e6e6"                     fill-opacity="0.69" />
<rect width="1" height="1" x="17" y="17" fill="#e6e6e6"                     fill-opacity="0.63" />
<rect width="1" height="1" x="18" y="17" fill="#e6e6e6"                     fill-opacity="0.43" />
<rect width="1" height="1" x="0" y="18" fill="#e6e6e6"                     fill-opacity="0.09" />
<rect width="1" height="1" x="1" y="18" fill="#e6e6e6"                     fill-opacity="0.21" />
<rect width="1" height="1" x="2" y="18" fill="#e6e6e6"                     fill-opacity="0.78" />
<rect width="1" height="1" x="3" y="18" fill="#e6e6e6"                     fill-opacity="0.78" />
<rect width="1" height="1" x="4" y="18" fill="#e6e6e6"                     fill-opacity="0.75" />
<rect width="1" height="1" x="5" y="18" fill="#e6e6e6"                     fill-opacity="0.75" />
<rect width="1" height="1" x="6" y="18" fill="#e6e6e6"                     fill-opacity="0.75" />
<rect width="1" height="1" x="7" y="18" fill="#e6e6e6"                     fill-opacity="0.75" />
<rect width="1" height="1" x="8" y="18" fill="#e6e6e6"                     fill-opacity="0.75" />
<rect width="1" height="1" x="9" y="18" fill="#e6e6e6"                     fill-opacity="0.75" />
<rect width="1" height="1" x="10" y="18" fill="#e6e6e6"                     fill-opacity="0.75" />
<rect width="1" height="1" x="11" y="18" fill="#e6e6e6"                     fill-opacity="0.75" />
<rect width="1" height="1" x="12" y="18" fill="#e6e6e6"                     fill-opacity="0.75" />
<rect width="1" height="1" x="13" y="18" fill="#e6e6e6"                     fill-opacity="0.75" />
<rect width="1" height="1" x="14" y="18" fill="#e6e6e6"                     fill-opacity="0.75" />
<rect width="1" height="1" x="15" y="18" fill="#e6e6e6"                     fill-opacity="0.75" />
<rect width="1" height="1" x="16" y="18" fill="#e6e6e6"                     fill-opacity="0.79" />
<rect width="1" height="1" x="17" y="18" fill="#e6e6e6"                     fill-opacity="0.71" />
<rect width="1" height="1" x="18" y="18" fill="#e6e6e6"                     fill-opacity="0.47" />
<rect width="1" height="1" x="0" y="19" fill="#e6e6e6"                     fill-opacity="0.05" />
<rect width="1" height="1" x="1" y="19" fill="#e6e6e6"                     fill-opacity="0.14" />
<rect width="1" height="1" x="2" y="19" fill="#e6e6e6"                     fill-opacity="0.55" />
<rect width="1" height="1" x="3" y="19" fill="#e6e6e6"                     fill-opacity="0.55" />
<rect width="1" height="1" x="4" y="19" fill="#e6e6e6"                     fill-opacity="0.52" />
<rect width="1" height="1" x="5" y="19" fill="#e6e6e6"                     fill-opacity="0.52" />
<rect width="1" height="1" x="6" y="19" fill="#e6e6e6"                     fill-opacity="0.52" />
<rect width="1" height="1" x="7" y="19" fill="#e6e6e6"                     fill-opacity="0.52" />
<rect width="1" height="1" x="8" y="19" fill="#e6e6e6"                     fill-opacity="0.52" />
<rect width="1" height="1" x="9" y="19" fill="#e6e6e6"                     fill-opacity="0.52" />
<rect width="1" height="1" x="10" y="19" fill="#e6e6e6"                     fill-opacity="0.52" />
<rect width="1" height="1" x="11" y="19" fill="#e6e6e6"                     fill-opacity="0.52" />
<rect width="1" height="1" x="12" y="19" fill="#e6e6e6"                     fill-opacity="0.52" />
<rect width="1" height="1" x="13" y="19" fill="#e6e6e6"                     fill-opacity="0.52" />
<rect width="1" height="1" x="14" y="19" fill="#e6e6e6"                     fill-opacity="0.52" />
<rect width="1" height="1" x="15" y="19" fill="#e6e6e6"                     fill-opacity="0.52" />
<rect width="1" height="1" x="16" y="19" fill="#e6e6e6"                     fill-opacity="0.56" />
<rect width="1" height="1" x="17" y="19" fill="#e6e6e6"                     fill-opacity="0.49" />
<rect width="1" height="1" x="18" y="19" fill="#e6e6e6"                     fill-opacity="0.32" />
</svg>
