<?xml version="1.0" encoding="UTF-8" standalone="no"?>
<svg id="svg2" xmlns="http://www.w3.org/2000/svg" version="1.1"                 width="20" height="20" viewBox="0 0 20 20">
<rect width="1" height="1" x="8" y="0" fill="#e6e6e6"                     fill-opacity="0.25" />
<rect width="1" height="1" x="9" y="0" fill="#e6e6e6"                     fill-opacity="0.58" />
<rect width="1" height="1" x="10" y="0" fill="#e6e6e6"                     fill-opacity="0.53" />
<rect width="1" height="1" x="11" y="0" fill="#e6e6e6"                     fill-opacity="0.16" />
<rect width="1" height="1" x="7" y="1" fill="#e6e6e6"                     fill-opacity="0.44" />
<rect width="1" height="1" x="8" y="1" fill="#e6e6e6"                     fill-opacity="1.00" />
<rect width="1" height="1" x="9" y="1" fill="#e6e6e6"                     fill-opacity="0.81" />
<rect width="1" height="1" x="10" y="1" fill="#e6e6e6"                     fill-opacity="0.87" />
<rect width="1" height="1" x="11" y="1" fill="#e6e6e6"                     fill-opacity="0.98" />
<rect width="1" height="1" x="12" y="1" fill="#e6e6e6"                     fill-opacity="0.21" />
<rect width="1" height="1" x="6" y="2" fill="#e6e6e6"                     fill-opacity="0.15" />
<rect width="1" height="1" x="7" y="2" fill="#e6e6e6"                     fill-opacity="1.00" />
<rect width="1" height="1" x="8" y="2" fill="#e6e6e6"                     fill-opacity="0.61" />
<rect width="1" height="1" x="10" y="2" fill="#e6e6e6"                     fill-opacity="0.05" />
<rect width="1" height="1" x="11" y="2" fill="#e6e6e6"                     fill-opacity="0.80" />
<rect width="1" height="1" x="12" y="2" fill="#e6e6e6"                     fill-opacity="0.90" />
<rect width="1" height="1" x="13" y="2" fill="#e6e6e6"                     fill-opacity="0.02" />
<rect width="1" height="1" x="6" y="3" fill="#e6e6e6"                     fill-opacity="0.15" />
<rect width="1" height="1" x="7" y="3" fill="#e6e6e6"                     fill-opacity="1.00" />
<rect width="1" height="1" x="8" y="3" fill="#e6e6e6"                     fill-opacity="0.58" />
<rect width="1" height="1" x="10" y="3" fill="#e6e6e6"                     fill-opacity="0.01" />
<rect width="1" height="1" x="11" y="3" fill="#e6e6e6"                     fill-opacity="0.78" />
<rect width="1" height="1" x="12" y="3" fill="#e6e6e6"                     fill-opacity="0.91" />
<rect width="1" height="1" x="13" y="3" fill="#e6e6e6"                     fill-opacity="0.02" />
<rect width="1" height="1" x="6" y="4" fill="#e6e6e6"                     fill-opacity="0.00" />
<rect width="1" height="1" x="7" y="4" fill="#e6e6e6"                     fill-opacity="0.49" />
<rect width="1" height="1" x="8" y="4" fill="#e6e6e6"                     fill-opacity="0.97" />
<rect width="1" height="1" x="9" y="4" fill="#e6e6e6"                     fill-opacity="0.82" />
<rect width="1" height="1" x="10" y="4" fill="#e6e6e6"                     fill-opacity="0.88" />
<rect width="1" height="1" x="11" y="4" fill="#e6e6e6"                     fill-opacity="0.94" />
<rect width="1" height="1" x="12" y="4" fill="#e6e6e6"                     fill-opacity="0.25" />
<rect width="1" height="1" x="8" y="5" fill="#e6e6e6"                     fill-opacity="0.30" />
<rect width="1" height="1" x="9" y="5" fill="#e6e6e6"                     fill-opacity="0.63" />
<rect width="1" height="1" x="10" y="5" fill="#e6e6e6"                     fill-opacity="0.59" />
<rect width="1" height="1" x="11" y="5" fill="#e6e6e6"                     fill-opacity="0.19" />
<rect width="1" height="1" x="8" y="7" fill="#e6e6e6"                     fill-opacity="0.37" />
<rect width="1" height="1" x="9" y="7" fill="#e6e6e6"                     fill-opacity="0.68" />
<rect width="1" height="1" x="10" y="7" fill="#e6e6e6"                     fill-opacity="0.65" />
<rect width="1" height="1" x="11" y="7" fill="#e6e6e6"                     fill-opacity="0.24" />
<rect width="1" height="1" x="7" y="8" fill="#e6e6e6"                     fill-opacity="0.51" />
<rect width="1" height="1" x="8" y="8" fill="#e6e6e6"                     fill-opacity="1.00" />
<rect width="1" height="1" x="9" y="8" fill="#e6e6e6"                     fill-opacity="0.78" />
<rect width="1" height="1" x="10" y="8" fill="#e6e6e6"                     fill-opacity="0.87" />
<rect width="1" height="1" x="11" y="8" fill="#e6e6e6"                     fill-opacity="0.97" />
<rect width="1" height="1" x="12" y="8" fill="#e6e6e6"                     fill-opacity="0.32" />
<rect width="1" height="1" x="6" y="9" fill="#e6e6e6"                     fill-opacity="0.15" />
<rect width="1" height="1" x="7" y="9" fill="#e6e6e6"                     fill-opacity="1.00" />
<rect width="1" height="1" x="8" y="9" fill="#e6e6e6"                     fill-opacity="0.56" />
<rect width="1" height="1" x="11" y="9" fill="#e6e6e6"                     fill-opacity="0.78" />
<rect width="1" height="1" x="12" y="9" fill="#e6e6e6"                     fill-opacity="0.95" />
<rect width="1" height="1" x="13" y="9" fill="#e6e6e6"                     fill-opacity="0.03" />
<rect width="1" height="1" x="6" y="10" fill="#e6e6e6"                     fill-opacity="0.13" />
<rect width="1" height="1" x="7" y="10" fill="#e6e6e6"                     fill-opacity="1.00" />
<rect width="1" height="1" x="8" y="10" fill="#e6e6e6"                     fill-opacity="0.65" />
<rect width="1" height="1" x="9" y="10" fill="#e6e6e6"                     fill-opacity="0.07" />
<rect width="1" height="1" x="10" y="10" fill="#e6e6e6"                     fill-opacity="0.09" />
<rect width="1" height="1" x="11" y="10" fill="#e6e6e6"                     fill-opacity="0.87" />
<rect width="1" height="1" x="12" y="10" fill="#e6e6e6"                     fill-opacity="0.85" />
<rect width="1" height="1" x="13" y="10" fill="#e6e6e6"                     fill-opacity="0.02" />
<rect width="1" height="1" x="7" y="11" fill="#e6e6e6"                     fill-opacity="0.37" />
<rect width="1" height="1" x="8" y="11" fill="#e6e6e6"                     fill-opacity="0.95" />
<rect width="1" height="1" x="9" y="11" fill="#e6e6e6"                     fill-opacity="0.98" />
<rect width="1" height="1" x="10" y="11" fill="#e6e6e6"                     fill-opacity="0.99" />
<rect width="1" height="1" x="11" y="11" fill="#e6e6e6"                     fill-opacity="0.85" />
<rect width="1" height="1" x="12" y="11" fill="#e6e6e6"                     fill-opacity="0.21" />
<rect width="1" height="1" x="5" y="12" fill="#e6e6e6"                     fill-opacity="0.00" />
<rect width="1" height="1" x="8" y="12" fill="#e6e6e6"                     fill-opacity="0.19" />
<rect width="1" height="1" x="9" y="12" fill="#e6e6e6"                     fill-opacity="0.50" />
<rect width="1" height="1" x="10" y="12" fill="#e6e6e6"                     fill-opacity="0.45" />
<rect width="1" height="1" x="11" y="12" fill="#e6e6e6"                     fill-opacity="0.09" />
<rect width="1" height="1" x="7" y="14" fill="#e6e6e6"                     fill-opacity="0.02" />
<rect width="1" height="1" x="8" y="14" fill="#e6e6e6"                     fill-opacity="0.51" />
<rect width="1" height="1" x="9" y="14" fill="#e6e6e6"                     fill-opacity="0.82" />
<rect width="1" height="1" x="10" y="14" fill="#e6e6e6"                     fill-opacity="0.79" />
<rect width="1" height="1" x="11" y="14" fill="#e6e6e6"                     fill-opacity="0.36" />
<rect width="1" height="1" x="6" y="15" fill="#e6e6e6"                     fill-opacity="0.02" />
<rect width="1" height="1" x="7" y="15" fill="#e6e6e6"                     fill-opacity="0.61" />
<rect width="1" height="1" x="8" y="15" fill="#e6e6e6"                     fill-opacity="0.95" />
<rect width="1" height="1" x="9" y="15" fill="#e6e6e6"                     fill-opacity="0.72" />
<rect width="1" height="1" x="10" y="15" fill="#e6e6e6"                     fill-opacity="0.76" />
<rect width="1" height="1" x="11" y="15" fill="#e6e6e6"                     fill-opacity="0.97" />
<rect width="1" height="1" x="12" y="15" fill="#e6e6e6"                     fill-opacity="0.41" />
<rect width="1" height="1" x="13" y="15" fill="#e6e6e6"                     fill-opacity="0.00" />
<rect width="1" height="1" x="6" y="16" fill="#e6e6e6"                     fill-opacity="0.19" />
<rect width="1" height="1" x="7" y="16" fill="#e6e6e6"                     fill-opacity="1.00" />
<rect width="1" height="1" x="8" y="16" fill="#e6e6e6"                     fill-opacity="0.45" />
<rect width="1" height="1" x="11" y="16" fill="#e6e6e6"                     fill-opacity="0.72" />
<rect width="1" height="1" x="12" y="16" fill="#e6e6e6"                     fill-opacity="0.98" />
<rect width="1" height="1" x="13" y="16" fill="#e6e6e6"                     fill-opacity="0.03" />
<rect width="1" height="1" x="6" y="17" fill="#e6e6e6"                     fill-opacity="0.09" />
<rect width="1" height="1" x="7" y="17" fill="#e6e6e6"                     fill-opacity="0.94" />
<rect width="1" height="1" x="8" y="17" fill="#e6e6e6"                     fill-opacity="0.74" />
<rect width="1" height="1" x="9" y="17" fill="#e6e6e6"                     fill-opacity="0.17" />
<rect width="1" height="1" x="10" y="17" fill="#e6e6e6"                     fill-opacity="0.25" />
<rect width="1" height="1" x="11" y="17" fill="#e6e6e6"                     fill-opacity="0.89" />
<rect width="1" height="1" x="12" y="17" fill="#e6e6e6"                     fill-opacity="0.78" />
<rect width="1" height="1" x="13" y="17" fill="#e6e6e6"                     fill-opacity="0.02" />
<rect width="1" height="1" x="7" y="18" fill="#e6e6e6"                     fill-opacity="0.27" />
<rect width="1" height="1" x="8" y="18" fill="#e6e6e6"                     fill-opacity="0.95" />
<rect width="1" height="1" x="9" y="18" fill="#e6e6e6"                     fill-opacity="0.95" />
<rect width="1" height="1" x="10" y="18" fill="#e6e6e6"                     fill-opacity="1.00" />
<rect width="1" height="1" x="11" y="18" fill="#e6e6e6"                     fill-opacity="0.79" />
<rect width="1" height="1" x="12" y="18" fill="#e6e6e6"                     fill-opacity="0.10" />
<rect width="1" height="1" x="6" y="19" fill="#e6e6e6"                     fill-opacity="0.00" />
<rect width="1" height="1" x="8" y="19" fill="#e6e6e6"                     fill-opacity="0.13" />
<rect width="1" height="1" x="9" y="19" fill="#e6e6e6"                     fill-opacity="0.36" />
<rect width="1" height="1" x="10" y="19" fill="#e6e6e6"                     fill-opacity="0.32" />
<rect width="1" height="1" x="11" y="19" fill="#e6e6e6"                     fill-opacity="0.05" />
</svg>
