<?xml version="1.0" encoding="UTF-8" standalone="no"?>
<svg id="svg2" xmlns="http://www.w3.org/2000/svg" version="1.1"                 width="20" height="20" viewBox="0 0 20 20">
<rect width="1" height="1" x="3" y="0" fill="#e6e6e6"                     fill-opacity="0.01" />
<rect width="1" height="1" x="4" y="0" fill="#e6e6e6"                     fill-opacity="0.25" />
<rect width="1" height="1" x="5" y="0" fill="#e6e6e6"                     fill-opacity="0.57" />
<rect width="1" height="1" x="6" y="0" fill="#e6e6e6"                     fill-opacity="0.62" />
<rect width="1" height="1" x="7" y="0" fill="#e6e6e6"                     fill-opacity="0.60" />
<rect width="1" height="1" x="8" y="0" fill="#e6e6e6"                     fill-opacity="0.60" />
<rect width="1" height="1" x="9" y="0" fill="#e6e6e6"                     fill-opacity="0.60" />
<rect width="1" height="1" x="10" y="0" fill="#e6e6e6"                     fill-opacity="0.60" />
<rect width="1" height="1" x="11" y="0" fill="#e6e6e6"                     fill-opacity="0.60" />
<rect width="1" height="1" x="12" y="0" fill="#e6e6e6"                     fill-opacity="0.60" />
<rect width="1" height="1" x="13" y="0" fill="#e6e6e6"                     fill-opacity="0.61" />
<rect width="1" height="1" x="14" y="0" fill="#e6e6e6"                     fill-opacity="0.60" />
<rect width="1" height="1" x="15" y="0" fill="#e6e6e6"                     fill-opacity="0.29" />
<rect width="1" height="1" x="16" y="0" fill="#e6e6e6"                     fill-opacity="0.02" />
<rect width="1" height="1" x="3" y="1" fill="#e6e6e6"                     fill-opacity="0.29" />
<rect width="1" height="1" x="4" y="1" fill="#e6e6e6"                     fill-opacity="0.87" />
<rect width="1" height="1" x="5" y="1" fill="#e6e6e6"                     fill-opacity="0.88" />
<rect width="1" height="1" x="6" y="1" fill="#e6e6e6"                     fill-opacity="0.71" />
<rect width="1" height="1" x="7" y="1" fill="#e6e6e6"                     fill-opacity="0.72" />
<rect width="1" height="1" x="8" y="1" fill="#e6e6e6"                     fill-opacity="0.72" />
<rect width="1" height="1" x="9" y="1" fill="#e6e6e6"                     fill-opacity="0.72" />
<rect width="1" height="1" x="10" y="1" fill="#e6e6e6"                     fill-opacity="0.72" />
<rect width="1" height="1" x="11" y="1" fill="#e6e6e6"                     fill-opacity="0.72" />
<rect width="1" height="1" x="12" y="1" fill="#e6e6e6"                     fill-opacity="0.72" />
<rect width="1" height="1" x="13" y="1" fill="#e6e6e6"                     fill-opacity="0.71" />
<rect width="1" height="1" x="14" y="1" fill="#e6e6e6"                     fill-opacity="0.83" />
<rect width="1" height="1" x="15" y="1" fill="#e6e6e6"                     fill-opacity="0.91" />
<rect width="1" height="1" x="16" y="1" fill="#e6e6e6"                     fill-opacity="0.38" />
<rect width="1" height="1" x="3" y="2" fill="#e6e6e6"                     fill-opacity="0.44" />
<rect width="1" height="1" x="4" y="2" fill="#e6e6e6"                     fill-opacity="0.91" />
<rect width="1" height="1" x="5" y="2" fill="#e6e6e6"                     fill-opacity="0.36" />
<rect width="1" height="1" x="7" y="2" fill="#e6e6e6"                     fill-opacity="0.01" />
<rect width="1" height="1" x="8" y="2" fill="#e6e6e6"                     fill-opacity="0.00" />
<rect width="1" height="1" x="9" y="2" fill="#e6e6e6"                     fill-opacity="0.00" />
<rect width="1" height="1" x="10" y="2" fill="#e6e6e6"                     fill-opacity="0.00" />
<rect width="1" height="1" x="11" y="2" fill="#e6e6e6"                     fill-opacity="0.00" />
<rect width="1" height="1" x="12" y="2" fill="#e6e6e6"                     fill-opacity="0.01" />
<rect width="1" height="1" x="14" y="2" fill="#e6e6e6"                     fill-opacity="0.23" />
<rect width="1" height="1" x="15" y="2" fill="#e6e6e6"                     fill-opacity="0.93" />
<rect width="1" height="1" x="16" y="2" fill="#e6e6e6"                     fill-opacity="0.56" />
<rect width="1" height="1" x="3" y="3" fill="#e6e6e6"                     fill-opacity="0.34" />
<rect width="1" height="1" x="4" y="3" fill="#e6e6e6"                     fill-opacity="0.91" />
<rect width="1" height="1" x="5" y="3" fill="#e6e6e6"                     fill-opacity="0.95" />
<rect width="1" height="1" x="6" y="3" fill="#e6e6e6"                     fill-opacity="0.84" />
<rect width="1" height="1" x="7" y="3" fill="#e6e6e6"                     fill-opacity="0.87" />
<rect width="1" height="1" x="8" y="3" fill="#e6e6e6"                     fill-opacity="0.86" />
<rect width="1" height="1" x="9" y="3" fill="#e6e6e6"                     fill-opacity="0.86" />
<rect width="1" height="1" x="10" y="3" fill="#e6e6e6"                     fill-opacity="0.86" />
<rect width="1" height="1" x="11" y="3" fill="#e6e6e6"                     fill-opacity="0.86" />
<rect width="1" height="1" x="12" y="3" fill="#e6e6e6"                     fill-opacity="0.87" />
<rect width="1" height="1" x="13" y="3" fill="#e6e6e6"                     fill-opacity="0.85" />
<rect width="1" height="1" x="14" y="3" fill="#e6e6e6"                     fill-opacity="0.93" />
<rect width="1" height="1" x="15" y="3" fill="#e6e6e6"                     fill-opacity="0.94" />
<rect width="1" height="1" x="16" y="3" fill="#e6e6e6"                     fill-opacity="0.43" />
<rect width="1" height="1" x="3" y="4" fill="#e6e6e6"                     fill-opacity="0.38" />
<rect width="1" height="1" x="4" y="4" fill="#e6e6e6"                     fill-opacity="0.90" />
<rect width="1" height="1" x="5" y="4" fill="#e6e6e6"                     fill-opacity="0.64" />
<rect width="1" height="1" x="6" y="4" fill="#e6e6e6"                     fill-opacity="0.38" />
<rect width="1" height="1" x="7" y="4" fill="#e6e6e6"                     fill-opacity="0.42" />
<rect width="1" height="1" x="8" y="4" fill="#e6e6e6"                     fill-opacity="0.41" />
<rect width="1" height="1" x="9" y="4" fill="#e6e6e6"                     fill-opacity="0.41" />
<rect width="1" height="1" x="10" y="4" fill="#e6e6e6"                     fill-opacity="0.41" />
<rect width="1" height="1" x="11" y="4" fill="#e6e6e6"                     fill-opacity="0.41" />
<rect width="1" height="1" x="12" y="4" fill="#e6e6e6"                     fill-opacity="0.42" />
<rect width="1" height="1" x="13" y="4" fill="#e6e6e6"                     fill-opacity="0.38" />
<rect width="1" height="1" x="14" y="4" fill="#e6e6e6"                     fill-opacity="0.55" />
<rect width="1" height="1" x="15" y="4" fill="#e6e6e6"                     fill-opacity="0.93" />
<rect width="1" height="1" x="16" y="4" fill="#e6e6e6"                     fill-opacity="0.48" />
<rect width="1" height="1" x="3" y="5" fill="#e6e6e6"                     fill-opacity="0.42" />
<rect width="1" height="1" x="4" y="5" fill="#e6e6e6"                     fill-opacity="0.89" />
<rect width="1" height="1" x="5" y="5" fill="#e6e6e6"                     fill-opacity="0.31" />
<rect width="1" height="1" x="14" y="5" fill="#e6e6e6"                     fill-opacity="0.16" />
<rect width="1" height="1" x="15" y="5" fill="#e6e6e6"                     fill-opacity="0.91" />
<rect width="1" height="1" x="16" y="5" fill="#e6e6e6"                     fill-opacity="0.53" />
<rect width="1" height="1" x="3" y="6" fill="#e6e6e6"                     fill-opacity="0.41" />
<rect width="1" height="1" x="4" y="6" fill="#e6e6e6"                     fill-opacity="0.90" />
<rect width="1" height="1" x="5" y="6" fill="#e6e6e6"                     fill-opacity="0.36" />
<rect width="1" height="1" x="14" y="6" fill="#e6e6e6"                     fill-opacity="0.24" />
<rect width="1" height="1" x="15" y="6" fill="#e6e6e6"                     fill-opacity="0.92" />
<rect width="1" height="1" x="16" y="6" fill="#e6e6e6"                     fill-opacity="0.52" />
<rect width="1" height="1" x="3" y="7" fill="#e6e6e6"                     fill-opacity="0.41" />
<rect width="1" height="1" x="4" y="7" fill="#e6e6e6"                     fill-opacity="0.90" />
<rect width="1" height="1" x="5" y="7" fill="#e6e6e6"                     fill-opacity="0.36" />
<rect width="1" height="1" x="7" y="7" fill="#e6e6e6"                     fill-opacity="0.00" />
<rect width="1" height="1" x="12" y="7" fill="#e6e6e6"                     fill-opacity="0.00" />
<rect width="1" height="1" x="14" y="7" fill="#e6e6e6"                     fill-opacity="0.24" />
<rect width="1" height="1" x="15" y="7" fill="#e6e6e6"                     fill-opacity="0.92" />
<rect width="1" height="1" x="16" y="7" fill="#e6e6e6"                     fill-opacity="0.52" />
<rect width="1" height="1" x="3" y="8" fill="#e6e6e6"                     fill-opacity="0.41" />
<rect width="1" height="1" x="4" y="8" fill="#e6e6e6"                     fill-opacity="0.90" />
<rect width="1" height="1" x="5" y="8" fill="#e6e6e6"                     fill-opacity="0.36" />
<rect width="1" height="1" x="7" y="8" fill="#e6e6e6"                     fill-opacity="0.00" />
<rect width="1" height="1" x="12" y="8" fill="#e6e6e6"                     fill-opacity="0.00" />
<rect width="1" height="1" x="14" y="8" fill="#e6e6e6"                     fill-opacity="0.24" />
<rect width="1" height="1" x="15" y="8" fill="#e6e6e6"                     fill-opacity="0.92" />
<rect width="1" height="1" x="16" y="8" fill="#e6e6e6"                     fill-opacity="0.52" />
<rect width="1" height="1" x="3" y="9" fill="#e6e6e6"                     fill-opacity="0.41" />
<rect width="1" height="1" x="4" y="9" fill="#e6e6e6"                     fill-opacity="0.90" />
<rect width="1" height="1" x="5" y="9" fill="#e6e6e6"                     fill-opacity="0.36" />
<rect width="1" height="1" x="7" y="9" fill="#e6e6e6"                     fill-opacity="0.00" />
<rect width="1" height="1" x="12" y="9" fill="#e6e6e6"                     fill-opacity="0.00" />
<rect width="1" height="1" x="14" y="9" fill="#e6e6e6"                     fill-opacity="0.24" />
<rect width="1" height="1" x="15" y="9" fill="#e6e6e6"                     fill-opacity="0.92" />
<rect width="1" height="1" x="16" y="9" fill="#e6e6e6"                     fill-opacity="0.52" />
<rect width="1" height="1" x="3" y="10" fill="#e6e6e6"                     fill-opacity="0.41" />
<rect width="1" height="1" x="4" y="10" fill="#e6e6e6"                     fill-opacity="0.90" />
<rect width="1" height="1" x="5" y="10" fill="#e6e6e6"                     fill-opacity="0.37" />
<rect width="1" height="1" x="7" y="10" fill="#e6e6e6"                     fill-opacity="0.00" />
<rect width="1" height="1" x="12" y="10" fill="#e6e6e6"                     fill-opacity="0.00" />
<rect width="1" height="1" x="14" y="10" fill="#e6e6e6"                     fill-opacity="0.24" />
<rect width="1" height="1" x="15" y="10" fill="#e6e6e6"                     fill-opacity="0.92" />
<rect width="1" height="1" x="16" y="10" fill="#e6e6e6"                     fill-opacity="0.52" />
<rect width="1" height="1" x="3" y="11" fill="#e6e6e6"                     fill-opacity="0.42" />
<rect width="1" height="1" x="4" y="11" fill="#e6e6e6"                     fill-opacity="0.89" />
<rect width="1" height="1" x="5" y="11" fill="#e6e6e6"                     fill-opacity="0.31" />
<rect width="1" height="1" x="14" y="11" fill="#e6e6e6"                     fill-opacity="0.17" />
<rect width="1" height="1" x="15" y="11" fill="#e6e6e6"                     fill-opacity="0.91" />
<rect width="1" height="1" x="16" y="11" fill="#e6e6e6"                     fill-opacity="0.53" />
<rect width="1" height="1" x="3" y="12" fill="#e6e6e6"                     fill-opacity="0.41" />
<rect width="1" height="1" x="4" y="12" fill="#e6e6e6"                     fill-opacity="0.89" />
<rect width="1" height="1" x="5" y="12" fill="#e6e6e6"                     fill-opacity="0.41" />
<rect width="1" height="1" x="6" y="12" fill="#e6e6e6"                     fill-opacity="0.08" />
<rect width="1" height="1" x="7" y="12" fill="#e6e6e6"                     fill-opacity="0.14" />
<rect width="1" height="1" x="8" y="12" fill="#e6e6e6"                     fill-opacity="0.13" />
<rect width="1" height="1" x="9" y="12" fill="#e6e6e6"                     fill-opacity="0.13" />
<rect width="1" height="1" x="10" y="12" fill="#e6e6e6"                     fill-opacity="0.13" />
<rect width="1" height="1" x="11" y="12" fill="#e6e6e6"                     fill-opacity="0.13" />
<rect width="1" height="1" x="12" y="12" fill="#e6e6e6"                     fill-opacity="0.13" />
<rect width="1" height="1" x="13" y="12" fill="#e6e6e6"                     fill-opacity="0.09" />
<rect width="1" height="1" x="14" y="12" fill="#e6e6e6"                     fill-opacity="0.29" />
<rect width="1" height="1" x="15" y="12" fill="#e6e6e6"                     fill-opacity="0.91" />
<rect width="1" height="1" x="16" y="12" fill="#e6e6e6"                     fill-opacity="0.52" />
<rect width="1" height="1" x="3" y="13" fill="#e6e6e6"                     fill-opacity="0.34" />
<rect width="1" height="1" x="4" y="13" fill="#e6e6e6"                     fill-opacity="0.91" />
<rect width="1" height="1" x="5" y="13" fill="#e6e6e6"                     fill-opacity="1.00" />
<rect width="1" height="1" x="6" y="13" fill="#e6e6e6"                     fill-opacity="0.91" />
<rect width="1" height="1" x="7" y="13" fill="#e6e6e6"                     fill-opacity="0.93" />
<rect width="1" height="1" x="8" y="13" fill="#e6e6e6"                     fill-opacity="0.92" />
<rect width="1" height="1" x="9" y="13" fill="#e6e6e6"                     fill-opacity="0.92" />
<rect width="1" height="1" x="10" y="13" fill="#e6e6e6"                     fill-opacity="0.91" />
<rect width="1" height="1" x="11" y="13" fill="#e6e6e6"                     fill-opacity="0.92" />
<rect width="1" height="1" x="12" y="13" fill="#e6e6e6"                     fill-opacity="0.93" />
<rect width="1" height="1" x="13" y="13" fill="#e6e6e6"                     fill-opacity="0.91" />
<rect width="1" height="1" x="14" y="13" fill="#e6e6e6"                     fill-opacity="0.98" />
<rect width="1" height="1" x="15" y="13" fill="#e6e6e6"                     fill-opacity="0.94" />
<rect width="1" height="1" x="16" y="13" fill="#e6e6e6"                     fill-opacity="0.43" />
<rect width="1" height="1" x="3" y="14" fill="#e6e6e6"                     fill-opacity="0.38" />
<rect width="1" height="1" x="4" y="14" fill="#e6e6e6"                     fill-opacity="0.90" />
<rect width="1" height="1" x="5" y="14" fill="#e6e6e6"                     fill-opacity="0.62" />
<rect width="1" height="1" x="6" y="14" fill="#e6e6e6"                     fill-opacity="0.37" />
<rect width="1" height="1" x="7" y="14" fill="#e6e6e6"                     fill-opacity="0.41" />
<rect width="1" height="1" x="8" y="14" fill="#e6e6e6"                     fill-opacity="0.40" />
<rect width="1" height="1" x="9" y="14" fill="#e6e6e6"                     fill-opacity="0.34" />
<rect width="1" height="1" x="10" y="14" fill="#e6e6e6"                     fill-opacity="0.31" />
<rect width="1" height="1" x="11" y="14" fill="#e6e6e6"                     fill-opacity="0.39" />
<rect width="1" height="1" x="12" y="14" fill="#e6e6e6"                     fill-opacity="0.41" />
<rect width="1" height="1" x="13" y="14" fill="#e6e6e6"                     fill-opacity="0.37" />
<rect width="1" height="1" x="14" y="14" fill="#e6e6e6"                     fill-opacity="0.54" />
<rect width="1" height="1" x="15" y="14" fill="#e6e6e6"                     fill-opacity="0.93" />
<rect width="1" height="1" x="16" y="14" fill="#e6e6e6"                     fill-opacity="0.49" />
<rect width="1" height="1" x="3" y="15" fill="#e6e6e6"                     fill-opacity="0.42" />
<rect width="1" height="1" x="4" y="15" fill="#e6e6e6"                     fill-opacity="0.89" />
<rect width="1" height="1" x="5" y="15" fill="#e6e6e6"                     fill-opacity="0.31" />
<rect width="1" height="1" x="9" y="15" fill="#e6e6e6"                     fill-opacity="0.25" />
<rect width="1" height="1" x="10" y="15" fill="#e6e6e6"                     fill-opacity="0.38" />
<rect width="1" height="1" x="14" y="15" fill="#e6e6e6"                     fill-opacity="0.17" />
<rect width="1" height="1" x="15" y="15" fill="#e6e6e6"                     fill-opacity="0.91" />
<rect width="1" height="1" x="16" y="15" fill="#e6e6e6"                     fill-opacity="0.53" />
<rect width="1" height="1" x="3" y="16" fill="#e6e6e6"                     fill-opacity="0.42" />
<rect width="1" height="1" x="4" y="16" fill="#e6e6e6"                     fill-opacity="0.89" />
<rect width="1" height="1" x="5" y="16" fill="#e6e6e6"                     fill-opacity="0.31" />
<rect width="1" height="1" x="9" y="16" fill="#e6e6e6"                     fill-opacity="0.40" />
<rect width="1" height="1" x="10" y="16" fill="#e6e6e6"                     fill-opacity="0.61" />
<rect width="1" height="1" x="14" y="16" fill="#e6e6e6"                     fill-opacity="0.17" />
<rect width="1" height="1" x="15" y="16" fill="#e6e6e6"                     fill-opacity="0.91" />
<rect width="1" height="1" x="16" y="16" fill="#e6e6e6"                     fill-opacity="0.53" />
<rect width="1" height="1" x="3" y="17" fill="#e6e6e6"                     fill-opacity="0.44" />
<rect width="1" height="1" x="4" y="17" fill="#e6e6e6"                     fill-opacity="0.91" />
<rect width="1" height="1" x="5" y="17" fill="#e6e6e6"                     fill-opacity="0.40" />
<rect width="1" height="1" x="6" y="17" fill="#e6e6e6"                     fill-opacity="0.08" />
<rect width="1" height="1" x="7" y="17" fill="#e6e6e6"                     fill-opacity="0.14" />
<rect width="1" height="1" x="8" y="17" fill="#e6e6e6"                     fill-opacity="0.13" />
<rect width="1" height="1" x="9" y="17" fill="#e6e6e6"                     fill-opacity="0.04" />
<rect width="1" height="1" x="10" y="17" fill="#e6e6e6"                     fill-opacity="0.01" />
<rect width="1" height="1" x="11" y="17" fill="#e6e6e6"                     fill-opacity="0.12" />
<rect width="1" height="1" x="12" y="17" fill="#e6e6e6"                     fill-opacity="0.14" />
<rect width="1" height="1" x="13" y="17" fill="#e6e6e6"                     fill-opacity="0.09" />
<rect width="1" height="1" x="14" y="17" fill="#e6e6e6"                     fill-opacity="0.29" />
<rect width="1" height="1" x="15" y="17" fill="#e6e6e6"                     fill-opacity="0.93" />
<rect width="1" height="1" x="16" y="17" fill="#e6e6e6"                     fill-opacity="0.56" />
<rect width="1" height="1" x="3" y="18" fill="#e6e6e6"                     fill-opacity="0.21" />
<rect width="1" height="1" x="4" y="18" fill="#e6e6e6"                     fill-opacity="0.77" />
<rect width="1" height="1" x="5" y="18" fill="#e6e6e6"                     fill-opacity="1.00" />
<rect width="1" height="1" x="6" y="18" fill="#e6e6e6"                     fill-opacity="0.91" />
<rect width="1" height="1" x="7" y="18" fill="#e6e6e6"                     fill-opacity="0.93" />
<rect width="1" height="1" x="8" y="18" fill="#e6e6e6"                     fill-opacity="0.92" />
<rect width="1" height="1" x="9" y="18" fill="#e6e6e6"                     fill-opacity="0.89" />
<rect width="1" height="1" x="10" y="18" fill="#e6e6e6"                     fill-opacity="0.87" />
<rect width="1" height="1" x="11" y="18" fill="#e6e6e6"                     fill-opacity="0.92" />
<rect width="1" height="1" x="12" y="18" fill="#e6e6e6"                     fill-opacity="0.93" />
<rect width="1" height="1" x="13" y="18" fill="#e6e6e6"                     fill-opacity="0.91" />
<rect width="1" height="1" x="14" y="18" fill="#e6e6e6"                     fill-opacity="0.99" />
<rect width="1" height="1" x="15" y="18" fill="#e6e6e6"                     fill-opacity="0.83" />
<rect width="1" height="1" x="16" y="18" fill="#e6e6e6"                     fill-opacity="0.28" />
<rect width="1" height="1" x="4" y="19" fill="#e6e6e6"                     fill-opacity="0.12" />
<rect width="1" height="1" x="5" y="19" fill="#e6e6e6"                     fill-opacity="0.38" />
<rect width="1" height="1" x="6" y="19" fill="#e6e6e6"                     fill-opacity="0.42" />
<rect width="1" height="1" x="7" y="19" fill="#e6e6e6"                     fill-opacity="0.40" />
<rect width="1" height="1" x="8" y="19" fill="#e6e6e6"                     fill-opacity="0.40" />
<rect width="1" height="1" x="9" y="19" fill="#e6e6e6"                     fill-opacity="0.41" />
<rect width="1" height="1" x="10" y="19" fill="#e6e6e6"                     fill-opacity="0.41" />
<rect width="1" height="1" x="11" y="19" fill="#e6e6e6"                     fill-opacity="0.40" />
<rect width="1" height="1" x="12" y="19" fill="#e6e6e6"                     fill-opacity="0.40" />
<rect width="1" height="1" x="13" y="19" fill="#e6e6e6"                     fill-opacity="0.41" />
<rect width="1" height="1" x="14" y="19" fill="#e6e6e6"                     fill-opacity="0.40" />
<rect width="1" height="1" x="15" y="19" fill="#e6e6e6"                     fill-opacity="0.15" />
</svg>
