<?xml version="1.0" encoding="UTF-8" standalone="no"?>
<svg id="svg2" xmlns="http://www.w3.org/2000/svg" version="1.1"                 width="20" height="20" viewBox="0 0 20 20">
<rect width="1" height="1" x="3" y="0" fill="#e6e6e6"                     fill-opacity="0.19" />
<rect width="1" height="1" x="4" y="0" fill="#e6e6e6"                     fill-opacity="0.60" />
<rect width="1" height="1" x="5" y="0" fill="#e6e6e6"                     fill-opacity="0.33" />
<rect width="1" height="1" x="8" y="0" fill="#e6e6e6"                     fill-opacity="0.19" />
<rect width="1" height="1" x="9" y="0" fill="#e6e6e6"                     fill-opacity="0.60" />
<rect width="1" height="1" x="10" y="0" fill="#e6e6e6"                     fill-opacity="0.33" />
<rect width="1" height="1" x="13" y="0" fill="#e6e6e6"                     fill-opacity="0.19" />
<rect width="1" height="1" x="14" y="0" fill="#e6e6e6"                     fill-opacity="0.60" />
<rect width="1" height="1" x="15" y="0" fill="#e6e6e6"                     fill-opacity="0.32" />
<rect width="1" height="1" x="2" y="1" fill="#e6e6e6"                     fill-opacity="0.14" />
<rect width="1" height="1" x="3" y="1" fill="#e6e6e6"                     fill-opacity="0.86" />
<rect width="1" height="1" x="4" y="1" fill="#e6e6e6"                     fill-opacity="0.90" />
<rect width="1" height="1" x="5" y="1" fill="#e6e6e6"                     fill-opacity="0.91" />
<rect width="1" height="1" x="6" y="1" fill="#e6e6e6"                     fill-opacity="0.24" />
<rect width="1" height="1" x="7" y="1" fill="#e6e6e6"                     fill-opacity="0.07" />
<rect width="1" height="1" x="8" y="1" fill="#e6e6e6"                     fill-opacity="0.85" />
<rect width="1" height="1" x="9" y="1" fill="#e6e6e6"                     fill-opacity="0.91" />
<rect width="1" height="1" x="10" y="1" fill="#e6e6e6"                     fill-opacity="0.91" />
<rect width="1" height="1" x="11" y="1" fill="#e6e6e6"                     fill-opacity="0.24" />
<rect width="1" height="1" x="12" y="1" fill="#e6e6e6"                     fill-opacity="0.07" />
<rect width="1" height="1" x="13" y="1" fill="#e6e6e6"                     fill-opacity="0.85" />
<rect width="1" height="1" x="14" y="1" fill="#e6e6e6"                     fill-opacity="0.91" />
<rect width="1" height="1" x="15" y="1" fill="#e6e6e6"                     fill-opacity="0.92" />
<rect width="1" height="1" x="16" y="1" fill="#e6e6e6"                     fill-opacity="0.31" />
<rect width="1" height="1" x="17" y="1" fill="#e6e6e6"                     fill-opacity="0.01" />
<rect width="1" height="1" x="1" y="2" fill="#e6e6e6"                     fill-opacity="0.07" />
<rect width="1" height="1" x="2" y="2" fill="#e6e6e6"                     fill-opacity="0.37" />
<rect width="1" height="1" x="3" y="2" fill="#e6e6e6"                     fill-opacity="1.00" />
<rect width="1" height="1" x="4" y="2" fill="#e6e6e6"                     fill-opacity="0.32" />
<rect width="1" height="1" x="5" y="2" fill="#e6e6e6"                     fill-opacity="0.86" />
<rect width="1" height="1" x="6" y="2" fill="#e6e6e6"                     fill-opacity="0.49" />
<rect width="1" height="1" x="7" y="2" fill="#e6e6e6"                     fill-opacity="0.24" />
<rect width="1" height="1" x="8" y="2" fill="#e6e6e6"                     fill-opacity="1.00" />
<rect width="1" height="1" x="9" y="2" fill="#e6e6e6"                     fill-opacity="0.33" />
<rect width="1" height="1" x="10" y="2" fill="#e6e6e6"                     fill-opacity="0.86" />
<rect width="1" height="1" x="11" y="2" fill="#e6e6e6"                     fill-opacity="0.49" />
<rect width="1" height="1" x="12" y="2" fill="#e6e6e6"                     fill-opacity="0.24" />
<rect width="1" height="1" x="13" y="2" fill="#e6e6e6"                     fill-opacity="1.00" />
<rect width="1" height="1" x="14" y="2" fill="#e6e6e6"                     fill-opacity="0.33" />
<rect width="1" height="1" x="15" y="2" fill="#e6e6e6"                     fill-opacity="0.87" />
<rect width="1" height="1" x="16" y="2" fill="#e6e6e6"                     fill-opacity="0.60" />
<rect width="1" height="1" x="17" y="2" fill="#e6e6e6"                     fill-opacity="0.10" />
<rect width="1" height="1" x="2" y="3" fill="#e6e6e6"                     fill-opacity="0.05" />
<rect width="1" height="1" x="3" y="3" fill="#e6e6e6"                     fill-opacity="0.73" />
<rect width="1" height="1" x="4" y="3" fill="#e6e6e6"                     fill-opacity="1.00" />
<rect width="1" height="1" x="5" y="3" fill="#e6e6e6"                     fill-opacity="0.85" />
<rect width="1" height="1" x="6" y="3" fill="#e6e6e6"                     fill-opacity="0.16" />
<rect width="1" height="1" x="7" y="3" fill="#e6e6e6"                     fill-opacity="0.01" />
<rect width="1" height="1" x="8" y="3" fill="#e6e6e6"                     fill-opacity="0.73" />
<rect width="1" height="1" x="9" y="3" fill="#e6e6e6"                     fill-opacity="1.00" />
<rect width="1" height="1" x="10" y="3" fill="#e6e6e6"                     fill-opacity="0.85" />
<rect width="1" height="1" x="11" y="3" fill="#e6e6e6"                     fill-opacity="0.16" />
<rect width="1" height="1" x="12" y="3" fill="#e6e6e6"                     fill-opacity="0.01" />
<rect width="1" height="1" x="13" y="3" fill="#e6e6e6"                     fill-opacity="0.73" />
<rect width="1" height="1" x="14" y="3" fill="#e6e6e6"                     fill-opacity="1.00" />
<rect width="1" height="1" x="15" y="3" fill="#e6e6e6"                     fill-opacity="0.86" />
<rect width="1" height="1" x="16" y="3" fill="#e6e6e6"                     fill-opacity="0.20" />
<rect width="1" height="1" x="3" y="4" fill="#e6e6e6"                     fill-opacity="0.04" />
<rect width="1" height="1" x="4" y="4" fill="#e6e6e6"                     fill-opacity="0.24" />
<rect width="1" height="1" x="5" y="4" fill="#e6e6e6"                     fill-opacity="0.10" />
<rect width="1" height="1" x="8" y="4" fill="#e6e6e6"                     fill-opacity="0.04" />
<rect width="1" height="1" x="9" y="4" fill="#e6e6e6"                     fill-opacity="0.24" />
<rect width="1" height="1" x="10" y="4" fill="#e6e6e6"                     fill-opacity="0.10" />
<rect width="1" height="1" x="13" y="4" fill="#e6e6e6"                     fill-opacity="0.04" />
<rect width="1" height="1" x="14" y="4" fill="#e6e6e6"                     fill-opacity="0.24" />
<rect width="1" height="1" x="15" y="4" fill="#e6e6e6"                     fill-opacity="0.10" />
<rect width="1" height="1" x="3" y="5" fill="#e6e6e6"                     fill-opacity="0.13" />
<rect width="1" height="1" x="4" y="5" fill="#e6e6e6"                     fill-opacity="0.45" />
<rect width="1" height="1" x="5" y="5" fill="#e6e6e6"                     fill-opacity="0.24" />
<rect width="1" height="1" x="8" y="5" fill="#e6e6e6"                     fill-opacity="0.13" />
<rect width="1" height="1" x="9" y="5" fill="#e6e6e6"                     fill-opacity="0.45" />
<rect width="1" height="1" x="10" y="5" fill="#e6e6e6"                     fill-opacity="0.24" />
<rect width="1" height="1" x="13" y="5" fill="#e6e6e6"                     fill-opacity="0.13" />
<rect width="1" height="1" x="14" y="5" fill="#e6e6e6"                     fill-opacity="0.45" />
<rect width="1" height="1" x="15" y="5" fill="#e6e6e6"                     fill-opacity="0.24" />
<rect width="1" height="1" x="2" y="6" fill="#e6e6e6"                     fill-opacity="0.14" />
<rect width="1" height="1" x="3" y="6" fill="#e6e6e6"                     fill-opacity="0.86" />
<rect width="1" height="1" x="4" y="6" fill="#e6e6e6"                     fill-opacity="0.90" />
<rect width="1" height="1" x="5" y="6" fill="#e6e6e6"                     fill-opacity="0.91" />
<rect width="1" height="1" x="6" y="6" fill="#e6e6e6"                     fill-opacity="0.24" />
<rect width="1" height="1" x="7" y="6" fill="#e6e6e6"                     fill-opacity="0.07" />
<rect width="1" height="1" x="8" y="6" fill="#e6e6e6"                     fill-opacity="0.85" />
<rect width="1" height="1" x="9" y="6" fill="#e6e6e6"                     fill-opacity="0.91" />
<rect width="1" height="1" x="10" y="6" fill="#e6e6e6"                     fill-opacity="0.91" />
<rect width="1" height="1" x="11" y="6" fill="#e6e6e6"                     fill-opacity="0.24" />
<rect width="1" height="1" x="12" y="6" fill="#e6e6e6"                     fill-opacity="0.07" />
<rect width="1" height="1" x="13" y="6" fill="#e6e6e6"                     fill-opacity="0.85" />
<rect width="1" height="1" x="14" y="6" fill="#e6e6e6"                     fill-opacity="0.91" />
<rect width="1" height="1" x="15" y="6" fill="#e6e6e6"                     fill-opacity="0.92" />
<rect width="1" height="1" x="16" y="6" fill="#e6e6e6"                     fill-opacity="0.31" />
<rect width="1" height="1" x="17" y="6" fill="#e6e6e6"                     fill-opacity="0.01" />
<rect width="1" height="1" x="1" y="7" fill="#e6e6e6"                     fill-opacity="0.07" />
<rect width="1" height="1" x="2" y="7" fill="#e6e6e6"                     fill-opacity="0.37" />
<rect width="1" height="1" x="3" y="7" fill="#e6e6e6"                     fill-opacity="1.00" />
<rect width="1" height="1" x="4" y="7" fill="#e6e6e6"                     fill-opacity="0.32" />
<rect width="1" height="1" x="5" y="7" fill="#e6e6e6"                     fill-opacity="0.86" />
<rect width="1" height="1" x="6" y="7" fill="#e6e6e6"                     fill-opacity="0.49" />
<rect width="1" height="1" x="7" y="7" fill="#e6e6e6"                     fill-opacity="0.24" />
<rect width="1" height="1" x="8" y="7" fill="#e6e6e6"                     fill-opacity="1.00" />
<rect width="1" height="1" x="9" y="7" fill="#e6e6e6"                     fill-opacity="0.33" />
<rect width="1" height="1" x="10" y="7" fill="#e6e6e6"                     fill-opacity="0.86" />
<rect width="1" height="1" x="11" y="7" fill="#e6e6e6"                     fill-opacity="0.49" />
<rect width="1" height="1" x="12" y="7" fill="#e6e6e6"                     fill-opacity="0.24" />
<rect width="1" height="1" x="13" y="7" fill="#e6e6e6"                     fill-opacity="1.00" />
<rect width="1" height="1" x="14" y="7" fill="#e6e6e6"                     fill-opacity="0.33" />
<rect width="1" height="1" x="15" y="7" fill="#e6e6e6"                     fill-opacity="0.87" />
<rect width="1" height="1" x="16" y="7" fill="#e6e6e6"                     fill-opacity="0.60" />
<rect width="1" height="1" x="17" y="7" fill="#e6e6e6"                     fill-opacity="0.10" />
<rect width="1" height="1" x="2" y="8" fill="#e6e6e6"                     fill-opacity="0.05" />
<rect width="1" height="1" x="3" y="8" fill="#e6e6e6"                     fill-opacity="0.73" />
<rect width="1" height="1" x="4" y="8" fill="#e6e6e6"                     fill-opacity="1.00" />
<rect width="1" height="1" x="5" y="8" fill="#e6e6e6"                     fill-opacity="0.85" />
<rect width="1" height="1" x="6" y="8" fill="#e6e6e6"                     fill-opacity="0.16" />
<rect width="1" height="1" x="7" y="8" fill="#e6e6e6"                     fill-opacity="0.01" />
<rect width="1" height="1" x="8" y="8" fill="#e6e6e6"                     fill-opacity="0.73" />
<rect width="1" height="1" x="9" y="8" fill="#e6e6e6"                     fill-opacity="1.00" />
<rect width="1" height="1" x="10" y="8" fill="#e6e6e6"                     fill-opacity="0.85" />
<rect width="1" height="1" x="11" y="8" fill="#e6e6e6"                     fill-opacity="0.16" />
<rect width="1" height="1" x="12" y="8" fill="#e6e6e6"                     fill-opacity="0.01" />
<rect width="1" height="1" x="13" y="8" fill="#e6e6e6"                     fill-opacity="0.73" />
<rect width="1" height="1" x="14" y="8" fill="#e6e6e6"                     fill-opacity="1.00" />
<rect width="1" height="1" x="15" y="8" fill="#e6e6e6"                     fill-opacity="0.86" />
<rect width="1" height="1" x="16" y="8" fill="#e6e6e6"                     fill-opacity="0.20" />
<rect width="1" height="1" x="3" y="9" fill="#e6e6e6"                     fill-opacity="0.04" />
<rect width="1" height="1" x="4" y="9" fill="#e6e6e6"                     fill-opacity="0.24" />
<rect width="1" height="1" x="5" y="9" fill="#e6e6e6"                     fill-opacity="0.10" />
<rect width="1" height="1" x="8" y="9" fill="#e6e6e6"                     fill-opacity="0.04" />
<rect width="1" height="1" x="9" y="9" fill="#e6e6e6"                     fill-opacity="0.24" />
<rect width="1" height="1" x="10" y="9" fill="#e6e6e6"                     fill-opacity="0.10" />
<rect width="1" height="1" x="13" y="9" fill="#e6e6e6"                     fill-opacity="0.04" />
<rect width="1" height="1" x="14" y="9" fill="#e6e6e6"                     fill-opacity="0.24" />
<rect width="1" height="1" x="15" y="9" fill="#e6e6e6"                     fill-opacity="0.10" />
<rect width="1" height="1" x="3" y="10" fill="#e6e6e6"                     fill-opacity="0.13" />
<rect width="1" height="1" x="4" y="10" fill="#e6e6e6"                     fill-opacity="0.45" />
<rect width="1" height="1" x="5" y="10" fill="#e6e6e6"                     fill-opacity="0.24" />
<rect width="1" height="1" x="8" y="10" fill="#e6e6e6"                     fill-opacity="0.13" />
<rect width="1" height="1" x="9" y="10" fill="#e6e6e6"                     fill-opacity="0.45" />
<rect width="1" height="1" x="10" y="10" fill="#e6e6e6"                     fill-opacity="0.24" />
<rect width="1" height="1" x="13" y="10" fill="#e6e6e6"                     fill-opacity="0.13" />
<rect width="1" height="1" x="14" y="10" fill="#e6e6e6"                     fill-opacity="0.45" />
<rect width="1" height="1" x="15" y="10" fill="#e6e6e6"                     fill-opacity="0.24" />
<rect width="1" height="1" x="2" y="11" fill="#e6e6e6"                     fill-opacity="0.14" />
<rect width="1" height="1" x="3" y="11" fill="#e6e6e6"                     fill-opacity="0.86" />
<rect width="1" height="1" x="4" y="11" fill="#e6e6e6"                     fill-opacity="0.90" />
<rect width="1" height="1" x="5" y="11" fill="#e6e6e6"                     fill-opacity="0.91" />
<rect width="1" height="1" x="6" y="11" fill="#e6e6e6"                     fill-opacity="0.24" />
<rect width="1" height="1" x="7" y="11" fill="#e6e6e6"                     fill-opacity="0.07" />
<rect width="1" height="1" x="8" y="11" fill="#e6e6e6"                     fill-opacity="0.85" />
<rect width="1" height="1" x="9" y="11" fill="#e6e6e6"                     fill-opacity="0.91" />
<rect width="1" height="1" x="10" y="11" fill="#e6e6e6"                     fill-opacity="0.91" />
<rect width="1" height="1" x="11" y="11" fill="#e6e6e6"                     fill-opacity="0.24" />
<rect width="1" height="1" x="12" y="11" fill="#e6e6e6"                     fill-opacity="0.07" />
<rect width="1" height="1" x="13" y="11" fill="#e6e6e6"                     fill-opacity="0.85" />
<rect width="1" height="1" x="14" y="11" fill="#e6e6e6"                     fill-opacity="0.91" />
<rect width="1" height="1" x="15" y="11" fill="#e6e6e6"                     fill-opacity="0.92" />
<rect width="1" height="1" x="16" y="11" fill="#e6e6e6"                     fill-opacity="0.31" />
<rect width="1" height="1" x="17" y="11" fill="#e6e6e6"                     fill-opacity="0.01" />
<rect width="1" height="1" x="1" y="12" fill="#e6e6e6"                     fill-opacity="0.07" />
<rect width="1" height="1" x="2" y="12" fill="#e6e6e6"                     fill-opacity="0.37" />
<rect width="1" height="1" x="3" y="12" fill="#e6e6e6"                     fill-opacity="1.00" />
<rect width="1" height="1" x="4" y="12" fill="#e6e6e6"                     fill-opacity="0.33" />
<rect width="1" height="1" x="5" y="12" fill="#e6e6e6"                     fill-opacity="0.86" />
<rect width="1" height="1" x="6" y="12" fill="#e6e6e6"                     fill-opacity="0.49" />
<rect width="1" height="1" x="7" y="12" fill="#e6e6e6"                     fill-opacity="0.24" />
<rect width="1" height="1" x="8" y="12" fill="#e6e6e6"                     fill-opacity="1.00" />
<rect width="1" height="1" x="9" y="12" fill="#e6e6e6"                     fill-opacity="0.33" />
<rect width="1" height="1" x="10" y="12" fill="#e6e6e6"                     fill-opacity="0.86" />
<rect width="1" height="1" x="11" y="12" fill="#e6e6e6"                     fill-opacity="0.49" />
<rect width="1" height="1" x="12" y="12" fill="#e6e6e6"                     fill-opacity="0.24" />
<rect width="1" height="1" x="13" y="12" fill="#e6e6e6"                     fill-opacity="1.00" />
<rect width="1" height="1" x="14" y="12" fill="#e6e6e6"                     fill-opacity="0.33" />
<rect width="1" height="1" x="15" y="12" fill="#e6e6e6"                     fill-opacity="0.87" />
<rect width="1" height="1" x="16" y="12" fill="#e6e6e6"                     fill-opacity="0.60" />
<rect width="1" height="1" x="17" y="12" fill="#e6e6e6"                     fill-opacity="0.10" />
<rect width="1" height="1" x="2" y="13" fill="#e6e6e6"                     fill-opacity="0.05" />
<rect width="1" height="1" x="3" y="13" fill="#e6e6e6"                     fill-opacity="0.73" />
<rect width="1" height="1" x="4" y="13" fill="#e6e6e6"                     fill-opacity="1.00" />
<rect width="1" height="1" x="5" y="13" fill="#e6e6e6"                     fill-opacity="0.86" />
<rect width="1" height="1" x="6" y="13" fill="#e6e6e6"                     fill-opacity="0.15" />
<rect width="1" height="1" x="7" y="13" fill="#e6e6e6"                     fill-opacity="0.01" />
<rect width="1" height="1" x="8" y="13" fill="#e6e6e6"                     fill-opacity="0.73" />
<rect width="1" height="1" x="9" y="13" fill="#e6e6e6"                     fill-opacity="1.00" />
<rect width="1" height="1" x="10" y="13" fill="#e6e6e6"                     fill-opacity="0.85" />
<rect width="1" height="1" x="11" y="13" fill="#e6e6e6"                     fill-opacity="0.16" />
<rect width="1" height="1" x="12" y="13" fill="#e6e6e6"                     fill-opacity="0.01" />
<rect width="1" height="1" x="13" y="13" fill="#e6e6e6"                     fill-opacity="0.73" />
<rect width="1" height="1" x="14" y="13" fill="#e6e6e6"                     fill-opacity="1.00" />
<rect width="1" height="1" x="15" y="13" fill="#e6e6e6"                     fill-opacity="0.86" />
<rect width="1" height="1" x="16" y="13" fill="#e6e6e6"                     fill-opacity="0.20" />
<rect width="1" height="1" x="3" y="14" fill="#e6e6e6"                     fill-opacity="0.10" />
<rect width="1" height="1" x="4" y="14" fill="#e6e6e6"                     fill-opacity="0.36" />
<rect width="1" height="1" x="5" y="14" fill="#e6e6e6"                     fill-opacity="0.18" />
<rect width="1" height="1" x="8" y="14" fill="#e6e6e6"                     fill-opacity="0.04" />
<rect width="1" height="1" x="9" y="14" fill="#e6e6e6"                     fill-opacity="0.24" />
<rect width="1" height="1" x="10" y="14" fill="#e6e6e6"                     fill-opacity="0.10" />
<rect width="1" height="1" x="13" y="14" fill="#e6e6e6"                     fill-opacity="0.10" />
<rect width="1" height="1" x="14" y="14" fill="#e6e6e6"                     fill-opacity="0.36" />
<rect width="1" height="1" x="15" y="14" fill="#e6e6e6"                     fill-opacity="0.18" />
<rect width="1" height="1" x="8" y="15" fill="#e6e6e6"                     fill-opacity="0.13" />
<rect width="1" height="1" x="9" y="15" fill="#e6e6e6"                     fill-opacity="0.45" />
<rect width="1" height="1" x="10" y="15" fill="#e6e6e6"                     fill-opacity="0.24" />
<rect width="1" height="1" x="7" y="16" fill="#e6e6e6"                     fill-opacity="0.14" />
<rect width="1" height="1" x="8" y="16" fill="#e6e6e6"                     fill-opacity="0.86" />
<rect width="1" height="1" x="9" y="16" fill="#e6e6e6"                     fill-opacity="0.90" />
<rect width="1" height="1" x="10" y="16" fill="#e6e6e6"                     fill-opacity="0.92" />
<rect width="1" height="1" x="11" y="16" fill="#e6e6e6"                     fill-opacity="0.31" />
<rect width="1" height="1" x="7" y="17" fill="#e6e6e6"                     fill-opacity="0.37" />
<rect width="1" height="1" x="8" y="17" fill="#e6e6e6"                     fill-opacity="1.00" />
<rect width="1" height="1" x="9" y="17" fill="#e6e6e6"                     fill-opacity="0.33" />
<rect width="1" height="1" x="10" y="17" fill="#e6e6e6"                     fill-opacity="0.87" />
<rect width="1" height="1" x="11" y="17" fill="#e6e6e6"                     fill-opacity="0.60" />
<rect width="1" height="1" x="7" y="18" fill="#e6e6e6"                     fill-opacity="0.05" />
<rect width="1" height="1" x="8" y="18" fill="#e6e6e6"                     fill-opacity="0.73" />
<rect width="1" height="1" x="9" y="18" fill="#e6e6e6"                     fill-opacity="1.00" />
<rect width="1" height="1" x="10" y="18" fill="#e6e6e6"                     fill-opacity="0.86" />
<rect width="1" height="1" x="11" y="18" fill="#e6e6e6"                     fill-opacity="0.20" />
<rect width="1" height="1" x="8" y="19" fill="#e6e6e6"                     fill-opacity="0.10" />
<rect width="1" height="1" x="9" y="19" fill="#e6e6e6"                     fill-opacity="0.36" />
<rect width="1" height="1" x="10" y="19" fill="#e6e6e6"                     fill-opacity="0.18" />
</svg>
