<?xml version="1.0" encoding="UTF-8" standalone="no"?>
<svg id="svg2" xmlns="http://www.w3.org/2000/svg" version="1.1"                 width="20" height="20" viewBox="0 0 20 20">
<rect width="1" height="1" x="9" y="2" fill="#e6e6e6"                     fill-opacity="0.53" />
<rect width="1" height="1" x="10" y="2" fill="#e6e6e6"                     fill-opacity="0.44" />
<rect width="1" height="1" x="9" y="3" fill="#e6e6e6"                     fill-opacity="0.84" />
<rect width="1" height="1" x="10" y="3" fill="#e6e6e6"                     fill-opacity="0.69" />
<rect width="1" height="1" x="9" y="4" fill="#e6e6e6"                     fill-opacity="0.84" />
<rect width="1" height="1" x="10" y="4" fill="#e6e6e6"                     fill-opacity="0.68" />
<rect width="1" height="1" x="9" y="5" fill="#e6e6e6"                     fill-opacity="0.80" />
<rect width="1" height="1" x="10" y="5" fill="#e6e6e6"                     fill-opacity="0.65" />
<rect width="1" height="1" x="9" y="6" fill="#e6e6e6"                     fill-opacity="0.80" />
<rect width="1" height="1" x="10" y="6" fill="#e6e6e6"                     fill-opacity="0.65" />
<rect width="1" height="1" x="9" y="7" fill="#e6e6e6"                     fill-opacity="0.79" />
<rect width="1" height="1" x="10" y="7" fill="#e6e6e6"                     fill-opacity="0.65" />
<rect width="1" height="1" x="9" y="8" fill="#e6e6e6"                     fill-opacity="0.79" />
<rect width="1" height="1" x="10" y="8" fill="#e6e6e6"                     fill-opacity="0.63" />
<rect width="1" height="1" x="2" y="9" fill="#e6e6e6"                     fill-opacity="0.53" />
<rect width="1" height="1" x="3" y="9" fill="#e6e6e6"                     fill-opacity="0.82" />
<rect width="1" height="1" x="4" y="9" fill="#e6e6e6"                     fill-opacity="0.83" />
<rect width="1" height="1" x="5" y="9" fill="#e6e6e6"                     fill-opacity="0.80" />
<rect width="1" height="1" x="6" y="9" fill="#e6e6e6"                     fill-opacity="0.80" />
<rect width="1" height="1" x="7" y="9" fill="#e6e6e6"                     fill-opacity="0.79" />
<rect width="1" height="1" x="8" y="9" fill="#e6e6e6"                     fill-opacity="0.78" />
<rect width="1" height="1" x="9" y="9" fill="#e6e6e6"                     fill-opacity="0.97" />
<rect width="1" height="1" x="10" y="9" fill="#e6e6e6"                     fill-opacity="0.92" />
<rect width="1" height="1" x="11" y="9" fill="#e6e6e6"                     fill-opacity="0.76" />
<rect width="1" height="1" x="12" y="9" fill="#e6e6e6"                     fill-opacity="0.80" />
<rect width="1" height="1" x="13" y="9" fill="#e6e6e6"                     fill-opacity="0.80" />
<rect width="1" height="1" x="14" y="9" fill="#e6e6e6"                     fill-opacity="0.80" />
<rect width="1" height="1" x="15" y="9" fill="#e6e6e6"                     fill-opacity="0.85" />
<rect width="1" height="1" x="16" y="9" fill="#e6e6e6"                     fill-opacity="0.74" />
<rect width="1" height="1" x="17" y="9" fill="#e6e6e6"                     fill-opacity="0.40" />
<rect width="1" height="1" x="2" y="10" fill="#e6e6e6"                     fill-opacity="0.44" />
<rect width="1" height="1" x="3" y="10" fill="#e6e6e6"                     fill-opacity="0.68" />
<rect width="1" height="1" x="4" y="10" fill="#e6e6e6"                     fill-opacity="0.68" />
<rect width="1" height="1" x="5" y="10" fill="#e6e6e6"                     fill-opacity="0.65" />
<rect width="1" height="1" x="6" y="10" fill="#e6e6e6"                     fill-opacity="0.65" />
<rect width="1" height="1" x="7" y="10" fill="#e6e6e6"                     fill-opacity="0.64" />
<rect width="1" height="1" x="8" y="10" fill="#e6e6e6"                     fill-opacity="0.64" />
<rect width="1" height="1" x="9" y="10" fill="#e6e6e6"                     fill-opacity="0.93" />
<rect width="1" height="1" x="10" y="10" fill="#e6e6e6"                     fill-opacity="0.87" />
<rect width="1" height="1" x="11" y="10" fill="#e6e6e6"                     fill-opacity="0.63" />
<rect width="1" height="1" x="12" y="10" fill="#e6e6e6"                     fill-opacity="0.65" />
<rect width="1" height="1" x="13" y="10" fill="#e6e6e6"                     fill-opacity="0.65" />
<rect width="1" height="1" x="14" y="10" fill="#e6e6e6"                     fill-opacity="0.65" />
<rect width="1" height="1" x="15" y="10" fill="#e6e6e6"                     fill-opacity="0.70" />
<rect width="1" height="1" x="16" y="10" fill="#e6e6e6"                     fill-opacity="0.62" />
<rect width="1" height="1" x="17" y="10" fill="#e6e6e6"                     fill-opacity="0.33" />
<rect width="1" height="1" x="9" y="11" fill="#e6e6e6"                     fill-opacity="0.78" />
<rect width="1" height="1" x="10" y="11" fill="#e6e6e6"                     fill-opacity="0.62" />
<rect width="1" height="1" x="9" y="12" fill="#e6e6e6"                     fill-opacity="0.80" />
<rect width="1" height="1" x="10" y="12" fill="#e6e6e6"                     fill-opacity="0.65" />
<rect width="1" height="1" x="9" y="13" fill="#e6e6e6"                     fill-opacity="0.80" />
<rect width="1" height="1" x="10" y="13" fill="#e6e6e6"                     fill-opacity="0.65" />
<rect width="1" height="1" x="9" y="14" fill="#e6e6e6"                     fill-opacity="0.80" />
<rect width="1" height="1" x="10" y="14" fill="#e6e6e6"                     fill-opacity="0.65" />
<rect width="1" height="1" x="9" y="15" fill="#e6e6e6"                     fill-opacity="0.87" />
<rect width="1" height="1" x="10" y="15" fill="#e6e6e6"                     fill-opacity="0.71" />
<rect width="1" height="1" x="9" y="16" fill="#e6e6e6"                     fill-opacity="0.77" />
<rect width="1" height="1" x="10" y="16" fill="#e6e6e6"                     fill-opacity="0.64" />
<rect width="1" height="1" x="9" y="17" fill="#e6e6e6"                     fill-opacity="0.40" />
<rect width="1" height="1" x="10" y="17" fill="#e6e6e6"                     fill-opacity="0.33" />
</svg>
