<?xml version="1.0" encoding="UTF-8" standalone="no"?>
<svg id="svg2" xmlns="http://www.w3.org/2000/svg" version="1.1"                 width="20" height="20" viewBox="0 0 20 20">
<rect width="1" height="1" x="3" y="2" fill="#e6e6e6"                     fill-opacity="0.05" />
<rect width="1" height="1" x="4" y="2" fill="#e6e6e6"                     fill-opacity="0.15" />
<rect width="1" height="1" x="5" y="2" fill="#e6e6e6"                     fill-opacity="0.03" />
<rect width="1" height="1" x="14" y="2" fill="#e6e6e6"                     fill-opacity="0.05" />
<rect width="1" height="1" x="15" y="2" fill="#e6e6e6"                     fill-opacity="0.19" />
<rect width="1" height="1" x="16" y="2" fill="#e6e6e6"                     fill-opacity="0.10" />
<rect width="1" height="1" x="3" y="3" fill="#e6e6e6"                     fill-opacity="0.29" />
<rect width="1" height="1" x="4" y="3" fill="#e6e6e6"                     fill-opacity="0.63" />
<rect width="1" height="1" x="5" y="3" fill="#e6e6e6"                     fill-opacity="0.36" />
<rect width="1" height="1" x="12" y="3" fill="#e6e6e6"                     fill-opacity="0.00" />
<rect width="1" height="1" x="14" y="3" fill="#e6e6e6"                     fill-opacity="0.16" />
<rect width="1" height="1" x="15" y="3" fill="#e6e6e6"                     fill-opacity="0.64" />
<rect width="1" height="1" x="16" y="3" fill="#e6e6e6"                     fill-opacity="0.36" />
<rect width="1" height="1" x="3" y="4" fill="#e6e6e6"                     fill-opacity="0.64" />
<rect width="1" height="1" x="4" y="4" fill="#e6e6e6"                     fill-opacity="1.00" />
<rect width="1" height="1" x="5" y="4" fill="#e6e6e6"                     fill-opacity="0.99" />
<rect width="1" height="1" x="6" y="4" fill="#e6e6e6"                     fill-opacity="0.58" />
<rect width="1" height="1" x="7" y="4" fill="#e6e6e6"                     fill-opacity="0.02" />
<rect width="1" height="1" x="12" y="4" fill="#e6e6e6"                     fill-opacity="0.00" />
<rect width="1" height="1" x="14" y="4" fill="#e6e6e6"                     fill-opacity="0.26" />
<rect width="1" height="1" x="15" y="4" fill="#e6e6e6"                     fill-opacity="1.00" />
<rect width="1" height="1" x="16" y="4" fill="#e6e6e6"                     fill-opacity="0.58" />
<rect width="1" height="1" x="3" y="5" fill="#e6e6e6"                     fill-opacity="0.67" />
<rect width="1" height="1" x="4" y="5" fill="#e6e6e6"                     fill-opacity="0.88" />
<rect width="1" height="1" x="5" y="5" fill="#e6e6e6"                     fill-opacity="0.47" />
<rect width="1" height="1" x="6" y="5" fill="#e6e6e6"                     fill-opacity="0.93" />
<rect width="1" height="1" x="7" y="5" fill="#e6e6e6"                     fill-opacity="0.84" />
<rect width="1" height="1" x="8" y="5" fill="#e6e6e6"                     fill-opacity="0.15" />
<rect width="1" height="1" x="12" y="5" fill="#e6e6e6"                     fill-opacity="0.00" />
<rect width="1" height="1" x="14" y="5" fill="#e6e6e6"                     fill-opacity="0.24" />
<rect width="1" height="1" x="15" y="5" fill="#e6e6e6"                     fill-opacity="0.92" />
<rect width="1" height="1" x="16" y="5" fill="#e6e6e6"                     fill-opacity="0.53" />
<rect width="1" height="1" x="3" y="6" fill="#e6e6e6"                     fill-opacity="0.70" />
<rect width="1" height="1" x="4" y="6" fill="#e6e6e6"                     fill-opacity="0.91" />
<rect width="1" height="1" x="5" y="6" fill="#e6e6e6"                     fill-opacity="0.00" />
<rect width="1" height="1" x="6" y="6" fill="#e6e6e6"                     fill-opacity="0.16" />
<rect width="1" height="1" x="7" y="6" fill="#e6e6e6"                     fill-opacity="0.82" />
<rect width="1" height="1" x="8" y="6" fill="#e6e6e6"                     fill-opacity="1.00" />
<rect width="1" height="1" x="9" y="6" fill="#e6e6e6"                     fill-opacity="0.35" />
<rect width="1" height="1" x="12" y="6" fill="#e6e6e6"                     fill-opacity="0.00" />
<rect width="1" height="1" x="14" y="6" fill="#e6e6e6"                     fill-opacity="0.24" />
<rect width="1" height="1" x="15" y="6" fill="#e6e6e6"                     fill-opacity="0.92" />
<rect width="1" height="1" x="16" y="6" fill="#e6e6e6"                     fill-opacity="0.52" />
<rect width="1" height="1" x="3" y="7" fill="#e6e6e6"                     fill-opacity="0.69" />
<rect width="1" height="1" x="4" y="7" fill="#e6e6e6"                     fill-opacity="0.93" />
<rect width="1" height="1" x="5" y="7" fill="#e6e6e6"                     fill-opacity="0.11" />
<rect width="1" height="1" x="7" y="7" fill="#e6e6e6"                     fill-opacity="0.01" />
<rect width="1" height="1" x="8" y="7" fill="#e6e6e6"                     fill-opacity="0.61" />
<rect width="1" height="1" x="9" y="7" fill="#e6e6e6"                     fill-opacity="1.00" />
<rect width="1" height="1" x="10" y="7" fill="#e6e6e6"                     fill-opacity="0.65" />
<rect width="1" height="1" x="11" y="7" fill="#e6e6e6"                     fill-opacity="0.01" />
<rect width="1" height="1" x="14" y="7" fill="#e6e6e6"                     fill-opacity="0.24" />
<rect width="1" height="1" x="15" y="7" fill="#e6e6e6"                     fill-opacity="0.92" />
<rect width="1" height="1" x="16" y="7" fill="#e6e6e6"                     fill-opacity="0.52" />
<rect width="1" height="1" x="3" y="8" fill="#e6e6e6"                     fill-opacity="0.69" />
<rect width="1" height="1" x="4" y="8" fill="#e6e6e6"                     fill-opacity="0.92" />
<rect width="1" height="1" x="5" y="8" fill="#e6e6e6"                     fill-opacity="0.10" />
<rect width="1" height="1" x="9" y="8" fill="#e6e6e6"                     fill-opacity="0.40" />
<rect width="1" height="1" x="10" y="8" fill="#e6e6e6"                     fill-opacity="1.00" />
<rect width="1" height="1" x="11" y="8" fill="#e6e6e6"                     fill-opacity="0.78" />
<rect width="1" height="1" x="12" y="8" fill="#e6e6e6"                     fill-opacity="0.17" />
<rect width="1" height="1" x="14" y="8" fill="#e6e6e6"                     fill-opacity="0.24" />
<rect width="1" height="1" x="15" y="8" fill="#e6e6e6"                     fill-opacity="0.92" />
<rect width="1" height="1" x="16" y="8" fill="#e6e6e6"                     fill-opacity="0.52" />
<rect width="1" height="1" x="3" y="9" fill="#e6e6e6"                     fill-opacity="0.69" />
<rect width="1" height="1" x="4" y="9" fill="#e6e6e6"                     fill-opacity="0.92" />
<rect width="1" height="1" x="5" y="9" fill="#e6e6e6"                     fill-opacity="0.10" />
<rect width="1" height="1" x="10" y="9" fill="#e6e6e6"                     fill-opacity="0.09" />
<rect width="1" height="1" x="11" y="9" fill="#e6e6e6"                     fill-opacity="0.88" />
<rect width="1" height="1" x="12" y="9" fill="#e6e6e6"                     fill-opacity="0.95" />
<rect width="1" height="1" x="13" y="9" fill="#e6e6e6"                     fill-opacity="0.11" />
<rect width="1" height="1" x="14" y="9" fill="#e6e6e6"                     fill-opacity="0.16" />
<rect width="1" height="1" x="15" y="9" fill="#e6e6e6"                     fill-opacity="0.92" />
<rect width="1" height="1" x="16" y="9" fill="#e6e6e6"                     fill-opacity="0.52" />
<rect width="1" height="1" x="3" y="10" fill="#e6e6e6"                     fill-opacity="0.69" />
<rect width="1" height="1" x="4" y="10" fill="#e6e6e6"                     fill-opacity="0.92" />
<rect width="1" height="1" x="5" y="10" fill="#e6e6e6"                     fill-opacity="0.10" />
<rect width="1" height="1" x="10" y="10" fill="#e6e6e6"                     fill-opacity="0.24" />
<rect width="1" height="1" x="11" y="10" fill="#e6e6e6"                     fill-opacity="0.94" />
<rect width="1" height="1" x="12" y="10" fill="#e6e6e6"                     fill-opacity="0.80" />
<rect width="1" height="1" x="13" y="10" fill="#e6e6e6"                     fill-opacity="0.06" />
<rect width="1" height="1" x="14" y="10" fill="#e6e6e6"                     fill-opacity="0.18" />
<rect width="1" height="1" x="15" y="10" fill="#e6e6e6"                     fill-opacity="0.92" />
<rect width="1" height="1" x="16" y="10" fill="#e6e6e6"                     fill-opacity="0.52" />
<rect width="1" height="1" x="3" y="11" fill="#e6e6e6"                     fill-opacity="0.69" />
<rect width="1" height="1" x="4" y="11" fill="#e6e6e6"                     fill-opacity="0.92" />
<rect width="1" height="1" x="5" y="11" fill="#e6e6e6"                     fill-opacity="0.10" />
<rect width="1" height="1" x="8" y="11" fill="#e6e6e6"                     fill-opacity="0.02" />
<rect width="1" height="1" x="9" y="11" fill="#e6e6e6"                     fill-opacity="0.57" />
<rect width="1" height="1" x="10" y="11" fill="#e6e6e6"                     fill-opacity="1.00" />
<rect width="1" height="1" x="11" y="11" fill="#e6e6e6"                     fill-opacity="0.63" />
<rect width="1" height="1" x="12" y="11" fill="#e6e6e6"                     fill-opacity="0.02" />
<rect width="1" height="1" x="14" y="11" fill="#e6e6e6"                     fill-opacity="0.24" />
<rect width="1" height="1" x="15" y="11" fill="#e6e6e6"                     fill-opacity="0.92" />
<rect width="1" height="1" x="16" y="11" fill="#e6e6e6"                     fill-opacity="0.52" />
<rect width="1" height="1" x="3" y="12" fill="#e6e6e6"                     fill-opacity="0.69" />
<rect width="1" height="1" x="4" y="12" fill="#e6e6e6"                     fill-opacity="0.93" />
<rect width="1" height="1" x="5" y="12" fill="#e6e6e6"                     fill-opacity="0.09" />
<rect width="1" height="1" x="7" y="12" fill="#e6e6e6"                     fill-opacity="0.13" />
<rect width="1" height="1" x="8" y="12" fill="#e6e6e6"                     fill-opacity="0.78" />
<rect width="1" height="1" x="9" y="12" fill="#e6e6e6"                     fill-opacity="1.00" />
<rect width="1" height="1" x="10" y="12" fill="#e6e6e6"                     fill-opacity="0.37" />
<rect width="1" height="1" x="14" y="12" fill="#e6e6e6"                     fill-opacity="0.24" />
<rect width="1" height="1" x="15" y="12" fill="#e6e6e6"                     fill-opacity="0.92" />
<rect width="1" height="1" x="16" y="12" fill="#e6e6e6"                     fill-opacity="0.52" />
<rect width="1" height="1" x="3" y="13" fill="#e6e6e6"                     fill-opacity="0.70" />
<rect width="1" height="1" x="4" y="13" fill="#e6e6e6"                     fill-opacity="0.88" />
<rect width="1" height="1" x="5" y="13" fill="#e6e6e6"                     fill-opacity="0.01" />
<rect width="1" height="1" x="6" y="13" fill="#e6e6e6"                     fill-opacity="0.34" />
<rect width="1" height="1" x="7" y="13" fill="#e6e6e6"                     fill-opacity="0.92" />
<rect width="1" height="1" x="8" y="13" fill="#e6e6e6"                     fill-opacity="0.85" />
<rect width="1" height="1" x="9" y="13" fill="#e6e6e6"                     fill-opacity="0.16" />
<rect width="1" height="1" x="14" y="13" fill="#e6e6e6"                     fill-opacity="0.24" />
<rect width="1" height="1" x="15" y="13" fill="#e6e6e6"                     fill-opacity="0.92" />
<rect width="1" height="1" x="16" y="13" fill="#e6e6e6"                     fill-opacity="0.52" />
<rect width="1" height="1" x="3" y="14" fill="#e6e6e6"                     fill-opacity="0.66" />
<rect width="1" height="1" x="4" y="14" fill="#e6e6e6"                     fill-opacity="0.93" />
<rect width="1" height="1" x="5" y="14" fill="#e6e6e6"                     fill-opacity="0.67" />
<rect width="1" height="1" x="6" y="14" fill="#e6e6e6"                     fill-opacity="0.97" />
<rect width="1" height="1" x="7" y="14" fill="#e6e6e6"                     fill-opacity="0.58" />
<rect width="1" height="1" x="8" y="14" fill="#e6e6e6"                     fill-opacity="0.05" />
<rect width="1" height="1" x="12" y="14" fill="#e6e6e6"                     fill-opacity="0.00" />
<rect width="1" height="1" x="14" y="14" fill="#e6e6e6"                     fill-opacity="0.24" />
<rect width="1" height="1" x="15" y="14" fill="#e6e6e6"                     fill-opacity="0.94" />
<rect width="1" height="1" x="16" y="14" fill="#e6e6e6"                     fill-opacity="0.54" />
<rect width="1" height="1" x="3" y="15" fill="#e6e6e6"                     fill-opacity="0.58" />
<rect width="1" height="1" x="4" y="15" fill="#e6e6e6"                     fill-opacity="1.00" />
<rect width="1" height="1" x="5" y="15" fill="#e6e6e6"                     fill-opacity="0.96" />
<rect width="1" height="1" x="6" y="15" fill="#e6e6e6"                     fill-opacity="0.37" />
<rect width="1" height="1" x="12" y="15" fill="#e6e6e6"                     fill-opacity="0.00" />
<rect width="1" height="1" x="14" y="15" fill="#e6e6e6"                     fill-opacity="0.25" />
<rect width="1" height="1" x="15" y="15" fill="#e6e6e6"                     fill-opacity="0.97" />
<rect width="1" height="1" x="16" y="15" fill="#e6e6e6"                     fill-opacity="0.57" />
<rect width="1" height="1" x="3" y="16" fill="#e6e6e6"                     fill-opacity="0.19" />
<rect width="1" height="1" x="4" y="16" fill="#e6e6e6"                     fill-opacity="0.42" />
<rect width="1" height="1" x="5" y="16" fill="#e6e6e6"                     fill-opacity="0.20" />
<rect width="1" height="1" x="14" y="16" fill="#e6e6e6"                     fill-opacity="0.12" />
<rect width="1" height="1" x="15" y="16" fill="#e6e6e6"                     fill-opacity="0.45" />
<rect width="1" height="1" x="16" y="16" fill="#e6e6e6"                     fill-opacity="0.25" />
<rect width="1" height="1" x="3" y="17" fill="#e6e6e6"                     fill-opacity="0.00" />
<rect width="1" height="1" x="4" y="17" fill="#e6e6e6"                     fill-opacity="0.04" />
<rect width="1" height="1" x="14" y="17" fill="#e6e6e6"                     fill-opacity="0.02" />
<rect width="1" height="1" x="15" y="17" fill="#e6e6e6"                     fill-opacity="0.06" />
<rect width="1" height="1" x="16" y="17" fill="#e6e6e6"                     fill-opacity="0.03" />
</svg>
