<?xml version="1.0" encoding="UTF-8" standalone="no"?>
<svg id="svg2" xmlns="http://www.w3.org/2000/svg" version="1.1"                 width="20" height="20" viewBox="0 0 20 20">
<rect width="1" height="1" x="3" y="2" fill="#e6e6e6"                     fill-opacity="0.09" />
<rect width="1" height="1" x="4" y="2" fill="#e6e6e6"                     fill-opacity="0.06" />
<rect width="1" height="1" x="14" y="2" fill="#e6e6e6"                     fill-opacity="0.00" />
<rect width="1" height="1" x="15" y="2" fill="#e6e6e6"                     fill-opacity="0.09" />
<rect width="1" height="1" x="16" y="2" fill="#e6e6e6"                     fill-opacity="0.06" />
<rect width="1" height="1" x="3" y="3" fill="#e6e6e6"                     fill-opacity="0.41" />
<rect width="1" height="1" x="4" y="3" fill="#e6e6e6"                     fill-opacity="0.47" />
<rect width="1" height="1" x="5" y="3" fill="#e6e6e6"                     fill-opacity="0.01" />
<rect width="1" height="1" x="7" y="3" fill="#e6e6e6"                     fill-opacity="0.00" />
<rect width="1" height="1" x="12" y="3" fill="#e6e6e6"                     fill-opacity="0.00" />
<rect width="1" height="1" x="14" y="3" fill="#e6e6e6"                     fill-opacity="0.04" />
<rect width="1" height="1" x="15" y="3" fill="#e6e6e6"                     fill-opacity="0.53" />
<rect width="1" height="1" x="16" y="3" fill="#e6e6e6"                     fill-opacity="0.28" />
<rect width="1" height="1" x="3" y="4" fill="#e6e6e6"                     fill-opacity="0.48" />
<rect width="1" height="1" x="4" y="4" fill="#e6e6e6"                     fill-opacity="1.00" />
<rect width="1" height="1" x="5" y="4" fill="#e6e6e6"                     fill-opacity="0.49" />
<rect width="1" height="1" x="7" y="4" fill="#e6e6e6"                     fill-opacity="0.00" />
<rect width="1" height="1" x="14" y="4" fill="#e6e6e6"                     fill-opacity="0.69" />
<rect width="1" height="1" x="15" y="4" fill="#e6e6e6"                     fill-opacity="1.00" />
<rect width="1" height="1" x="16" y="4" fill="#e6e6e6"                     fill-opacity="0.31" />
<rect width="1" height="1" x="4" y="5" fill="#e6e6e6"                     fill-opacity="0.48" />
<rect width="1" height="1" x="5" y="5" fill="#e6e6e6"                     fill-opacity="1.00" />
<rect width="1" height="1" x="6" y="5" fill="#e6e6e6"                     fill-opacity="0.46" />
<rect width="1" height="1" x="13" y="5" fill="#e6e6e6"                     fill-opacity="0.64" />
<rect width="1" height="1" x="14" y="5" fill="#e6e6e6"                     fill-opacity="1.00" />
<rect width="1" height="1" x="15" y="5" fill="#e6e6e6"                     fill-opacity="0.34" />
<rect width="1" height="1" x="2" y="6" fill="#e6e6e6"                     fill-opacity="0.00" />
<rect width="1" height="1" x="5" y="6" fill="#e6e6e6"                     fill-opacity="0.46" />
<rect width="1" height="1" x="6" y="6" fill="#e6e6e6"                     fill-opacity="1.00" />
<rect width="1" height="1" x="7" y="6" fill="#e6e6e6"                     fill-opacity="0.45" />
<rect width="1" height="1" x="12" y="6" fill="#e6e6e6"                     fill-opacity="0.68" />
<rect width="1" height="1" x="13" y="6" fill="#e6e6e6"                     fill-opacity="1.00" />
<rect width="1" height="1" x="14" y="6" fill="#e6e6e6"                     fill-opacity="0.29" />
<rect width="1" height="1" x="6" y="7" fill="#e6e6e6"                     fill-opacity="0.45" />
<rect width="1" height="1" x="7" y="7" fill="#e6e6e6"                     fill-opacity="1.00" />
<rect width="1" height="1" x="8" y="7" fill="#e6e6e6"                     fill-opacity="0.46" />
<rect width="1" height="1" x="11" y="7" fill="#e6e6e6"                     fill-opacity="0.63" />
<rect width="1" height="1" x="12" y="7" fill="#e6e6e6"                     fill-opacity="1.00" />
<rect width="1" height="1" x="13" y="7" fill="#e6e6e6"                     fill-opacity="0.28" />
<rect width="1" height="1" x="7" y="8" fill="#e6e6e6"                     fill-opacity="0.44" />
<rect width="1" height="1" x="8" y="8" fill="#e6e6e6"                     fill-opacity="1.00" />
<rect width="1" height="1" x="9" y="8" fill="#e6e6e6"                     fill-opacity="0.44" />
<rect width="1" height="1" x="10" y="8" fill="#e6e6e6"                     fill-opacity="0.55" />
<rect width="1" height="1" x="11" y="8" fill="#e6e6e6"                     fill-opacity="0.99" />
<rect width="1" height="1" x="12" y="8" fill="#e6e6e6"                     fill-opacity="0.26" />
<rect width="1" height="1" x="8" y="9" fill="#e6e6e6"                     fill-opacity="0.43" />
<rect width="1" height="1" x="9" y="9" fill="#e6e6e6"                     fill-opacity="1.00" />
<rect width="1" height="1" x="10" y="9" fill="#e6e6e6"                     fill-opacity="0.98" />
<rect width="1" height="1" x="11" y="9" fill="#e6e6e6"                     fill-opacity="0.27" />
<rect width="1" height="1" x="8" y="10" fill="#e6e6e6"                     fill-opacity="0.54" />
<rect width="1" height="1" x="9" y="10" fill="#e6e6e6"                     fill-opacity="1.00" />
<rect width="1" height="1" x="10" y="10" fill="#e6e6e6"                     fill-opacity="0.99" />
<rect width="1" height="1" x="11" y="10" fill="#e6e6e6"                     fill-opacity="0.38" />
<rect width="1" height="1" x="7" y="11" fill="#e6e6e6"                     fill-opacity="0.69" />
<rect width="1" height="1" x="8" y="11" fill="#e6e6e6"                     fill-opacity="1.00" />
<rect width="1" height="1" x="9" y="11" fill="#e6e6e6"                     fill-opacity="0.24" />
<rect width="1" height="1" x="10" y="11" fill="#e6e6e6"                     fill-opacity="0.37" />
<rect width="1" height="1" x="11" y="11" fill="#e6e6e6"                     fill-opacity="1.00" />
<rect width="1" height="1" x="12" y="11" fill="#e6e6e6"                     fill-opacity="0.45" />
<rect width="1" height="1" x="6" y="12" fill="#e6e6e6"                     fill-opacity="0.63" />
<rect width="1" height="1" x="7" y="12" fill="#e6e6e6"                     fill-opacity="1.00" />
<rect width="1" height="1" x="8" y="12" fill="#e6e6e6"                     fill-opacity="0.28" />
<rect width="1" height="1" x="11" y="12" fill="#e6e6e6"                     fill-opacity="0.45" />
<rect width="1" height="1" x="12" y="12" fill="#e6e6e6"                     fill-opacity="1.00" />
<rect width="1" height="1" x="13" y="12" fill="#e6e6e6"                     fill-opacity="0.46" />
<rect width="1" height="1" x="2" y="13" fill="#e6e6e6"                     fill-opacity="0.00" />
<rect width="1" height="1" x="5" y="13" fill="#e6e6e6"                     fill-opacity="0.64" />
<rect width="1" height="1" x="6" y="13" fill="#e6e6e6"                     fill-opacity="0.99" />
<rect width="1" height="1" x="7" y="13" fill="#e6e6e6"                     fill-opacity="0.26" />
<rect width="1" height="1" x="12" y="13" fill="#e6e6e6"                     fill-opacity="0.44" />
<rect width="1" height="1" x="13" y="13" fill="#e6e6e6"                     fill-opacity="1.00" />
<rect width="1" height="1" x="14" y="13" fill="#e6e6e6"                     fill-opacity="0.48" />
<rect width="1" height="1" x="17" y="13" fill="#e6e6e6"                     fill-opacity="0.00" />
<rect width="1" height="1" x="3" y="14" fill="#e6e6e6"                     fill-opacity="0.04" />
<rect width="1" height="1" x="4" y="14" fill="#e6e6e6"                     fill-opacity="0.69" />
<rect width="1" height="1" x="5" y="14" fill="#e6e6e6"                     fill-opacity="1.00" />
<rect width="1" height="1" x="6" y="14" fill="#e6e6e6"                     fill-opacity="0.31" />
<rect width="1" height="1" x="13" y="14" fill="#e6e6e6"                     fill-opacity="0.45" />
<rect width="1" height="1" x="14" y="14" fill="#e6e6e6"                     fill-opacity="1.00" />
<rect width="1" height="1" x="15" y="14" fill="#e6e6e6"                     fill-opacity="0.49" />
<rect width="1" height="1" x="3" y="15" fill="#e6e6e6"                     fill-opacity="0.56" />
<rect width="1" height="1" x="4" y="15" fill="#e6e6e6"                     fill-opacity="1.00" />
<rect width="1" height="1" x="5" y="15" fill="#e6e6e6"                     fill-opacity="0.34" />
<rect width="1" height="1" x="12" y="15" fill="#e6e6e6"                     fill-opacity="0.00" />
<rect width="1" height="1" x="14" y="15" fill="#e6e6e6"                     fill-opacity="0.49" />
<rect width="1" height="1" x="15" y="15" fill="#e6e6e6"                     fill-opacity="1.00" />
<rect width="1" height="1" x="16" y="15" fill="#e6e6e6"                     fill-opacity="0.38" />
<rect width="1" height="1" x="3" y="16" fill="#e6e6e6"                     fill-opacity="0.29" />
<rect width="1" height="1" x="4" y="16" fill="#e6e6e6"                     fill-opacity="0.30" />
<rect width="1" height="1" x="5" y="16" fill="#e6e6e6"                     fill-opacity="0.00" />
<rect width="1" height="1" x="12" y="16" fill="#e6e6e6"                     fill-opacity="0.00" />
<rect width="1" height="1" x="14" y="16" fill="#e6e6e6"                     fill-opacity="0.03" />
<rect width="1" height="1" x="15" y="16" fill="#e6e6e6"                     fill-opacity="0.38" />
<rect width="1" height="1" x="16" y="16" fill="#e6e6e6"                     fill-opacity="0.21" />
<rect width="1" height="1" x="3" y="17" fill="#e6e6e6"                     fill-opacity="0.03" />
<rect width="1" height="1" x="4" y="17" fill="#e6e6e6"                     fill-opacity="0.01" />
<rect width="1" height="1" x="15" y="17" fill="#e6e6e6"                     fill-opacity="0.03" />
<rect width="1" height="1" x="16" y="17" fill="#e6e6e6"                     fill-opacity="0.02" />
</svg>
