<?xml version="1.0" encoding="UTF-8" standalone="no"?>
<svg id="svg2" xmlns="http://www.w3.org/2000/svg" version="1.1"                 width="20" height="20" viewBox="0 0 20 20">
<rect width="1" height="1" x="2" y="3" fill="#e6e6e6"                     fill-opacity="0.31" />
<rect width="1" height="1" x="3" y="3" fill="#e6e6e6"                     fill-opacity="0.64" />
<rect width="1" height="1" x="4" y="3" fill="#e6e6e6"                     fill-opacity="0.76" />
<rect width="1" height="1" x="5" y="3" fill="#e6e6e6"                     fill-opacity="0.69" />
<rect width="1" height="1" x="6" y="3" fill="#e6e6e6"                     fill-opacity="0.69" />
<rect width="1" height="1" x="7" y="3" fill="#e6e6e6"                     fill-opacity="0.69" />
<rect width="1" height="1" x="8" y="3" fill="#e6e6e6"                     fill-opacity="0.69" />
<rect width="1" height="1" x="9" y="3" fill="#e6e6e6"                     fill-opacity="0.69" />
<rect width="1" height="1" x="10" y="3" fill="#e6e6e6"                     fill-opacity="0.69" />
<rect width="1" height="1" x="11" y="3" fill="#e6e6e6"                     fill-opacity="0.69" />
<rect width="1" height="1" x="12" y="3" fill="#e6e6e6"                     fill-opacity="0.69" />
<rect width="1" height="1" x="13" y="3" fill="#e6e6e6"                     fill-opacity="0.69" />
<rect width="1" height="1" x="14" y="3" fill="#e6e6e6"                     fill-opacity="0.69" />
<rect width="1" height="1" x="15" y="3" fill="#e6e6e6"                     fill-opacity="0.78" />
<rect width="1" height="1" x="16" y="3" fill="#e6e6e6"                     fill-opacity="0.53" />
<rect width="1" height="1" x="17" y="3" fill="#e6e6e6"                     fill-opacity="0.18" />
<rect width="1" height="1" x="2" y="4" fill="#e6e6e6"                     fill-opacity="0.40" />
<rect width="1" height="1" x="3" y="4" fill="#e6e6e6"                     fill-opacity="0.84" />
<rect width="1" height="1" x="4" y="4" fill="#e6e6e6"                     fill-opacity="1.00" />
<rect width="1" height="1" x="5" y="4" fill="#e6e6e6"                     fill-opacity="0.91" />
<rect width="1" height="1" x="6" y="4" fill="#e6e6e6"                     fill-opacity="0.92" />
<rect width="1" height="1" x="7" y="4" fill="#e6e6e6"                     fill-opacity="0.92" />
<rect width="1" height="1" x="8" y="4" fill="#e6e6e6"                     fill-opacity="0.92" />
<rect width="1" height="1" x="9" y="4" fill="#e6e6e6"                     fill-opacity="0.92" />
<rect width="1" height="1" x="10" y="4" fill="#e6e6e6"                     fill-opacity="0.92" />
<rect width="1" height="1" x="11" y="4" fill="#e6e6e6"                     fill-opacity="0.92" />
<rect width="1" height="1" x="12" y="4" fill="#e6e6e6"                     fill-opacity="0.92" />
<rect width="1" height="1" x="13" y="4" fill="#e6e6e6"                     fill-opacity="0.92" />
<rect width="1" height="1" x="14" y="4" fill="#e6e6e6"                     fill-opacity="0.92" />
<rect width="1" height="1" x="15" y="4" fill="#e6e6e6"                     fill-opacity="1.00" />
<rect width="1" height="1" x="16" y="4" fill="#e6e6e6"                     fill-opacity="0.70" />
<rect width="1" height="1" x="17" y="4" fill="#e6e6e6"                     fill-opacity="0.24" />
<rect width="1" height="1" x="2" y="5" fill="#e6e6e6"                     fill-opacity="0.04" />
<rect width="1" height="1" x="3" y="5" fill="#e6e6e6"                     fill-opacity="0.09" />
<rect width="1" height="1" x="4" y="5" fill="#e6e6e6"                     fill-opacity="0.11" />
<rect width="1" height="1" x="5" y="5" fill="#e6e6e6"                     fill-opacity="0.10" />
<rect width="1" height="1" x="6" y="5" fill="#e6e6e6"                     fill-opacity="0.10" />
<rect width="1" height="1" x="7" y="5" fill="#e6e6e6"                     fill-opacity="0.10" />
<rect width="1" height="1" x="8" y="5" fill="#e6e6e6"                     fill-opacity="0.10" />
<rect width="1" height="1" x="9" y="5" fill="#e6e6e6"                     fill-opacity="0.10" />
<rect width="1" height="1" x="10" y="5" fill="#e6e6e6"                     fill-opacity="0.10" />
<rect width="1" height="1" x="11" y="5" fill="#e6e6e6"                     fill-opacity="0.10" />
<rect width="1" height="1" x="12" y="5" fill="#e6e6e6"                     fill-opacity="0.10" />
<rect width="1" height="1" x="13" y="5" fill="#e6e6e6"                     fill-opacity="0.10" />
<rect width="1" height="1" x="14" y="5" fill="#e6e6e6"                     fill-opacity="0.10" />
<rect width="1" height="1" x="15" y="5" fill="#e6e6e6"                     fill-opacity="0.11" />
<rect width="1" height="1" x="16" y="5" fill="#e6e6e6"                     fill-opacity="0.07" />
<rect width="1" height="1" x="17" y="5" fill="#e6e6e6"                     fill-opacity="0.02" />
<rect width="1" height="1" x="2" y="9" fill="#e6e6e6"                     fill-opacity="0.34" />
<rect width="1" height="1" x="3" y="9" fill="#e6e6e6"                     fill-opacity="0.72" />
<rect width="1" height="1" x="4" y="9" fill="#e6e6e6"                     fill-opacity="0.87" />
<rect width="1" height="1" x="5" y="9" fill="#e6e6e6"                     fill-opacity="0.80" />
<rect width="1" height="1" x="6" y="9" fill="#e6e6e6"                     fill-opacity="0.80" />
<rect width="1" height="1" x="7" y="9" fill="#e6e6e6"                     fill-opacity="0.80" />
<rect width="1" height="1" x="8" y="9" fill="#e6e6e6"                     fill-opacity="0.80" />
<rect width="1" height="1" x="9" y="9" fill="#e6e6e6"                     fill-opacity="0.80" />
<rect width="1" height="1" x="10" y="9" fill="#e6e6e6"                     fill-opacity="0.80" />
<rect width="1" height="1" x="11" y="9" fill="#e6e6e6"                     fill-opacity="0.80" />
<rect width="1" height="1" x="12" y="9" fill="#e6e6e6"                     fill-opacity="0.80" />
<rect width="1" height="1" x="13" y="9" fill="#e6e6e6"                     fill-opacity="0.80" />
<rect width="1" height="1" x="14" y="9" fill="#e6e6e6"                     fill-opacity="0.80" />
<rect width="1" height="1" x="15" y="9" fill="#e6e6e6"                     fill-opacity="0.89" />
<rect width="1" height="1" x="16" y="9" fill="#e6e6e6"                     fill-opacity="0.59" />
<rect width="1" height="1" x="17" y="9" fill="#e6e6e6"                     fill-opacity="0.20" />
<rect width="1" height="1" x="2" y="10" fill="#e6e6e6"                     fill-opacity="0.28" />
<rect width="1" height="1" x="3" y="10" fill="#e6e6e6"                     fill-opacity="0.59" />
<rect width="1" height="1" x="4" y="10" fill="#e6e6e6"                     fill-opacity="0.71" />
<rect width="1" height="1" x="5" y="10" fill="#e6e6e6"                     fill-opacity="0.65" />
<rect width="1" height="1" x="6" y="10" fill="#e6e6e6"                     fill-opacity="0.65" />
<rect width="1" height="1" x="7" y="10" fill="#e6e6e6"                     fill-opacity="0.65" />
<rect width="1" height="1" x="8" y="10" fill="#e6e6e6"                     fill-opacity="0.65" />
<rect width="1" height="1" x="9" y="10" fill="#e6e6e6"                     fill-opacity="0.65" />
<rect width="1" height="1" x="10" y="10" fill="#e6e6e6"                     fill-opacity="0.65" />
<rect width="1" height="1" x="11" y="10" fill="#e6e6e6"                     fill-opacity="0.65" />
<rect width="1" height="1" x="12" y="10" fill="#e6e6e6"                     fill-opacity="0.65" />
<rect width="1" height="1" x="13" y="10" fill="#e6e6e6"                     fill-opacity="0.65" />
<rect width="1" height="1" x="14" y="10" fill="#e6e6e6"                     fill-opacity="0.65" />
<rect width="1" height="1" x="15" y="10" fill="#e6e6e6"                     fill-opacity="0.73" />
<rect width="1" height="1" x="16" y="10" fill="#e6e6e6"                     fill-opacity="0.48" />
<rect width="1" height="1" x="17" y="10" fill="#e6e6e6"                     fill-opacity="0.16" />
<rect width="1" height="1" x="3" y="12" fill="#e6e6e6"                     fill-opacity="0.00" />
<rect width="1" height="1" x="4" y="12" fill="#e6e6e6"                     fill-opacity="0.00" />
<rect width="1" height="1" x="5" y="12" fill="#e6e6e6"                     fill-opacity="0.00" />
<rect width="1" height="1" x="6" y="12" fill="#e6e6e6"                     fill-opacity="0.00" />
<rect width="1" height="1" x="7" y="12" fill="#e6e6e6"                     fill-opacity="0.00" />
<rect width="1" height="1" x="8" y="12" fill="#e6e6e6"                     fill-opacity="0.00" />
<rect width="1" height="1" x="9" y="12" fill="#e6e6e6"                     fill-opacity="0.00" />
<rect width="1" height="1" x="10" y="12" fill="#e6e6e6"                     fill-opacity="0.00" />
<rect width="1" height="1" x="11" y="12" fill="#e6e6e6"                     fill-opacity="0.00" />
<rect width="1" height="1" x="12" y="12" fill="#e6e6e6"                     fill-opacity="0.00" />
<rect width="1" height="1" x="13" y="12" fill="#e6e6e6"                     fill-opacity="0.00" />
<rect width="1" height="1" x="14" y="12" fill="#e6e6e6"                     fill-opacity="0.00" />
<rect width="1" height="1" x="15" y="12" fill="#e6e6e6"                     fill-opacity="0.00" />
<rect width="1" height="1" x="2" y="14" fill="#e6e6e6"                     fill-opacity="0.11" />
<rect width="1" height="1" x="3" y="14" fill="#e6e6e6"                     fill-opacity="0.22" />
<rect width="1" height="1" x="4" y="14" fill="#e6e6e6"                     fill-opacity="0.26" />
<rect width="1" height="1" x="5" y="14" fill="#e6e6e6"                     fill-opacity="0.24" />
<rect width="1" height="1" x="6" y="14" fill="#e6e6e6"                     fill-opacity="0.24" />
<rect width="1" height="1" x="7" y="14" fill="#e6e6e6"                     fill-opacity="0.24" />
<rect width="1" height="1" x="8" y="14" fill="#e6e6e6"                     fill-opacity="0.24" />
<rect width="1" height="1" x="9" y="14" fill="#e6e6e6"                     fill-opacity="0.24" />
<rect width="1" height="1" x="10" y="14" fill="#e6e6e6"                     fill-opacity="0.24" />
<rect width="1" height="1" x="11" y="14" fill="#e6e6e6"                     fill-opacity="0.24" />
<rect width="1" height="1" x="12" y="14" fill="#e6e6e6"                     fill-opacity="0.24" />
<rect width="1" height="1" x="13" y="14" fill="#e6e6e6"                     fill-opacity="0.24" />
<rect width="1" height="1" x="14" y="14" fill="#e6e6e6"                     fill-opacity="0.24" />
<rect width="1" height="1" x="15" y="14" fill="#e6e6e6"                     fill-opacity="0.26" />
<rect width="1" height="1" x="16" y="14" fill="#e6e6e6"                     fill-opacity="0.19" />
<rect width="1" height="1" x="17" y="14" fill="#e6e6e6"                     fill-opacity="0.07" />
<rect width="1" height="1" x="2" y="15" fill="#e6e6e6"                     fill-opacity="0.40" />
<rect width="1" height="1" x="3" y="15" fill="#e6e6e6"                     fill-opacity="0.81" />
<rect width="1" height="1" x="4" y="15" fill="#e6e6e6"                     fill-opacity="0.98" />
<rect width="1" height="1" x="5" y="15" fill="#e6e6e6"                     fill-opacity="0.92" />
<rect width="1" height="1" x="6" y="15" fill="#e6e6e6"                     fill-opacity="0.92" />
<rect width="1" height="1" x="7" y="15" fill="#e6e6e6"                     fill-opacity="0.92" />
<rect width="1" height="1" x="8" y="15" fill="#e6e6e6"                     fill-opacity="0.92" />
<rect width="1" height="1" x="9" y="15" fill="#e6e6e6"                     fill-opacity="0.92" />
<rect width="1" height="1" x="10" y="15" fill="#e6e6e6"                     fill-opacity="0.92" />
<rect width="1" height="1" x="11" y="15" fill="#e6e6e6"                     fill-opacity="0.92" />
<rect width="1" height="1" x="12" y="15" fill="#e6e6e6"                     fill-opacity="0.92" />
<rect width="1" height="1" x="13" y="15" fill="#e6e6e6"                     fill-opacity="0.92" />
<rect width="1" height="1" x="14" y="15" fill="#e6e6e6"                     fill-opacity="0.92" />
<rect width="1" height="1" x="15" y="15" fill="#e6e6e6"                     fill-opacity="1.00" />
<rect width="1" height="1" x="16" y="15" fill="#e6e6e6"                     fill-opacity="0.71" />
<rect width="1" height="1" x="17" y="15" fill="#e6e6e6"                     fill-opacity="0.25" />
<rect width="1" height="1" x="2" y="16" fill="#e6e6e6"                     fill-opacity="0.22" />
<rect width="1" height="1" x="3" y="16" fill="#e6e6e6"                     fill-opacity="0.47" />
<rect width="1" height="1" x="4" y="16" fill="#e6e6e6"                     fill-opacity="0.57" />
<rect width="1" height="1" x="5" y="16" fill="#e6e6e6"                     fill-opacity="0.52" />
<rect width="1" height="1" x="6" y="16" fill="#e6e6e6"                     fill-opacity="0.52" />
<rect width="1" height="1" x="7" y="16" fill="#e6e6e6"                     fill-opacity="0.52" />
<rect width="1" height="1" x="8" y="16" fill="#e6e6e6"                     fill-opacity="0.52" />
<rect width="1" height="1" x="9" y="16" fill="#e6e6e6"                     fill-opacity="0.52" />
<rect width="1" height="1" x="10" y="16" fill="#e6e6e6"                     fill-opacity="0.52" />
<rect width="1" height="1" x="11" y="16" fill="#e6e6e6"                     fill-opacity="0.52" />
<rect width="1" height="1" x="12" y="16" fill="#e6e6e6"                     fill-opacity="0.52" />
<rect width="1" height="1" x="13" y="16" fill="#e6e6e6"                     fill-opacity="0.52" />
<rect width="1" height="1" x="14" y="16" fill="#e6e6e6"                     fill-opacity="0.52" />
<rect width="1" height="1" x="15" y="16" fill="#e6e6e6"                     fill-opacity="0.58" />
<rect width="1" height="1" x="16" y="16" fill="#e6e6e6"                     fill-opacity="0.40" />
<rect width="1" height="1" x="17" y="16" fill="#e6e6e6"                     fill-opacity="0.13" />
</svg>
