<?xml version="1.0" encoding="UTF-8" standalone="no"?>
<svg id="svg2" xmlns="http://www.w3.org/2000/svg" version="1.1"                 width="20" height="20" viewBox="0 0 20 20">
<rect width="1" height="1" x="5" y="0" fill="#e6e6e6"                     fill-opacity="0.06" />
<rect width="1" height="1" x="6" y="0" fill="#e6e6e6"                     fill-opacity="0.40" />
<rect width="1" height="1" x="7" y="0" fill="#e6e6e6"                     fill-opacity="0.62" />
<rect width="1" height="1" x="8" y="0" fill="#e6e6e6"                     fill-opacity="0.52" />
<rect width="1" height="1" x="9" y="0" fill="#e6e6e6"                     fill-opacity="0.17" />
<rect width="1" height="1" x="15" y="0" fill="#e6e6e6"                     fill-opacity="0.00" />
<rect width="1" height="1" x="2" y="1" fill="#e6e6e6"                     fill-opacity="0.00" />
<rect width="1" height="1" x="4" y="1" fill="#e6e6e6"                     fill-opacity="0.18" />
<rect width="1" height="1" x="5" y="1" fill="#e6e6e6"                     fill-opacity="0.85" />
<rect width="1" height="1" x="6" y="1" fill="#e6e6e6"                     fill-opacity="0.95" />
<rect width="1" height="1" x="7" y="1" fill="#e6e6e6"                     fill-opacity="0.78" />
<rect width="1" height="1" x="8" y="1" fill="#e6e6e6"                     fill-opacity="0.85" />
<rect width="1" height="1" x="9" y="1" fill="#e6e6e6"                     fill-opacity="1.00" />
<rect width="1" height="1" x="10" y="1" fill="#e6e6e6"                     fill-opacity="0.46" />
<rect width="1" height="1" x="15" y="1" fill="#e6e6e6"                     fill-opacity="0.11" />
<rect width="1" height="1" x="16" y="1" fill="#e6e6e6"                     fill-opacity="0.59" />
<rect width="1" height="1" x="17" y="1" fill="#e6e6e6"                     fill-opacity="0.17" />
<rect width="1" height="1" x="3" y="2" fill="#e6e6e6"                     fill-opacity="0.09" />
<rect width="1" height="1" x="4" y="2" fill="#e6e6e6"                     fill-opacity="0.88" />
<rect width="1" height="1" x="5" y="2" fill="#e6e6e6"                     fill-opacity="0.82" />
<rect width="1" height="1" x="6" y="2" fill="#e6e6e6"                     fill-opacity="0.16" />
<rect width="1" height="1" x="8" y="2" fill="#e6e6e6"                     fill-opacity="0.04" />
<rect width="1" height="1" x="9" y="2" fill="#e6e6e6"                     fill-opacity="0.55" />
<rect width="1" height="1" x="10" y="2" fill="#e6e6e6"                     fill-opacity="1.00" />
<rect width="1" height="1" x="11" y="2" fill="#e6e6e6"                     fill-opacity="0.38" />
<rect width="1" height="1" x="15" y="2" fill="#e6e6e6"                     fill-opacity="0.09" />
<rect width="1" height="1" x="16" y="2" fill="#e6e6e6"                     fill-opacity="0.97" />
<rect width="1" height="1" x="17" y="2" fill="#e6e6e6"                     fill-opacity="0.71" />
<rect width="1" height="1" x="3" y="3" fill="#e6e6e6"                     fill-opacity="0.51" />
<rect width="1" height="1" x="4" y="3" fill="#e6e6e6"                     fill-opacity="0.96" />
<rect width="1" height="1" x="5" y="3" fill="#e6e6e6"                     fill-opacity="0.09" />
<rect width="1" height="1" x="10" y="3" fill="#e6e6e6"                     fill-opacity="0.65" />
<rect width="1" height="1" x="11" y="3" fill="#e6e6e6"                     fill-opacity="0.86" />
<rect width="1" height="1" x="13" y="3" fill="#e6e6e6"                     fill-opacity="0.32" />
<rect width="1" height="1" x="14" y="3" fill="#e6e6e6"                     fill-opacity="0.40" />
<rect width="1" height="1" x="16" y="3" fill="#e6e6e6"                     fill-opacity="0.35" />
<rect width="1" height="1" x="17" y="3" fill="#e6e6e6"                     fill-opacity="1.00" />
<rect width="1" height="1" x="18" y="3" fill="#e6e6e6"                     fill-opacity="0.20" />
<rect width="1" height="1" x="3" y="4" fill="#e6e6e6"                     fill-opacity="0.75" />
<rect width="1" height="1" x="4" y="4" fill="#e6e6e6"                     fill-opacity="0.71" />
<rect width="1" height="1" x="10" y="4" fill="#e6e6e6"                     fill-opacity="0.28" />
<rect width="1" height="1" x="11" y="4" fill="#e6e6e6"                     fill-opacity="0.96" />
<rect width="1" height="1" x="12" y="4" fill="#e6e6e6"                     fill-opacity="0.07" />
<rect width="1" height="1" x="13" y="4" fill="#e6e6e6"                     fill-opacity="0.47" />
<rect width="1" height="1" x="14" y="4" fill="#e6e6e6"                     fill-opacity="1.00" />
<rect width="1" height="1" x="15" y="4" fill="#e6e6e6"                     fill-opacity="0.10" />
<rect width="1" height="1" x="16" y="4" fill="#e6e6e6"                     fill-opacity="0.04" />
<rect width="1" height="1" x="17" y="4" fill="#e6e6e6"                     fill-opacity="0.95" />
<rect width="1" height="1" x="18" y="4" fill="#e6e6e6"                     fill-opacity="0.51" />
<rect width="1" height="1" x="3" y="5" fill="#e6e6e6"                     fill-opacity="0.77" />
<rect width="1" height="1" x="4" y="5" fill="#e6e6e6"                     fill-opacity="0.66" />
<rect width="1" height="1" x="10" y="5" fill="#e6e6e6"                     fill-opacity="0.30" />
<rect width="1" height="1" x="11" y="5" fill="#e6e6e6"                     fill-opacity="0.97" />
<rect width="1" height="1" x="12" y="5" fill="#e6e6e6"                     fill-opacity="0.18" />
<rect width="1" height="1" x="13" y="5" fill="#e6e6e6"                     fill-opacity="0.07" />
<rect width="1" height="1" x="14" y="5" fill="#e6e6e6"                     fill-opacity="0.91" />
<rect width="1" height="1" x="15" y="5" fill="#e6e6e6"                     fill-opacity="0.40" />
<rect width="1" height="1" x="17" y="5" fill="#e6e6e6"                     fill-opacity="0.76" />
<rect width="1" height="1" x="18" y="5" fill="#e6e6e6"                     fill-opacity="0.71" />
<rect width="1" height="1" x="3" y="6" fill="#e6e6e6"                     fill-opacity="0.75" />
<rect width="1" height="1" x="4" y="6" fill="#e6e6e6"                     fill-opacity="0.67" />
<rect width="1" height="1" x="10" y="6" fill="#e6e6e6"                     fill-opacity="0.31" />
<rect width="1" height="1" x="11" y="6" fill="#e6e6e6"                     fill-opacity="0.96" />
<rect width="1" height="1" x="12" y="6" fill="#e6e6e6"                     fill-opacity="0.20" />
<rect width="1" height="1" x="14" y="6" fill="#e6e6e6"                     fill-opacity="0.82" />
<rect width="1" height="1" x="15" y="6" fill="#e6e6e6"                     fill-opacity="0.53" />
<rect width="1" height="1" x="17" y="6" fill="#e6e6e6"                     fill-opacity="0.68" />
<rect width="1" height="1" x="18" y="6" fill="#e6e6e6"                     fill-opacity="0.77" />
<rect width="1" height="1" x="19" y="6" fill="#e6e6e6"                     fill-opacity="0.00" />
<rect width="1" height="1" x="3" y="7" fill="#e6e6e6"                     fill-opacity="0.78" />
<rect width="1" height="1" x="4" y="7" fill="#e6e6e6"                     fill-opacity="0.64" />
<rect width="1" height="1" x="10" y="7" fill="#e6e6e6"                     fill-opacity="0.28" />
<rect width="1" height="1" x="11" y="7" fill="#e6e6e6"                     fill-opacity="0.97" />
<rect width="1" height="1" x="12" y="7" fill="#e6e6e6"                     fill-opacity="0.19" />
<rect width="1" height="1" x="13" y="7" fill="#e6e6e6"                     fill-opacity="0.05" />
<rect width="1" height="1" x="14" y="7" fill="#e6e6e6"                     fill-opacity="0.89" />
<rect width="1" height="1" x="15" y="7" fill="#e6e6e6"                     fill-opacity="0.39" />
<rect width="1" height="1" x="17" y="7" fill="#e6e6e6"                     fill-opacity="0.76" />
<rect width="1" height="1" x="18" y="7" fill="#e6e6e6"                     fill-opacity="0.71" />
<rect width="1" height="1" x="3" y="8" fill="#e6e6e6"                     fill-opacity="0.70" />
<rect width="1" height="1" x="4" y="8" fill="#e6e6e6"                     fill-opacity="0.77" />
<rect width="1" height="1" x="10" y="8" fill="#e6e6e6"                     fill-opacity="0.36" />
<rect width="1" height="1" x="11" y="8" fill="#e6e6e6"                     fill-opacity="0.93" />
<rect width="1" height="1" x="12" y="8" fill="#e6e6e6"                     fill-opacity="0.04" />
<rect width="1" height="1" x="13" y="8" fill="#e6e6e6"                     fill-opacity="0.51" />
<rect width="1" height="1" x="14" y="8" fill="#e6e6e6"                     fill-opacity="0.99" />
<rect width="1" height="1" x="15" y="8" fill="#e6e6e6"                     fill-opacity="0.05" />
<rect width="1" height="1" x="16" y="8" fill="#e6e6e6"                     fill-opacity="0.08" />
<rect width="1" height="1" x="17" y="8" fill="#e6e6e6"                     fill-opacity="0.97" />
<rect width="1" height="1" x="18" y="8" fill="#e6e6e6"                     fill-opacity="0.47" />
<rect width="1" height="1" x="3" y="9" fill="#e6e6e6"                     fill-opacity="0.35" />
<rect width="1" height="1" x="4" y="9" fill="#e6e6e6"                     fill-opacity="0.96" />
<rect width="1" height="1" x="5" y="9" fill="#e6e6e6"                     fill-opacity="0.26" />
<rect width="1" height="1" x="7" y="9" fill="#e6e6e6"                     fill-opacity="0.00" />
<rect width="1" height="1" x="10" y="9" fill="#e6e6e6"                     fill-opacity="0.79" />
<rect width="1" height="1" x="11" y="9" fill="#e6e6e6"                     fill-opacity="0.73" />
<rect width="1" height="1" x="13" y="9" fill="#e6e6e6"                     fill-opacity="0.31" />
<rect width="1" height="1" x="14" y="9" fill="#e6e6e6"                     fill-opacity="0.36" />
<rect width="1" height="1" x="16" y="9" fill="#e6e6e6"                     fill-opacity="0.45" />
<rect width="1" height="1" x="17" y="9" fill="#e6e6e6"                     fill-opacity="1.00" />
<rect width="1" height="1" x="18" y="9" fill="#e6e6e6"                     fill-opacity="0.18" />
<rect width="1" height="1" x="4" y="10" fill="#e6e6e6"                     fill-opacity="0.72" />
<rect width="1" height="1" x="5" y="10" fill="#e6e6e6"                     fill-opacity="0.77" />
<rect width="1" height="1" x="6" y="10" fill="#e6e6e6"                     fill-opacity="0.05" />
<rect width="1" height="1" x="7" y="10" fill="#e6e6e6"                     fill-opacity="0.00" />
<rect width="1" height="1" x="8" y="10" fill="#e6e6e6"                     fill-opacity="0.00" />
<rect width="1" height="1" x="9" y="10" fill="#e6e6e6"                     fill-opacity="0.42" />
<rect width="1" height="1" x="10" y="10" fill="#e6e6e6"                     fill-opacity="0.94" />
<rect width="1" height="1" x="11" y="10" fill="#e6e6e6"                     fill-opacity="0.18" />
<rect width="1" height="1" x="15" y="10" fill="#e6e6e6"                     fill-opacity="0.11" />
<rect width="1" height="1" x="16" y="10" fill="#e6e6e6"                     fill-opacity="0.98" />
<rect width="1" height="1" x="17" y="10" fill="#e6e6e6"                     fill-opacity="0.65" />
<rect width="1" height="1" x="4" y="11" fill="#e6e6e6"                     fill-opacity="0.63" />
<rect width="1" height="1" x="5" y="11" fill="#e6e6e6"                     fill-opacity="1.00" />
<rect width="1" height="1" x="6" y="11" fill="#e6e6e6"                     fill-opacity="0.30" />
<rect width="1" height="1" x="8" y="11" fill="#e6e6e6"                     fill-opacity="0.00" />
<rect width="1" height="1" x="9" y="11" fill="#e6e6e6"                     fill-opacity="0.92" />
<rect width="1" height="1" x="10" y="11" fill="#e6e6e6"                     fill-opacity="1.00" />
<rect width="1" height="1" x="11" y="11" fill="#e6e6e6"                     fill-opacity="0.11" />
<rect width="1" height="1" x="15" y="11" fill="#e6e6e6"                     fill-opacity="0.09" />
<rect width="1" height="1" x="16" y="11" fill="#e6e6e6"                     fill-opacity="0.48" />
<rect width="1" height="1" x="17" y="11" fill="#e6e6e6"                     fill-opacity="0.16" />
<rect width="1" height="1" x="2" y="12" fill="#e6e6e6"                     fill-opacity="0.15" />
<rect width="1" height="1" x="3" y="12" fill="#e6e6e6"                     fill-opacity="0.73" />
<rect width="1" height="1" x="4" y="12" fill="#e6e6e6"                     fill-opacity="1.00" />
<rect width="1" height="1" x="5" y="12" fill="#e6e6e6"                     fill-opacity="0.57" />
<rect width="1" height="1" x="6" y="12" fill="#e6e6e6"                     fill-opacity="0.10" />
<rect width="1" height="1" x="9" y="12" fill="#e6e6e6"                     fill-opacity="0.30" />
<rect width="1" height="1" x="10" y="12" fill="#e6e6e6"                     fill-opacity="0.82" />
<rect width="1" height="1" x="11" y="12" fill="#e6e6e6"                     fill-opacity="0.98" />
<rect width="1" height="1" x="12" y="12" fill="#e6e6e6"                     fill-opacity="0.39" />
<rect width="1" height="1" x="1" y="13" fill="#e6e6e6"                     fill-opacity="0.33" />
<rect width="1" height="1" x="2" y="13" fill="#e6e6e6"                     fill-opacity="0.93" />
<rect width="1" height="1" x="3" y="13" fill="#e6e6e6"                     fill-opacity="0.87" />
<rect width="1" height="1" x="4" y="13" fill="#e6e6e6"                     fill-opacity="0.23" />
<rect width="1" height="1" x="10" y="13" fill="#e6e6e6"                     fill-opacity="0.08" />
<rect width="1" height="1" x="11" y="13" fill="#e6e6e6"                     fill-opacity="0.58" />
<rect width="1" height="1" x="12" y="13" fill="#e6e6e6"                     fill-opacity="1.00" />
<rect width="1" height="1" x="13" y="13" fill="#e6e6e6"                     fill-opacity="0.64" />
<rect width="1" height="1" x="14" y="13" fill="#e6e6e6"                     fill-opacity="0.04" />
<rect width="1" height="1" x="0" y="14" fill="#e6e6e6"                     fill-opacity="0.22" />
<rect width="1" height="1" x="1" y="14" fill="#e6e6e6"                     fill-opacity="0.98" />
<rect width="1" height="1" x="2" y="14" fill="#e6e6e6"                     fill-opacity="0.60" />
<rect width="1" height="1" x="3" y="14" fill="#e6e6e6"                     fill-opacity="0.05" />
<rect width="1" height="1" x="12" y="14" fill="#e6e6e6"                     fill-opacity="0.30" />
<rect width="1" height="1" x="13" y="14" fill="#e6e6e6"                     fill-opacity="1.00" />
<rect width="1" height="1" x="14" y="14" fill="#e6e6e6"                     fill-opacity="0.54" />
<rect width="1" height="1" x="0" y="15" fill="#e6e6e6"                     fill-opacity="0.55" />
<rect width="1" height="1" x="1" y="15" fill="#e6e6e6"                     fill-opacity="0.88" />
<rect width="1" height="1" x="2" y="15" fill="#e6e6e6"                     fill-opacity="0.01" />
<rect width="1" height="1" x="13" y="15" fill="#e6e6e6"                     fill-opacity="0.54" />
<rect width="1" height="1" x="14" y="15" fill="#e6e6e6"                     fill-opacity="0.92" />
<rect width="1" height="1" x="15" y="15" fill="#e6e6e6"                     fill-opacity="0.07" />
<rect width="1" height="1" x="0" y="16" fill="#e6e6e6"                     fill-opacity="0.64" />
<rect width="1" height="1" x="1" y="16" fill="#e6e6e6"                     fill-opacity="0.76" />
<rect width="1" height="1" x="13" y="16" fill="#e6e6e6"                     fill-opacity="0.37" />
<rect width="1" height="1" x="14" y="16" fill="#e6e6e6"                     fill-opacity="0.93" />
<rect width="1" height="1" x="15" y="16" fill="#e6e6e6"                     fill-opacity="0.11" />
<rect width="1" height="1" x="0" y="17" fill="#e6e6e6"                     fill-opacity="0.60" />
<rect width="1" height="1" x="1" y="17" fill="#e6e6e6"                     fill-opacity="0.83" />
<rect width="1" height="1" x="2" y="17" fill="#e6e6e6"                     fill-opacity="0.11" />
<rect width="1" height="1" x="3" y="17" fill="#e6e6e6"                     fill-opacity="0.11" />
<rect width="1" height="1" x="4" y="17" fill="#e6e6e6"                     fill-opacity="0.13" />
<rect width="1" height="1" x="5" y="17" fill="#e6e6e6"                     fill-opacity="0.13" />
<rect width="1" height="1" x="6" y="17" fill="#e6e6e6"                     fill-opacity="0.13" />
<rect width="1" height="1" x="7" y="17" fill="#e6e6e6"                     fill-opacity="0.13" />
<rect width="1" height="1" x="8" y="17" fill="#e6e6e6"                     fill-opacity="0.13" />
<rect width="1" height="1" x="9" y="17" fill="#e6e6e6"                     fill-opacity="0.13" />
<rect width="1" height="1" x="10" y="17" fill="#e6e6e6"                     fill-opacity="0.13" />
<rect width="1" height="1" x="11" y="17" fill="#e6e6e6"                     fill-opacity="0.13" />
<rect width="1" height="1" x="12" y="17" fill="#e6e6e6"                     fill-opacity="0.07" />
<rect width="1" height="1" x="13" y="17" fill="#e6e6e6"                     fill-opacity="0.50" />
<rect width="1" height="1" x="14" y="17" fill="#e6e6e6"                     fill-opacity="0.93" />
<rect width="1" height="1" x="15" y="17" fill="#e6e6e6"                     fill-opacity="0.10" />
<rect width="1" height="1" x="0" y="18" fill="#e6e6e6"                     fill-opacity="0.52" />
<rect width="1" height="1" x="1" y="18" fill="#e6e6e6"                     fill-opacity="1.00" />
<rect width="1" height="1" x="2" y="18" fill="#e6e6e6"                     fill-opacity="0.91" />
<rect width="1" height="1" x="3" y="18" fill="#e6e6e6"                     fill-opacity="0.90" />
<rect width="1" height="1" x="4" y="18" fill="#e6e6e6"                     fill-opacity="0.92" />
<rect width="1" height="1" x="5" y="18" fill="#e6e6e6"                     fill-opacity="0.92" />
<rect width="1" height="1" x="6" y="18" fill="#e6e6e6"                     fill-opacity="0.92" />
<rect width="1" height="1" x="7" y="18" fill="#e6e6e6"                     fill-opacity="0.92" />
<rect width="1" height="1" x="8" y="18" fill="#e6e6e6"                     fill-opacity="0.92" />
<rect width="1" height="1" x="9" y="18" fill="#e6e6e6"                     fill-opacity="0.92" />
<rect width="1" height="1" x="10" y="18" fill="#e6e6e6"                     fill-opacity="0.92" />
<rect width="1" height="1" x="11" y="18" fill="#e6e6e6"                     fill-opacity="0.92" />
<rect width="1" height="1" x="12" y="18" fill="#e6e6e6"                     fill-opacity="0.87" />
<rect width="1" height="1" x="13" y="18" fill="#e6e6e6"                     fill-opacity="0.98" />
<rect width="1" height="1" x="14" y="18" fill="#e6e6e6"                     fill-opacity="0.88" />
<rect width="1" height="1" x="15" y="18" fill="#e6e6e6"                     fill-opacity="0.07" />
<rect width="1" height="1" x="0" y="19" fill="#e6e6e6"                     fill-opacity="0.15" />
<rect width="1" height="1" x="1" y="19" fill="#e6e6e6"                     fill-opacity="0.36" />
<rect width="1" height="1" x="2" y="19" fill="#e6e6e6"                     fill-opacity="0.40" />
<rect width="1" height="1" x="3" y="19" fill="#e6e6e6"                     fill-opacity="0.41" />
<rect width="1" height="1" x="4" y="19" fill="#e6e6e6"                     fill-opacity="0.40" />
<rect width="1" height="1" x="5" y="19" fill="#e6e6e6"                     fill-opacity="0.40" />
<rect width="1" height="1" x="6" y="19" fill="#e6e6e6"                     fill-opacity="0.40" />
<rect width="1" height="1" x="7" y="19" fill="#e6e6e6"                     fill-opacity="0.40" />
<rect width="1" height="1" x="8" y="19" fill="#e6e6e6"                     fill-opacity="0.40" />
<rect width="1" height="1" x="9" y="19" fill="#e6e6e6"                     fill-opacity="0.40" />
<rect width="1" height="1" x="10" y="19" fill="#e6e6e6"                     fill-opacity="0.40" />
<rect width="1" height="1" x="11" y="19" fill="#e6e6e6"                     fill-opacity="0.40" />
<rect width="1" height="1" x="12" y="19" fill="#e6e6e6"                     fill-opacity="0.41" />
<rect width="1" height="1" x="13" y="19" fill="#e6e6e6"                     fill-opacity="0.38" />
<rect width="1" height="1" x="14" y="19" fill="#e6e6e6"                     fill-opacity="0.26" />
<rect width="1" height="1" x="15" y="19" fill="#e6e6e6"                     fill-opacity="0.01" />
</svg>
