<?xml version="1.0" encoding="UTF-8" standalone="no"?>
<svg id="svg2" xmlns="http://www.w3.org/2000/svg" version="1.1"                 width="20" height="20" viewBox="0 0 20 20">
<rect width="1" height="1" x="12" y="5" fill="#e6e6e6"                     fill-opacity="0.00" />
<rect width="1" height="1" x="2" y="6" fill="#e6e6e6"                     fill-opacity="0.14" />
<rect width="1" height="1" x="3" y="6" fill="#e6e6e6"                     fill-opacity="0.15" />
<rect width="1" height="1" x="4" y="6" fill="#e6e6e6"                     fill-opacity="0.01" />
<rect width="1" height="1" x="9" y="6" fill="#e6e6e6"                     fill-opacity="0.15" />
<rect width="1" height="1" x="10" y="6" fill="#e6e6e6"                     fill-opacity="0.13" />
<rect width="1" height="1" x="15" y="6" fill="#e6e6e6"                     fill-opacity="0.02" />
<rect width="1" height="1" x="16" y="6" fill="#e6e6e6"                     fill-opacity="0.19" />
<rect width="1" height="1" x="17" y="6" fill="#e6e6e6"                     fill-opacity="0.09" />
<rect width="1" height="1" x="19" y="6" fill="#e6e6e6"                     fill-opacity="0.00" />
<rect width="1" height="1" x="1" y="7" fill="#e6e6e6"                     fill-opacity="0.44" />
<rect width="1" height="1" x="2" y="7" fill="#e6e6e6"                     fill-opacity="1.00" />
<rect width="1" height="1" x="3" y="7" fill="#e6e6e6"                     fill-opacity="1.00" />
<rect width="1" height="1" x="4" y="7" fill="#e6e6e6"                     fill-opacity="0.49" />
<rect width="1" height="1" x="8" y="7" fill="#e6e6e6"                     fill-opacity="0.51" />
<rect width="1" height="1" x="9" y="7" fill="#e6e6e6"                     fill-opacity="1.00" />
<rect width="1" height="1" x="10" y="7" fill="#e6e6e6"                     fill-opacity="1.00" />
<rect width="1" height="1" x="11" y="7" fill="#e6e6e6"                     fill-opacity="0.37" />
<rect width="1" height="1" x="14" y="7" fill="#e6e6e6"                     fill-opacity="0.02" />
<rect width="1" height="1" x="15" y="7" fill="#e6e6e6"                     fill-opacity="0.61" />
<rect width="1" height="1" x="16" y="7" fill="#e6e6e6"                     fill-opacity="1.00" />
<rect width="1" height="1" x="17" y="7" fill="#e6e6e6"                     fill-opacity="0.94" />
<rect width="1" height="1" x="18" y="7" fill="#e6e6e6"                     fill-opacity="0.27" />
<rect width="1" height="1" x="0" y="8" fill="#e6e6e6"                     fill-opacity="0.25" />
<rect width="1" height="1" x="1" y="8" fill="#e6e6e6"                     fill-opacity="1.00" />
<rect width="1" height="1" x="2" y="8" fill="#e6e6e6"                     fill-opacity="0.61" />
<rect width="1" height="1" x="3" y="8" fill="#e6e6e6"                     fill-opacity="0.58" />
<rect width="1" height="1" x="4" y="8" fill="#e6e6e6"                     fill-opacity="0.97" />
<rect width="1" height="1" x="5" y="8" fill="#e6e6e6"                     fill-opacity="0.31" />
<rect width="1" height="1" x="7" y="8" fill="#e6e6e6"                     fill-opacity="0.37" />
<rect width="1" height="1" x="8" y="8" fill="#e6e6e6"                     fill-opacity="1.00" />
<rect width="1" height="1" x="9" y="8" fill="#e6e6e6"                     fill-opacity="0.56" />
<rect width="1" height="1" x="10" y="8" fill="#e6e6e6"                     fill-opacity="0.65" />
<rect width="1" height="1" x="11" y="8" fill="#e6e6e6"                     fill-opacity="0.95" />
<rect width="1" height="1" x="12" y="8" fill="#e6e6e6"                     fill-opacity="0.19" />
<rect width="1" height="1" x="14" y="8" fill="#e6e6e6"                     fill-opacity="0.51" />
<rect width="1" height="1" x="15" y="8" fill="#e6e6e6"                     fill-opacity="0.95" />
<rect width="1" height="1" x="16" y="8" fill="#e6e6e6"                     fill-opacity="0.45" />
<rect width="1" height="1" x="17" y="8" fill="#e6e6e6"                     fill-opacity="0.74" />
<rect width="1" height="1" x="18" y="8" fill="#e6e6e6"                     fill-opacity="0.95" />
<rect width="1" height="1" x="19" y="8" fill="#e6e6e6"                     fill-opacity="0.13" />
<rect width="1" height="1" x="0" y="9" fill="#e6e6e6"                     fill-opacity="0.59" />
<rect width="1" height="1" x="1" y="9" fill="#e6e6e6"                     fill-opacity="0.81" />
<rect width="1" height="1" x="4" y="9" fill="#e6e6e6"                     fill-opacity="0.82" />
<rect width="1" height="1" x="5" y="9" fill="#e6e6e6"                     fill-opacity="0.64" />
<rect width="1" height="1" x="7" y="9" fill="#e6e6e6"                     fill-opacity="0.68" />
<rect width="1" height="1" x="8" y="9" fill="#e6e6e6"                     fill-opacity="0.78" />
<rect width="1" height="1" x="10" y="9" fill="#e6e6e6"                     fill-opacity="0.07" />
<rect width="1" height="1" x="11" y="9" fill="#e6e6e6"                     fill-opacity="0.97" />
<rect width="1" height="1" x="12" y="9" fill="#e6e6e6"                     fill-opacity="0.51" />
<rect width="1" height="1" x="14" y="9" fill="#e6e6e6"                     fill-opacity="0.82" />
<rect width="1" height="1" x="15" y="9" fill="#e6e6e6"                     fill-opacity="0.72" />
<rect width="1" height="1" x="17" y="9" fill="#e6e6e6"                     fill-opacity="0.17" />
<rect width="1" height="1" x="18" y="9" fill="#e6e6e6"                     fill-opacity="0.95" />
<rect width="1" height="1" x="19" y="9" fill="#e6e6e6"                     fill-opacity="0.37" />
<rect width="1" height="1" x="0" y="10" fill="#e6e6e6"                     fill-opacity="0.53" />
<rect width="1" height="1" x="1" y="10" fill="#e6e6e6"                     fill-opacity="0.87" />
<rect width="1" height="1" x="2" y="10" fill="#e6e6e6"                     fill-opacity="0.05" />
<rect width="1" height="1" x="3" y="10" fill="#e6e6e6"                     fill-opacity="0.01" />
<rect width="1" height="1" x="4" y="10" fill="#e6e6e6"                     fill-opacity="0.89" />
<rect width="1" height="1" x="5" y="10" fill="#e6e6e6"                     fill-opacity="0.59" />
<rect width="1" height="1" x="7" y="10" fill="#e6e6e6"                     fill-opacity="0.64" />
<rect width="1" height="1" x="8" y="10" fill="#e6e6e6"                     fill-opacity="0.87" />
<rect width="1" height="1" x="10" y="10" fill="#e6e6e6"                     fill-opacity="0.09" />
<rect width="1" height="1" x="11" y="10" fill="#e6e6e6"                     fill-opacity="0.99" />
<rect width="1" height="1" x="12" y="10" fill="#e6e6e6"                     fill-opacity="0.45" />
<rect width="1" height="1" x="14" y="10" fill="#e6e6e6"                     fill-opacity="0.79" />
<rect width="1" height="1" x="15" y="10" fill="#e6e6e6"                     fill-opacity="0.75" />
<rect width="1" height="1" x="17" y="10" fill="#e6e6e6"                     fill-opacity="0.24" />
<rect width="1" height="1" x="18" y="10" fill="#e6e6e6"                     fill-opacity="1.00" />
<rect width="1" height="1" x="19" y="10" fill="#e6e6e6"                     fill-opacity="0.32" />
<rect width="1" height="1" x="0" y="11" fill="#e6e6e6"                     fill-opacity="0.16" />
<rect width="1" height="1" x="1" y="11" fill="#e6e6e6"                     fill-opacity="0.98" />
<rect width="1" height="1" x="2" y="11" fill="#e6e6e6"                     fill-opacity="0.80" />
<rect width="1" height="1" x="3" y="11" fill="#e6e6e6"                     fill-opacity="0.78" />
<rect width="1" height="1" x="4" y="11" fill="#e6e6e6"                     fill-opacity="0.93" />
<rect width="1" height="1" x="5" y="11" fill="#e6e6e6"                     fill-opacity="0.19" />
<rect width="1" height="1" x="7" y="11" fill="#e6e6e6"                     fill-opacity="0.24" />
<rect width="1" height="1" x="8" y="11" fill="#e6e6e6"                     fill-opacity="0.97" />
<rect width="1" height="1" x="9" y="11" fill="#e6e6e6"                     fill-opacity="0.78" />
<rect width="1" height="1" x="10" y="11" fill="#e6e6e6"                     fill-opacity="0.87" />
<rect width="1" height="1" x="11" y="11" fill="#e6e6e6"                     fill-opacity="0.85" />
<rect width="1" height="1" x="12" y="11" fill="#e6e6e6"                     fill-opacity="0.08" />
<rect width="1" height="1" x="14" y="11" fill="#e6e6e6"                     fill-opacity="0.36" />
<rect width="1" height="1" x="15" y="11" fill="#e6e6e6"                     fill-opacity="0.97" />
<rect width="1" height="1" x="16" y="11" fill="#e6e6e6"                     fill-opacity="0.71" />
<rect width="1" height="1" x="17" y="11" fill="#e6e6e6"                     fill-opacity="0.89" />
<rect width="1" height="1" x="18" y="11" fill="#e6e6e6"                     fill-opacity="0.79" />
<rect width="1" height="1" x="19" y="11" fill="#e6e6e6"                     fill-opacity="0.05" />
<rect width="1" height="1" x="1" y="12" fill="#e6e6e6"                     fill-opacity="0.21" />
<rect width="1" height="1" x="2" y="12" fill="#e6e6e6"                     fill-opacity="0.90" />
<rect width="1" height="1" x="3" y="12" fill="#e6e6e6"                     fill-opacity="0.91" />
<rect width="1" height="1" x="4" y="12" fill="#e6e6e6"                     fill-opacity="0.25" />
<rect width="1" height="1" x="8" y="12" fill="#e6e6e6"                     fill-opacity="0.32" />
<rect width="1" height="1" x="9" y="12" fill="#e6e6e6"                     fill-opacity="0.96" />
<rect width="1" height="1" x="10" y="12" fill="#e6e6e6"                     fill-opacity="0.85" />
<rect width="1" height="1" x="11" y="12" fill="#e6e6e6"                     fill-opacity="0.21" />
<rect width="1" height="1" x="15" y="12" fill="#e6e6e6"                     fill-opacity="0.41" />
<rect width="1" height="1" x="16" y="12" fill="#e6e6e6"                     fill-opacity="0.98" />
<rect width="1" height="1" x="17" y="12" fill="#e6e6e6"                     fill-opacity="0.78" />
<rect width="1" height="1" x="18" y="12" fill="#e6e6e6"                     fill-opacity="0.11" />
<rect width="1" height="1" x="2" y="13" fill="#e6e6e6"                     fill-opacity="0.02" />
<rect width="1" height="1" x="3" y="13" fill="#e6e6e6"                     fill-opacity="0.02" />
<rect width="1" height="1" x="9" y="13" fill="#e6e6e6"                     fill-opacity="0.03" />
<rect width="1" height="1" x="10" y="13" fill="#e6e6e6"                     fill-opacity="0.02" />
<rect width="1" height="1" x="16" y="13" fill="#e6e6e6"                     fill-opacity="0.03" />
<rect width="1" height="1" x="17" y="13" fill="#e6e6e6"                     fill-opacity="0.02" />
</svg>
