<?xml version="1.0" encoding="UTF-8" standalone="no"?>
<svg id="svg2" xmlns="http://www.w3.org/2000/svg" version="1.1"                 width="20" height="20" viewBox="0 0 20 20">
<rect width="1" height="1" x="13" y="4" fill="#e6e6e6"                     fill-opacity="0.00" />
<rect width="1" height="1" x="15" y="4" fill="#e6e6e6"                     fill-opacity="0.13" />
<rect width="1" height="1" x="16" y="4" fill="#e6e6e6"                     fill-opacity="0.75" />
<rect width="1" height="1" x="17" y="4" fill="#e6e6e6"                     fill-opacity="0.60" />
<rect width="1" height="1" x="14" y="5" fill="#e6e6e6"                     fill-opacity="0.05" />
<rect width="1" height="1" x="15" y="5" fill="#e6e6e6"                     fill-opacity="0.74" />
<rect width="1" height="1" x="16" y="5" fill="#e6e6e6"                     fill-opacity="0.96" />
<rect width="1" height="1" x="17" y="5" fill="#e6e6e6"                     fill-opacity="0.56" />
<rect width="1" height="1" x="13" y="6" fill="#e6e6e6"                     fill-opacity="0.05" />
<rect width="1" height="1" x="14" y="6" fill="#e6e6e6"                     fill-opacity="0.75" />
<rect width="1" height="1" x="15" y="6" fill="#e6e6e6"                     fill-opacity="0.95" />
<rect width="1" height="1" x="16" y="6" fill="#e6e6e6"                     fill-opacity="0.23" />
<rect width="1" height="1" x="12" y="7" fill="#e6e6e6"                     fill-opacity="0.02" />
<rect width="1" height="1" x="13" y="7" fill="#e6e6e6"                     fill-opacity="0.75" />
<rect width="1" height="1" x="14" y="7" fill="#e6e6e6"                     fill-opacity="0.97" />
<rect width="1" height="1" x="15" y="7" fill="#e6e6e6"                     fill-opacity="0.21" />
<rect width="1" height="1" x="1" y="8" fill="#e6e6e6"                     fill-opacity="0.02" />
<rect width="1" height="1" x="2" y="8" fill="#e6e6e6"                     fill-opacity="0.06" />
<rect width="1" height="1" x="3" y="8" fill="#e6e6e6"                     fill-opacity="0.06" />
<rect width="1" height="1" x="11" y="8" fill="#e6e6e6"                     fill-opacity="0.03" />
<rect width="1" height="1" x="12" y="8" fill="#e6e6e6"                     fill-opacity="0.75" />
<rect width="1" height="1" x="13" y="8" fill="#e6e6e6"                     fill-opacity="0.99" />
<rect width="1" height="1" x="14" y="8" fill="#e6e6e6"                     fill-opacity="0.21" />
<rect width="1" height="1" x="1" y="9" fill="#e6e6e6"                     fill-opacity="0.18" />
<rect width="1" height="1" x="2" y="9" fill="#e6e6e6"                     fill-opacity="0.50" />
<rect width="1" height="1" x="3" y="9" fill="#e6e6e6"                     fill-opacity="0.93" />
<rect width="1" height="1" x="4" y="9" fill="#e6e6e6"                     fill-opacity="0.13" />
<rect width="1" height="1" x="8" y="9" fill="#e6e6e6"                     fill-opacity="0.00" />
<rect width="1" height="1" x="10" y="9" fill="#e6e6e6"                     fill-opacity="0.04" />
<rect width="1" height="1" x="11" y="9" fill="#e6e6e6"                     fill-opacity="0.77" />
<rect width="1" height="1" x="12" y="9" fill="#e6e6e6"                     fill-opacity="0.96" />
<rect width="1" height="1" x="13" y="9" fill="#e6e6e6"                     fill-opacity="0.19" />
<rect width="1" height="1" x="1" y="10" fill="#e6e6e6"                     fill-opacity="0.02" />
<rect width="1" height="1" x="2" y="10" fill="#e6e6e6"                     fill-opacity="0.19" />
<rect width="1" height="1" x="3" y="10" fill="#e6e6e6"                     fill-opacity="0.91" />
<rect width="1" height="1" x="4" y="10" fill="#e6e6e6"                     fill-opacity="0.87" />
<rect width="1" height="1" x="5" y="10" fill="#e6e6e6"                     fill-opacity="0.16" />
<rect width="1" height="1" x="9" y="10" fill="#e6e6e6"                     fill-opacity="0.05" />
<rect width="1" height="1" x="10" y="10" fill="#e6e6e6"                     fill-opacity="0.75" />
<rect width="1" height="1" x="11" y="10" fill="#e6e6e6"                     fill-opacity="0.96" />
<rect width="1" height="1" x="12" y="10" fill="#e6e6e6"                     fill-opacity="0.20" />
<rect width="1" height="1" x="3" y="11" fill="#e6e6e6"                     fill-opacity="0.11" />
<rect width="1" height="1" x="4" y="11" fill="#e6e6e6"                     fill-opacity="0.83" />
<rect width="1" height="1" x="5" y="11" fill="#e6e6e6"                     fill-opacity="0.96" />
<rect width="1" height="1" x="6" y="11" fill="#e6e6e6"                     fill-opacity="0.18" />
<rect width="1" height="1" x="8" y="11" fill="#e6e6e6"                     fill-opacity="0.05" />
<rect width="1" height="1" x="9" y="11" fill="#e6e6e6"                     fill-opacity="0.75" />
<rect width="1" height="1" x="10" y="11" fill="#e6e6e6"                     fill-opacity="0.95" />
<rect width="1" height="1" x="11" y="11" fill="#e6e6e6"                     fill-opacity="0.23" />
<rect width="1" height="1" x="13" y="11" fill="#e6e6e6"                     fill-opacity="0.00" />
<rect width="1" height="1" x="2" y="12" fill="#e6e6e6"                     fill-opacity="0.00" />
<rect width="1" height="1" x="4" y="12" fill="#e6e6e6"                     fill-opacity="0.07" />
<rect width="1" height="1" x="5" y="12" fill="#e6e6e6"                     fill-opacity="0.79" />
<rect width="1" height="1" x="6" y="12" fill="#e6e6e6"                     fill-opacity="0.88" />
<rect width="1" height="1" x="7" y="12" fill="#e6e6e6"                     fill-opacity="0.19" />
<rect width="1" height="1" x="8" y="12" fill="#e6e6e6"                     fill-opacity="0.71" />
<rect width="1" height="1" x="9" y="12" fill="#e6e6e6"                     fill-opacity="0.97" />
<rect width="1" height="1" x="10" y="12" fill="#e6e6e6"                     fill-opacity="0.21" />
<rect width="1" height="1" x="5" y="13" fill="#e6e6e6"                     fill-opacity="0.02" />
<rect width="1" height="1" x="6" y="13" fill="#e6e6e6"                     fill-opacity="0.67" />
<rect width="1" height="1" x="7" y="13" fill="#e6e6e6"                     fill-opacity="1.00" />
<rect width="1" height="1" x="8" y="13" fill="#e6e6e6"                     fill-opacity="0.90" />
<rect width="1" height="1" x="9" y="13" fill="#e6e6e6"                     fill-opacity="0.20" />
<rect width="1" height="1" x="6" y="14" fill="#e6e6e6"                     fill-opacity="0.10" />
<rect width="1" height="1" x="7" y="14" fill="#e6e6e6"                     fill-opacity="0.60" />
<rect width="1" height="1" x="8" y="14" fill="#e6e6e6"                     fill-opacity="0.24" />
<rect width="1" height="1" x="6" y="16" fill="#e6e6e6"                     fill-opacity="0.00" />
</svg>
