<?xml version="1.0" encoding="UTF-8" standalone="no"?>
<svg id="svg2" xmlns="http://www.w3.org/2000/svg" version="1.1"                 width="20" height="20" viewBox="0 0 20 20">
<rect width="1" height="1" x="5" y="4" fill="#e6e6e6"                     fill-opacity="0.15" />
<rect width="1" height="1" x="6" y="4" fill="#e6e6e6"                     fill-opacity="0.18" />
<rect width="1" height="1" x="2" y="5" fill="#e6e6e6"                     fill-opacity="0.00" />
<rect width="1" height="1" x="4" y="5" fill="#e6e6e6"                     fill-opacity="0.16" />
<rect width="1" height="1" x="5" y="5" fill="#e6e6e6"                     fill-opacity="0.95" />
<rect width="1" height="1" x="6" y="5" fill="#e6e6e6"                     fill-opacity="0.56" />
<rect width="1" height="1" x="3" y="6" fill="#e6e6e6"                     fill-opacity="0.13" />
<rect width="1" height="1" x="4" y="6" fill="#e6e6e6"                     fill-opacity="0.95" />
<rect width="1" height="1" x="5" y="6" fill="#e6e6e6"                     fill-opacity="0.84" />
<rect width="1" height="1" x="6" y="6" fill="#e6e6e6"                     fill-opacity="0.14" />
<rect width="1" height="1" x="2" y="7" fill="#e6e6e6"                     fill-opacity="0.10" />
<rect width="1" height="1" x="3" y="7" fill="#e6e6e6"                     fill-opacity="0.93" />
<rect width="1" height="1" x="4" y="7" fill="#e6e6e6"                     fill-opacity="0.82" />
<rect width="1" height="1" x="5" y="7" fill="#e6e6e6"                     fill-opacity="0.08" />
<rect width="1" height="1" x="1" y="8" fill="#e6e6e6"                     fill-opacity="0.16" />
<rect width="1" height="1" x="2" y="8" fill="#e6e6e6"                     fill-opacity="0.85" />
<rect width="1" height="1" x="3" y="8" fill="#e6e6e6"                     fill-opacity="0.77" />
<rect width="1" height="1" x="4" y="8" fill="#e6e6e6"                     fill-opacity="0.02" />
<rect width="1" height="1" x="0" y="9" fill="#e6e6e6"                     fill-opacity="0.15" />
<rect width="1" height="1" x="1" y="9" fill="#e6e6e6"                     fill-opacity="0.89" />
<rect width="1" height="1" x="2" y="9" fill="#e6e6e6"                     fill-opacity="1.00" />
<rect width="1" height="1" x="3" y="9" fill="#e6e6e6"                     fill-opacity="0.73" />
<rect width="1" height="1" x="4" y="9" fill="#e6e6e6"                     fill-opacity="0.67" />
<rect width="1" height="1" x="5" y="9" fill="#e6e6e6"                     fill-opacity="0.78" />
<rect width="1" height="1" x="6" y="9" fill="#e6e6e6"                     fill-opacity="0.78" />
<rect width="1" height="1" x="7" y="9" fill="#e6e6e6"                     fill-opacity="0.78" />
<rect width="1" height="1" x="8" y="9" fill="#e6e6e6"                     fill-opacity="0.78" />
<rect width="1" height="1" x="9" y="9" fill="#e6e6e6"                     fill-opacity="0.78" />
<rect width="1" height="1" x="10" y="9" fill="#e6e6e6"                     fill-opacity="0.78" />
<rect width="1" height="1" x="11" y="9" fill="#e6e6e6"                     fill-opacity="0.78" />
<rect width="1" height="1" x="12" y="9" fill="#e6e6e6"                     fill-opacity="0.78" />
<rect width="1" height="1" x="13" y="9" fill="#e6e6e6"                     fill-opacity="0.78" />
<rect width="1" height="1" x="14" y="9" fill="#e6e6e6"                     fill-opacity="0.78" />
<rect width="1" height="1" x="15" y="9" fill="#e6e6e6"                     fill-opacity="0.78" />
<rect width="1" height="1" x="16" y="9" fill="#e6e6e6"                     fill-opacity="0.78" />
<rect width="1" height="1" x="17" y="9" fill="#e6e6e6"                     fill-opacity="0.79" />
<rect width="1" height="1" x="18" y="9" fill="#e6e6e6"                     fill-opacity="0.83" />
<rect width="1" height="1" x="19" y="9" fill="#e6e6e6"                     fill-opacity="0.27" />
<rect width="1" height="1" x="0" y="10" fill="#e6e6e6"                     fill-opacity="0.09" />
<rect width="1" height="1" x="1" y="10" fill="#e6e6e6"                     fill-opacity="0.77" />
<rect width="1" height="1" x="2" y="10" fill="#e6e6e6"                     fill-opacity="1.00" />
<rect width="1" height="1" x="3" y="10" fill="#e6e6e6"                     fill-opacity="0.70" />
<rect width="1" height="1" x="4" y="10" fill="#e6e6e6"                     fill-opacity="0.52" />
<rect width="1" height="1" x="5" y="10" fill="#e6e6e6"                     fill-opacity="0.65" />
<rect width="1" height="1" x="6" y="10" fill="#e6e6e6"                     fill-opacity="0.64" />
<rect width="1" height="1" x="7" y="10" fill="#e6e6e6"                     fill-opacity="0.64" />
<rect width="1" height="1" x="8" y="10" fill="#e6e6e6"                     fill-opacity="0.64" />
<rect width="1" height="1" x="9" y="10" fill="#e6e6e6"                     fill-opacity="0.64" />
<rect width="1" height="1" x="10" y="10" fill="#e6e6e6"                     fill-opacity="0.64" />
<rect width="1" height="1" x="11" y="10" fill="#e6e6e6"                     fill-opacity="0.64" />
<rect width="1" height="1" x="12" y="10" fill="#e6e6e6"                     fill-opacity="0.64" />
<rect width="1" height="1" x="13" y="10" fill="#e6e6e6"                     fill-opacity="0.64" />
<rect width="1" height="1" x="14" y="10" fill="#e6e6e6"                     fill-opacity="0.64" />
<rect width="1" height="1" x="15" y="10" fill="#e6e6e6"                     fill-opacity="0.64" />
<rect width="1" height="1" x="16" y="10" fill="#e6e6e6"                     fill-opacity="0.64" />
<rect width="1" height="1" x="17" y="10" fill="#e6e6e6"                     fill-opacity="0.65" />
<rect width="1" height="1" x="18" y="10" fill="#e6e6e6"                     fill-opacity="0.68" />
<rect width="1" height="1" x="19" y="10" fill="#e6e6e6"                     fill-opacity="0.23" />
<rect width="1" height="1" x="1" y="11" fill="#e6e6e6"                     fill-opacity="0.07" />
<rect width="1" height="1" x="2" y="11" fill="#e6e6e6"                     fill-opacity="0.78" />
<rect width="1" height="1" x="3" y="11" fill="#e6e6e6"                     fill-opacity="0.89" />
<rect width="1" height="1" x="4" y="11" fill="#e6e6e6"                     fill-opacity="0.11" />
<rect width="1" height="1" x="2" y="12" fill="#e6e6e6"                     fill-opacity="0.03" />
<rect width="1" height="1" x="3" y="12" fill="#e6e6e6"                     fill-opacity="0.79" />
<rect width="1" height="1" x="4" y="12" fill="#e6e6e6"                     fill-opacity="0.94" />
<rect width="1" height="1" x="5" y="12" fill="#e6e6e6"                     fill-opacity="0.18" />
<rect width="1" height="1" x="3" y="13" fill="#e6e6e6"                     fill-opacity="0.04" />
<rect width="1" height="1" x="4" y="13" fill="#e6e6e6"                     fill-opacity="0.81" />
<rect width="1" height="1" x="5" y="13" fill="#e6e6e6"                     fill-opacity="0.95" />
<rect width="1" height="1" x="6" y="13" fill="#e6e6e6"                     fill-opacity="0.26" />
<rect width="1" height="1" x="4" y="14" fill="#e6e6e6"                     fill-opacity="0.07" />
<rect width="1" height="1" x="5" y="14" fill="#e6e6e6"                     fill-opacity="0.80" />
<rect width="1" height="1" x="6" y="14" fill="#e6e6e6"                     fill-opacity="0.55" />
<rect width="1" height="1" x="5" y="15" fill="#e6e6e6"                     fill-opacity="0.07" />
<rect width="1" height="1" x="6" y="15" fill="#e6e6e6"                     fill-opacity="0.12" />
</svg>
