<?xml version="1.0" encoding="UTF-8" standalone="no"?>
<svg id="svg2" xmlns="http://www.w3.org/2000/svg" version="1.1"                 width="20" height="20" viewBox="0 0 20 20">
<rect width="1" height="1" x="0" y="0" fill="#e6e6e6"                     fill-opacity="0.09" />
<rect width="1" height="1" x="1" y="0" fill="#e6e6e6"                     fill-opacity="0.48" />
<rect width="1" height="1" x="2" y="0" fill="#e6e6e6"                     fill-opacity="0.61" />
<rect width="1" height="1" x="3" y="0" fill="#e6e6e6"                     fill-opacity="0.60" />
<rect width="1" height="1" x="4" y="0" fill="#e6e6e6"                     fill-opacity="0.59" />
<rect width="1" height="1" x="5" y="0" fill="#e6e6e6"                     fill-opacity="0.59" />
<rect width="1" height="1" x="6" y="0" fill="#e6e6e6"                     fill-opacity="0.59" />
<rect width="1" height="1" x="7" y="0" fill="#e6e6e6"                     fill-opacity="0.59" />
<rect width="1" height="1" x="8" y="0" fill="#e6e6e6"                     fill-opacity="0.59" />
<rect width="1" height="1" x="9" y="0" fill="#e6e6e6"                     fill-opacity="0.59" />
<rect width="1" height="1" x="10" y="0" fill="#e6e6e6"                     fill-opacity="0.59" />
<rect width="1" height="1" x="11" y="0" fill="#e6e6e6"                     fill-opacity="0.59" />
<rect width="1" height="1" x="12" y="0" fill="#e6e6e6"                     fill-opacity="0.59" />
<rect width="1" height="1" x="13" y="0" fill="#e6e6e6"                     fill-opacity="0.59" />
<rect width="1" height="1" x="14" y="0" fill="#e6e6e6"                     fill-opacity="0.59" />
<rect width="1" height="1" x="15" y="0" fill="#e6e6e6"                     fill-opacity="0.59" />
<rect width="1" height="1" x="16" y="0" fill="#e6e6e6"                     fill-opacity="0.60" />
<rect width="1" height="1" x="17" y="0" fill="#e6e6e6"                     fill-opacity="0.60" />
<rect width="1" height="1" x="18" y="0" fill="#e6e6e6"                     fill-opacity="0.41" />
<rect width="1" height="1" x="19" y="0" fill="#e6e6e6"                     fill-opacity="0.04" />
<rect width="1" height="1" x="0" y="1" fill="#e6e6e6"                     fill-opacity="0.49" />
<rect width="1" height="1" x="1" y="1" fill="#e6e6e6"                     fill-opacity="1.00" />
<rect width="1" height="1" x="2" y="1" fill="#e6e6e6"                     fill-opacity="0.80" />
<rect width="1" height="1" x="3" y="1" fill="#e6e6e6"                     fill-opacity="0.80" />
<rect width="1" height="1" x="4" y="1" fill="#e6e6e6"                     fill-opacity="0.82" />
<rect width="1" height="1" x="5" y="1" fill="#e6e6e6"                     fill-opacity="0.82" />
<rect width="1" height="1" x="6" y="1" fill="#e6e6e6"                     fill-opacity="0.82" />
<rect width="1" height="1" x="7" y="1" fill="#e6e6e6"                     fill-opacity="0.82" />
<rect width="1" height="1" x="8" y="1" fill="#e6e6e6"                     fill-opacity="0.82" />
<rect width="1" height="1" x="9" y="1" fill="#e6e6e6"                     fill-opacity="0.82" />
<rect width="1" height="1" x="10" y="1" fill="#e6e6e6"                     fill-opacity="0.82" />
<rect width="1" height="1" x="11" y="1" fill="#e6e6e6"                     fill-opacity="0.82" />
<rect width="1" height="1" x="12" y="1" fill="#e6e6e6"                     fill-opacity="0.82" />
<rect width="1" height="1" x="13" y="1" fill="#e6e6e6"                     fill-opacity="0.82" />
<rect width="1" height="1" x="14" y="1" fill="#e6e6e6"                     fill-opacity="0.82" />
<rect width="1" height="1" x="15" y="1" fill="#e6e6e6"                     fill-opacity="0.82" />
<rect width="1" height="1" x="16" y="1" fill="#e6e6e6"                     fill-opacity="0.78" />
<rect width="1" height="1" x="17" y="1" fill="#e6e6e6"                     fill-opacity="0.84" />
<rect width="1" height="1" x="18" y="1" fill="#e6e6e6"                     fill-opacity="1.00" />
<rect width="1" height="1" x="19" y="1" fill="#e6e6e6"                     fill-opacity="0.31" />
<rect width="1" height="1" x="0" y="2" fill="#e6e6e6"                     fill-opacity="0.64" />
<rect width="1" height="1" x="1" y="2" fill="#e6e6e6"                     fill-opacity="0.79" />
<rect width="1" height="1" x="17" y="2" fill="#e6e6e6"                     fill-opacity="0.11" />
<rect width="1" height="1" x="18" y="2" fill="#e6e6e6"                     fill-opacity="0.93" />
<rect width="1" height="1" x="19" y="2" fill="#e6e6e6"                     fill-opacity="0.41" />
<rect width="1" height="1" x="0" y="3" fill="#e6e6e6"                     fill-opacity="0.62" />
<rect width="1" height="1" x="1" y="3" fill="#e6e6e6"                     fill-opacity="0.78" />
<rect width="1" height="1" x="17" y="3" fill="#e6e6e6"                     fill-opacity="0.11" />
<rect width="1" height="1" x="18" y="3" fill="#e6e6e6"                     fill-opacity="0.91" />
<rect width="1" height="1" x="19" y="3" fill="#e6e6e6"                     fill-opacity="0.39" />
<rect width="1" height="1" x="0" y="4" fill="#e6e6e6"                     fill-opacity="0.61" />
<rect width="1" height="1" x="1" y="4" fill="#e6e6e6"                     fill-opacity="0.81" />
<rect width="1" height="1" x="17" y="4" fill="#e6e6e6"                     fill-opacity="0.15" />
<rect width="1" height="1" x="18" y="4" fill="#e6e6e6"                     fill-opacity="0.93" />
<rect width="1" height="1" x="19" y="4" fill="#e6e6e6"                     fill-opacity="0.39" />
<rect width="1" height="1" x="0" y="5" fill="#e6e6e6"                     fill-opacity="0.61" />
<rect width="1" height="1" x="1" y="5" fill="#e6e6e6"                     fill-opacity="0.81" />
<rect width="1" height="1" x="17" y="5" fill="#e6e6e6"                     fill-opacity="0.14" />
<rect width="1" height="1" x="18" y="5" fill="#e6e6e6"                     fill-opacity="0.93" />
<rect width="1" height="1" x="19" y="5" fill="#e6e6e6"                     fill-opacity="0.39" />
<rect width="1" height="1" x="0" y="6" fill="#e6e6e6"                     fill-opacity="0.61" />
<rect width="1" height="1" x="1" y="6" fill="#e6e6e6"                     fill-opacity="0.81" />
<rect width="1" height="1" x="17" y="6" fill="#e6e6e6"                     fill-opacity="0.14" />
<rect width="1" height="1" x="18" y="6" fill="#e6e6e6"                     fill-opacity="0.93" />
<rect width="1" height="1" x="19" y="6" fill="#e6e6e6"                     fill-opacity="0.39" />
<rect width="1" height="1" x="0" y="7" fill="#e6e6e6"                     fill-opacity="0.61" />
<rect width="1" height="1" x="1" y="7" fill="#e6e6e6"                     fill-opacity="0.81" />
<rect width="1" height="1" x="17" y="7" fill="#e6e6e6"                     fill-opacity="0.14" />
<rect width="1" height="1" x="18" y="7" fill="#e6e6e6"                     fill-opacity="0.93" />
<rect width="1" height="1" x="19" y="7" fill="#e6e6e6"                     fill-opacity="0.39" />
<rect width="1" height="1" x="0" y="8" fill="#e6e6e6"                     fill-opacity="0.61" />
<rect width="1" height="1" x="1" y="8" fill="#e6e6e6"                     fill-opacity="0.81" />
<rect width="1" height="1" x="17" y="8" fill="#e6e6e6"                     fill-opacity="0.14" />
<rect width="1" height="1" x="18" y="8" fill="#e6e6e6"                     fill-opacity="0.93" />
<rect width="1" height="1" x="19" y="8" fill="#e6e6e6"                     fill-opacity="0.39" />
<rect width="1" height="1" x="0" y="9" fill="#e6e6e6"                     fill-opacity="0.61" />
<rect width="1" height="1" x="1" y="9" fill="#e6e6e6"                     fill-opacity="0.81" />
<rect width="1" height="1" x="17" y="9" fill="#e6e6e6"                     fill-opacity="0.14" />
<rect width="1" height="1" x="18" y="9" fill="#e6e6e6"                     fill-opacity="0.93" />
<rect width="1" height="1" x="19" y="9" fill="#e6e6e6"                     fill-opacity="0.39" />
<rect width="1" height="1" x="0" y="10" fill="#e6e6e6"                     fill-opacity="0.61" />
<rect width="1" height="1" x="1" y="10" fill="#e6e6e6"                     fill-opacity="0.81" />
<rect width="1" height="1" x="17" y="10" fill="#e6e6e6"                     fill-opacity="0.14" />
<rect width="1" height="1" x="18" y="10" fill="#e6e6e6"                     fill-opacity="0.93" />
<rect width="1" height="1" x="19" y="10" fill="#e6e6e6"                     fill-opacity="0.39" />
<rect width="1" height="1" x="0" y="11" fill="#e6e6e6"                     fill-opacity="0.62" />
<rect width="1" height="1" x="1" y="11" fill="#e6e6e6"                     fill-opacity="0.78" />
<rect width="1" height="1" x="17" y="11" fill="#e6e6e6"                     fill-opacity="0.14" />
<rect width="1" height="1" x="18" y="11" fill="#e6e6e6"                     fill-opacity="0.93" />
<rect width="1" height="1" x="19" y="11" fill="#e6e6e6"                     fill-opacity="0.39" />
<rect width="1" height="1" x="0" y="12" fill="#e6e6e6"                     fill-opacity="0.64" />
<rect width="1" height="1" x="1" y="12" fill="#e6e6e6"                     fill-opacity="0.82" />
<rect width="1" height="1" x="2" y="12" fill="#e6e6e6"                     fill-opacity="0.10" />
<rect width="1" height="1" x="3" y="12" fill="#e6e6e6"                     fill-opacity="0.11" />
<rect width="1" height="1" x="4" y="12" fill="#e6e6e6"                     fill-opacity="0.13" />
<rect width="1" height="1" x="5" y="12" fill="#e6e6e6"                     fill-opacity="0.13" />
<rect width="1" height="1" x="6" y="12" fill="#e6e6e6"                     fill-opacity="0.13" />
<rect width="1" height="1" x="7" y="12" fill="#e6e6e6"                     fill-opacity="0.13" />
<rect width="1" height="1" x="8" y="12" fill="#e6e6e6"                     fill-opacity="0.13" />
<rect width="1" height="1" x="9" y="12" fill="#e6e6e6"                     fill-opacity="0.13" />
<rect width="1" height="1" x="10" y="12" fill="#e6e6e6"                     fill-opacity="0.13" />
<rect width="1" height="1" x="11" y="12" fill="#e6e6e6"                     fill-opacity="0.13" />
<rect width="1" height="1" x="12" y="12" fill="#e6e6e6"                     fill-opacity="0.13" />
<rect width="1" height="1" x="13" y="12" fill="#e6e6e6"                     fill-opacity="0.13" />
<rect width="1" height="1" x="14" y="12" fill="#e6e6e6"                     fill-opacity="0.14" />
<rect width="1" height="1" x="15" y="12" fill="#e6e6e6"                     fill-opacity="0.02" />
<rect width="1" height="1" x="17" y="12" fill="#e6e6e6"                     fill-opacity="0.14" />
<rect width="1" height="1" x="18" y="12" fill="#e6e6e6"                     fill-opacity="0.93" />
<rect width="1" height="1" x="19" y="12" fill="#e6e6e6"                     fill-opacity="0.39" />
<rect width="1" height="1" x="0" y="13" fill="#e6e6e6"                     fill-opacity="0.42" />
<rect width="1" height="1" x="1" y="13" fill="#e6e6e6"                     fill-opacity="1.00" />
<rect width="1" height="1" x="2" y="13" fill="#e6e6e6"                     fill-opacity="0.90" />
<rect width="1" height="1" x="3" y="13" fill="#e6e6e6"                     fill-opacity="0.91" />
<rect width="1" height="1" x="4" y="13" fill="#e6e6e6"                     fill-opacity="0.92" />
<rect width="1" height="1" x="5" y="13" fill="#e6e6e6"                     fill-opacity="0.92" />
<rect width="1" height="1" x="6" y="13" fill="#e6e6e6"                     fill-opacity="0.92" />
<rect width="1" height="1" x="7" y="13" fill="#e6e6e6"                     fill-opacity="0.92" />
<rect width="1" height="1" x="8" y="13" fill="#e6e6e6"                     fill-opacity="0.92" />
<rect width="1" height="1" x="9" y="13" fill="#e6e6e6"                     fill-opacity="0.92" />
<rect width="1" height="1" x="10" y="13" fill="#e6e6e6"                     fill-opacity="0.92" />
<rect width="1" height="1" x="11" y="13" fill="#e6e6e6"                     fill-opacity="0.92" />
<rect width="1" height="1" x="12" y="13" fill="#e6e6e6"                     fill-opacity="0.92" />
<rect width="1" height="1" x="13" y="13" fill="#e6e6e6"                     fill-opacity="0.93" />
<rect width="1" height="1" x="14" y="13" fill="#e6e6e6"                     fill-opacity="0.92" />
<rect width="1" height="1" x="15" y="13" fill="#e6e6e6"                     fill-opacity="0.64" />
<rect width="1" height="1" x="17" y="13" fill="#e6e6e6"                     fill-opacity="0.14" />
<rect width="1" height="1" x="18" y="13" fill="#e6e6e6"                     fill-opacity="0.93" />
<rect width="1" height="1" x="19" y="13" fill="#e6e6e6"                     fill-opacity="0.39" />
<rect width="1" height="1" x="0" y="14" fill="#e6e6e6"                     fill-opacity="0.04" />
<rect width="1" height="1" x="1" y="14" fill="#e6e6e6"                     fill-opacity="0.31" />
<rect width="1" height="1" x="2" y="14" fill="#e6e6e6"                     fill-opacity="0.42" />
<rect width="1" height="1" x="3" y="14" fill="#e6e6e6"                     fill-opacity="0.40" />
<rect width="1" height="1" x="4" y="14" fill="#e6e6e6"                     fill-opacity="0.40" />
<rect width="1" height="1" x="5" y="14" fill="#e6e6e6"                     fill-opacity="0.40" />
<rect width="1" height="1" x="6" y="14" fill="#e6e6e6"                     fill-opacity="0.40" />
<rect width="1" height="1" x="7" y="14" fill="#e6e6e6"                     fill-opacity="0.40" />
<rect width="1" height="1" x="8" y="14" fill="#e6e6e6"                     fill-opacity="0.40" />
<rect width="1" height="1" x="9" y="14" fill="#e6e6e6"                     fill-opacity="0.40" />
<rect width="1" height="1" x="10" y="14" fill="#e6e6e6"                     fill-opacity="0.40" />
<rect width="1" height="1" x="11" y="14" fill="#e6e6e6"                     fill-opacity="0.40" />
<rect width="1" height="1" x="12" y="14" fill="#e6e6e6"                     fill-opacity="0.40" />
<rect width="1" height="1" x="13" y="14" fill="#e6e6e6"                     fill-opacity="0.36" />
<rect width="1" height="1" x="14" y="14" fill="#e6e6e6"                     fill-opacity="0.53" />
<rect width="1" height="1" x="15" y="14" fill="#e6e6e6"                     fill-opacity="1.00" />
<rect width="1" height="1" x="16" y="14" fill="#e6e6e6"                     fill-opacity="0.29" />
<rect width="1" height="1" x="17" y="14" fill="#e6e6e6"                     fill-opacity="0.04" />
<rect width="1" height="1" x="18" y="14" fill="#e6e6e6"                     fill-opacity="0.93" />
<rect width="1" height="1" x="19" y="14" fill="#e6e6e6"                     fill-opacity="0.39" />
<rect width="1" height="1" x="15" y="15" fill="#e6e6e6"                     fill-opacity="0.75" />
<rect width="1" height="1" x="16" y="15" fill="#e6e6e6"                     fill-opacity="0.76" />
<rect width="1" height="1" x="18" y="15" fill="#e6e6e6"                     fill-opacity="0.85" />
<rect width="1" height="1" x="19" y="15" fill="#e6e6e6"                     fill-opacity="0.40" />
<rect width="1" height="1" x="15" y="16" fill="#e6e6e6"                     fill-opacity="0.19" />
<rect width="1" height="1" x="16" y="16" fill="#e6e6e6"                     fill-opacity="0.95" />
<rect width="1" height="1" x="17" y="16" fill="#e6e6e6"                     fill-opacity="0.49" />
<rect width="1" height="1" x="18" y="16" fill="#e6e6e6"                     fill-opacity="0.81" />
<rect width="1" height="1" x="19" y="16" fill="#e6e6e6"                     fill-opacity="0.39" />
<rect width="1" height="1" x="16" y="17" fill="#e6e6e6"                     fill-opacity="0.56" />
<rect width="1" height="1" x="17" y="17" fill="#e6e6e6"                     fill-opacity="1.00" />
<rect width="1" height="1" x="18" y="17" fill="#e6e6e6"                     fill-opacity="0.95" />
<rect width="1" height="1" x="19" y="17" fill="#e6e6e6"                     fill-opacity="0.34" />
<rect width="1" height="1" x="16" y="18" fill="#e6e6e6"                     fill-opacity="0.09" />
<rect width="1" height="1" x="17" y="18" fill="#e6e6e6"                     fill-opacity="0.90" />
<rect width="1" height="1" x="18" y="18" fill="#e6e6e6"                     fill-opacity="1.00" />
<rect width="1" height="1" x="19" y="18" fill="#e6e6e6"                     fill-opacity="0.32" />
<rect width="1" height="1" x="17" y="19" fill="#e6e6e6"                     fill-opacity="0.20" />
<rect width="1" height="1" x="18" y="19" fill="#e6e6e6"                     fill-opacity="0.36" />
<rect width="1" height="1" x="19" y="19" fill="#e6e6e6"                     fill-opacity="0.10" />
</svg>
