<?xml version="1.0" encoding="UTF-8" standalone="no"?>
<svg id="svg2" xmlns="http://www.w3.org/2000/svg" version="1.1"                 width="20" height="20" viewBox="0 0 20 20">
<rect width="1" height="1" x="9" y="0" fill="#e6e6e6"                     fill-opacity="0.21" />
<rect width="1" height="1" x="10" y="0" fill="#e6e6e6"                     fill-opacity="0.16" />
<rect width="1" height="1" x="8" y="1" fill="#e6e6e6"                     fill-opacity="0.22" />
<rect width="1" height="1" x="9" y="1" fill="#e6e6e6"                     fill-opacity="0.97" />
<rect width="1" height="1" x="10" y="1" fill="#e6e6e6"                     fill-opacity="0.86" />
<rect width="1" height="1" x="11" y="1" fill="#e6e6e6"                     fill-opacity="0.11" />
<rect width="1" height="1" x="5" y="2" fill="#e6e6e6"                     fill-opacity="0.00" />
<rect width="1" height="1" x="7" y="2" fill="#e6e6e6"                     fill-opacity="0.18" />
<rect width="1" height="1" x="8" y="2" fill="#e6e6e6"                     fill-opacity="0.91" />
<rect width="1" height="1" x="9" y="2" fill="#e6e6e6"                     fill-opacity="1.00" />
<rect width="1" height="1" x="10" y="2" fill="#e6e6e6"                     fill-opacity="1.00" />
<rect width="1" height="1" x="11" y="2" fill="#e6e6e6"                     fill-opacity="0.82" />
<rect width="1" height="1" x="12" y="2" fill="#e6e6e6"                     fill-opacity="0.06" />
<rect width="1" height="1" x="6" y="3" fill="#e6e6e6"                     fill-opacity="0.22" />
<rect width="1" height="1" x="7" y="3" fill="#e6e6e6"                     fill-opacity="1.00" />
<rect width="1" height="1" x="8" y="3" fill="#e6e6e6"                     fill-opacity="0.67" />
<rect width="1" height="1" x="9" y="3" fill="#e6e6e6"                     fill-opacity="0.70" />
<rect width="1" height="1" x="10" y="3" fill="#e6e6e6"                     fill-opacity="0.66" />
<rect width="1" height="1" x="11" y="3" fill="#e6e6e6"                     fill-opacity="0.79" />
<rect width="1" height="1" x="12" y="3" fill="#e6e6e6"                     fill-opacity="0.87" />
<rect width="1" height="1" x="13" y="3" fill="#e6e6e6"                     fill-opacity="0.09" />
<rect width="1" height="1" x="15" y="3" fill="#e6e6e6"                     fill-opacity="0.00" />
<rect width="1" height="1" x="5" y="4" fill="#e6e6e6"                     fill-opacity="0.24" />
<rect width="1" height="1" x="6" y="4" fill="#e6e6e6"                     fill-opacity="1.00" />
<rect width="1" height="1" x="7" y="4" fill="#e6e6e6"                     fill-opacity="0.75" />
<rect width="1" height="1" x="9" y="4" fill="#e6e6e6"                     fill-opacity="0.71" />
<rect width="1" height="1" x="10" y="4" fill="#e6e6e6"                     fill-opacity="0.54" />
<rect width="1" height="1" x="11" y="4" fill="#e6e6e6"                     fill-opacity="0.05" />
<rect width="1" height="1" x="12" y="4" fill="#e6e6e6"                     fill-opacity="0.87" />
<rect width="1" height="1" x="13" y="4" fill="#e6e6e6"                     fill-opacity="0.90" />
<rect width="1" height="1" x="14" y="4" fill="#e6e6e6"                     fill-opacity="0.13" />
<rect width="1" height="1" x="4" y="5" fill="#e6e6e6"                     fill-opacity="0.24" />
<rect width="1" height="1" x="5" y="5" fill="#e6e6e6"                     fill-opacity="1.00" />
<rect width="1" height="1" x="6" y="5" fill="#e6e6e6"                     fill-opacity="0.76" />
<rect width="1" height="1" x="7" y="5" fill="#e6e6e6"                     fill-opacity="0.02" />
<rect width="1" height="1" x="9" y="5" fill="#e6e6e6"                     fill-opacity="0.80" />
<rect width="1" height="1" x="10" y="5" fill="#e6e6e6"                     fill-opacity="0.66" />
<rect width="1" height="1" x="12" y="5" fill="#e6e6e6"                     fill-opacity="0.13" />
<rect width="1" height="1" x="13" y="5" fill="#e6e6e6"                     fill-opacity="0.90" />
<rect width="1" height="1" x="14" y="5" fill="#e6e6e6"                     fill-opacity="0.84" />
<rect width="1" height="1" x="15" y="5" fill="#e6e6e6"                     fill-opacity="0.09" />
<rect width="1" height="1" x="4" y="6" fill="#e6e6e6"                     fill-opacity="0.19" />
<rect width="1" height="1" x="5" y="6" fill="#e6e6e6"                     fill-opacity="0.46" />
<rect width="1" height="1" x="6" y="6" fill="#e6e6e6"                     fill-opacity="0.09" />
<rect width="1" height="1" x="9" y="6" fill="#e6e6e6"                     fill-opacity="0.80" />
<rect width="1" height="1" x="10" y="6" fill="#e6e6e6"                     fill-opacity="0.65" />
<rect width="1" height="1" x="13" y="6" fill="#e6e6e6"                     fill-opacity="0.19" />
<rect width="1" height="1" x="14" y="6" fill="#e6e6e6"                     fill-opacity="0.46" />
<rect width="1" height="1" x="15" y="6" fill="#e6e6e6"                     fill-opacity="0.10" />
<rect width="1" height="1" x="9" y="7" fill="#e6e6e6"                     fill-opacity="0.80" />
<rect width="1" height="1" x="10" y="7" fill="#e6e6e6"                     fill-opacity="0.65" />
<rect width="1" height="1" x="12" y="7" fill="#e6e6e6"                     fill-opacity="0.00" />
<rect width="1" height="1" x="9" y="8" fill="#e6e6e6"                     fill-opacity="0.80" />
<rect width="1" height="1" x="10" y="8" fill="#e6e6e6"                     fill-opacity="0.65" />
<rect width="1" height="1" x="9" y="9" fill="#e6e6e6"                     fill-opacity="0.80" />
<rect width="1" height="1" x="10" y="9" fill="#e6e6e6"                     fill-opacity="0.65" />
<rect width="1" height="1" x="9" y="10" fill="#e6e6e6"                     fill-opacity="0.80" />
<rect width="1" height="1" x="10" y="10" fill="#e6e6e6"                     fill-opacity="0.65" />
<rect width="1" height="1" x="9" y="11" fill="#e6e6e6"                     fill-opacity="0.80" />
<rect width="1" height="1" x="10" y="11" fill="#e6e6e6"                     fill-opacity="0.65" />
<rect width="1" height="1" x="9" y="12" fill="#e6e6e6"                     fill-opacity="0.80" />
<rect width="1" height="1" x="10" y="12" fill="#e6e6e6"                     fill-opacity="0.65" />
<rect width="1" height="1" x="9" y="13" fill="#e6e6e6"                     fill-opacity="0.80" />
<rect width="1" height="1" x="10" y="13" fill="#e6e6e6"                     fill-opacity="0.65" />
<rect width="1" height="1" x="9" y="14" fill="#e6e6e6"                     fill-opacity="0.80" />
<rect width="1" height="1" x="10" y="14" fill="#e6e6e6"                     fill-opacity="0.65" />
<rect width="1" height="1" x="9" y="15" fill="#e6e6e6"                     fill-opacity="0.80" />
<rect width="1" height="1" x="10" y="15" fill="#e6e6e6"                     fill-opacity="0.65" />
<rect width="1" height="1" x="9" y="16" fill="#e6e6e6"                     fill-opacity="0.79" />
<rect width="1" height="1" x="10" y="16" fill="#e6e6e6"                     fill-opacity="0.65" />
<rect width="1" height="1" x="9" y="17" fill="#e6e6e6"                     fill-opacity="0.81" />
<rect width="1" height="1" x="10" y="17" fill="#e6e6e6"                     fill-opacity="0.67" />
<rect width="1" height="1" x="9" y="18" fill="#e6e6e6"                     fill-opacity="0.81" />
<rect width="1" height="1" x="10" y="18" fill="#e6e6e6"                     fill-opacity="0.67" />
<rect width="1" height="1" x="9" y="19" fill="#e6e6e6"                     fill-opacity="0.21" />
<rect width="1" height="1" x="10" y="19" fill="#e6e6e6"                     fill-opacity="0.17" />
</svg>
