<?xml version="1.0" encoding="UTF-8" standalone="no"?>
<svg id="svg2" xmlns="http://www.w3.org/2000/svg" version="1.1"                 width="20" height="20" viewBox="0 0 20 20">
<rect width="1" height="1" x="0" y="0" fill="#e6e6e6"                     fill-opacity="0.29" />
<rect width="1" height="1" x="1" y="0" fill="#e6e6e6"                     fill-opacity="0.62" />
<rect width="1" height="1" x="2" y="0" fill="#e6e6e6"                     fill-opacity="0.61" />
<rect width="1" height="1" x="3" y="0" fill="#e6e6e6"                     fill-opacity="0.61" />
<rect width="1" height="1" x="4" y="0" fill="#e6e6e6"                     fill-opacity="0.61" />
<rect width="1" height="1" x="5" y="0" fill="#e6e6e6"                     fill-opacity="0.61" />
<rect width="1" height="1" x="6" y="0" fill="#e6e6e6"                     fill-opacity="0.61" />
<rect width="1" height="1" x="7" y="0" fill="#e6e6e6"                     fill-opacity="0.61" />
<rect width="1" height="1" x="8" y="0" fill="#e6e6e6"                     fill-opacity="0.61" />
<rect width="1" height="1" x="9" y="0" fill="#e6e6e6"                     fill-opacity="0.61" />
<rect width="1" height="1" x="10" y="0" fill="#e6e6e6"                     fill-opacity="0.61" />
<rect width="1" height="1" x="11" y="0" fill="#e6e6e6"                     fill-opacity="0.61" />
<rect width="1" height="1" x="12" y="0" fill="#e6e6e6"                     fill-opacity="0.61" />
<rect width="1" height="1" x="13" y="0" fill="#e6e6e6"                     fill-opacity="0.61" />
<rect width="1" height="1" x="14" y="0" fill="#e6e6e6"                     fill-opacity="0.61" />
<rect width="1" height="1" x="15" y="0" fill="#e6e6e6"                     fill-opacity="0.61" />
<rect width="1" height="1" x="16" y="0" fill="#e6e6e6"                     fill-opacity="0.61" />
<rect width="1" height="1" x="17" y="0" fill="#e6e6e6"                     fill-opacity="0.61" />
<rect width="1" height="1" x="18" y="0" fill="#e6e6e6"                     fill-opacity="0.62" />
<rect width="1" height="1" x="19" y="0" fill="#e6e6e6"                     fill-opacity="0.19" />
<rect width="1" height="1" x="0" y="1" fill="#e6e6e6"                     fill-opacity="0.40" />
<rect width="1" height="1" x="1" y="1" fill="#e6e6e6"                     fill-opacity="0.82" />
<rect width="1" height="1" x="2" y="1" fill="#e6e6e6"                     fill-opacity="0.80" />
<rect width="1" height="1" x="3" y="1" fill="#e6e6e6"                     fill-opacity="0.81" />
<rect width="1" height="1" x="4" y="1" fill="#e6e6e6"                     fill-opacity="0.81" />
<rect width="1" height="1" x="5" y="1" fill="#e6e6e6"                     fill-opacity="0.81" />
<rect width="1" height="1" x="6" y="1" fill="#e6e6e6"                     fill-opacity="0.81" />
<rect width="1" height="1" x="7" y="1" fill="#e6e6e6"                     fill-opacity="0.81" />
<rect width="1" height="1" x="8" y="1" fill="#e6e6e6"                     fill-opacity="0.81" />
<rect width="1" height="1" x="9" y="1" fill="#e6e6e6"                     fill-opacity="0.81" />
<rect width="1" height="1" x="10" y="1" fill="#e6e6e6"                     fill-opacity="0.81" />
<rect width="1" height="1" x="11" y="1" fill="#e6e6e6"                     fill-opacity="0.81" />
<rect width="1" height="1" x="12" y="1" fill="#e6e6e6"                     fill-opacity="0.81" />
<rect width="1" height="1" x="13" y="1" fill="#e6e6e6"                     fill-opacity="0.81" />
<rect width="1" height="1" x="14" y="1" fill="#e6e6e6"                     fill-opacity="0.81" />
<rect width="1" height="1" x="15" y="1" fill="#e6e6e6"                     fill-opacity="0.81" />
<rect width="1" height="1" x="16" y="1" fill="#e6e6e6"                     fill-opacity="0.80" />
<rect width="1" height="1" x="17" y="1" fill="#e6e6e6"                     fill-opacity="0.81" />
<rect width="1" height="1" x="18" y="1" fill="#e6e6e6"                     fill-opacity="0.82" />
<rect width="1" height="1" x="19" y="1" fill="#e6e6e6"                     fill-opacity="0.26" />
<rect width="1" height="1" x="1" y="2" fill="#e6e6e6"                     fill-opacity="0.00" />
<rect width="1" height="1" x="9" y="3" fill="#e6e6e6"                     fill-opacity="0.11" />
<rect width="1" height="1" x="10" y="3" fill="#e6e6e6"                     fill-opacity="0.07" />
<rect width="1" height="1" x="8" y="4" fill="#e6e6e6"                     fill-opacity="0.17" />
<rect width="1" height="1" x="9" y="4" fill="#e6e6e6"                     fill-opacity="0.89" />
<rect width="1" height="1" x="10" y="4" fill="#e6e6e6"                     fill-opacity="0.80" />
<rect width="1" height="1" x="11" y="4" fill="#e6e6e6"                     fill-opacity="0.07" />
<rect width="1" height="1" x="7" y="5" fill="#e6e6e6"                     fill-opacity="0.14" />
<rect width="1" height="1" x="8" y="5" fill="#e6e6e6"                     fill-opacity="0.92" />
<rect width="1" height="1" x="9" y="5" fill="#e6e6e6"                     fill-opacity="1.00" />
<rect width="1" height="1" x="10" y="5" fill="#e6e6e6"                     fill-opacity="1.00" />
<rect width="1" height="1" x="11" y="5" fill="#e6e6e6"                     fill-opacity="0.77" />
<rect width="1" height="1" x="12" y="5" fill="#e6e6e6"                     fill-opacity="0.04" />
<rect width="1" height="1" x="6" y="6" fill="#e6e6e6"                     fill-opacity="0.19" />
<rect width="1" height="1" x="7" y="6" fill="#e6e6e6"                     fill-opacity="0.92" />
<rect width="1" height="1" x="8" y="6" fill="#e6e6e6"                     fill-opacity="0.80" />
<rect width="1" height="1" x="9" y="6" fill="#e6e6e6"                     fill-opacity="0.73" />
<rect width="1" height="1" x="10" y="6" fill="#e6e6e6"                     fill-opacity="0.69" />
<rect width="1" height="1" x="11" y="6" fill="#e6e6e6"                     fill-opacity="0.89" />
<rect width="1" height="1" x="12" y="6" fill="#e6e6e6"                     fill-opacity="0.75" />
<rect width="1" height="1" x="13" y="6" fill="#e6e6e6"                     fill-opacity="0.14" />
<rect width="1" height="1" x="5" y="7" fill="#e6e6e6"                     fill-opacity="0.03" />
<rect width="1" height="1" x="6" y="7" fill="#e6e6e6"                     fill-opacity="0.86" />
<rect width="1" height="1" x="7" y="7" fill="#e6e6e6"                     fill-opacity="0.86" />
<rect width="1" height="1" x="8" y="7" fill="#e6e6e6"                     fill-opacity="0.01" />
<rect width="1" height="1" x="9" y="7" fill="#e6e6e6"                     fill-opacity="0.68" />
<rect width="1" height="1" x="10" y="7" fill="#e6e6e6"                     fill-opacity="0.50" />
<rect width="1" height="1" x="11" y="7" fill="#e6e6e6"                     fill-opacity="0.11" />
<rect width="1" height="1" x="12" y="7" fill="#e6e6e6"                     fill-opacity="1.00" />
<rect width="1" height="1" x="13" y="7" fill="#e6e6e6"                     fill-opacity="0.66" />
<rect width="1" height="1" x="5" y="8" fill="#e6e6e6"                     fill-opacity="0.02" />
<rect width="1" height="1" x="6" y="8" fill="#e6e6e6"                     fill-opacity="0.25" />
<rect width="1" height="1" x="7" y="8" fill="#e6e6e6"                     fill-opacity="0.09" />
<rect width="1" height="1" x="9" y="8" fill="#e6e6e6"                     fill-opacity="0.82" />
<rect width="1" height="1" x="10" y="8" fill="#e6e6e6"                     fill-opacity="0.66" />
<rect width="1" height="1" x="12" y="8" fill="#e6e6e6"                     fill-opacity="0.18" />
<rect width="1" height="1" x="13" y="8" fill="#e6e6e6"                     fill-opacity="0.20" />
<rect width="1" height="1" x="9" y="9" fill="#e6e6e6"                     fill-opacity="0.80" />
<rect width="1" height="1" x="10" y="9" fill="#e6e6e6"                     fill-opacity="0.65" />
<rect width="1" height="1" x="9" y="10" fill="#e6e6e6"                     fill-opacity="0.80" />
<rect width="1" height="1" x="10" y="10" fill="#e6e6e6"                     fill-opacity="0.65" />
<rect width="1" height="1" x="9" y="11" fill="#e6e6e6"                     fill-opacity="0.80" />
<rect width="1" height="1" x="10" y="11" fill="#e6e6e6"                     fill-opacity="0.65" />
<rect width="1" height="1" x="9" y="12" fill="#e6e6e6"                     fill-opacity="0.80" />
<rect width="1" height="1" x="10" y="12" fill="#e6e6e6"                     fill-opacity="0.65" />
<rect width="1" height="1" x="9" y="13" fill="#e6e6e6"                     fill-opacity="0.80" />
<rect width="1" height="1" x="10" y="13" fill="#e6e6e6"                     fill-opacity="0.65" />
<rect width="1" height="1" x="9" y="14" fill="#e6e6e6"                     fill-opacity="0.80" />
<rect width="1" height="1" x="10" y="14" fill="#e6e6e6"                     fill-opacity="0.65" />
<rect width="1" height="1" x="9" y="15" fill="#e6e6e6"                     fill-opacity="0.80" />
<rect width="1" height="1" x="10" y="15" fill="#e6e6e6"                     fill-opacity="0.65" />
<rect width="1" height="1" x="9" y="16" fill="#e6e6e6"                     fill-opacity="0.89" />
<rect width="1" height="1" x="10" y="16" fill="#e6e6e6"                     fill-opacity="0.73" />
<rect width="1" height="1" x="9" y="17" fill="#e6e6e6"                     fill-opacity="0.55" />
<rect width="1" height="1" x="10" y="17" fill="#e6e6e6"                     fill-opacity="0.45" />
<rect width="1" height="1" x="9" y="18" fill="#e6e6e6"                     fill-opacity="0.27" />
<rect width="1" height="1" x="10" y="18" fill="#e6e6e6"                     fill-opacity="0.23" />
</svg>
