<?xml version="1.0" encoding="UTF-8" standalone="no"?>
<svg id="svg2" xmlns="http://www.w3.org/2000/svg" version="1.1"                 width="24" height="24" viewBox="0 0 24 24">
<rect width="1" height="1" x="10" y="0" fill="#e6e6e6"                     fill-opacity="0.10" />
<rect width="1" height="1" x="11" y="0" fill="#e6e6e6"                     fill-opacity="0.40" />
<rect width="1" height="1" x="12" y="0" fill="#e6e6e6"                     fill-opacity="0.35" />
<rect width="1" height="1" x="13" y="0" fill="#e6e6e6"                     fill-opacity="0.05" />
<rect width="1" height="1" x="9" y="1" fill="#e6e6e6"                     fill-opacity="0.24" />
<rect width="1" height="1" x="10" y="1" fill="#e6e6e6"                     fill-opacity="0.93" />
<rect width="1" height="1" x="11" y="1" fill="#e6e6e6"                     fill-opacity="1.00" />
<rect width="1" height="1" x="12" y="1" fill="#e6e6e6"                     fill-opacity="1.00" />
<rect width="1" height="1" x="13" y="1" fill="#e6e6e6"                     fill-opacity="0.83" />
<rect width="1" height="1" x="14" y="1" fill="#e6e6e6"                     fill-opacity="0.08" />
<rect width="1" height="1" x="8" y="2" fill="#e6e6e6"                     fill-opacity="0.06" />
<rect width="1" height="1" x="9" y="2" fill="#e6e6e6"                     fill-opacity="0.87" />
<rect width="1" height="1" x="10" y="2" fill="#e6e6e6"                     fill-opacity="0.87" />
<rect width="1" height="1" x="11" y="2" fill="#e6e6e6"                     fill-opacity="0.18" />
<rect width="1" height="1" x="12" y="2" fill="#e6e6e6"                     fill-opacity="0.32" />
<rect width="1" height="1" x="13" y="2" fill="#e6e6e6"                     fill-opacity="1.00" />
<rect width="1" height="1" x="14" y="2" fill="#e6e6e6"                     fill-opacity="0.63" />
<rect width="1" height="1" x="8" y="3" fill="#e6e6e6"                     fill-opacity="0.19" />
<rect width="1" height="1" x="9" y="3" fill="#e6e6e6"                     fill-opacity="1.00" />
<rect width="1" height="1" x="10" y="3" fill="#e6e6e6"                     fill-opacity="0.44" />
<rect width="1" height="1" x="13" y="3" fill="#e6e6e6"                     fill-opacity="0.64" />
<rect width="1" height="1" x="14" y="3" fill="#e6e6e6"                     fill-opacity="0.98" />
<rect width="1" height="1" x="15" y="3" fill="#e6e6e6"                     fill-opacity="0.04" />
<rect width="1" height="1" x="8" y="4" fill="#e6e6e6"                     fill-opacity="0.09" />
<rect width="1" height="1" x="9" y="4" fill="#e6e6e6"                     fill-opacity="1.00" />
<rect width="1" height="1" x="10" y="4" fill="#e6e6e6"                     fill-opacity="0.73" />
<rect width="1" height="1" x="12" y="4" fill="#e6e6e6"                     fill-opacity="0.14" />
<rect width="1" height="1" x="13" y="4" fill="#e6e6e6"                     fill-opacity="0.91" />
<rect width="1" height="1" x="14" y="4" fill="#e6e6e6"                     fill-opacity="0.75" />
<rect width="1" height="1" x="9" y="5" fill="#e6e6e6"                     fill-opacity="0.40" />
<rect width="1" height="1" x="10" y="5" fill="#e6e6e6"                     fill-opacity="1.00" />
<rect width="1" height="1" x="11" y="5" fill="#e6e6e6"                     fill-opacity="0.95" />
<rect width="1" height="1" x="12" y="5" fill="#e6e6e6"                     fill-opacity="0.99" />
<rect width="1" height="1" x="13" y="5" fill="#e6e6e6"                     fill-opacity="0.94" />
<rect width="1" height="1" x="14" y="5" fill="#e6e6e6"                     fill-opacity="0.20" />
<rect width="1" height="1" x="10" y="6" fill="#e6e6e6"                     fill-opacity="0.30" />
<rect width="1" height="1" x="11" y="6" fill="#e6e6e6"                     fill-opacity="0.69" />
<rect width="1" height="1" x="12" y="6" fill="#e6e6e6"                     fill-opacity="0.64" />
<rect width="1" height="1" x="13" y="6" fill="#e6e6e6"                     fill-opacity="0.18" />
<rect width="1" height="1" x="10" y="8" fill="#e6e6e6"                     fill-opacity="0.03" />
<rect width="1" height="1" x="11" y="8" fill="#e6e6e6"                     fill-opacity="0.18" />
<rect width="1" height="1" x="12" y="8" fill="#e6e6e6"                     fill-opacity="0.15" />
<rect width="1" height="1" x="9" y="9" fill="#e6e6e6"                     fill-opacity="0.09" />
<rect width="1" height="1" x="10" y="9" fill="#e6e6e6"                     fill-opacity="0.76" />
<rect width="1" height="1" x="11" y="9" fill="#e6e6e6"                     fill-opacity="1.00" />
<rect width="1" height="1" x="12" y="9" fill="#e6e6e6"                     fill-opacity="1.00" />
<rect width="1" height="1" x="13" y="9" fill="#e6e6e6"                     fill-opacity="0.58" />
<rect width="1" height="1" x="14" y="9" fill="#e6e6e6"                     fill-opacity="0.02" />
<rect width="1" height="1" x="8" y="10" fill="#e6e6e6"                     fill-opacity="0.01" />
<rect width="1" height="1" x="9" y="10" fill="#e6e6e6"                     fill-opacity="0.72" />
<rect width="1" height="1" x="10" y="10" fill="#e6e6e6"                     fill-opacity="1.00" />
<rect width="1" height="1" x="11" y="10" fill="#e6e6e6"                     fill-opacity="0.46" />
<rect width="1" height="1" x="12" y="10" fill="#e6e6e6"                     fill-opacity="0.57" />
<rect width="1" height="1" x="13" y="10" fill="#e6e6e6"                     fill-opacity="1.00" />
<rect width="1" height="1" x="14" y="10" fill="#e6e6e6"                     fill-opacity="0.49" />
<rect width="1" height="1" x="8" y="11" fill="#e6e6e6"                     fill-opacity="0.17" />
<rect width="1" height="1" x="9" y="11" fill="#e6e6e6"                     fill-opacity="1.00" />
<rect width="1" height="1" x="10" y="11" fill="#e6e6e6"                     fill-opacity="0.46" />
<rect width="1" height="1" x="13" y="11" fill="#e6e6e6"                     fill-opacity="0.68" />
<rect width="1" height="1" x="14" y="11" fill="#e6e6e6"                     fill-opacity="0.94" />
<rect width="1" height="1" x="15" y="11" fill="#e6e6e6"                     fill-opacity="0.03" />
<rect width="1" height="1" x="8" y="12" fill="#e6e6e6"                     fill-opacity="0.15" />
<rect width="1" height="1" x="9" y="12" fill="#e6e6e6"                     fill-opacity="1.00" />
<rect width="1" height="1" x="10" y="12" fill="#e6e6e6"                     fill-opacity="0.56" />
<rect width="1" height="1" x="13" y="12" fill="#e6e6e6"                     fill-opacity="0.78" />
<rect width="1" height="1" x="14" y="12" fill="#e6e6e6"                     fill-opacity="0.87" />
<rect width="1" height="1" x="15" y="12" fill="#e6e6e6"                     fill-opacity="0.02" />
<rect width="1" height="1" x="9" y="13" fill="#e6e6e6"                     fill-opacity="0.56" />
<rect width="1" height="1" x="10" y="13" fill="#e6e6e6"                     fill-opacity="1.00" />
<rect width="1" height="1" x="11" y="13" fill="#e6e6e6"                     fill-opacity="0.72" />
<rect width="1" height="1" x="12" y="13" fill="#e6e6e6"                     fill-opacity="0.78" />
<rect width="1" height="1" x="13" y="13" fill="#e6e6e6"                     fill-opacity="1.00" />
<rect width="1" height="1" x="14" y="13" fill="#e6e6e6"                     fill-opacity="0.35" />
<rect width="1" height="1" x="7" y="14" fill="#e6e6e6"                     fill-opacity="0.00" />
<rect width="1" height="1" x="9" y="14" fill="#e6e6e6"                     fill-opacity="0.02" />
<rect width="1" height="1" x="10" y="14" fill="#e6e6e6"                     fill-opacity="0.51" />
<rect width="1" height="1" x="11" y="14" fill="#e6e6e6"                     fill-opacity="0.95" />
<rect width="1" height="1" x="12" y="14" fill="#e6e6e6"                     fill-opacity="0.89" />
<rect width="1" height="1" x="13" y="14" fill="#e6e6e6"                     fill-opacity="0.34" />
<rect width="1" height="1" x="9" y="17" fill="#e6e6e6"                     fill-opacity="0.02" />
<rect width="1" height="1" x="10" y="17" fill="#e6e6e6"                     fill-opacity="0.55" />
<rect width="1" height="1" x="11" y="17" fill="#e6e6e6"                     fill-opacity="0.94" />
<rect width="1" height="1" x="12" y="17" fill="#e6e6e6"                     fill-opacity="0.89" />
<rect width="1" height="1" x="13" y="17" fill="#e6e6e6"                     fill-opacity="0.38" />
<rect width="1" height="1" x="9" y="18" fill="#e6e6e6"                     fill-opacity="0.56" />
<rect width="1" height="1" x="10" y="18" fill="#e6e6e6"                     fill-opacity="1.00" />
<rect width="1" height="1" x="11" y="18" fill="#e6e6e6"                     fill-opacity="0.78" />
<rect width="1" height="1" x="12" y="18" fill="#e6e6e6"                     fill-opacity="0.84" />
<rect width="1" height="1" x="13" y="18" fill="#e6e6e6"                     fill-opacity="1.00" />
<rect width="1" height="1" x="14" y="18" fill="#e6e6e6"                     fill-opacity="0.35" />
<rect width="1" height="1" x="8" y="19" fill="#e6e6e6"                     fill-opacity="0.15" />
<rect width="1" height="1" x="9" y="19" fill="#e6e6e6"                     fill-opacity="1.00" />
<rect width="1" height="1" x="10" y="19" fill="#e6e6e6"                     fill-opacity="0.58" />
<rect width="1" height="1" x="13" y="19" fill="#e6e6e6"                     fill-opacity="0.79" />
<rect width="1" height="1" x="14" y="19" fill="#e6e6e6"                     fill-opacity="0.85" />
<rect width="1" height="1" x="15" y="19" fill="#e6e6e6"                     fill-opacity="0.02" />
<rect width="1" height="1" x="8" y="20" fill="#e6e6e6"                     fill-opacity="0.17" />
<rect width="1" height="1" x="9" y="20" fill="#e6e6e6"                     fill-opacity="1.00" />
<rect width="1" height="1" x="10" y="20" fill="#e6e6e6"                     fill-opacity="0.46" />
<rect width="1" height="1" x="13" y="20" fill="#e6e6e6"                     fill-opacity="0.69" />
<rect width="1" height="1" x="14" y="20" fill="#e6e6e6"                     fill-opacity="0.93" />
<rect width="1" height="1" x="15" y="20" fill="#e6e6e6"                     fill-opacity="0.03" />
<rect width="1" height="1" x="8" y="21" fill="#e6e6e6"                     fill-opacity="0.01" />
<rect width="1" height="1" x="9" y="21" fill="#e6e6e6"                     fill-opacity="0.72" />
<rect width="1" height="1" x="10" y="21" fill="#e6e6e6"                     fill-opacity="0.99" />
<rect width="1" height="1" x="11" y="21" fill="#e6e6e6"                     fill-opacity="0.47" />
<rect width="1" height="1" x="12" y="21" fill="#e6e6e6"                     fill-opacity="0.60" />
<rect width="1" height="1" x="13" y="21" fill="#e6e6e6"                     fill-opacity="1.00" />
<rect width="1" height="1" x="14" y="21" fill="#e6e6e6"                     fill-opacity="0.49" />
<rect width="1" height="1" x="9" y="22" fill="#e6e6e6"                     fill-opacity="0.10" />
<rect width="1" height="1" x="10" y="22" fill="#e6e6e6"                     fill-opacity="0.75" />
<rect width="1" height="1" x="11" y="22" fill="#e6e6e6"                     fill-opacity="1.00" />
<rect width="1" height="1" x="12" y="22" fill="#e6e6e6"                     fill-opacity="1.00" />
<rect width="1" height="1" x="13" y="22" fill="#e6e6e6"                     fill-opacity="0.58" />
<rect width="1" height="1" x="14" y="22" fill="#e6e6e6"                     fill-opacity="0.02" />
<rect width="1" height="1" x="8" y="23" fill="#e6e6e6"                     fill-opacity="0.00" />
<rect width="1" height="1" x="10" y="23" fill="#e6e6e6"                     fill-opacity="0.03" />
<rect width="1" height="1" x="11" y="23" fill="#e6e6e6"                     fill-opacity="0.16" />
<rect width="1" height="1" x="12" y="23" fill="#e6e6e6"                     fill-opacity="0.12" />
<rect width="1" height="1" x="13" y="23" fill="#e6e6e6"                     fill-opacity="0.00" />
</svg>
