<?xml version="1.0" encoding="UTF-8" standalone="no"?>
<svg id="svg2" xmlns="http://www.w3.org/2000/svg" version="1.1"                 width="24" height="24" viewBox="0 0 24 24">
<rect width="1" height="1" x="10" y="0" fill="#e6e6e6"                     fill-opacity="0.00" />
<rect width="1" height="1" x="13" y="0" fill="#e6e6e6"                     fill-opacity="0.00" />
<rect width="1" height="1" x="9" y="2" fill="#e6e6e6"                     fill-opacity="0.00" />
<rect width="1" height="1" x="11" y="2" fill="#e6e6e6"                     fill-opacity="0.18" />
<rect width="1" height="1" x="12" y="2" fill="#e6e6e6"                     fill-opacity="0.12" />
<rect width="1" height="1" x="14" y="2" fill="#e6e6e6"                     fill-opacity="0.00" />
<rect width="1" height="1" x="8" y="3" fill="#e6e6e6"                     fill-opacity="0.00" />
<rect width="1" height="1" x="10" y="3" fill="#e6e6e6"                     fill-opacity="0.16" />
<rect width="1" height="1" x="11" y="3" fill="#e6e6e6"                     fill-opacity="0.99" />
<rect width="1" height="1" x="12" y="3" fill="#e6e6e6"                     fill-opacity="0.82" />
<rect width="1" height="1" x="13" y="3" fill="#e6e6e6"                     fill-opacity="0.05" />
<rect width="1" height="1" x="15" y="3" fill="#e6e6e6"                     fill-opacity="0.00" />
<rect width="1" height="1" x="9" y="4" fill="#e6e6e6"                     fill-opacity="0.17" />
<rect width="1" height="1" x="10" y="4" fill="#e6e6e6"                     fill-opacity="0.91" />
<rect width="1" height="1" x="11" y="4" fill="#e6e6e6"                     fill-opacity="0.96" />
<rect width="1" height="1" x="12" y="4" fill="#e6e6e6"                     fill-opacity="1.00" />
<rect width="1" height="1" x="13" y="4" fill="#e6e6e6"                     fill-opacity="0.77" />
<rect width="1" height="1" x="14" y="4" fill="#e6e6e6"                     fill-opacity="0.03" />
<rect width="1" height="1" x="16" y="4" fill="#e6e6e6"                     fill-opacity="0.00" />
<rect width="1" height="1" x="6" y="5" fill="#e6e6e6"                     fill-opacity="0.00" />
<rect width="1" height="1" x="8" y="5" fill="#e6e6e6"                     fill-opacity="0.21" />
<rect width="1" height="1" x="9" y="5" fill="#e6e6e6"                     fill-opacity="0.96" />
<rect width="1" height="1" x="10" y="5" fill="#e6e6e6"                     fill-opacity="0.91" />
<rect width="1" height="1" x="11" y="5" fill="#e6e6e6"                     fill-opacity="0.11" />
<rect width="1" height="1" x="12" y="5" fill="#e6e6e6"                     fill-opacity="0.27" />
<rect width="1" height="1" x="13" y="5" fill="#e6e6e6"                     fill-opacity="1.00" />
<rect width="1" height="1" x="14" y="5" fill="#e6e6e6"                     fill-opacity="0.75" />
<rect width="1" height="1" x="15" y="5" fill="#e6e6e6"                     fill-opacity="0.06" />
<rect width="1" height="1" x="17" y="5" fill="#e6e6e6"                     fill-opacity="0.00" />
<rect width="1" height="1" x="5" y="6" fill="#e6e6e6"                     fill-opacity="0.00" />
<rect width="1" height="1" x="7" y="6" fill="#e6e6e6"                     fill-opacity="0.16" />
<rect width="1" height="1" x="8" y="6" fill="#e6e6e6"                     fill-opacity="0.98" />
<rect width="1" height="1" x="9" y="6" fill="#e6e6e6"                     fill-opacity="0.99" />
<rect width="1" height="1" x="10" y="6" fill="#e6e6e6"                     fill-opacity="0.17" />
<rect width="1" height="1" x="13" y="6" fill="#e6e6e6"                     fill-opacity="0.35" />
<rect width="1" height="1" x="14" y="6" fill="#e6e6e6"                     fill-opacity="1.00" />
<rect width="1" height="1" x="15" y="6" fill="#e6e6e6"                     fill-opacity="0.78" />
<rect width="1" height="1" x="16" y="6" fill="#e6e6e6"                     fill-opacity="0.05" />
<rect width="1" height="1" x="18" y="6" fill="#e6e6e6"                     fill-opacity="0.00" />
<rect width="1" height="1" x="6" y="7" fill="#e6e6e6"                     fill-opacity="0.17" />
<rect width="1" height="1" x="7" y="7" fill="#e6e6e6"                     fill-opacity="0.93" />
<rect width="1" height="1" x="8" y="7" fill="#e6e6e6"                     fill-opacity="0.94" />
<rect width="1" height="1" x="9" y="7" fill="#e6e6e6"                     fill-opacity="0.20" />
<rect width="1" height="1" x="12" y="7" fill="#e6e6e6"                     fill-opacity="0.00" />
<rect width="1" height="1" x="14" y="7" fill="#e6e6e6"                     fill-opacity="0.35" />
<rect width="1" height="1" x="15" y="7" fill="#e6e6e6"                     fill-opacity="1.00" />
<rect width="1" height="1" x="16" y="7" fill="#e6e6e6"                     fill-opacity="0.79" />
<rect width="1" height="1" x="17" y="7" fill="#e6e6e6"                     fill-opacity="0.03" />
<rect width="1" height="1" x="19" y="7" fill="#e6e6e6"                     fill-opacity="0.00" />
<rect width="1" height="1" x="3" y="8" fill="#e6e6e6"                     fill-opacity="0.00" />
<rect width="1" height="1" x="5" y="8" fill="#e6e6e6"                     fill-opacity="0.21" />
<rect width="1" height="1" x="6" y="8" fill="#e6e6e6"                     fill-opacity="0.96" />
<rect width="1" height="1" x="7" y="8" fill="#e6e6e6"                     fill-opacity="0.91" />
<rect width="1" height="1" x="8" y="8" fill="#e6e6e6"                     fill-opacity="0.16" />
<rect width="1" height="1" x="12" y="8" fill="#e6e6e6"                     fill-opacity="0.00" />
<rect width="1" height="1" x="15" y="8" fill="#e6e6e6"                     fill-opacity="0.34" />
<rect width="1" height="1" x="16" y="8" fill="#e6e6e6"                     fill-opacity="1.00" />
<rect width="1" height="1" x="17" y="8" fill="#e6e6e6"                     fill-opacity="0.75" />
<rect width="1" height="1" x="18" y="8" fill="#e6e6e6"                     fill-opacity="0.06" />
<rect width="1" height="1" x="20" y="8" fill="#e6e6e6"                     fill-opacity="0.00" />
<rect width="1" height="1" x="4" y="9" fill="#e6e6e6"                     fill-opacity="0.16" />
<rect width="1" height="1" x="5" y="9" fill="#e6e6e6"                     fill-opacity="0.98" />
<rect width="1" height="1" x="6" y="9" fill="#e6e6e6"                     fill-opacity="0.99" />
<rect width="1" height="1" x="7" y="9" fill="#e6e6e6"                     fill-opacity="0.17" />
<rect width="1" height="1" x="10" y="9" fill="#e6e6e6"                     fill-opacity="0.00" />
<rect width="1" height="1" x="13" y="9" fill="#e6e6e6"                     fill-opacity="0.00" />
<rect width="1" height="1" x="16" y="9" fill="#e6e6e6"                     fill-opacity="0.35" />
<rect width="1" height="1" x="17" y="9" fill="#e6e6e6"                     fill-opacity="1.00" />
<rect width="1" height="1" x="18" y="9" fill="#e6e6e6"                     fill-opacity="0.78" />
<rect width="1" height="1" x="19" y="9" fill="#e6e6e6"                     fill-opacity="0.05" />
<rect width="1" height="1" x="21" y="9" fill="#e6e6e6"                     fill-opacity="0.00" />
<rect width="1" height="1" x="3" y="10" fill="#e6e6e6"                     fill-opacity="0.18" />
<rect width="1" height="1" x="4" y="10" fill="#e6e6e6"                     fill-opacity="0.93" />
<rect width="1" height="1" x="5" y="10" fill="#e6e6e6"                     fill-opacity="0.94" />
<rect width="1" height="1" x="6" y="10" fill="#e6e6e6"                     fill-opacity="0.20" />
<rect width="1" height="1" x="11" y="10" fill="#e6e6e6"                     fill-opacity="0.56" />
<rect width="1" height="1" x="12" y="10" fill="#e6e6e6"                     fill-opacity="0.44" />
<rect width="1" height="1" x="14" y="10" fill="#e6e6e6"                     fill-opacity="0.00" />
<rect width="1" height="1" x="15" y="10" fill="#e6e6e6"                     fill-opacity="0.00" />
<rect width="1" height="1" x="17" y="10" fill="#e6e6e6"                     fill-opacity="0.35" />
<rect width="1" height="1" x="18" y="10" fill="#e6e6e6"                     fill-opacity="1.00" />
<rect width="1" height="1" x="19" y="10" fill="#e6e6e6"                     fill-opacity="0.78" />
<rect width="1" height="1" x="20" y="10" fill="#e6e6e6"                     fill-opacity="0.04" />
<rect width="1" height="1" x="22" y="10" fill="#e6e6e6"                     fill-opacity="0.00" />
<rect width="1" height="1" x="2" y="11" fill="#e6e6e6"                     fill-opacity="0.11" />
<rect width="1" height="1" x="3" y="11" fill="#e6e6e6"                     fill-opacity="0.93" />
<rect width="1" height="1" x="4" y="11" fill="#e6e6e6"                     fill-opacity="0.91" />
<rect width="1" height="1" x="5" y="11" fill="#e6e6e6"                     fill-opacity="0.15" />
<rect width="1" height="1" x="10" y="11" fill="#e6e6e6"                     fill-opacity="0.59" />
<rect width="1" height="1" x="11" y="11" fill="#e6e6e6"                     fill-opacity="1.00" />
<rect width="1" height="1" x="12" y="11" fill="#e6e6e6"                     fill-opacity="1.00" />
<rect width="1" height="1" x="13" y="11" fill="#e6e6e6"                     fill-opacity="0.35" />
<rect width="1" height="1" x="18" y="11" fill="#e6e6e6"                     fill-opacity="0.34" />
<rect width="1" height="1" x="19" y="11" fill="#e6e6e6"                     fill-opacity="1.00" />
<rect width="1" height="1" x="20" y="11" fill="#e6e6e6"                     fill-opacity="0.69" />
<rect width="1" height="1" x="2" y="12" fill="#e6e6e6"                     fill-opacity="0.05" />
<rect width="1" height="1" x="3" y="12" fill="#e6e6e6"                     fill-opacity="0.53" />
<rect width="1" height="1" x="4" y="12" fill="#e6e6e6"                     fill-opacity="0.24" />
<rect width="1" height="1" x="9" y="12" fill="#e6e6e6"                     fill-opacity="0.55" />
<rect width="1" height="1" x="10" y="12" fill="#e6e6e6"                     fill-opacity="1.00" />
<rect width="1" height="1" x="11" y="12" fill="#e6e6e6"                     fill-opacity="0.57" />
<rect width="1" height="1" x="12" y="12" fill="#e6e6e6"                     fill-opacity="0.67" />
<rect width="1" height="1" x="13" y="12" fill="#e6e6e6"                     fill-opacity="1.00" />
<rect width="1" height="1" x="14" y="12" fill="#e6e6e6"                     fill-opacity="0.35" />
<rect width="1" height="1" x="19" y="12" fill="#e6e6e6"                     fill-opacity="0.38" />
<rect width="1" height="1" x="20" y="12" fill="#e6e6e6"                     fill-opacity="0.44" />
<rect width="1" height="1" x="8" y="13" fill="#e6e6e6"                     fill-opacity="0.57" />
<rect width="1" height="1" x="9" y="13" fill="#e6e6e6"                     fill-opacity="1.00" />
<rect width="1" height="1" x="10" y="13" fill="#e6e6e6"                     fill-opacity="0.57" />
<rect width="1" height="1" x="13" y="13" fill="#e6e6e6"                     fill-opacity="0.78" />
<rect width="1" height="1" x="14" y="13" fill="#e6e6e6"                     fill-opacity="1.00" />
<rect width="1" height="1" x="15" y="13" fill="#e6e6e6"                     fill-opacity="0.36" />
<rect width="1" height="1" x="17" y="13" fill="#e6e6e6"                     fill-opacity="0.00" />
<rect width="1" height="1" x="4" y="14" fill="#e6e6e6"                     fill-opacity="0.00" />
<rect width="1" height="1" x="7" y="14" fill="#e6e6e6"                     fill-opacity="0.60" />
<rect width="1" height="1" x="8" y="14" fill="#e6e6e6"                     fill-opacity="1.00" />
<rect width="1" height="1" x="9" y="14" fill="#e6e6e6"                     fill-opacity="0.54" />
<rect width="1" height="1" x="13" y="14" fill="#e6e6e6"                     fill-opacity="0.04" />
<rect width="1" height="1" x="14" y="14" fill="#e6e6e6"                     fill-opacity="0.76" />
<rect width="1" height="1" x="15" y="14" fill="#e6e6e6"                     fill-opacity="1.00" />
<rect width="1" height="1" x="16" y="14" fill="#e6e6e6"                     fill-opacity="0.36" />
<rect width="1" height="1" x="19" y="14" fill="#e6e6e6"                     fill-opacity="0.00" />
<rect width="1" height="1" x="6" y="15" fill="#e6e6e6"                     fill-opacity="0.55" />
<rect width="1" height="1" x="7" y="15" fill="#e6e6e6"                     fill-opacity="1.00" />
<rect width="1" height="1" x="8" y="15" fill="#e6e6e6"                     fill-opacity="0.56" />
<rect width="1" height="1" x="11" y="15" fill="#e6e6e6"                     fill-opacity="0.00" />
<rect width="1" height="1" x="12" y="15" fill="#e6e6e6"                     fill-opacity="0.00" />
<rect width="1" height="1" x="14" y="15" fill="#e6e6e6"                     fill-opacity="0.05" />
<rect width="1" height="1" x="15" y="15" fill="#e6e6e6"                     fill-opacity="0.74" />
<rect width="1" height="1" x="16" y="15" fill="#e6e6e6"                     fill-opacity="1.00" />
<rect width="1" height="1" x="17" y="15" fill="#e6e6e6"                     fill-opacity="0.35" />
<rect width="1" height="1" x="5" y="16" fill="#e6e6e6"                     fill-opacity="0.57" />
<rect width="1" height="1" x="6" y="16" fill="#e6e6e6"                     fill-opacity="1.00" />
<rect width="1" height="1" x="7" y="16" fill="#e6e6e6"                     fill-opacity="0.57" />
<rect width="1" height="1" x="10" y="16" fill="#e6e6e6"                     fill-opacity="0.00" />
<rect width="1" height="1" x="13" y="16" fill="#e6e6e6"                     fill-opacity="0.00" />
<rect width="1" height="1" x="15" y="16" fill="#e6e6e6"                     fill-opacity="0.02" />
<rect width="1" height="1" x="16" y="16" fill="#e6e6e6"                     fill-opacity="0.78" />
<rect width="1" height="1" x="17" y="16" fill="#e6e6e6"                     fill-opacity="1.00" />
<rect width="1" height="1" x="18" y="16" fill="#e6e6e6"                     fill-opacity="0.37" />
<rect width="1" height="1" x="20" y="16" fill="#e6e6e6"                     fill-opacity="0.00" />
<rect width="1" height="1" x="4" y="17" fill="#e6e6e6"                     fill-opacity="0.60" />
<rect width="1" height="1" x="5" y="17" fill="#e6e6e6"                     fill-opacity="1.00" />
<rect width="1" height="1" x="6" y="17" fill="#e6e6e6"                     fill-opacity="0.54" />
<rect width="1" height="1" x="14" y="17" fill="#e6e6e6"                     fill-opacity="0.00" />
<rect width="1" height="1" x="16" y="17" fill="#e6e6e6"                     fill-opacity="0.04" />
<rect width="1" height="1" x="17" y="17" fill="#e6e6e6"                     fill-opacity="0.76" />
<rect width="1" height="1" x="18" y="17" fill="#e6e6e6"                     fill-opacity="1.00" />
<rect width="1" height="1" x="19" y="17" fill="#e6e6e6"                     fill-opacity="0.36" />
<rect width="1" height="1" x="2" y="18" fill="#e6e6e6"                     fill-opacity="0.02" />
<rect width="1" height="1" x="3" y="18" fill="#e6e6e6"                     fill-opacity="0.61" />
<rect width="1" height="1" x="4" y="18" fill="#e6e6e6"                     fill-opacity="1.00" />
<rect width="1" height="1" x="5" y="18" fill="#e6e6e6"                     fill-opacity="0.56" />
<rect width="1" height="1" x="15" y="18" fill="#e6e6e6"                     fill-opacity="0.00" />
<rect width="1" height="1" x="17" y="18" fill="#e6e6e6"                     fill-opacity="0.05" />
<rect width="1" height="1" x="18" y="18" fill="#e6e6e6"                     fill-opacity="0.74" />
<rect width="1" height="1" x="19" y="18" fill="#e6e6e6"                     fill-opacity="1.00" />
<rect width="1" height="1" x="20" y="18" fill="#e6e6e6"                     fill-opacity="0.41" />
<rect width="1" height="1" x="2" y="19" fill="#e6e6e6"                     fill-opacity="0.11" />
<rect width="1" height="1" x="3" y="19" fill="#e6e6e6"                     fill-opacity="0.93" />
<rect width="1" height="1" x="4" y="19" fill="#e6e6e6"                     fill-opacity="0.60" />
<rect width="1" height="1" x="7" y="19" fill="#e6e6e6"                     fill-opacity="0.00" />
<rect width="1" height="1" x="16" y="19" fill="#e6e6e6"                     fill-opacity="0.00" />
<rect width="1" height="1" x="18" y="19" fill="#e6e6e6"                     fill-opacity="0.03" />
<rect width="1" height="1" x="19" y="19" fill="#e6e6e6"                     fill-opacity="0.80" />
<rect width="1" height="1" x="20" y="19" fill="#e6e6e6"                     fill-opacity="0.74" />
<rect width="1" height="1" x="2" y="20" fill="#e6e6e6"                     fill-opacity="0.00" />
<rect width="1" height="1" x="3" y="20" fill="#e6e6e6"                     fill-opacity="0.07" />
<rect width="1" height="1" x="4" y="20" fill="#e6e6e6"                     fill-opacity="0.04" />
<rect width="1" height="1" x="17" y="20" fill="#e6e6e6"                     fill-opacity="0.00" />
<rect width="1" height="1" x="19" y="20" fill="#e6e6e6"                     fill-opacity="0.08" />
<rect width="1" height="1" x="20" y="20" fill="#e6e6e6"                     fill-opacity="0.06" />
</svg>
