<?xml version="1.0" encoding="UTF-8" standalone="no"?>
<svg id="svg2" xmlns="http://www.w3.org/2000/svg" version="1.1"                 width="24" height="24" viewBox="0 0 24 24">
<rect width="1" height="1" x="15" y="5" fill="#e6e6e6"                     fill-opacity="0.02" />
<rect width="1" height="1" x="16" y="5" fill="#e6e6e6"                     fill-opacity="0.23" />
<rect width="1" height="1" x="17" y="5" fill="#e6e6e6"                     fill-opacity="0.06" />
<rect width="1" height="1" x="15" y="6" fill="#e6e6e6"                     fill-opacity="0.10" />
<rect width="1" height="1" x="16" y="6" fill="#e6e6e6"                     fill-opacity="1.00" />
<rect width="1" height="1" x="17" y="6" fill="#e6e6e6"                     fill-opacity="0.67" />
<rect width="1" height="1" x="15" y="7" fill="#e6e6e6"                     fill-opacity="0.01" />
<rect width="1" height="1" x="16" y="7" fill="#e6e6e6"                     fill-opacity="0.50" />
<rect width="1" height="1" x="17" y="7" fill="#e6e6e6"                     fill-opacity="1.00" />
<rect width="1" height="1" x="18" y="7" fill="#e6e6e6"                     fill-opacity="0.72" />
<rect width="1" height="1" x="19" y="7" fill="#e6e6e6"                     fill-opacity="0.01" />
<rect width="1" height="1" x="17" y="8" fill="#e6e6e6"                     fill-opacity="0.48" />
<rect width="1" height="1" x="18" y="8" fill="#e6e6e6"                     fill-opacity="1.00" />
<rect width="1" height="1" x="19" y="8" fill="#e6e6e6"                     fill-opacity="0.69" />
<rect width="1" height="1" x="18" y="9" fill="#e6e6e6"                     fill-opacity="0.42" />
<rect width="1" height="1" x="19" y="9" fill="#e6e6e6"                     fill-opacity="1.00" />
<rect width="1" height="1" x="20" y="9" fill="#e6e6e6"                     fill-opacity="0.63" />
<rect width="1" height="1" x="0" y="10" fill="#e6e6e6"                     fill-opacity="0.01" />
<rect width="1" height="1" x="1" y="10" fill="#e6e6e6"                     fill-opacity="0.03" />
<rect width="1" height="1" x="2" y="10" fill="#e6e6e6"                     fill-opacity="0.03" />
<rect width="1" height="1" x="3" y="10" fill="#e6e6e6"                     fill-opacity="0.03" />
<rect width="1" height="1" x="4" y="10" fill="#e6e6e6"                     fill-opacity="0.03" />
<rect width="1" height="1" x="5" y="10" fill="#e6e6e6"                     fill-opacity="0.03" />
<rect width="1" height="1" x="6" y="10" fill="#e6e6e6"                     fill-opacity="0.03" />
<rect width="1" height="1" x="7" y="10" fill="#e6e6e6"                     fill-opacity="0.03" />
<rect width="1" height="1" x="8" y="10" fill="#e6e6e6"                     fill-opacity="0.03" />
<rect width="1" height="1" x="9" y="10" fill="#e6e6e6"                     fill-opacity="0.03" />
<rect width="1" height="1" x="10" y="10" fill="#e6e6e6"                     fill-opacity="0.03" />
<rect width="1" height="1" x="11" y="10" fill="#e6e6e6"                     fill-opacity="0.03" />
<rect width="1" height="1" x="12" y="10" fill="#e6e6e6"                     fill-opacity="0.03" />
<rect width="1" height="1" x="13" y="10" fill="#e6e6e6"                     fill-opacity="0.03" />
<rect width="1" height="1" x="14" y="10" fill="#e6e6e6"                     fill-opacity="0.03" />
<rect width="1" height="1" x="15" y="10" fill="#e6e6e6"                     fill-opacity="0.03" />
<rect width="1" height="1" x="16" y="10" fill="#e6e6e6"                     fill-opacity="0.03" />
<rect width="1" height="1" x="17" y="10" fill="#e6e6e6"                     fill-opacity="0.02" />
<rect width="1" height="1" x="19" y="10" fill="#e6e6e6"                     fill-opacity="0.47" />
<rect width="1" height="1" x="20" y="10" fill="#e6e6e6"                     fill-opacity="1.00" />
<rect width="1" height="1" x="21" y="10" fill="#e6e6e6"                     fill-opacity="0.69" />
<rect width="1" height="1" x="22" y="10" fill="#e6e6e6"                     fill-opacity="0.02" />
<rect width="1" height="1" x="0" y="11" fill="#e6e6e6"                     fill-opacity="0.35" />
<rect width="1" height="1" x="1" y="11" fill="#e6e6e6"                     fill-opacity="0.92" />
<rect width="1" height="1" x="2" y="11" fill="#e6e6e6"                     fill-opacity="0.90" />
<rect width="1" height="1" x="3" y="11" fill="#e6e6e6"                     fill-opacity="0.89" />
<rect width="1" height="1" x="4" y="11" fill="#e6e6e6"                     fill-opacity="0.89" />
<rect width="1" height="1" x="5" y="11" fill="#e6e6e6"                     fill-opacity="0.89" />
<rect width="1" height="1" x="6" y="11" fill="#e6e6e6"                     fill-opacity="0.89" />
<rect width="1" height="1" x="7" y="11" fill="#e6e6e6"                     fill-opacity="0.89" />
<rect width="1" height="1" x="8" y="11" fill="#e6e6e6"                     fill-opacity="0.89" />
<rect width="1" height="1" x="9" y="11" fill="#e6e6e6"                     fill-opacity="0.89" />
<rect width="1" height="1" x="10" y="11" fill="#e6e6e6"                     fill-opacity="0.89" />
<rect width="1" height="1" x="11" y="11" fill="#e6e6e6"                     fill-opacity="0.89" />
<rect width="1" height="1" x="12" y="11" fill="#e6e6e6"                     fill-opacity="0.89" />
<rect width="1" height="1" x="13" y="11" fill="#e6e6e6"                     fill-opacity="0.89" />
<rect width="1" height="1" x="14" y="11" fill="#e6e6e6"                     fill-opacity="0.89" />
<rect width="1" height="1" x="15" y="11" fill="#e6e6e6"                     fill-opacity="0.89" />
<rect width="1" height="1" x="16" y="11" fill="#e6e6e6"                     fill-opacity="0.89" />
<rect width="1" height="1" x="17" y="11" fill="#e6e6e6"                     fill-opacity="0.90" />
<rect width="1" height="1" x="18" y="11" fill="#e6e6e6"                     fill-opacity="0.87" />
<rect width="1" height="1" x="19" y="11" fill="#e6e6e6"                     fill-opacity="0.80" />
<rect width="1" height="1" x="20" y="11" fill="#e6e6e6"                     fill-opacity="0.98" />
<rect width="1" height="1" x="21" y="11" fill="#e6e6e6"                     fill-opacity="1.00" />
<rect width="1" height="1" x="22" y="11" fill="#e6e6e6"                     fill-opacity="0.67" />
<rect width="1" height="1" x="23" y="11" fill="#e6e6e6"                     fill-opacity="0.01" />
<rect width="1" height="1" x="0" y="12" fill="#e6e6e6"                     fill-opacity="0.28" />
<rect width="1" height="1" x="1" y="12" fill="#e6e6e6"                     fill-opacity="0.76" />
<rect width="1" height="1" x="2" y="12" fill="#e6e6e6"                     fill-opacity="0.72" />
<rect width="1" height="1" x="3" y="12" fill="#e6e6e6"                     fill-opacity="0.71" />
<rect width="1" height="1" x="4" y="12" fill="#e6e6e6"                     fill-opacity="0.71" />
<rect width="1" height="1" x="5" y="12" fill="#e6e6e6"                     fill-opacity="0.71" />
<rect width="1" height="1" x="6" y="12" fill="#e6e6e6"                     fill-opacity="0.71" />
<rect width="1" height="1" x="7" y="12" fill="#e6e6e6"                     fill-opacity="0.71" />
<rect width="1" height="1" x="8" y="12" fill="#e6e6e6"                     fill-opacity="0.71" />
<rect width="1" height="1" x="9" y="12" fill="#e6e6e6"                     fill-opacity="0.71" />
<rect width="1" height="1" x="10" y="12" fill="#e6e6e6"                     fill-opacity="0.71" />
<rect width="1" height="1" x="11" y="12" fill="#e6e6e6"                     fill-opacity="0.71" />
<rect width="1" height="1" x="12" y="12" fill="#e6e6e6"                     fill-opacity="0.71" />
<rect width="1" height="1" x="13" y="12" fill="#e6e6e6"                     fill-opacity="0.71" />
<rect width="1" height="1" x="14" y="12" fill="#e6e6e6"                     fill-opacity="0.71" />
<rect width="1" height="1" x="15" y="12" fill="#e6e6e6"                     fill-opacity="0.71" />
<rect width="1" height="1" x="16" y="12" fill="#e6e6e6"                     fill-opacity="0.71" />
<rect width="1" height="1" x="17" y="12" fill="#e6e6e6"                     fill-opacity="0.72" />
<rect width="1" height="1" x="18" y="12" fill="#e6e6e6"                     fill-opacity="0.69" />
<rect width="1" height="1" x="19" y="12" fill="#e6e6e6"                     fill-opacity="0.69" />
<rect width="1" height="1" x="20" y="12" fill="#e6e6e6"                     fill-opacity="0.98" />
<rect width="1" height="1" x="21" y="12" fill="#e6e6e6"                     fill-opacity="1.00" />
<rect width="1" height="1" x="22" y="12" fill="#e6e6e6"                     fill-opacity="0.52" />
<rect width="1" height="1" x="19" y="13" fill="#e6e6e6"                     fill-opacity="0.61" />
<rect width="1" height="1" x="20" y="13" fill="#e6e6e6"                     fill-opacity="1.00" />
<rect width="1" height="1" x="21" y="13" fill="#e6e6e6"                     fill-opacity="0.47" />
<rect width="1" height="1" x="23" y="13" fill="#e6e6e6"                     fill-opacity="0.00" />
<rect width="1" height="1" x="18" y="14" fill="#e6e6e6"                     fill-opacity="0.64" />
<rect width="1" height="1" x="19" y="14" fill="#e6e6e6"                     fill-opacity="1.00" />
<rect width="1" height="1" x="20" y="14" fill="#e6e6e6"                     fill-opacity="0.47" />
<rect width="1" height="1" x="23" y="14" fill="#e6e6e6"                     fill-opacity="0.00" />
<rect width="1" height="1" x="17" y="15" fill="#e6e6e6"                     fill-opacity="0.64" />
<rect width="1" height="1" x="18" y="15" fill="#e6e6e6"                     fill-opacity="1.00" />
<rect width="1" height="1" x="19" y="15" fill="#e6e6e6"                     fill-opacity="0.46" />
<rect width="1" height="1" x="15" y="16" fill="#e6e6e6"                     fill-opacity="0.07" />
<rect width="1" height="1" x="16" y="16" fill="#e6e6e6"                     fill-opacity="0.71" />
<rect width="1" height="1" x="17" y="16" fill="#e6e6e6"                     fill-opacity="1.00" />
<rect width="1" height="1" x="18" y="16" fill="#e6e6e6"                     fill-opacity="0.48" />
<rect width="1" height="1" x="21" y="16" fill="#e6e6e6"                     fill-opacity="0.00" />
<rect width="1" height="1" x="15" y="17" fill="#e6e6e6"                     fill-opacity="0.09" />
<rect width="1" height="1" x="16" y="17" fill="#e6e6e6"                     fill-opacity="0.89" />
<rect width="1" height="1" x="17" y="17" fill="#e6e6e6"                     fill-opacity="0.51" />
<rect width="1" height="1" x="20" y="17" fill="#e6e6e6"                     fill-opacity="0.00" />
<rect width="1" height="1" x="16" y="18" fill="#e6e6e6"                     fill-opacity="0.05" />
</svg>
