<?xml version="1.0" encoding="UTF-8" standalone="no"?>
<svg id="svg2" xmlns="http://www.w3.org/2000/svg" version="1.1"                 width="24" height="24" viewBox="0 0 24 24">
<rect width="1" height="1" x="3" y="10" fill="#e6e6e6"                     fill-opacity="0.03" />
<rect width="1" height="1" x="4" y="10" fill="#e6e6e6"                     fill-opacity="0.04" />
<rect width="1" height="1" x="5" y="10" fill="#e6e6e6"                     fill-opacity="0.04" />
<rect width="1" height="1" x="6" y="10" fill="#e6e6e6"                     fill-opacity="0.04" />
<rect width="1" height="1" x="7" y="10" fill="#e6e6e6"                     fill-opacity="0.04" />
<rect width="1" height="1" x="8" y="10" fill="#e6e6e6"                     fill-opacity="0.04" />
<rect width="1" height="1" x="9" y="10" fill="#e6e6e6"                     fill-opacity="0.04" />
<rect width="1" height="1" x="10" y="10" fill="#e6e6e6"                     fill-opacity="0.04" />
<rect width="1" height="1" x="11" y="10" fill="#e6e6e6"                     fill-opacity="0.04" />
<rect width="1" height="1" x="12" y="10" fill="#e6e6e6"                     fill-opacity="0.04" />
<rect width="1" height="1" x="13" y="10" fill="#e6e6e6"                     fill-opacity="0.04" />
<rect width="1" height="1" x="14" y="10" fill="#e6e6e6"                     fill-opacity="0.04" />
<rect width="1" height="1" x="15" y="10" fill="#e6e6e6"                     fill-opacity="0.04" />
<rect width="1" height="1" x="16" y="10" fill="#e6e6e6"                     fill-opacity="0.04" />
<rect width="1" height="1" x="17" y="10" fill="#e6e6e6"                     fill-opacity="0.04" />
<rect width="1" height="1" x="18" y="10" fill="#e6e6e6"                     fill-opacity="0.04" />
<rect width="1" height="1" x="19" y="10" fill="#e6e6e6"                     fill-opacity="0.04" />
<rect width="1" height="1" x="20" y="10" fill="#e6e6e6"                     fill-opacity="0.02" />
<rect width="1" height="1" x="3" y="11" fill="#e6e6e6"                     fill-opacity="0.63" />
<rect width="1" height="1" x="4" y="11" fill="#e6e6e6"                     fill-opacity="0.96" />
<rect width="1" height="1" x="5" y="11" fill="#e6e6e6"                     fill-opacity="0.90" />
<rect width="1" height="1" x="6" y="11" fill="#e6e6e6"                     fill-opacity="0.91" />
<rect width="1" height="1" x="7" y="11" fill="#e6e6e6"                     fill-opacity="0.91" />
<rect width="1" height="1" x="8" y="11" fill="#e6e6e6"                     fill-opacity="0.91" />
<rect width="1" height="1" x="9" y="11" fill="#e6e6e6"                     fill-opacity="0.91" />
<rect width="1" height="1" x="10" y="11" fill="#e6e6e6"                     fill-opacity="0.91" />
<rect width="1" height="1" x="11" y="11" fill="#e6e6e6"                     fill-opacity="0.91" />
<rect width="1" height="1" x="12" y="11" fill="#e6e6e6"                     fill-opacity="0.91" />
<rect width="1" height="1" x="13" y="11" fill="#e6e6e6"                     fill-opacity="0.91" />
<rect width="1" height="1" x="14" y="11" fill="#e6e6e6"                     fill-opacity="0.91" />
<rect width="1" height="1" x="15" y="11" fill="#e6e6e6"                     fill-opacity="0.91" />
<rect width="1" height="1" x="16" y="11" fill="#e6e6e6"                     fill-opacity="0.91" />
<rect width="1" height="1" x="17" y="11" fill="#e6e6e6"                     fill-opacity="0.91" />
<rect width="1" height="1" x="18" y="11" fill="#e6e6e6"                     fill-opacity="0.91" />
<rect width="1" height="1" x="19" y="11" fill="#e6e6e6"                     fill-opacity="0.98" />
<rect width="1" height="1" x="20" y="11" fill="#e6e6e6"                     fill-opacity="0.44" />
<rect width="1" height="1" x="3" y="12" fill="#e6e6e6"                     fill-opacity="0.49" />
<rect width="1" height="1" x="4" y="12" fill="#e6e6e6"                     fill-opacity="0.76" />
<rect width="1" height="1" x="5" y="12" fill="#e6e6e6"                     fill-opacity="0.69" />
<rect width="1" height="1" x="6" y="12" fill="#e6e6e6"                     fill-opacity="0.70" />
<rect width="1" height="1" x="7" y="12" fill="#e6e6e6"                     fill-opacity="0.70" />
<rect width="1" height="1" x="8" y="12" fill="#e6e6e6"                     fill-opacity="0.70" />
<rect width="1" height="1" x="9" y="12" fill="#e6e6e6"                     fill-opacity="0.70" />
<rect width="1" height="1" x="10" y="12" fill="#e6e6e6"                     fill-opacity="0.70" />
<rect width="1" height="1" x="11" y="12" fill="#e6e6e6"                     fill-opacity="0.70" />
<rect width="1" height="1" x="12" y="12" fill="#e6e6e6"                     fill-opacity="0.70" />
<rect width="1" height="1" x="13" y="12" fill="#e6e6e6"                     fill-opacity="0.70" />
<rect width="1" height="1" x="14" y="12" fill="#e6e6e6"                     fill-opacity="0.70" />
<rect width="1" height="1" x="15" y="12" fill="#e6e6e6"                     fill-opacity="0.70" />
<rect width="1" height="1" x="16" y="12" fill="#e6e6e6"                     fill-opacity="0.70" />
<rect width="1" height="1" x="17" y="12" fill="#e6e6e6"                     fill-opacity="0.70" />
<rect width="1" height="1" x="18" y="12" fill="#e6e6e6"                     fill-opacity="0.69" />
<rect width="1" height="1" x="19" y="12" fill="#e6e6e6"                     fill-opacity="0.76" />
<rect width="1" height="1" x="20" y="12" fill="#e6e6e6"                     fill-opacity="0.35" />
</svg>
