<?xml version="1.0" encoding="UTF-8" standalone="no"?>
<svg id="svg2" xmlns="http://www.w3.org/2000/svg" version="1.1"                 width="24" height="24" viewBox="0 0 24 24">
<rect width="1" height="1" x="17" y="0" fill="#e6e6e6"                     fill-opacity="0.04" />
<rect width="1" height="1" x="19" y="0" fill="#e6e6e6"                     fill-opacity="0.00" />
<rect width="1" height="1" x="16" y="1" fill="#e6e6e6"                     fill-opacity="0.16" />
<rect width="1" height="1" x="17" y="1" fill="#e6e6e6"                     fill-opacity="0.84" />
<rect width="1" height="1" x="18" y="1" fill="#e6e6e6"                     fill-opacity="0.43" />
<rect width="1" height="1" x="21" y="1" fill="#e6e6e6"                     fill-opacity="0.00" />
<rect width="1" height="1" x="16" y="2" fill="#e6e6e6"                     fill-opacity="0.09" />
<rect width="1" height="1" x="17" y="2" fill="#e6e6e6"                     fill-opacity="0.81" />
<rect width="1" height="1" x="18" y="2" fill="#e6e6e6"                     fill-opacity="1.00" />
<rect width="1" height="1" x="19" y="2" fill="#e6e6e6"                     fill-opacity="0.36" />
<rect width="1" height="1" x="1" y="3" fill="#e6e6e6"                     fill-opacity="0.00" />
<rect width="1" height="1" x="2" y="3" fill="#e6e6e6"                     fill-opacity="0.00" />
<rect width="1" height="1" x="3" y="3" fill="#e6e6e6"                     fill-opacity="0.00" />
<rect width="1" height="1" x="4" y="3" fill="#e6e6e6"                     fill-opacity="0.00" />
<rect width="1" height="1" x="5" y="3" fill="#e6e6e6"                     fill-opacity="0.00" />
<rect width="1" height="1" x="6" y="3" fill="#e6e6e6"                     fill-opacity="0.00" />
<rect width="1" height="1" x="7" y="3" fill="#e6e6e6"                     fill-opacity="0.00" />
<rect width="1" height="1" x="8" y="3" fill="#e6e6e6"                     fill-opacity="0.00" />
<rect width="1" height="1" x="9" y="3" fill="#e6e6e6"                     fill-opacity="0.00" />
<rect width="1" height="1" x="10" y="3" fill="#e6e6e6"                     fill-opacity="0.00" />
<rect width="1" height="1" x="11" y="3" fill="#e6e6e6"                     fill-opacity="0.00" />
<rect width="1" height="1" x="12" y="3" fill="#e6e6e6"                     fill-opacity="0.00" />
<rect width="1" height="1" x="13" y="3" fill="#e6e6e6"                     fill-opacity="0.00" />
<rect width="1" height="1" x="14" y="3" fill="#e6e6e6"                     fill-opacity="0.00" />
<rect width="1" height="1" x="17" y="3" fill="#e6e6e6"                     fill-opacity="0.05" />
<rect width="1" height="1" x="18" y="3" fill="#e6e6e6"                     fill-opacity="0.76" />
<rect width="1" height="1" x="19" y="3" fill="#e6e6e6"                     fill-opacity="1.00" />
<rect width="1" height="1" x="20" y="3" fill="#e6e6e6"                     fill-opacity="0.35" />
<rect width="1" height="1" x="22" y="3" fill="#e6e6e6"                     fill-opacity="0.00" />
<rect width="1" height="1" x="19" y="4" fill="#e6e6e6"                     fill-opacity="0.67" />
<rect width="1" height="1" x="20" y="4" fill="#e6e6e6"                     fill-opacity="1.00" />
<rect width="1" height="1" x="21" y="4" fill="#e6e6e6"                     fill-opacity="0.36" />
<rect width="1" height="1" x="0" y="5" fill="#e6e6e6"                     fill-opacity="0.23" />
<rect width="1" height="1" x="1" y="5" fill="#e6e6e6"                     fill-opacity="0.61" />
<rect width="1" height="1" x="2" y="5" fill="#e6e6e6"                     fill-opacity="0.58" />
<rect width="1" height="1" x="3" y="5" fill="#e6e6e6"                     fill-opacity="0.58" />
<rect width="1" height="1" x="4" y="5" fill="#e6e6e6"                     fill-opacity="0.58" />
<rect width="1" height="1" x="5" y="5" fill="#e6e6e6"                     fill-opacity="0.58" />
<rect width="1" height="1" x="6" y="5" fill="#e6e6e6"                     fill-opacity="0.58" />
<rect width="1" height="1" x="7" y="5" fill="#e6e6e6"                     fill-opacity="0.58" />
<rect width="1" height="1" x="8" y="5" fill="#e6e6e6"                     fill-opacity="0.58" />
<rect width="1" height="1" x="9" y="5" fill="#e6e6e6"                     fill-opacity="0.58" />
<rect width="1" height="1" x="10" y="5" fill="#e6e6e6"                     fill-opacity="0.58" />
<rect width="1" height="1" x="11" y="5" fill="#e6e6e6"                     fill-opacity="0.58" />
<rect width="1" height="1" x="12" y="5" fill="#e6e6e6"                     fill-opacity="0.58" />
<rect width="1" height="1" x="13" y="5" fill="#e6e6e6"                     fill-opacity="0.58" />
<rect width="1" height="1" x="14" y="5" fill="#e6e6e6"                     fill-opacity="0.58" />
<rect width="1" height="1" x="15" y="5" fill="#e6e6e6"                     fill-opacity="0.58" />
<rect width="1" height="1" x="16" y="5" fill="#e6e6e6"                     fill-opacity="0.58" />
<rect width="1" height="1" x="17" y="5" fill="#e6e6e6"                     fill-opacity="0.58" />
<rect width="1" height="1" x="18" y="5" fill="#e6e6e6"                     fill-opacity="0.54" />
<rect width="1" height="1" x="19" y="5" fill="#e6e6e6"                     fill-opacity="0.58" />
<rect width="1" height="1" x="20" y="5" fill="#e6e6e6"                     fill-opacity="1.00" />
<rect width="1" height="1" x="21" y="5" fill="#e6e6e6"                     fill-opacity="1.00" />
<rect width="1" height="1" x="22" y="5" fill="#e6e6e6"                     fill-opacity="0.43" />
<rect width="1" height="1" x="23" y="5" fill="#e6e6e6"                     fill-opacity="0.00" />
<rect width="1" height="1" x="0" y="6" fill="#e6e6e6"                     fill-opacity="0.38" />
<rect width="1" height="1" x="1" y="6" fill="#e6e6e6"                     fill-opacity="0.95" />
<rect width="1" height="1" x="2" y="6" fill="#e6e6e6"                     fill-opacity="0.94" />
<rect width="1" height="1" x="3" y="6" fill="#e6e6e6"                     fill-opacity="0.93" />
<rect width="1" height="1" x="4" y="6" fill="#e6e6e6"                     fill-opacity="0.93" />
<rect width="1" height="1" x="5" y="6" fill="#e6e6e6"                     fill-opacity="0.93" />
<rect width="1" height="1" x="6" y="6" fill="#e6e6e6"                     fill-opacity="0.93" />
<rect width="1" height="1" x="7" y="6" fill="#e6e6e6"                     fill-opacity="0.93" />
<rect width="1" height="1" x="8" y="6" fill="#e6e6e6"                     fill-opacity="0.93" />
<rect width="1" height="1" x="9" y="6" fill="#e6e6e6"                     fill-opacity="0.93" />
<rect width="1" height="1" x="10" y="6" fill="#e6e6e6"                     fill-opacity="0.93" />
<rect width="1" height="1" x="11" y="6" fill="#e6e6e6"                     fill-opacity="0.93" />
<rect width="1" height="1" x="12" y="6" fill="#e6e6e6"                     fill-opacity="0.93" />
<rect width="1" height="1" x="13" y="6" fill="#e6e6e6"                     fill-opacity="0.93" />
<rect width="1" height="1" x="14" y="6" fill="#e6e6e6"                     fill-opacity="0.93" />
<rect width="1" height="1" x="15" y="6" fill="#e6e6e6"                     fill-opacity="0.93" />
<rect width="1" height="1" x="16" y="6" fill="#e6e6e6"                     fill-opacity="0.93" />
<rect width="1" height="1" x="17" y="6" fill="#e6e6e6"                     fill-opacity="0.94" />
<rect width="1" height="1" x="18" y="6" fill="#e6e6e6"                     fill-opacity="0.91" />
<rect width="1" height="1" x="19" y="6" fill="#e6e6e6"                     fill-opacity="0.83" />
<rect width="1" height="1" x="20" y="6" fill="#e6e6e6"                     fill-opacity="0.99" />
<rect width="1" height="1" x="21" y="6" fill="#e6e6e6"                     fill-opacity="1.00" />
<rect width="1" height="1" x="22" y="6" fill="#e6e6e6"                     fill-opacity="0.71" />
<rect width="1" height="1" x="23" y="6" fill="#e6e6e6"                     fill-opacity="0.02" />
<rect width="1" height="1" x="0" y="7" fill="#e6e6e6"                     fill-opacity="0.04" />
<rect width="1" height="1" x="1" y="7" fill="#e6e6e6"                     fill-opacity="0.13" />
<rect width="1" height="1" x="2" y="7" fill="#e6e6e6"                     fill-opacity="0.11" />
<rect width="1" height="1" x="3" y="7" fill="#e6e6e6"                     fill-opacity="0.11" />
<rect width="1" height="1" x="4" y="7" fill="#e6e6e6"                     fill-opacity="0.11" />
<rect width="1" height="1" x="5" y="7" fill="#e6e6e6"                     fill-opacity="0.11" />
<rect width="1" height="1" x="6" y="7" fill="#e6e6e6"                     fill-opacity="0.11" />
<rect width="1" height="1" x="7" y="7" fill="#e6e6e6"                     fill-opacity="0.11" />
<rect width="1" height="1" x="8" y="7" fill="#e6e6e6"                     fill-opacity="0.11" />
<rect width="1" height="1" x="9" y="7" fill="#e6e6e6"                     fill-opacity="0.11" />
<rect width="1" height="1" x="10" y="7" fill="#e6e6e6"                     fill-opacity="0.11" />
<rect width="1" height="1" x="11" y="7" fill="#e6e6e6"                     fill-opacity="0.11" />
<rect width="1" height="1" x="12" y="7" fill="#e6e6e6"                     fill-opacity="0.11" />
<rect width="1" height="1" x="13" y="7" fill="#e6e6e6"                     fill-opacity="0.11" />
<rect width="1" height="1" x="14" y="7" fill="#e6e6e6"                     fill-opacity="0.11" />
<rect width="1" height="1" x="15" y="7" fill="#e6e6e6"                     fill-opacity="0.11" />
<rect width="1" height="1" x="16" y="7" fill="#e6e6e6"                     fill-opacity="0.11" />
<rect width="1" height="1" x="17" y="7" fill="#e6e6e6"                     fill-opacity="0.11" />
<rect width="1" height="1" x="18" y="7" fill="#e6e6e6"                     fill-opacity="0.02" />
<rect width="1" height="1" x="19" y="7" fill="#e6e6e6"                     fill-opacity="0.43" />
<rect width="1" height="1" x="20" y="7" fill="#e6e6e6"                     fill-opacity="1.00" />
<rect width="1" height="1" x="21" y="7" fill="#e6e6e6"                     fill-opacity="0.78" />
<rect width="1" height="1" x="22" y="7" fill="#e6e6e6"                     fill-opacity="0.07" />
<rect width="1" height="1" x="18" y="8" fill="#e6e6e6"                     fill-opacity="0.32" />
<rect width="1" height="1" x="19" y="8" fill="#e6e6e6"                     fill-opacity="1.00" />
<rect width="1" height="1" x="20" y="8" fill="#e6e6e6"                     fill-opacity="0.71" />
<rect width="1" height="1" x="21" y="8" fill="#e6e6e6"                     fill-opacity="0.04" />
<rect width="1" height="1" x="16" y="9" fill="#e6e6e6"                     fill-opacity="0.01" />
<rect width="1" height="1" x="17" y="9" fill="#e6e6e6"                     fill-opacity="0.39" />
<rect width="1" height="1" x="18" y="9" fill="#e6e6e6"                     fill-opacity="1.00" />
<rect width="1" height="1" x="19" y="9" fill="#e6e6e6"                     fill-opacity="0.80" />
<rect width="1" height="1" x="20" y="9" fill="#e6e6e6"                     fill-opacity="0.05" />
<rect width="1" height="1" x="22" y="9" fill="#e6e6e6"                     fill-opacity="0.00" />
<rect width="1" height="1" x="16" y="10" fill="#e6e6e6"                     fill-opacity="0.18" />
<rect width="1" height="1" x="17" y="10" fill="#e6e6e6"                     fill-opacity="1.00" />
<rect width="1" height="1" x="18" y="10" fill="#e6e6e6"                     fill-opacity="0.82" />
<rect width="1" height="1" x="19" y="10" fill="#e6e6e6"                     fill-opacity="0.05" />
<rect width="1" height="1" x="21" y="10" fill="#e6e6e6"                     fill-opacity="0.00" />
<rect width="1" height="1" x="16" y="11" fill="#e6e6e6"                     fill-opacity="0.07" />
<rect width="1" height="1" x="17" y="11" fill="#e6e6e6"                     fill-opacity="0.38" />
<rect width="1" height="1" x="18" y="11" fill="#e6e6e6"                     fill-opacity="0.09" />
<rect width="1" height="1" x="3" y="12" fill="#e6e6e6"                     fill-opacity="0.00" />
<rect width="1" height="1" x="5" y="12" fill="#e6e6e6"                     fill-opacity="0.43" />
<rect width="1" height="1" x="6" y="12" fill="#e6e6e6"                     fill-opacity="0.58" />
<rect width="1" height="1" x="7" y="12" fill="#e6e6e6"                     fill-opacity="0.03" />
<rect width="1" height="1" x="19" y="12" fill="#e6e6e6"                     fill-opacity="0.00" />
<rect width="1" height="1" x="4" y="13" fill="#e6e6e6"                     fill-opacity="0.35" />
<rect width="1" height="1" x="5" y="13" fill="#e6e6e6"                     fill-opacity="1.00" />
<rect width="1" height="1" x="6" y="13" fill="#e6e6e6"                     fill-opacity="0.81" />
<rect width="1" height="1" x="7" y="13" fill="#e6e6e6"                     fill-opacity="0.04" />
<rect width="1" height="1" x="3" y="14" fill="#e6e6e6"                     fill-opacity="0.36" />
<rect width="1" height="1" x="4" y="14" fill="#e6e6e6"                     fill-opacity="1.00" />
<rect width="1" height="1" x="5" y="14" fill="#e6e6e6"                     fill-opacity="0.72" />
<rect width="1" height="1" x="6" y="14" fill="#e6e6e6"                     fill-opacity="0.04" />
<rect width="1" height="1" x="0" y="15" fill="#e6e6e6"                     fill-opacity="0.00" />
<rect width="1" height="1" x="2" y="15" fill="#e6e6e6"                     fill-opacity="0.38" />
<rect width="1" height="1" x="3" y="15" fill="#e6e6e6"                     fill-opacity="1.00" />
<rect width="1" height="1" x="4" y="15" fill="#e6e6e6"                     fill-opacity="0.69" />
<rect width="1" height="1" x="1" y="16" fill="#e6e6e6"                     fill-opacity="0.38" />
<rect width="1" height="1" x="2" y="16" fill="#e6e6e6"                     fill-opacity="1.00" />
<rect width="1" height="1" x="3" y="16" fill="#e6e6e6"                     fill-opacity="0.96" />
<rect width="1" height="1" x="4" y="16" fill="#e6e6e6"                     fill-opacity="0.33" />
<rect width="1" height="1" x="5" y="16" fill="#e6e6e6"                     fill-opacity="0.28" />
<rect width="1" height="1" x="6" y="16" fill="#e6e6e6"                     fill-opacity="0.31" />
<rect width="1" height="1" x="7" y="16" fill="#e6e6e6"                     fill-opacity="0.31" />
<rect width="1" height="1" x="8" y="16" fill="#e6e6e6"                     fill-opacity="0.31" />
<rect width="1" height="1" x="9" y="16" fill="#e6e6e6"                     fill-opacity="0.31" />
<rect width="1" height="1" x="10" y="16" fill="#e6e6e6"                     fill-opacity="0.31" />
<rect width="1" height="1" x="11" y="16" fill="#e6e6e6"                     fill-opacity="0.31" />
<rect width="1" height="1" x="12" y="16" fill="#e6e6e6"                     fill-opacity="0.31" />
<rect width="1" height="1" x="13" y="16" fill="#e6e6e6"                     fill-opacity="0.31" />
<rect width="1" height="1" x="14" y="16" fill="#e6e6e6"                     fill-opacity="0.31" />
<rect width="1" height="1" x="15" y="16" fill="#e6e6e6"                     fill-opacity="0.31" />
<rect width="1" height="1" x="16" y="16" fill="#e6e6e6"                     fill-opacity="0.31" />
<rect width="1" height="1" x="17" y="16" fill="#e6e6e6"                     fill-opacity="0.31" />
<rect width="1" height="1" x="18" y="16" fill="#e6e6e6"                     fill-opacity="0.31" />
<rect width="1" height="1" x="19" y="16" fill="#e6e6e6"                     fill-opacity="0.31" />
<rect width="1" height="1" x="20" y="16" fill="#e6e6e6"                     fill-opacity="0.31" />
<rect width="1" height="1" x="21" y="16" fill="#e6e6e6"                     fill-opacity="0.33" />
<rect width="1" height="1" x="22" y="16" fill="#e6e6e6"                     fill-opacity="0.30" />
<rect width="1" height="1" x="23" y="16" fill="#e6e6e6"                     fill-opacity="0.05" />
<rect width="1" height="1" x="0" y="17" fill="#e6e6e6"                     fill-opacity="0.10" />
<rect width="1" height="1" x="1" y="17" fill="#e6e6e6"                     fill-opacity="0.99" />
<rect width="1" height="1" x="2" y="17" fill="#e6e6e6"                     fill-opacity="1.00" />
<rect width="1" height="1" x="3" y="17" fill="#e6e6e6"                     fill-opacity="0.93" />
<rect width="1" height="1" x="4" y="17" fill="#e6e6e6"                     fill-opacity="0.91" />
<rect width="1" height="1" x="5" y="17" fill="#e6e6e6"                     fill-opacity="1.00" />
<rect width="1" height="1" x="6" y="17" fill="#e6e6e6"                     fill-opacity="1.00" />
<rect width="1" height="1" x="7" y="17" fill="#e6e6e6"                     fill-opacity="1.00" />
<rect width="1" height="1" x="8" y="17" fill="#e6e6e6"                     fill-opacity="1.00" />
<rect width="1" height="1" x="9" y="17" fill="#e6e6e6"                     fill-opacity="1.00" />
<rect width="1" height="1" x="10" y="17" fill="#e6e6e6"                     fill-opacity="1.00" />
<rect width="1" height="1" x="11" y="17" fill="#e6e6e6"                     fill-opacity="1.00" />
<rect width="1" height="1" x="12" y="17" fill="#e6e6e6"                     fill-opacity="1.00" />
<rect width="1" height="1" x="13" y="17" fill="#e6e6e6"                     fill-opacity="1.00" />
<rect width="1" height="1" x="14" y="17" fill="#e6e6e6"                     fill-opacity="1.00" />
<rect width="1" height="1" x="15" y="17" fill="#e6e6e6"                     fill-opacity="1.00" />
<rect width="1" height="1" x="16" y="17" fill="#e6e6e6"                     fill-opacity="1.00" />
<rect width="1" height="1" x="17" y="17" fill="#e6e6e6"                     fill-opacity="1.00" />
<rect width="1" height="1" x="18" y="17" fill="#e6e6e6"                     fill-opacity="1.00" />
<rect width="1" height="1" x="19" y="17" fill="#e6e6e6"                     fill-opacity="1.00" />
<rect width="1" height="1" x="20" y="17" fill="#e6e6e6"                     fill-opacity="1.00" />
<rect width="1" height="1" x="21" y="17" fill="#e6e6e6"                     fill-opacity="1.00" />
<rect width="1" height="1" x="22" y="17" fill="#e6e6e6"                     fill-opacity="1.00" />
<rect width="1" height="1" x="23" y="17" fill="#e6e6e6"                     fill-opacity="0.20" />
<rect width="1" height="1" x="0" y="18" fill="#e6e6e6"                     fill-opacity="0.02" />
<rect width="1" height="1" x="1" y="18" fill="#e6e6e6"                     fill-opacity="0.39" />
<rect width="1" height="1" x="2" y="18" fill="#e6e6e6"                     fill-opacity="1.00" />
<rect width="1" height="1" x="3" y="18" fill="#e6e6e6"                     fill-opacity="0.95" />
<rect width="1" height="1" x="4" y="18" fill="#e6e6e6"                     fill-opacity="0.33" />
<rect width="1" height="1" x="5" y="18" fill="#e6e6e6"                     fill-opacity="0.28" />
<rect width="1" height="1" x="6" y="18" fill="#e6e6e6"                     fill-opacity="0.34" />
<rect width="1" height="1" x="7" y="18" fill="#e6e6e6"                     fill-opacity="0.33" />
<rect width="1" height="1" x="8" y="18" fill="#e6e6e6"                     fill-opacity="0.33" />
<rect width="1" height="1" x="9" y="18" fill="#e6e6e6"                     fill-opacity="0.33" />
<rect width="1" height="1" x="10" y="18" fill="#e6e6e6"                     fill-opacity="0.33" />
<rect width="1" height="1" x="11" y="18" fill="#e6e6e6"                     fill-opacity="0.33" />
<rect width="1" height="1" x="12" y="18" fill="#e6e6e6"                     fill-opacity="0.33" />
<rect width="1" height="1" x="13" y="18" fill="#e6e6e6"                     fill-opacity="0.33" />
<rect width="1" height="1" x="14" y="18" fill="#e6e6e6"                     fill-opacity="0.33" />
<rect width="1" height="1" x="15" y="18" fill="#e6e6e6"                     fill-opacity="0.33" />
<rect width="1" height="1" x="16" y="18" fill="#e6e6e6"                     fill-opacity="0.33" />
<rect width="1" height="1" x="17" y="18" fill="#e6e6e6"                     fill-opacity="0.33" />
<rect width="1" height="1" x="18" y="18" fill="#e6e6e6"                     fill-opacity="0.33" />
<rect width="1" height="1" x="19" y="18" fill="#e6e6e6"                     fill-opacity="0.33" />
<rect width="1" height="1" x="20" y="18" fill="#e6e6e6"                     fill-opacity="0.33" />
<rect width="1" height="1" x="21" y="18" fill="#e6e6e6"                     fill-opacity="0.34" />
<rect width="1" height="1" x="22" y="18" fill="#e6e6e6"                     fill-opacity="0.33" />
<rect width="1" height="1" x="23" y="18" fill="#e6e6e6"                     fill-opacity="0.06" />
<rect width="1" height="1" x="2" y="19" fill="#e6e6e6"                     fill-opacity="0.35" />
<rect width="1" height="1" x="3" y="19" fill="#e6e6e6"                     fill-opacity="1.00" />
<rect width="1" height="1" x="4" y="19" fill="#e6e6e6"                     fill-opacity="0.69" />
<rect width="1" height="1" x="1" y="20" fill="#e6e6e6"                     fill-opacity="0.00" />
<rect width="1" height="1" x="3" y="20" fill="#e6e6e6"                     fill-opacity="0.34" />
<rect width="1" height="1" x="4" y="20" fill="#e6e6e6"                     fill-opacity="1.00" />
<rect width="1" height="1" x="5" y="20" fill="#e6e6e6"                     fill-opacity="0.78" />
<rect width="1" height="1" x="6" y="20" fill="#e6e6e6"                     fill-opacity="0.08" />
<rect width="1" height="1" x="7" y="20" fill="#e6e6e6"                     fill-opacity="0.00" />
<rect width="1" height="1" x="8" y="20" fill="#e6e6e6"                     fill-opacity="0.00" />
<rect width="1" height="1" x="9" y="20" fill="#e6e6e6"                     fill-opacity="0.00" />
<rect width="1" height="1" x="10" y="20" fill="#e6e6e6"                     fill-opacity="0.00" />
<rect width="1" height="1" x="11" y="20" fill="#e6e6e6"                     fill-opacity="0.00" />
<rect width="1" height="1" x="12" y="20" fill="#e6e6e6"                     fill-opacity="0.00" />
<rect width="1" height="1" x="13" y="20" fill="#e6e6e6"                     fill-opacity="0.00" />
<rect width="1" height="1" x="14" y="20" fill="#e6e6e6"                     fill-opacity="0.00" />
<rect width="1" height="1" x="15" y="20" fill="#e6e6e6"                     fill-opacity="0.00" />
<rect width="1" height="1" x="16" y="20" fill="#e6e6e6"                     fill-opacity="0.00" />
<rect width="1" height="1" x="17" y="20" fill="#e6e6e6"                     fill-opacity="0.00" />
<rect width="1" height="1" x="18" y="20" fill="#e6e6e6"                     fill-opacity="0.00" />
<rect width="1" height="1" x="19" y="20" fill="#e6e6e6"                     fill-opacity="0.00" />
<rect width="1" height="1" x="20" y="20" fill="#e6e6e6"                     fill-opacity="0.00" />
<rect width="1" height="1" x="21" y="20" fill="#e6e6e6"                     fill-opacity="0.01" />
<rect width="1" height="1" x="22" y="20" fill="#e6e6e6"                     fill-opacity="0.00" />
<rect width="1" height="1" x="4" y="21" fill="#e6e6e6"                     fill-opacity="0.35" />
<rect width="1" height="1" x="5" y="21" fill="#e6e6e6"                     fill-opacity="1.00" />
<rect width="1" height="1" x="6" y="21" fill="#e6e6e6"                     fill-opacity="0.83" />
<rect width="1" height="1" x="7" y="21" fill="#e6e6e6"                     fill-opacity="0.01" />
<rect width="1" height="1" x="2" y="22" fill="#e6e6e6"                     fill-opacity="0.00" />
<rect width="1" height="1" x="5" y="22" fill="#e6e6e6"                     fill-opacity="0.42" />
<rect width="1" height="1" x="6" y="22" fill="#e6e6e6"                     fill-opacity="0.60" />
<rect width="1" height="1" x="7" y="22" fill="#e6e6e6"                     fill-opacity="0.02" />
<rect width="1" height="1" x="4" y="23" fill="#e6e6e6"                     fill-opacity="0.00" />
</svg>
