<?xml version="1.0" encoding="UTF-8" standalone="no"?>
<svg id="svg2" xmlns="http://www.w3.org/2000/svg" version="1.1"                 width="24" height="24" viewBox="0 0 24 24">
<rect width="1" height="1" x="4" y="3" fill="#e6e6e6"                     fill-opacity="0.03" />
<rect width="1" height="1" x="18" y="3" fill="#e6e6e6"                     fill-opacity="0.02" />
<rect width="1" height="1" x="19" y="3" fill="#e6e6e6"                     fill-opacity="0.01" />
<rect width="1" height="1" x="3" y="4" fill="#e6e6e6"                     fill-opacity="0.05" />
<rect width="1" height="1" x="4" y="4" fill="#e6e6e6"                     fill-opacity="0.75" />
<rect width="1" height="1" x="5" y="4" fill="#e6e6e6"                     fill-opacity="0.62" />
<rect width="1" height="1" x="8" y="4" fill="#e6e6e6"                     fill-opacity="0.00" />
<rect width="1" height="1" x="15" y="4" fill="#e6e6e6"                     fill-opacity="0.00" />
<rect width="1" height="1" x="17" y="4" fill="#e6e6e6"                     fill-opacity="0.06" />
<rect width="1" height="1" x="18" y="4" fill="#e6e6e6"                     fill-opacity="0.77" />
<rect width="1" height="1" x="19" y="4" fill="#e6e6e6"                     fill-opacity="0.57" />
<rect width="1" height="1" x="3" y="5" fill="#e6e6e6"                     fill-opacity="0.03" />
<rect width="1" height="1" x="4" y="5" fill="#e6e6e6"                     fill-opacity="0.60" />
<rect width="1" height="1" x="5" y="5" fill="#e6e6e6"                     fill-opacity="1.00" />
<rect width="1" height="1" x="6" y="5" fill="#e6e6e6"                     fill-opacity="0.58" />
<rect width="1" height="1" x="9" y="5" fill="#e6e6e6"                     fill-opacity="0.00" />
<rect width="1" height="1" x="14" y="5" fill="#e6e6e6"                     fill-opacity="0.00" />
<rect width="1" height="1" x="16" y="5" fill="#e6e6e6"                     fill-opacity="0.05" />
<rect width="1" height="1" x="17" y="5" fill="#e6e6e6"                     fill-opacity="0.82" />
<rect width="1" height="1" x="18" y="5" fill="#e6e6e6"                     fill-opacity="1.00" />
<rect width="1" height="1" x="19" y="5" fill="#e6e6e6"                     fill-opacity="0.41" />
<rect width="1" height="1" x="2" y="6" fill="#e6e6e6"                     fill-opacity="0.00" />
<rect width="1" height="1" x="5" y="6" fill="#e6e6e6"                     fill-opacity="0.56" />
<rect width="1" height="1" x="6" y="6" fill="#e6e6e6"                     fill-opacity="1.00" />
<rect width="1" height="1" x="7" y="6" fill="#e6e6e6"                     fill-opacity="0.56" />
<rect width="1" height="1" x="15" y="6" fill="#e6e6e6"                     fill-opacity="0.02" />
<rect width="1" height="1" x="16" y="6" fill="#e6e6e6"                     fill-opacity="0.75" />
<rect width="1" height="1" x="17" y="6" fill="#e6e6e6"                     fill-opacity="1.00" />
<rect width="1" height="1" x="18" y="6" fill="#e6e6e6"                     fill-opacity="0.37" />
<rect width="1" height="1" x="20" y="6" fill="#e6e6e6"                     fill-opacity="0.00" />
<rect width="1" height="1" x="3" y="7" fill="#e6e6e6"                     fill-opacity="0.00" />
<rect width="1" height="1" x="6" y="7" fill="#e6e6e6"                     fill-opacity="0.54" />
<rect width="1" height="1" x="7" y="7" fill="#e6e6e6"                     fill-opacity="1.00" />
<rect width="1" height="1" x="8" y="7" fill="#e6e6e6"                     fill-opacity="0.56" />
<rect width="1" height="1" x="11" y="7" fill="#e6e6e6"                     fill-opacity="0.00" />
<rect width="1" height="1" x="12" y="7" fill="#e6e6e6"                     fill-opacity="0.00" />
<rect width="1" height="1" x="14" y="7" fill="#e6e6e6"                     fill-opacity="0.06" />
<rect width="1" height="1" x="15" y="7" fill="#e6e6e6"                     fill-opacity="0.78" />
<rect width="1" height="1" x="16" y="7" fill="#e6e6e6"                     fill-opacity="1.00" />
<rect width="1" height="1" x="17" y="7" fill="#e6e6e6"                     fill-opacity="0.33" />
<rect width="1" height="1" x="7" y="8" fill="#e6e6e6"                     fill-opacity="0.55" />
<rect width="1" height="1" x="8" y="8" fill="#e6e6e6"                     fill-opacity="1.00" />
<rect width="1" height="1" x="9" y="8" fill="#e6e6e6"                     fill-opacity="0.58" />
<rect width="1" height="1" x="13" y="8" fill="#e6e6e6"                     fill-opacity="0.05" />
<rect width="1" height="1" x="14" y="8" fill="#e6e6e6"                     fill-opacity="0.82" />
<rect width="1" height="1" x="15" y="8" fill="#e6e6e6"                     fill-opacity="1.00" />
<rect width="1" height="1" x="16" y="8" fill="#e6e6e6"                     fill-opacity="0.36" />
<rect width="1" height="1" x="18" y="8" fill="#e6e6e6"                     fill-opacity="0.00" />
<rect width="1" height="1" x="5" y="9" fill="#e6e6e6"                     fill-opacity="0.00" />
<rect width="1" height="1" x="8" y="9" fill="#e6e6e6"                     fill-opacity="0.56" />
<rect width="1" height="1" x="9" y="9" fill="#e6e6e6"                     fill-opacity="1.00" />
<rect width="1" height="1" x="10" y="9" fill="#e6e6e6"                     fill-opacity="0.56" />
<rect width="1" height="1" x="13" y="9" fill="#e6e6e6"                     fill-opacity="0.75" />
<rect width="1" height="1" x="14" y="9" fill="#e6e6e6"                     fill-opacity="1.00" />
<rect width="1" height="1" x="15" y="9" fill="#e6e6e6"                     fill-opacity="0.37" />
<rect width="1" height="1" x="6" y="10" fill="#e6e6e6"                     fill-opacity="0.00" />
<rect width="1" height="1" x="9" y="10" fill="#e6e6e6"                     fill-opacity="0.55" />
<rect width="1" height="1" x="10" y="10" fill="#e6e6e6"                     fill-opacity="1.00" />
<rect width="1" height="1" x="11" y="10" fill="#e6e6e6"                     fill-opacity="0.54" />
<rect width="1" height="1" x="12" y="10" fill="#e6e6e6"                     fill-opacity="0.70" />
<rect width="1" height="1" x="13" y="10" fill="#e6e6e6"                     fill-opacity="1.00" />
<rect width="1" height="1" x="14" y="10" fill="#e6e6e6"                     fill-opacity="0.33" />
<rect width="1" height="1" x="10" y="11" fill="#e6e6e6"                     fill-opacity="0.54" />
<rect width="1" height="1" x="11" y="11" fill="#e6e6e6"                     fill-opacity="1.00" />
<rect width="1" height="1" x="12" y="11" fill="#e6e6e6"                     fill-opacity="1.00" />
<rect width="1" height="1" x="13" y="11" fill="#e6e6e6"                     fill-opacity="0.33" />
<rect width="1" height="1" x="15" y="11" fill="#e6e6e6"                     fill-opacity="0.00" />
<rect width="1" height="1" x="9" y="12" fill="#e6e6e6"                     fill-opacity="0.00" />
<rect width="1" height="1" x="10" y="12" fill="#e6e6e6"                     fill-opacity="0.66" />
<rect width="1" height="1" x="11" y="12" fill="#e6e6e6"                     fill-opacity="1.00" />
<rect width="1" height="1" x="12" y="12" fill="#e6e6e6"                     fill-opacity="1.00" />
<rect width="1" height="1" x="13" y="12" fill="#e6e6e6"                     fill-opacity="0.48" />
<rect width="1" height="1" x="6" y="13" fill="#e6e6e6"                     fill-opacity="0.00" />
<rect width="1" height="1" x="8" y="13" fill="#e6e6e6"                     fill-opacity="0.06" />
<rect width="1" height="1" x="9" y="13" fill="#e6e6e6"                     fill-opacity="0.78" />
<rect width="1" height="1" x="10" y="13" fill="#e6e6e6"                     fill-opacity="1.00" />
<rect width="1" height="1" x="11" y="13" fill="#e6e6e6"                     fill-opacity="0.31" />
<rect width="1" height="1" x="12" y="13" fill="#e6e6e6"                     fill-opacity="0.47" />
<rect width="1" height="1" x="13" y="13" fill="#e6e6e6"                     fill-opacity="1.00" />
<rect width="1" height="1" x="14" y="13" fill="#e6e6e6"                     fill-opacity="0.56" />
<rect width="1" height="1" x="17" y="13" fill="#e6e6e6"                     fill-opacity="0.00" />
<rect width="1" height="1" x="5" y="14" fill="#e6e6e6"                     fill-opacity="0.00" />
<rect width="1" height="1" x="7" y="14" fill="#e6e6e6"                     fill-opacity="0.05" />
<rect width="1" height="1" x="8" y="14" fill="#e6e6e6"                     fill-opacity="0.82" />
<rect width="1" height="1" x="9" y="14" fill="#e6e6e6"                     fill-opacity="1.00" />
<rect width="1" height="1" x="10" y="14" fill="#e6e6e6"                     fill-opacity="0.36" />
<rect width="1" height="1" x="13" y="14" fill="#e6e6e6"                     fill-opacity="0.55" />
<rect width="1" height="1" x="14" y="14" fill="#e6e6e6"                     fill-opacity="1.00" />
<rect width="1" height="1" x="15" y="14" fill="#e6e6e6"                     fill-opacity="0.58" />
<rect width="1" height="1" x="18" y="14" fill="#e6e6e6"                     fill-opacity="0.00" />
<rect width="1" height="1" x="6" y="15" fill="#e6e6e6"                     fill-opacity="0.02" />
<rect width="1" height="1" x="7" y="15" fill="#e6e6e6"                     fill-opacity="0.75" />
<rect width="1" height="1" x="8" y="15" fill="#e6e6e6"                     fill-opacity="1.00" />
<rect width="1" height="1" x="9" y="15" fill="#e6e6e6"                     fill-opacity="0.37" />
<rect width="1" height="1" x="11" y="15" fill="#e6e6e6"                     fill-opacity="0.00" />
<rect width="1" height="1" x="14" y="15" fill="#e6e6e6"                     fill-opacity="0.56" />
<rect width="1" height="1" x="15" y="15" fill="#e6e6e6"                     fill-opacity="1.00" />
<rect width="1" height="1" x="16" y="15" fill="#e6e6e6"                     fill-opacity="0.56" />
<rect width="1" height="1" x="3" y="16" fill="#e6e6e6"                     fill-opacity="0.00" />
<rect width="1" height="1" x="5" y="16" fill="#e6e6e6"                     fill-opacity="0.06" />
<rect width="1" height="1" x="6" y="16" fill="#e6e6e6"                     fill-opacity="0.78" />
<rect width="1" height="1" x="7" y="16" fill="#e6e6e6"                     fill-opacity="1.00" />
<rect width="1" height="1" x="8" y="16" fill="#e6e6e6"                     fill-opacity="0.33" />
<rect width="1" height="1" x="12" y="16" fill="#e6e6e6"                     fill-opacity="0.00" />
<rect width="1" height="1" x="15" y="16" fill="#e6e6e6"                     fill-opacity="0.55" />
<rect width="1" height="1" x="16" y="16" fill="#e6e6e6"                     fill-opacity="1.00" />
<rect width="1" height="1" x="17" y="16" fill="#e6e6e6"                     fill-opacity="0.56" />
<rect width="1" height="1" x="20" y="16" fill="#e6e6e6"                     fill-opacity="0.00" />
<rect width="1" height="1" x="4" y="17" fill="#e6e6e6"                     fill-opacity="0.07" />
<rect width="1" height="1" x="5" y="17" fill="#e6e6e6"                     fill-opacity="0.80" />
<rect width="1" height="1" x="6" y="17" fill="#e6e6e6"                     fill-opacity="1.00" />
<rect width="1" height="1" x="7" y="17" fill="#e6e6e6"                     fill-opacity="0.36" />
<rect width="1" height="1" x="9" y="17" fill="#e6e6e6"                     fill-opacity="0.00" />
<rect width="1" height="1" x="16" y="17" fill="#e6e6e6"                     fill-opacity="0.55" />
<rect width="1" height="1" x="17" y="17" fill="#e6e6e6"                     fill-opacity="1.00" />
<rect width="1" height="1" x="18" y="17" fill="#e6e6e6"                     fill-opacity="0.56" />
<rect width="1" height="1" x="19" y="17" fill="#e6e6e6"                     fill-opacity="0.01" />
<rect width="1" height="1" x="21" y="17" fill="#e6e6e6"                     fill-opacity="0.00" />
<rect width="1" height="1" x="3" y="18" fill="#e6e6e6"                     fill-opacity="0.02" />
<rect width="1" height="1" x="4" y="18" fill="#e6e6e6"                     fill-opacity="0.81" />
<rect width="1" height="1" x="5" y="18" fill="#e6e6e6"                     fill-opacity="1.00" />
<rect width="1" height="1" x="6" y="18" fill="#e6e6e6"                     fill-opacity="0.37" />
<rect width="1" height="1" x="14" y="18" fill="#e6e6e6"                     fill-opacity="0.00" />
<rect width="1" height="1" x="17" y="18" fill="#e6e6e6"                     fill-opacity="0.56" />
<rect width="1" height="1" x="18" y="18" fill="#e6e6e6"                     fill-opacity="1.00" />
<rect width="1" height="1" x="19" y="18" fill="#e6e6e6"                     fill-opacity="0.58" />
<rect width="1" height="1" x="3" y="19" fill="#e6e6e6"                     fill-opacity="0.03" />
<rect width="1" height="1" x="4" y="19" fill="#e6e6e6"                     fill-opacity="0.56" />
<rect width="1" height="1" x="5" y="19" fill="#e6e6e6"                     fill-opacity="0.40" />
<rect width="1" height="1" x="15" y="19" fill="#e6e6e6"                     fill-opacity="0.00" />
<rect width="1" height="1" x="18" y="19" fill="#e6e6e6"                     fill-opacity="0.57" />
<rect width="1" height="1" x="19" y="19" fill="#e6e6e6"                     fill-opacity="0.44" />
<rect width="1" height="1" x="6" y="20" fill="#e6e6e6"                     fill-opacity="0.00" />
</svg>
