<?xml version="1.0" encoding="UTF-8" standalone="no"?>
<svg id="svg2" xmlns="http://www.w3.org/2000/svg" version="1.1"                 width="24" height="24" viewBox="0 0 24 24">
<rect width="1" height="1" x="10" y="0" fill="#e6e6e6"                     fill-opacity="0.01" />
<rect width="1" height="1" x="11" y="0" fill="#e6e6e6"                     fill-opacity="0.28" />
<rect width="1" height="1" x="12" y="0" fill="#e6e6e6"                     fill-opacity="0.22" />
<rect width="1" height="1" x="10" y="1" fill="#e6e6e6"                     fill-opacity="0.05" />
<rect width="1" height="1" x="11" y="1" fill="#e6e6e6"                     fill-opacity="0.92" />
<rect width="1" height="1" x="12" y="1" fill="#e6e6e6"                     fill-opacity="0.73" />
<rect width="1" height="1" x="10" y="2" fill="#e6e6e6"                     fill-opacity="0.04" />
<rect width="1" height="1" x="11" y="2" fill="#e6e6e6"                     fill-opacity="0.91" />
<rect width="1" height="1" x="12" y="2" fill="#e6e6e6"                     fill-opacity="0.71" />
<rect width="1" height="1" x="10" y="3" fill="#e6e6e6"                     fill-opacity="0.04" />
<rect width="1" height="1" x="11" y="3" fill="#e6e6e6"                     fill-opacity="0.91" />
<rect width="1" height="1" x="12" y="3" fill="#e6e6e6"                     fill-opacity="0.69" />
<rect width="1" height="1" x="10" y="4" fill="#e6e6e6"                     fill-opacity="0.04" />
<rect width="1" height="1" x="11" y="4" fill="#e6e6e6"                     fill-opacity="0.91" />
<rect width="1" height="1" x="12" y="4" fill="#e6e6e6"                     fill-opacity="0.70" />
<rect width="1" height="1" x="10" y="5" fill="#e6e6e6"                     fill-opacity="0.04" />
<rect width="1" height="1" x="11" y="5" fill="#e6e6e6"                     fill-opacity="0.91" />
<rect width="1" height="1" x="12" y="5" fill="#e6e6e6"                     fill-opacity="0.70" />
<rect width="1" height="1" x="10" y="6" fill="#e6e6e6"                     fill-opacity="0.04" />
<rect width="1" height="1" x="11" y="6" fill="#e6e6e6"                     fill-opacity="0.91" />
<rect width="1" height="1" x="12" y="6" fill="#e6e6e6"                     fill-opacity="0.70" />
<rect width="1" height="1" x="10" y="7" fill="#e6e6e6"                     fill-opacity="0.04" />
<rect width="1" height="1" x="11" y="7" fill="#e6e6e6"                     fill-opacity="0.91" />
<rect width="1" height="1" x="12" y="7" fill="#e6e6e6"                     fill-opacity="0.70" />
<rect width="1" height="1" x="10" y="8" fill="#e6e6e6"                     fill-opacity="0.04" />
<rect width="1" height="1" x="11" y="8" fill="#e6e6e6"                     fill-opacity="0.91" />
<rect width="1" height="1" x="12" y="8" fill="#e6e6e6"                     fill-opacity="0.70" />
<rect width="1" height="1" x="10" y="9" fill="#e6e6e6"                     fill-opacity="0.04" />
<rect width="1" height="1" x="11" y="9" fill="#e6e6e6"                     fill-opacity="0.91" />
<rect width="1" height="1" x="12" y="9" fill="#e6e6e6"                     fill-opacity="0.70" />
<rect width="1" height="1" x="10" y="10" fill="#e6e6e6"                     fill-opacity="0.04" />
<rect width="1" height="1" x="11" y="10" fill="#e6e6e6"                     fill-opacity="0.91" />
<rect width="1" height="1" x="12" y="10" fill="#e6e6e6"                     fill-opacity="0.70" />
<rect width="1" height="1" x="10" y="11" fill="#e6e6e6"                     fill-opacity="0.04" />
<rect width="1" height="1" x="11" y="11" fill="#e6e6e6"                     fill-opacity="0.91" />
<rect width="1" height="1" x="12" y="11" fill="#e6e6e6"                     fill-opacity="0.70" />
<rect width="1" height="1" x="10" y="12" fill="#e6e6e6"                     fill-opacity="0.04" />
<rect width="1" height="1" x="11" y="12" fill="#e6e6e6"                     fill-opacity="0.91" />
<rect width="1" height="1" x="12" y="12" fill="#e6e6e6"                     fill-opacity="0.70" />
<rect width="1" height="1" x="10" y="13" fill="#e6e6e6"                     fill-opacity="0.04" />
<rect width="1" height="1" x="11" y="13" fill="#e6e6e6"                     fill-opacity="0.91" />
<rect width="1" height="1" x="12" y="13" fill="#e6e6e6"                     fill-opacity="0.70" />
<rect width="1" height="1" x="10" y="14" fill="#e6e6e6"                     fill-opacity="0.04" />
<rect width="1" height="1" x="11" y="14" fill="#e6e6e6"                     fill-opacity="0.91" />
<rect width="1" height="1" x="12" y="14" fill="#e6e6e6"                     fill-opacity="0.70" />
<rect width="1" height="1" x="5" y="15" fill="#e6e6e6"                     fill-opacity="0.02" />
<rect width="1" height="1" x="6" y="15" fill="#e6e6e6"                     fill-opacity="0.07" />
<rect width="1" height="1" x="7" y="15" fill="#e6e6e6"                     fill-opacity="0.00" />
<rect width="1" height="1" x="10" y="15" fill="#e6e6e6"                     fill-opacity="0.04" />
<rect width="1" height="1" x="11" y="15" fill="#e6e6e6"                     fill-opacity="0.91" />
<rect width="1" height="1" x="12" y="15" fill="#e6e6e6"                     fill-opacity="0.70" />
<rect width="1" height="1" x="16" y="15" fill="#e6e6e6"                     fill-opacity="0.05" />
<rect width="1" height="1" x="17" y="15" fill="#e6e6e6"                     fill-opacity="0.06" />
<rect width="1" height="1" x="5" y="16" fill="#e6e6e6"                     fill-opacity="0.21" />
<rect width="1" height="1" x="6" y="16" fill="#e6e6e6"                     fill-opacity="0.97" />
<rect width="1" height="1" x="7" y="16" fill="#e6e6e6"                     fill-opacity="0.46" />
<rect width="1" height="1" x="10" y="16" fill="#e6e6e6"                     fill-opacity="0.04" />
<rect width="1" height="1" x="11" y="16" fill="#e6e6e6"                     fill-opacity="0.91" />
<rect width="1" height="1" x="12" y="16" fill="#e6e6e6"                     fill-opacity="0.70" />
<rect width="1" height="1" x="16" y="16" fill="#e6e6e6"                     fill-opacity="0.65" />
<rect width="1" height="1" x="17" y="16" fill="#e6e6e6"                     fill-opacity="0.86" />
<rect width="1" height="1" x="18" y="16" fill="#e6e6e6"                     fill-opacity="0.06" />
<rect width="1" height="1" x="5" y="17" fill="#e6e6e6"                     fill-opacity="0.07" />
<rect width="1" height="1" x="6" y="17" fill="#e6e6e6"                     fill-opacity="0.71" />
<rect width="1" height="1" x="7" y="17" fill="#e6e6e6"                     fill-opacity="1.00" />
<rect width="1" height="1" x="8" y="17" fill="#e6e6e6"                     fill-opacity="0.44" />
<rect width="1" height="1" x="10" y="17" fill="#e6e6e6"                     fill-opacity="0.03" />
<rect width="1" height="1" x="11" y="17" fill="#e6e6e6"                     fill-opacity="0.91" />
<rect width="1" height="1" x="12" y="17" fill="#e6e6e6"                     fill-opacity="0.70" />
<rect width="1" height="1" x="15" y="17" fill="#e6e6e6"                     fill-opacity="0.59" />
<rect width="1" height="1" x="16" y="17" fill="#e6e6e6"                     fill-opacity="1.00" />
<rect width="1" height="1" x="17" y="17" fill="#e6e6e6"                     fill-opacity="0.58" />
<rect width="1" height="1" x="6" y="18" fill="#e6e6e6"                     fill-opacity="0.01" />
<rect width="1" height="1" x="7" y="18" fill="#e6e6e6"                     fill-opacity="0.75" />
<rect width="1" height="1" x="8" y="18" fill="#e6e6e6"                     fill-opacity="1.00" />
<rect width="1" height="1" x="9" y="18" fill="#e6e6e6"                     fill-opacity="0.38" />
<rect width="1" height="1" x="11" y="18" fill="#e6e6e6"                     fill-opacity="0.89" />
<rect width="1" height="1" x="12" y="18" fill="#e6e6e6"                     fill-opacity="0.68" />
<rect width="1" height="1" x="14" y="18" fill="#e6e6e6"                     fill-opacity="0.58" />
<rect width="1" height="1" x="15" y="18" fill="#e6e6e6"                     fill-opacity="1.00" />
<rect width="1" height="1" x="16" y="18" fill="#e6e6e6"                     fill-opacity="0.55" />
<rect width="1" height="1" x="5" y="19" fill="#e6e6e6"                     fill-opacity="0.00" />
<rect width="1" height="1" x="7" y="19" fill="#e6e6e6"                     fill-opacity="0.02" />
<rect width="1" height="1" x="8" y="19" fill="#e6e6e6"                     fill-opacity="0.73" />
<rect width="1" height="1" x="9" y="19" fill="#e6e6e6"                     fill-opacity="1.00" />
<rect width="1" height="1" x="10" y="19" fill="#e6e6e6"                     fill-opacity="0.43" />
<rect width="1" height="1" x="11" y="19" fill="#e6e6e6"                     fill-opacity="0.80" />
<rect width="1" height="1" x="12" y="19" fill="#e6e6e6"                     fill-opacity="0.65" />
<rect width="1" height="1" x="13" y="19" fill="#e6e6e6"                     fill-opacity="0.55" />
<rect width="1" height="1" x="14" y="19" fill="#e6e6e6"                     fill-opacity="1.00" />
<rect width="1" height="1" x="15" y="19" fill="#e6e6e6"                     fill-opacity="0.52" />
<rect width="1" height="1" x="8" y="20" fill="#e6e6e6"                     fill-opacity="0.02" />
<rect width="1" height="1" x="9" y="20" fill="#e6e6e6"                     fill-opacity="0.66" />
<rect width="1" height="1" x="10" y="20" fill="#e6e6e6"                     fill-opacity="1.00" />
<rect width="1" height="1" x="11" y="20" fill="#e6e6e6"                     fill-opacity="0.97" />
<rect width="1" height="1" x="12" y="20" fill="#e6e6e6"                     fill-opacity="0.96" />
<rect width="1" height="1" x="13" y="20" fill="#e6e6e6"                     fill-opacity="1.00" />
<rect width="1" height="1" x="14" y="20" fill="#e6e6e6"                     fill-opacity="0.52" />
<rect width="1" height="1" x="9" y="21" fill="#e6e6e6"                     fill-opacity="0.01" />
<rect width="1" height="1" x="10" y="21" fill="#e6e6e6"                     fill-opacity="0.73" />
<rect width="1" height="1" x="11" y="21" fill="#e6e6e6"                     fill-opacity="1.00" />
<rect width="1" height="1" x="12" y="21" fill="#e6e6e6"                     fill-opacity="1.00" />
<rect width="1" height="1" x="13" y="21" fill="#e6e6e6"                     fill-opacity="0.54" />
<rect width="1" height="1" x="16" y="21" fill="#e6e6e6"                     fill-opacity="0.00" />
<rect width="1" height="1" x="8" y="22" fill="#e6e6e6"                     fill-opacity="0.00" />
<rect width="1" height="1" x="10" y="22" fill="#e6e6e6"                     fill-opacity="0.04" />
<rect width="1" height="1" x="11" y="22" fill="#e6e6e6"                     fill-opacity="0.72" />
<rect width="1" height="1" x="12" y="22" fill="#e6e6e6"                     fill-opacity="0.58" />
<rect width="1" height="1" x="11" y="23" fill="#e6e6e6"                     fill-opacity="0.02" />
<rect width="1" height="1" x="12" y="23" fill="#e6e6e6"                     fill-opacity="0.00" />
</svg>
