<?xml version="1.0" encoding="UTF-8" standalone="no"?>
<svg id="svg2" xmlns="http://www.w3.org/2000/svg" version="1.1"                 width="24" height="24" viewBox="0 0 24 24">
<rect width="1" height="1" x="13" y="0" fill="#e6e6e6"                     fill-opacity="0.08" />
<rect width="1" height="1" x="14" y="0" fill="#e6e6e6"                     fill-opacity="0.41" />
<rect width="1" height="1" x="15" y="0" fill="#e6e6e6"                     fill-opacity="0.17" />
<rect width="1" height="1" x="13" y="1" fill="#e6e6e6"                     fill-opacity="0.44" />
<rect width="1" height="1" x="14" y="1" fill="#e6e6e6"                     fill-opacity="1.00" />
<rect width="1" height="1" x="15" y="1" fill="#e6e6e6"                     fill-opacity="0.28" />
<rect width="1" height="1" x="17" y="1" fill="#e6e6e6"                     fill-opacity="0.00" />
<rect width="1" height="1" x="13" y="2" fill="#e6e6e6"                     fill-opacity="0.67" />
<rect width="1" height="1" x="14" y="2" fill="#e6e6e6"                     fill-opacity="0.95" />
<rect width="1" height="1" x="15" y="2" fill="#e6e6e6"                     fill-opacity="0.03" />
<rect width="1" height="1" x="5" y="3" fill="#e6e6e6"                     fill-opacity="0.00" />
<rect width="1" height="1" x="12" y="3" fill="#e6e6e6"                     fill-opacity="0.04" />
<rect width="1" height="1" x="13" y="3" fill="#e6e6e6"                     fill-opacity="0.89" />
<rect width="1" height="1" x="14" y="3" fill="#e6e6e6"                     fill-opacity="0.69" />
<rect width="1" height="1" x="12" y="4" fill="#e6e6e6"                     fill-opacity="0.18" />
<rect width="1" height="1" x="13" y="4" fill="#e6e6e6"                     fill-opacity="1.00" />
<rect width="1" height="1" x="14" y="4" fill="#e6e6e6"                     fill-opacity="0.42" />
<rect width="1" height="1" x="5" y="5" fill="#e6e6e6"                     fill-opacity="0.31" />
<rect width="1" height="1" x="6" y="5" fill="#e6e6e6"                     fill-opacity="0.23" />
<rect width="1" height="1" x="12" y="5" fill="#e6e6e6"                     fill-opacity="0.42" />
<rect width="1" height="1" x="13" y="5" fill="#e6e6e6"                     fill-opacity="1.00" />
<rect width="1" height="1" x="14" y="5" fill="#e6e6e6"                     fill-opacity="0.20" />
<rect width="1" height="1" x="16" y="5" fill="#e6e6e6"                     fill-opacity="0.00" />
<rect width="1" height="1" x="17" y="5" fill="#e6e6e6"                     fill-opacity="0.31" />
<rect width="1" height="1" x="18" y="5" fill="#e6e6e6"                     fill-opacity="0.25" />
<rect width="1" height="1" x="20" y="5" fill="#e6e6e6"                     fill-opacity="0.00" />
<rect width="1" height="1" x="2" y="6" fill="#e6e6e6"                     fill-opacity="0.00" />
<rect width="1" height="1" x="4" y="6" fill="#e6e6e6"                     fill-opacity="0.24" />
<rect width="1" height="1" x="5" y="6" fill="#e6e6e6"                     fill-opacity="1.00" />
<rect width="1" height="1" x="6" y="6" fill="#e6e6e6"                     fill-opacity="0.62" />
<rect width="1" height="1" x="12" y="6" fill="#e6e6e6"                     fill-opacity="0.66" />
<rect width="1" height="1" x="13" y="6" fill="#e6e6e6"                     fill-opacity="0.90" />
<rect width="1" height="1" x="14" y="6" fill="#e6e6e6"                     fill-opacity="0.04" />
<rect width="1" height="1" x="16" y="6" fill="#e6e6e6"                     fill-opacity="0.02" />
<rect width="1" height="1" x="17" y="6" fill="#e6e6e6"                     fill-opacity="0.88" />
<rect width="1" height="1" x="18" y="6" fill="#e6e6e6"                     fill-opacity="0.94" />
<rect width="1" height="1" x="19" y="6" fill="#e6e6e6"                     fill-opacity="0.05" />
<rect width="1" height="1" x="21" y="6" fill="#e6e6e6"                     fill-opacity="0.00" />
<rect width="1" height="1" x="3" y="7" fill="#e6e6e6"                     fill-opacity="0.08" />
<rect width="1" height="1" x="4" y="7" fill="#e6e6e6"                     fill-opacity="0.91" />
<rect width="1" height="1" x="5" y="7" fill="#e6e6e6"                     fill-opacity="0.89" />
<rect width="1" height="1" x="6" y="7" fill="#e6e6e6"                     fill-opacity="0.13" />
<rect width="1" height="1" x="8" y="7" fill="#e6e6e6"                     fill-opacity="0.00" />
<rect width="1" height="1" x="11" y="7" fill="#e6e6e6"                     fill-opacity="0.03" />
<rect width="1" height="1" x="12" y="7" fill="#e6e6e6"                     fill-opacity="0.92" />
<rect width="1" height="1" x="13" y="7" fill="#e6e6e6"                     fill-opacity="0.69" />
<rect width="1" height="1" x="17" y="7" fill="#e6e6e6"                     fill-opacity="0.25" />
<rect width="1" height="1" x="18" y="7" fill="#e6e6e6"                     fill-opacity="1.00" />
<rect width="1" height="1" x="19" y="7" fill="#e6e6e6"                     fill-opacity="0.74" />
<rect width="1" height="1" x="3" y="8" fill="#e6e6e6"                     fill-opacity="0.73" />
<rect width="1" height="1" x="4" y="8" fill="#e6e6e6"                     fill-opacity="1.00" />
<rect width="1" height="1" x="5" y="8" fill="#e6e6e6"                     fill-opacity="0.19" />
<rect width="1" height="1" x="7" y="8" fill="#e6e6e6"                     fill-opacity="0.00" />
<rect width="1" height="1" x="9" y="8" fill="#e6e6e6"                     fill-opacity="0.00" />
<rect width="1" height="1" x="11" y="8" fill="#e6e6e6"                     fill-opacity="0.20" />
<rect width="1" height="1" x="12" y="8" fill="#e6e6e6"                     fill-opacity="1.00" />
<rect width="1" height="1" x="13" y="8" fill="#e6e6e6"                     fill-opacity="0.45" />
<rect width="1" height="1" x="18" y="8" fill="#e6e6e6"                     fill-opacity="0.41" />
<rect width="1" height="1" x="19" y="8" fill="#e6e6e6"                     fill-opacity="1.00" />
<rect width="1" height="1" x="20" y="8" fill="#e6e6e6"                     fill-opacity="0.50" />
<rect width="1" height="1" x="0" y="9" fill="#e6e6e6"                     fill-opacity="0.00" />
<rect width="1" height="1" x="2" y="9" fill="#e6e6e6"                     fill-opacity="0.55" />
<rect width="1" height="1" x="3" y="9" fill="#e6e6e6"                     fill-opacity="1.00" />
<rect width="1" height="1" x="4" y="9" fill="#e6e6e6"                     fill-opacity="0.41" />
<rect width="1" height="1" x="9" y="9" fill="#e6e6e6"                     fill-opacity="0.00" />
<rect width="1" height="1" x="11" y="9" fill="#e6e6e6"                     fill-opacity="0.45" />
<rect width="1" height="1" x="12" y="9" fill="#e6e6e6"                     fill-opacity="1.00" />
<rect width="1" height="1" x="13" y="9" fill="#e6e6e6"                     fill-opacity="0.24" />
<rect width="1" height="1" x="19" y="9" fill="#e6e6e6"                     fill-opacity="0.64" />
<rect width="1" height="1" x="20" y="9" fill="#e6e6e6"                     fill-opacity="1.00" />
<rect width="1" height="1" x="21" y="9" fill="#e6e6e6"                     fill-opacity="0.33" />
<rect width="1" height="1" x="23" y="9" fill="#e6e6e6"                     fill-opacity="0.00" />
<rect width="1" height="1" x="1" y="10" fill="#e6e6e6"                     fill-opacity="0.33" />
<rect width="1" height="1" x="2" y="10" fill="#e6e6e6"                     fill-opacity="1.00" />
<rect width="1" height="1" x="3" y="10" fill="#e6e6e6"                     fill-opacity="0.67" />
<rect width="1" height="1" x="6" y="10" fill="#e6e6e6"                     fill-opacity="0.00" />
<rect width="1" height="1" x="11" y="10" fill="#e6e6e6"                     fill-opacity="0.72" />
<rect width="1" height="1" x="12" y="10" fill="#e6e6e6"                     fill-opacity="0.94" />
<rect width="1" height="1" x="13" y="10" fill="#e6e6e6"                     fill-opacity="0.04" />
<rect width="1" height="1" x="19" y="10" fill="#e6e6e6"                     fill-opacity="0.04" />
<rect width="1" height="1" x="20" y="10" fill="#e6e6e6"                     fill-opacity="0.84" />
<rect width="1" height="1" x="21" y="10" fill="#e6e6e6"                     fill-opacity="0.96" />
<rect width="1" height="1" x="22" y="10" fill="#e6e6e6"                     fill-opacity="0.13" />
<rect width="1" height="1" x="0" y="11" fill="#e6e6e6"                     fill-opacity="0.15" />
<rect width="1" height="1" x="1" y="11" fill="#e6e6e6"                     fill-opacity="1.00" />
<rect width="1" height="1" x="2" y="11" fill="#e6e6e6"                     fill-opacity="0.78" />
<rect width="1" height="1" x="8" y="11" fill="#e6e6e6"                     fill-opacity="0.00" />
<rect width="1" height="1" x="10" y="11" fill="#e6e6e6"                     fill-opacity="0.04" />
<rect width="1" height="1" x="11" y="11" fill="#e6e6e6"                     fill-opacity="0.91" />
<rect width="1" height="1" x="12" y="11" fill="#e6e6e6"                     fill-opacity="0.75" />
<rect width="1" height="1" x="18" y="11" fill="#e6e6e6"                     fill-opacity="0.00" />
<rect width="1" height="1" x="20" y="11" fill="#e6e6e6"                     fill-opacity="0.09" />
<rect width="1" height="1" x="21" y="11" fill="#e6e6e6"                     fill-opacity="0.98" />
<rect width="1" height="1" x="22" y="11" fill="#e6e6e6"                     fill-opacity="0.84" />
<rect width="1" height="1" x="23" y="11" fill="#e6e6e6"                     fill-opacity="0.05" />
<rect width="1" height="1" x="0" y="12" fill="#e6e6e6"                     fill-opacity="0.10" />
<rect width="1" height="1" x="1" y="12" fill="#e6e6e6"                     fill-opacity="0.90" />
<rect width="1" height="1" x="2" y="12" fill="#e6e6e6"                     fill-opacity="0.87" />
<rect width="1" height="1" x="3" y="12" fill="#e6e6e6"                     fill-opacity="0.06" />
<rect width="1" height="1" x="8" y="12" fill="#e6e6e6"                     fill-opacity="0.00" />
<rect width="1" height="1" x="10" y="12" fill="#e6e6e6"                     fill-opacity="0.19" />
<rect width="1" height="1" x="11" y="12" fill="#e6e6e6"                     fill-opacity="0.98" />
<rect width="1" height="1" x="12" y="12" fill="#e6e6e6"                     fill-opacity="0.48" />
<rect width="1" height="1" x="14" y="12" fill="#e6e6e6"                     fill-opacity="0.00" />
<rect width="1" height="1" x="18" y="12" fill="#e6e6e6"                     fill-opacity="0.00" />
<rect width="1" height="1" x="20" y="12" fill="#e6e6e6"                     fill-opacity="0.26" />
<rect width="1" height="1" x="21" y="12" fill="#e6e6e6"                     fill-opacity="1.00" />
<rect width="1" height="1" x="22" y="12" fill="#e6e6e6"                     fill-opacity="0.71" />
<rect width="1" height="1" x="23" y="12" fill="#e6e6e6"                     fill-opacity="0.01" />
<rect width="1" height="1" x="1" y="13" fill="#e6e6e6"                     fill-opacity="0.15" />
<rect width="1" height="1" x="2" y="13" fill="#e6e6e6"                     fill-opacity="0.99" />
<rect width="1" height="1" x="3" y="13" fill="#e6e6e6"                     fill-opacity="0.83" />
<rect width="1" height="1" x="4" y="13" fill="#e6e6e6"                     fill-opacity="0.03" />
<rect width="1" height="1" x="6" y="13" fill="#e6e6e6"                     fill-opacity="0.00" />
<rect width="1" height="1" x="10" y="13" fill="#e6e6e6"                     fill-opacity="0.41" />
<rect width="1" height="1" x="11" y="13" fill="#e6e6e6"                     fill-opacity="1.00" />
<rect width="1" height="1" x="12" y="13" fill="#e6e6e6"                     fill-opacity="0.25" />
<rect width="1" height="1" x="14" y="13" fill="#e6e6e6"                     fill-opacity="0.01" />
<rect width="1" height="1" x="17" y="13" fill="#e6e6e6"                     fill-opacity="0.00" />
<rect width="1" height="1" x="19" y="13" fill="#e6e6e6"                     fill-opacity="0.12" />
<rect width="1" height="1" x="20" y="13" fill="#e6e6e6"                     fill-opacity="0.97" />
<rect width="1" height="1" x="21" y="13" fill="#e6e6e6"                     fill-opacity="0.84" />
<rect width="1" height="1" x="22" y="13" fill="#e6e6e6"                     fill-opacity="0.05" />
<rect width="1" height="1" x="0" y="14" fill="#e6e6e6"                     fill-opacity="0.00" />
<rect width="1" height="1" x="2" y="14" fill="#e6e6e6"                     fill-opacity="0.37" />
<rect width="1" height="1" x="3" y="14" fill="#e6e6e6"                     fill-opacity="1.00" />
<rect width="1" height="1" x="4" y="14" fill="#e6e6e6"                     fill-opacity="0.60" />
<rect width="1" height="1" x="10" y="14" fill="#e6e6e6"                     fill-opacity="0.65" />
<rect width="1" height="1" x="11" y="14" fill="#e6e6e6"                     fill-opacity="0.96" />
<rect width="1" height="1" x="12" y="14" fill="#e6e6e6"                     fill-opacity="0.04" />
<rect width="1" height="1" x="18" y="14" fill="#e6e6e6"                     fill-opacity="0.02" />
<rect width="1" height="1" x="19" y="14" fill="#e6e6e6"                     fill-opacity="0.82" />
<rect width="1" height="1" x="20" y="14" fill="#e6e6e6"                     fill-opacity="0.99" />
<rect width="1" height="1" x="21" y="14" fill="#e6e6e6"                     fill-opacity="0.15" />
<rect width="1" height="1" x="23" y="14" fill="#e6e6e6"                     fill-opacity="0.00" />
<rect width="1" height="1" x="3" y="15" fill="#e6e6e6"                     fill-opacity="0.54" />
<rect width="1" height="1" x="4" y="15" fill="#e6e6e6"                     fill-opacity="1.00" />
<rect width="1" height="1" x="5" y="15" fill="#e6e6e6"                     fill-opacity="0.37" />
<rect width="1" height="1" x="9" y="15" fill="#e6e6e6"                     fill-opacity="0.04" />
<rect width="1" height="1" x="10" y="15" fill="#e6e6e6"                     fill-opacity="0.87" />
<rect width="1" height="1" x="11" y="15" fill="#e6e6e6"                     fill-opacity="0.72" />
<rect width="1" height="1" x="18" y="15" fill="#e6e6e6"                     fill-opacity="0.60" />
<rect width="1" height="1" x="19" y="15" fill="#e6e6e6"                     fill-opacity="1.00" />
<rect width="1" height="1" x="20" y="15" fill="#e6e6e6"                     fill-opacity="0.33" />
<rect width="1" height="1" x="1" y="16" fill="#e6e6e6"                     fill-opacity="0.00" />
<rect width="1" height="1" x="3" y="16" fill="#e6e6e6"                     fill-opacity="0.00" />
<rect width="1" height="1" x="4" y="16" fill="#e6e6e6"                     fill-opacity="0.78" />
<rect width="1" height="1" x="5" y="16" fill="#e6e6e6"                     fill-opacity="1.00" />
<rect width="1" height="1" x="6" y="16" fill="#e6e6e6"                     fill-opacity="0.25" />
<rect width="1" height="1" x="9" y="16" fill="#e6e6e6"                     fill-opacity="0.16" />
<rect width="1" height="1" x="10" y="16" fill="#e6e6e6"                     fill-opacity="1.00" />
<rect width="1" height="1" x="11" y="16" fill="#e6e6e6"                     fill-opacity="0.44" />
<rect width="1" height="1" x="15" y="16" fill="#e6e6e6"                     fill-opacity="0.00" />
<rect width="1" height="1" x="17" y="16" fill="#e6e6e6"                     fill-opacity="0.47" />
<rect width="1" height="1" x="18" y="16" fill="#e6e6e6"                     fill-opacity="1.00" />
<rect width="1" height="1" x="19" y="16" fill="#e6e6e6"                     fill-opacity="0.54" />
<rect width="1" height="1" x="2" y="17" fill="#e6e6e6"                     fill-opacity="0.00" />
<rect width="1" height="1" x="4" y="17" fill="#e6e6e6"                     fill-opacity="0.08" />
<rect width="1" height="1" x="5" y="17" fill="#e6e6e6"                     fill-opacity="0.92" />
<rect width="1" height="1" x="6" y="17" fill="#e6e6e6"                     fill-opacity="0.62" />
<rect width="1" height="1" x="9" y="17" fill="#e6e6e6"                     fill-opacity="0.40" />
<rect width="1" height="1" x="10" y="17" fill="#e6e6e6"                     fill-opacity="1.00" />
<rect width="1" height="1" x="11" y="17" fill="#e6e6e6"                     fill-opacity="0.22" />
<rect width="1" height="1" x="16" y="17" fill="#e6e6e6"                     fill-opacity="0.01" />
<rect width="1" height="1" x="17" y="17" fill="#e6e6e6"                     fill-opacity="0.85" />
<rect width="1" height="1" x="18" y="17" fill="#e6e6e6"                     fill-opacity="0.76" />
<rect width="1" height="1" x="5" y="18" fill="#e6e6e6"                     fill-opacity="0.15" />
<rect width="1" height="1" x="6" y="18" fill="#e6e6e6"                     fill-opacity="0.08" />
<rect width="1" height="1" x="9" y="18" fill="#e6e6e6"                     fill-opacity="0.64" />
<rect width="1" height="1" x="10" y="18" fill="#e6e6e6"                     fill-opacity="0.91" />
<rect width="1" height="1" x="11" y="18" fill="#e6e6e6"                     fill-opacity="0.05" />
<rect width="1" height="1" x="16" y="18" fill="#e6e6e6"                     fill-opacity="0.00" />
<rect width="1" height="1" x="17" y="18" fill="#e6e6e6"                     fill-opacity="0.13" />
<rect width="1" height="1" x="18" y="18" fill="#e6e6e6"                     fill-opacity="0.09" />
<rect width="1" height="1" x="20" y="18" fill="#e6e6e6"                     fill-opacity="0.00" />
<rect width="1" height="1" x="8" y="19" fill="#e6e6e6"                     fill-opacity="0.03" />
<rect width="1" height="1" x="9" y="19" fill="#e6e6e6"                     fill-opacity="0.90" />
<rect width="1" height="1" x="10" y="19" fill="#e6e6e6"                     fill-opacity="0.71" />
<rect width="1" height="1" x="19" y="19" fill="#e6e6e6"                     fill-opacity="0.00" />
<rect width="1" height="1" x="6" y="20" fill="#e6e6e6"                     fill-opacity="0.00" />
<rect width="1" height="1" x="8" y="20" fill="#e6e6e6"                     fill-opacity="0.17" />
<rect width="1" height="1" x="9" y="20" fill="#e6e6e6"                     fill-opacity="1.00" />
<rect width="1" height="1" x="10" y="20" fill="#e6e6e6"                     fill-opacity="0.47" />
<rect width="1" height="1" x="6" y="21" fill="#e6e6e6"                     fill-opacity="0.00" />
<rect width="1" height="1" x="8" y="21" fill="#e6e6e6"                     fill-opacity="0.45" />
<rect width="1" height="1" x="9" y="21" fill="#e6e6e6"                     fill-opacity="1.00" />
<rect width="1" height="1" x="10" y="21" fill="#e6e6e6"                     fill-opacity="0.25" />
<rect width="1" height="1" x="8" y="22" fill="#e6e6e6"                     fill-opacity="0.70" />
<rect width="1" height="1" x="9" y="22" fill="#e6e6e6"                     fill-opacity="0.91" />
<rect width="1" height="1" x="10" y="22" fill="#e6e6e6"                     fill-opacity="0.04" />
<rect width="1" height="1" x="8" y="23" fill="#e6e6e6"                     fill-opacity="0.17" />
<rect width="1" height="1" x="9" y="23" fill="#e6e6e6"                     fill-opacity="0.17" />
</svg>
