<?xml version="1.0" encoding="UTF-8" standalone="no"?>
<svg id="svg2" xmlns="http://www.w3.org/2000/svg" version="1.1"                 width="24" height="24" viewBox="0 0 24 24">
<rect width="1" height="1" x="0" y="0" fill="#e6e6e6"                     fill-opacity="0.17" />
<rect width="1" height="1" x="1" y="0" fill="#e6e6e6"                     fill-opacity="0.44" />
<rect width="1" height="1" x="2" y="0" fill="#e6e6e6"                     fill-opacity="0.43" />
<rect width="1" height="1" x="3" y="0" fill="#e6e6e6"                     fill-opacity="0.43" />
<rect width="1" height="1" x="4" y="0" fill="#e6e6e6"                     fill-opacity="0.43" />
<rect width="1" height="1" x="5" y="0" fill="#e6e6e6"                     fill-opacity="0.43" />
<rect width="1" height="1" x="6" y="0" fill="#e6e6e6"                     fill-opacity="0.43" />
<rect width="1" height="1" x="7" y="0" fill="#e6e6e6"                     fill-opacity="0.43" />
<rect width="1" height="1" x="8" y="0" fill="#e6e6e6"                     fill-opacity="0.43" />
<rect width="1" height="1" x="9" y="0" fill="#e6e6e6"                     fill-opacity="0.43" />
<rect width="1" height="1" x="10" y="0" fill="#e6e6e6"                     fill-opacity="0.43" />
<rect width="1" height="1" x="11" y="0" fill="#e6e6e6"                     fill-opacity="0.43" />
<rect width="1" height="1" x="12" y="0" fill="#e6e6e6"                     fill-opacity="0.43" />
<rect width="1" height="1" x="13" y="0" fill="#e6e6e6"                     fill-opacity="0.43" />
<rect width="1" height="1" x="14" y="0" fill="#e6e6e6"                     fill-opacity="0.43" />
<rect width="1" height="1" x="15" y="0" fill="#e6e6e6"                     fill-opacity="0.43" />
<rect width="1" height="1" x="16" y="0" fill="#e6e6e6"                     fill-opacity="0.43" />
<rect width="1" height="1" x="17" y="0" fill="#e6e6e6"                     fill-opacity="0.43" />
<rect width="1" height="1" x="18" y="0" fill="#e6e6e6"                     fill-opacity="0.43" />
<rect width="1" height="1" x="19" y="0" fill="#e6e6e6"                     fill-opacity="0.43" />
<rect width="1" height="1" x="20" y="0" fill="#e6e6e6"                     fill-opacity="0.43" />
<rect width="1" height="1" x="21" y="0" fill="#e6e6e6"                     fill-opacity="0.44" />
<rect width="1" height="1" x="22" y="0" fill="#e6e6e6"                     fill-opacity="0.42" />
<rect width="1" height="1" x="23" y="0" fill="#e6e6e6"                     fill-opacity="0.08" />
<rect width="1" height="1" x="0" y="1" fill="#e6e6e6"                     fill-opacity="0.41" />
<rect width="1" height="1" x="1" y="1" fill="#e6e6e6"                     fill-opacity="1.00" />
<rect width="1" height="1" x="2" y="1" fill="#e6e6e6"                     fill-opacity="1.00" />
<rect width="1" height="1" x="3" y="1" fill="#e6e6e6"                     fill-opacity="1.00" />
<rect width="1" height="1" x="4" y="1" fill="#e6e6e6"                     fill-opacity="1.00" />
<rect width="1" height="1" x="5" y="1" fill="#e6e6e6"                     fill-opacity="1.00" />
<rect width="1" height="1" x="6" y="1" fill="#e6e6e6"                     fill-opacity="1.00" />
<rect width="1" height="1" x="7" y="1" fill="#e6e6e6"                     fill-opacity="1.00" />
<rect width="1" height="1" x="8" y="1" fill="#e6e6e6"                     fill-opacity="1.00" />
<rect width="1" height="1" x="9" y="1" fill="#e6e6e6"                     fill-opacity="1.00" />
<rect width="1" height="1" x="10" y="1" fill="#e6e6e6"                     fill-opacity="1.00" />
<rect width="1" height="1" x="11" y="1" fill="#e6e6e6"                     fill-opacity="1.00" />
<rect width="1" height="1" x="12" y="1" fill="#e6e6e6"                     fill-opacity="1.00" />
<rect width="1" height="1" x="13" y="1" fill="#e6e6e6"                     fill-opacity="1.00" />
<rect width="1" height="1" x="14" y="1" fill="#e6e6e6"                     fill-opacity="1.00" />
<rect width="1" height="1" x="15" y="1" fill="#e6e6e6"                     fill-opacity="1.00" />
<rect width="1" height="1" x="16" y="1" fill="#e6e6e6"                     fill-opacity="1.00" />
<rect width="1" height="1" x="17" y="1" fill="#e6e6e6"                     fill-opacity="1.00" />
<rect width="1" height="1" x="18" y="1" fill="#e6e6e6"                     fill-opacity="1.00" />
<rect width="1" height="1" x="19" y="1" fill="#e6e6e6"                     fill-opacity="1.00" />
<rect width="1" height="1" x="20" y="1" fill="#e6e6e6"                     fill-opacity="1.00" />
<rect width="1" height="1" x="21" y="1" fill="#e6e6e6"                     fill-opacity="1.00" />
<rect width="1" height="1" x="22" y="1" fill="#e6e6e6"                     fill-opacity="1.00" />
<rect width="1" height="1" x="23" y="1" fill="#e6e6e6"                     fill-opacity="0.19" />
<rect width="1" height="1" x="0" y="2" fill="#e6e6e6"                     fill-opacity="0.07" />
<rect width="1" height="1" x="1" y="2" fill="#e6e6e6"                     fill-opacity="0.21" />
<rect width="1" height="1" x="2" y="2" fill="#e6e6e6"                     fill-opacity="0.18" />
<rect width="1" height="1" x="3" y="2" fill="#e6e6e6"                     fill-opacity="0.18" />
<rect width="1" height="1" x="4" y="2" fill="#e6e6e6"                     fill-opacity="0.18" />
<rect width="1" height="1" x="5" y="2" fill="#e6e6e6"                     fill-opacity="0.18" />
<rect width="1" height="1" x="6" y="2" fill="#e6e6e6"                     fill-opacity="0.18" />
<rect width="1" height="1" x="7" y="2" fill="#e6e6e6"                     fill-opacity="0.18" />
<rect width="1" height="1" x="8" y="2" fill="#e6e6e6"                     fill-opacity="0.18" />
<rect width="1" height="1" x="9" y="2" fill="#e6e6e6"                     fill-opacity="0.18" />
<rect width="1" height="1" x="10" y="2" fill="#e6e6e6"                     fill-opacity="0.18" />
<rect width="1" height="1" x="11" y="2" fill="#e6e6e6"                     fill-opacity="0.18" />
<rect width="1" height="1" x="12" y="2" fill="#e6e6e6"                     fill-opacity="0.18" />
<rect width="1" height="1" x="13" y="2" fill="#e6e6e6"                     fill-opacity="0.18" />
<rect width="1" height="1" x="14" y="2" fill="#e6e6e6"                     fill-opacity="0.18" />
<rect width="1" height="1" x="15" y="2" fill="#e6e6e6"                     fill-opacity="0.18" />
<rect width="1" height="1" x="16" y="2" fill="#e6e6e6"                     fill-opacity="0.18" />
<rect width="1" height="1" x="17" y="2" fill="#e6e6e6"                     fill-opacity="0.18" />
<rect width="1" height="1" x="18" y="2" fill="#e6e6e6"                     fill-opacity="0.18" />
<rect width="1" height="1" x="19" y="2" fill="#e6e6e6"                     fill-opacity="0.18" />
<rect width="1" height="1" x="20" y="2" fill="#e6e6e6"                     fill-opacity="0.18" />
<rect width="1" height="1" x="21" y="2" fill="#e6e6e6"                     fill-opacity="0.20" />
<rect width="1" height="1" x="22" y="2" fill="#e6e6e6"                     fill-opacity="0.18" />
<rect width="1" height="1" x="23" y="2" fill="#e6e6e6"                     fill-opacity="0.03" />
<rect width="1" height="1" x="8" y="4" fill="#e6e6e6"                     fill-opacity="0.00" />
<rect width="1" height="1" x="11" y="4" fill="#e6e6e6"                     fill-opacity="0.30" />
<rect width="1" height="1" x="12" y="4" fill="#e6e6e6"                     fill-opacity="0.21" />
<rect width="1" height="1" x="10" y="5" fill="#e6e6e6"                     fill-opacity="0.32" />
<rect width="1" height="1" x="11" y="5" fill="#e6e6e6"                     fill-opacity="1.00" />
<rect width="1" height="1" x="12" y="5" fill="#e6e6e6"                     fill-opacity="0.95" />
<rect width="1" height="1" x="13" y="5" fill="#e6e6e6"                     fill-opacity="0.17" />
<rect width="1" height="1" x="15" y="5" fill="#e6e6e6"                     fill-opacity="0.00" />
<rect width="1" height="1" x="7" y="6" fill="#e6e6e6"                     fill-opacity="0.00" />
<rect width="1" height="1" x="9" y="6" fill="#e6e6e6"                     fill-opacity="0.30" />
<rect width="1" height="1" x="10" y="6" fill="#e6e6e6"                     fill-opacity="1.00" />
<rect width="1" height="1" x="11" y="6" fill="#e6e6e6"                     fill-opacity="1.00" />
<rect width="1" height="1" x="12" y="6" fill="#e6e6e6"                     fill-opacity="1.00" />
<rect width="1" height="1" x="13" y="6" fill="#e6e6e6"                     fill-opacity="0.90" />
<rect width="1" height="1" x="14" y="6" fill="#e6e6e6"                     fill-opacity="0.13" />
<rect width="1" height="1" x="16" y="6" fill="#e6e6e6"                     fill-opacity="0.00" />
<rect width="1" height="1" x="6" y="7" fill="#e6e6e6"                     fill-opacity="0.00" />
<rect width="1" height="1" x="8" y="7" fill="#e6e6e6"                     fill-opacity="0.31" />
<rect width="1" height="1" x="9" y="7" fill="#e6e6e6"                     fill-opacity="1.00" />
<rect width="1" height="1" x="10" y="7" fill="#e6e6e6"                     fill-opacity="0.84" />
<rect width="1" height="1" x="11" y="7" fill="#e6e6e6"                     fill-opacity="0.86" />
<rect width="1" height="1" x="12" y="7" fill="#e6e6e6"                     fill-opacity="0.80" />
<rect width="1" height="1" x="13" y="7" fill="#e6e6e6"                     fill-opacity="0.93" />
<rect width="1" height="1" x="14" y="7" fill="#e6e6e6"                     fill-opacity="0.89" />
<rect width="1" height="1" x="15" y="7" fill="#e6e6e6"                     fill-opacity="0.15" />
<rect width="1" height="1" x="7" y="8" fill="#e6e6e6"                     fill-opacity="0.38" />
<rect width="1" height="1" x="8" y="8" fill="#e6e6e6"                     fill-opacity="1.00" />
<rect width="1" height="1" x="9" y="8" fill="#e6e6e6"                     fill-opacity="0.78" />
<rect width="1" height="1" x="10" y="8" fill="#e6e6e6"                     fill-opacity="0.06" />
<rect width="1" height="1" x="11" y="8" fill="#e6e6e6"                     fill-opacity="0.84" />
<rect width="1" height="1" x="12" y="8" fill="#e6e6e6"                     fill-opacity="0.61" />
<rect width="1" height="1" x="13" y="8" fill="#e6e6e6"                     fill-opacity="0.12" />
<rect width="1" height="1" x="14" y="8" fill="#e6e6e6"                     fill-opacity="1.00" />
<rect width="1" height="1" x="15" y="8" fill="#e6e6e6"                     fill-opacity="1.00" />
<rect width="1" height="1" x="16" y="8" fill="#e6e6e6"                     fill-opacity="0.21" />
<rect width="1" height="1" x="7" y="9" fill="#e6e6e6"                     fill-opacity="0.49" />
<rect width="1" height="1" x="8" y="9" fill="#e6e6e6"                     fill-opacity="0.83" />
<rect width="1" height="1" x="9" y="9" fill="#e6e6e6"                     fill-opacity="0.08" />
<rect width="1" height="1" x="11" y="9" fill="#e6e6e6"                     fill-opacity="0.92" />
<rect width="1" height="1" x="12" y="9" fill="#e6e6e6"                     fill-opacity="0.70" />
<rect width="1" height="1" x="14" y="9" fill="#e6e6e6"                     fill-opacity="0.29" />
<rect width="1" height="1" x="15" y="9" fill="#e6e6e6"                     fill-opacity="0.88" />
<rect width="1" height="1" x="16" y="9" fill="#e6e6e6"                     fill-opacity="0.27" />
<rect width="1" height="1" x="10" y="10" fill="#e6e6e6"                     fill-opacity="0.04" />
<rect width="1" height="1" x="11" y="10" fill="#e6e6e6"                     fill-opacity="0.91" />
<rect width="1" height="1" x="12" y="10" fill="#e6e6e6"                     fill-opacity="0.70" />
<rect width="1" height="1" x="10" y="11" fill="#e6e6e6"                     fill-opacity="0.04" />
<rect width="1" height="1" x="11" y="11" fill="#e6e6e6"                     fill-opacity="0.91" />
<rect width="1" height="1" x="12" y="11" fill="#e6e6e6"                     fill-opacity="0.70" />
<rect width="1" height="1" x="10" y="12" fill="#e6e6e6"                     fill-opacity="0.04" />
<rect width="1" height="1" x="11" y="12" fill="#e6e6e6"                     fill-opacity="0.91" />
<rect width="1" height="1" x="12" y="12" fill="#e6e6e6"                     fill-opacity="0.70" />
<rect width="1" height="1" x="10" y="13" fill="#e6e6e6"                     fill-opacity="0.04" />
<rect width="1" height="1" x="11" y="13" fill="#e6e6e6"                     fill-opacity="0.91" />
<rect width="1" height="1" x="12" y="13" fill="#e6e6e6"                     fill-opacity="0.70" />
<rect width="1" height="1" x="10" y="14" fill="#e6e6e6"                     fill-opacity="0.04" />
<rect width="1" height="1" x="11" y="14" fill="#e6e6e6"                     fill-opacity="0.91" />
<rect width="1" height="1" x="12" y="14" fill="#e6e6e6"                     fill-opacity="0.70" />
<rect width="1" height="1" x="10" y="15" fill="#e6e6e6"                     fill-opacity="0.04" />
<rect width="1" height="1" x="11" y="15" fill="#e6e6e6"                     fill-opacity="0.91" />
<rect width="1" height="1" x="12" y="15" fill="#e6e6e6"                     fill-opacity="0.70" />
<rect width="1" height="1" x="10" y="16" fill="#e6e6e6"                     fill-opacity="0.04" />
<rect width="1" height="1" x="11" y="16" fill="#e6e6e6"                     fill-opacity="0.91" />
<rect width="1" height="1" x="12" y="16" fill="#e6e6e6"                     fill-opacity="0.70" />
<rect width="1" height="1" x="10" y="17" fill="#e6e6e6"                     fill-opacity="0.04" />
<rect width="1" height="1" x="11" y="17" fill="#e6e6e6"                     fill-opacity="0.91" />
<rect width="1" height="1" x="12" y="17" fill="#e6e6e6"                     fill-opacity="0.70" />
<rect width="1" height="1" x="10" y="18" fill="#e6e6e6"                     fill-opacity="0.04" />
<rect width="1" height="1" x="11" y="18" fill="#e6e6e6"                     fill-opacity="0.91" />
<rect width="1" height="1" x="12" y="18" fill="#e6e6e6"                     fill-opacity="0.70" />
<rect width="1" height="1" x="10" y="19" fill="#e6e6e6"                     fill-opacity="0.04" />
<rect width="1" height="1" x="11" y="19" fill="#e6e6e6"                     fill-opacity="0.93" />
<rect width="1" height="1" x="12" y="19" fill="#e6e6e6"                     fill-opacity="0.71" />
<rect width="1" height="1" x="10" y="20" fill="#e6e6e6"                     fill-opacity="0.04" />
<rect width="1" height="1" x="11" y="20" fill="#e6e6e6"                     fill-opacity="0.91" />
<rect width="1" height="1" x="12" y="20" fill="#e6e6e6"                     fill-opacity="0.71" />
<rect width="1" height="1" x="10" y="21" fill="#e6e6e6"                     fill-opacity="0.01" />
<rect width="1" height="1" x="11" y="21" fill="#e6e6e6"                     fill-opacity="0.27" />
<rect width="1" height="1" x="12" y="21" fill="#e6e6e6"                     fill-opacity="0.21" />
</svg>
