<?xml version="1.0" encoding="UTF-8" standalone="no"?>
<svg id="svg2" xmlns="http://www.w3.org/2000/svg" version="1.1"                 width="24" height="24" viewBox="0 0 24 24">
<rect width="1" height="1" x="3" y="3" fill="#e6e6e6"                     fill-opacity="0.01" />
<rect width="1" height="1" x="4" y="3" fill="#e6e6e6"                     fill-opacity="0.31" />
<rect width="1" height="1" x="5" y="3" fill="#e6e6e6"                     fill-opacity="0.43" />
<rect width="1" height="1" x="6" y="3" fill="#e6e6e6"                     fill-opacity="0.42" />
<rect width="1" height="1" x="7" y="3" fill="#e6e6e6"                     fill-opacity="0.41" />
<rect width="1" height="1" x="8" y="3" fill="#e6e6e6"                     fill-opacity="0.41" />
<rect width="1" height="1" x="9" y="3" fill="#e6e6e6"                     fill-opacity="0.41" />
<rect width="1" height="1" x="10" y="3" fill="#e6e6e6"                     fill-opacity="0.41" />
<rect width="1" height="1" x="11" y="3" fill="#e6e6e6"                     fill-opacity="0.41" />
<rect width="1" height="1" x="12" y="3" fill="#e6e6e6"                     fill-opacity="0.41" />
<rect width="1" height="1" x="13" y="3" fill="#e6e6e6"                     fill-opacity="0.41" />
<rect width="1" height="1" x="14" y="3" fill="#e6e6e6"                     fill-opacity="0.41" />
<rect width="1" height="1" x="15" y="3" fill="#e6e6e6"                     fill-opacity="0.41" />
<rect width="1" height="1" x="16" y="3" fill="#e6e6e6"                     fill-opacity="0.41" />
<rect width="1" height="1" x="17" y="3" fill="#e6e6e6"                     fill-opacity="0.42" />
<rect width="1" height="1" x="18" y="3" fill="#e6e6e6"                     fill-opacity="0.42" />
<rect width="1" height="1" x="19" y="3" fill="#e6e6e6"                     fill-opacity="0.22" />
<rect width="1" height="1" x="3" y="4" fill="#e6e6e6"                     fill-opacity="0.30" />
<rect width="1" height="1" x="4" y="4" fill="#e6e6e6"                     fill-opacity="1.00" />
<rect width="1" height="1" x="5" y="4" fill="#e6e6e6"                     fill-opacity="1.00" />
<rect width="1" height="1" x="6" y="4" fill="#e6e6e6"                     fill-opacity="1.00" />
<rect width="1" height="1" x="7" y="4" fill="#e6e6e6"                     fill-opacity="1.00" />
<rect width="1" height="1" x="8" y="4" fill="#e6e6e6"                     fill-opacity="1.00" />
<rect width="1" height="1" x="9" y="4" fill="#e6e6e6"                     fill-opacity="1.00" />
<rect width="1" height="1" x="10" y="4" fill="#e6e6e6"                     fill-opacity="1.00" />
<rect width="1" height="1" x="11" y="4" fill="#e6e6e6"                     fill-opacity="1.00" />
<rect width="1" height="1" x="12" y="4" fill="#e6e6e6"                     fill-opacity="1.00" />
<rect width="1" height="1" x="13" y="4" fill="#e6e6e6"                     fill-opacity="1.00" />
<rect width="1" height="1" x="14" y="4" fill="#e6e6e6"                     fill-opacity="1.00" />
<rect width="1" height="1" x="15" y="4" fill="#e6e6e6"                     fill-opacity="1.00" />
<rect width="1" height="1" x="16" y="4" fill="#e6e6e6"                     fill-opacity="1.00" />
<rect width="1" height="1" x="17" y="4" fill="#e6e6e6"                     fill-opacity="1.00" />
<rect width="1" height="1" x="18" y="4" fill="#e6e6e6"                     fill-opacity="1.00" />
<rect width="1" height="1" x="19" y="4" fill="#e6e6e6"                     fill-opacity="0.96" />
<rect width="1" height="1" x="20" y="4" fill="#e6e6e6"                     fill-opacity="0.12" />
<rect width="1" height="1" x="3" y="5" fill="#e6e6e6"                     fill-opacity="0.45" />
<rect width="1" height="1" x="4" y="5" fill="#e6e6e6"                     fill-opacity="1.00" />
<rect width="1" height="1" x="5" y="5" fill="#e6e6e6"                     fill-opacity="0.35" />
<rect width="1" height="1" x="6" y="5" fill="#e6e6e6"                     fill-opacity="0.16" />
<rect width="1" height="1" x="7" y="5" fill="#e6e6e6"                     fill-opacity="0.20" />
<rect width="1" height="1" x="8" y="5" fill="#e6e6e6"                     fill-opacity="0.20" />
<rect width="1" height="1" x="9" y="5" fill="#e6e6e6"                     fill-opacity="0.20" />
<rect width="1" height="1" x="10" y="5" fill="#e6e6e6"                     fill-opacity="0.20" />
<rect width="1" height="1" x="11" y="5" fill="#e6e6e6"                     fill-opacity="0.20" />
<rect width="1" height="1" x="12" y="5" fill="#e6e6e6"                     fill-opacity="0.20" />
<rect width="1" height="1" x="13" y="5" fill="#e6e6e6"                     fill-opacity="0.20" />
<rect width="1" height="1" x="14" y="5" fill="#e6e6e6"                     fill-opacity="0.20" />
<rect width="1" height="1" x="15" y="5" fill="#e6e6e6"                     fill-opacity="0.20" />
<rect width="1" height="1" x="16" y="5" fill="#e6e6e6"                     fill-opacity="0.20" />
<rect width="1" height="1" x="17" y="5" fill="#e6e6e6"                     fill-opacity="0.16" />
<rect width="1" height="1" x="18" y="5" fill="#e6e6e6"                     fill-opacity="0.55" />
<rect width="1" height="1" x="19" y="5" fill="#e6e6e6"                     fill-opacity="1.00" />
<rect width="1" height="1" x="20" y="5" fill="#e6e6e6"                     fill-opacity="0.20" />
<rect width="1" height="1" x="3" y="6" fill="#e6e6e6"                     fill-opacity="0.44" />
<rect width="1" height="1" x="4" y="6" fill="#e6e6e6"                     fill-opacity="1.00" />
<rect width="1" height="1" x="5" y="6" fill="#e6e6e6"                     fill-opacity="0.11" />
<rect width="1" height="1" x="18" y="6" fill="#e6e6e6"                     fill-opacity="0.38" />
<rect width="1" height="1" x="19" y="6" fill="#e6e6e6"                     fill-opacity="1.00" />
<rect width="1" height="1" x="20" y="6" fill="#e6e6e6"                     fill-opacity="0.18" />
<rect width="1" height="1" x="3" y="7" fill="#e6e6e6"                     fill-opacity="0.43" />
<rect width="1" height="1" x="4" y="7" fill="#e6e6e6"                     fill-opacity="1.00" />
<rect width="1" height="1" x="5" y="7" fill="#e6e6e6"                     fill-opacity="0.18" />
<rect width="1" height="1" x="18" y="7" fill="#e6e6e6"                     fill-opacity="0.43" />
<rect width="1" height="1" x="19" y="7" fill="#e6e6e6"                     fill-opacity="1.00" />
<rect width="1" height="1" x="20" y="7" fill="#e6e6e6"                     fill-opacity="0.18" />
<rect width="1" height="1" x="3" y="8" fill="#e6e6e6"                     fill-opacity="0.43" />
<rect width="1" height="1" x="4" y="8" fill="#e6e6e6"                     fill-opacity="1.00" />
<rect width="1" height="1" x="5" y="8" fill="#e6e6e6"                     fill-opacity="0.18" />
<rect width="1" height="1" x="18" y="8" fill="#e6e6e6"                     fill-opacity="0.43" />
<rect width="1" height="1" x="19" y="8" fill="#e6e6e6"                     fill-opacity="1.00" />
<rect width="1" height="1" x="20" y="8" fill="#e6e6e6"                     fill-opacity="0.18" />
<rect width="1" height="1" x="3" y="9" fill="#e6e6e6"                     fill-opacity="0.43" />
<rect width="1" height="1" x="4" y="9" fill="#e6e6e6"                     fill-opacity="1.00" />
<rect width="1" height="1" x="5" y="9" fill="#e6e6e6"                     fill-opacity="0.18" />
<rect width="1" height="1" x="18" y="9" fill="#e6e6e6"                     fill-opacity="0.43" />
<rect width="1" height="1" x="19" y="9" fill="#e6e6e6"                     fill-opacity="1.00" />
<rect width="1" height="1" x="20" y="9" fill="#e6e6e6"                     fill-opacity="0.18" />
<rect width="1" height="1" x="3" y="10" fill="#e6e6e6"                     fill-opacity="0.43" />
<rect width="1" height="1" x="4" y="10" fill="#e6e6e6"                     fill-opacity="1.00" />
<rect width="1" height="1" x="5" y="10" fill="#e6e6e6"                     fill-opacity="0.18" />
<rect width="1" height="1" x="18" y="10" fill="#e6e6e6"                     fill-opacity="0.43" />
<rect width="1" height="1" x="19" y="10" fill="#e6e6e6"                     fill-opacity="1.00" />
<rect width="1" height="1" x="20" y="10" fill="#e6e6e6"                     fill-opacity="0.18" />
<rect width="1" height="1" x="3" y="11" fill="#e6e6e6"                     fill-opacity="0.43" />
<rect width="1" height="1" x="4" y="11" fill="#e6e6e6"                     fill-opacity="1.00" />
<rect width="1" height="1" x="5" y="11" fill="#e6e6e6"                     fill-opacity="0.18" />
<rect width="1" height="1" x="18" y="11" fill="#e6e6e6"                     fill-opacity="0.43" />
<rect width="1" height="1" x="19" y="11" fill="#e6e6e6"                     fill-opacity="1.00" />
<rect width="1" height="1" x="20" y="11" fill="#e6e6e6"                     fill-opacity="0.18" />
<rect width="1" height="1" x="3" y="12" fill="#e6e6e6"                     fill-opacity="0.43" />
<rect width="1" height="1" x="4" y="12" fill="#e6e6e6"                     fill-opacity="1.00" />
<rect width="1" height="1" x="5" y="12" fill="#e6e6e6"                     fill-opacity="0.18" />
<rect width="1" height="1" x="18" y="12" fill="#e6e6e6"                     fill-opacity="0.43" />
<rect width="1" height="1" x="19" y="12" fill="#e6e6e6"                     fill-opacity="1.00" />
<rect width="1" height="1" x="20" y="12" fill="#e6e6e6"                     fill-opacity="0.18" />
<rect width="1" height="1" x="3" y="13" fill="#e6e6e6"                     fill-opacity="0.43" />
<rect width="1" height="1" x="4" y="13" fill="#e6e6e6"                     fill-opacity="1.00" />
<rect width="1" height="1" x="5" y="13" fill="#e6e6e6"                     fill-opacity="0.18" />
<rect width="1" height="1" x="18" y="13" fill="#e6e6e6"                     fill-opacity="0.43" />
<rect width="1" height="1" x="19" y="13" fill="#e6e6e6"                     fill-opacity="1.00" />
<rect width="1" height="1" x="20" y="13" fill="#e6e6e6"                     fill-opacity="0.18" />
<rect width="1" height="1" x="3" y="14" fill="#e6e6e6"                     fill-opacity="0.43" />
<rect width="1" height="1" x="4" y="14" fill="#e6e6e6"                     fill-opacity="1.00" />
<rect width="1" height="1" x="5" y="14" fill="#e6e6e6"                     fill-opacity="0.18" />
<rect width="1" height="1" x="18" y="14" fill="#e6e6e6"                     fill-opacity="0.43" />
<rect width="1" height="1" x="19" y="14" fill="#e6e6e6"                     fill-opacity="1.00" />
<rect width="1" height="1" x="20" y="14" fill="#e6e6e6"                     fill-opacity="0.18" />
<rect width="1" height="1" x="3" y="15" fill="#e6e6e6"                     fill-opacity="0.43" />
<rect width="1" height="1" x="4" y="15" fill="#e6e6e6"                     fill-opacity="1.00" />
<rect width="1" height="1" x="5" y="15" fill="#e6e6e6"                     fill-opacity="0.18" />
<rect width="1" height="1" x="18" y="15" fill="#e6e6e6"                     fill-opacity="0.43" />
<rect width="1" height="1" x="19" y="15" fill="#e6e6e6"                     fill-opacity="1.00" />
<rect width="1" height="1" x="20" y="15" fill="#e6e6e6"                     fill-opacity="0.18" />
<rect width="1" height="1" x="3" y="16" fill="#e6e6e6"                     fill-opacity="0.43" />
<rect width="1" height="1" x="4" y="16" fill="#e6e6e6"                     fill-opacity="1.00" />
<rect width="1" height="1" x="5" y="16" fill="#e6e6e6"                     fill-opacity="0.18" />
<rect width="1" height="1" x="18" y="16" fill="#e6e6e6"                     fill-opacity="0.43" />
<rect width="1" height="1" x="19" y="16" fill="#e6e6e6"                     fill-opacity="1.00" />
<rect width="1" height="1" x="20" y="16" fill="#e6e6e6"                     fill-opacity="0.18" />
<rect width="1" height="1" x="3" y="17" fill="#e6e6e6"                     fill-opacity="0.44" />
<rect width="1" height="1" x="4" y="17" fill="#e6e6e6"                     fill-opacity="1.00" />
<rect width="1" height="1" x="5" y="17" fill="#e6e6e6"                     fill-opacity="0.11" />
<rect width="1" height="1" x="18" y="17" fill="#e6e6e6"                     fill-opacity="0.37" />
<rect width="1" height="1" x="19" y="17" fill="#e6e6e6"                     fill-opacity="1.00" />
<rect width="1" height="1" x="20" y="17" fill="#e6e6e6"                     fill-opacity="0.19" />
<rect width="1" height="1" x="3" y="18" fill="#e6e6e6"                     fill-opacity="0.45" />
<rect width="1" height="1" x="4" y="18" fill="#e6e6e6"                     fill-opacity="1.00" />
<rect width="1" height="1" x="5" y="18" fill="#e6e6e6"                     fill-opacity="0.51" />
<rect width="1" height="1" x="6" y="18" fill="#e6e6e6"                     fill-opacity="0.36" />
<rect width="1" height="1" x="7" y="18" fill="#e6e6e6"                     fill-opacity="0.41" />
<rect width="1" height="1" x="8" y="18" fill="#e6e6e6"                     fill-opacity="0.41" />
<rect width="1" height="1" x="9" y="18" fill="#e6e6e6"                     fill-opacity="0.41" />
<rect width="1" height="1" x="10" y="18" fill="#e6e6e6"                     fill-opacity="0.41" />
<rect width="1" height="1" x="11" y="18" fill="#e6e6e6"                     fill-opacity="0.41" />
<rect width="1" height="1" x="12" y="18" fill="#e6e6e6"                     fill-opacity="0.41" />
<rect width="1" height="1" x="13" y="18" fill="#e6e6e6"                     fill-opacity="0.41" />
<rect width="1" height="1" x="14" y="18" fill="#e6e6e6"                     fill-opacity="0.41" />
<rect width="1" height="1" x="15" y="18" fill="#e6e6e6"                     fill-opacity="0.41" />
<rect width="1" height="1" x="16" y="18" fill="#e6e6e6"                     fill-opacity="0.41" />
<rect width="1" height="1" x="17" y="18" fill="#e6e6e6"                     fill-opacity="0.36" />
<rect width="1" height="1" x="18" y="18" fill="#e6e6e6"                     fill-opacity="0.67" />
<rect width="1" height="1" x="19" y="18" fill="#e6e6e6"                     fill-opacity="1.00" />
<rect width="1" height="1" x="20" y="18" fill="#e6e6e6"                     fill-opacity="0.20" />
<rect width="1" height="1" x="3" y="19" fill="#e6e6e6"                     fill-opacity="0.22" />
<rect width="1" height="1" x="4" y="19" fill="#e6e6e6"                     fill-opacity="0.91" />
<rect width="1" height="1" x="5" y="19" fill="#e6e6e6"                     fill-opacity="1.00" />
<rect width="1" height="1" x="6" y="19" fill="#e6e6e6"                     fill-opacity="1.00" />
<rect width="1" height="1" x="7" y="19" fill="#e6e6e6"                     fill-opacity="1.00" />
<rect width="1" height="1" x="8" y="19" fill="#e6e6e6"                     fill-opacity="1.00" />
<rect width="1" height="1" x="9" y="19" fill="#e6e6e6"                     fill-opacity="1.00" />
<rect width="1" height="1" x="10" y="19" fill="#e6e6e6"                     fill-opacity="1.00" />
<rect width="1" height="1" x="11" y="19" fill="#e6e6e6"                     fill-opacity="1.00" />
<rect width="1" height="1" x="12" y="19" fill="#e6e6e6"                     fill-opacity="1.00" />
<rect width="1" height="1" x="13" y="19" fill="#e6e6e6"                     fill-opacity="1.00" />
<rect width="1" height="1" x="14" y="19" fill="#e6e6e6"                     fill-opacity="1.00" />
<rect width="1" height="1" x="15" y="19" fill="#e6e6e6"                     fill-opacity="1.00" />
<rect width="1" height="1" x="16" y="19" fill="#e6e6e6"                     fill-opacity="1.00" />
<rect width="1" height="1" x="17" y="19" fill="#e6e6e6"                     fill-opacity="1.00" />
<rect width="1" height="1" x="18" y="19" fill="#e6e6e6"                     fill-opacity="1.00" />
<rect width="1" height="1" x="19" y="19" fill="#e6e6e6"                     fill-opacity="0.79" />
<rect width="1" height="1" x="20" y="19" fill="#e6e6e6"                     fill-opacity="0.07" />
<rect width="1" height="1" x="22" y="19" fill="#e6e6e6"                     fill-opacity="0.00" />
<rect width="1" height="1" x="4" y="20" fill="#e6e6e6"                     fill-opacity="0.14" />
<rect width="1" height="1" x="5" y="20" fill="#e6e6e6"                     fill-opacity="0.22" />
<rect width="1" height="1" x="6" y="20" fill="#e6e6e6"                     fill-opacity="0.20" />
<rect width="1" height="1" x="7" y="20" fill="#e6e6e6"                     fill-opacity="0.20" />
<rect width="1" height="1" x="8" y="20" fill="#e6e6e6"                     fill-opacity="0.20" />
<rect width="1" height="1" x="9" y="20" fill="#e6e6e6"                     fill-opacity="0.20" />
<rect width="1" height="1" x="10" y="20" fill="#e6e6e6"                     fill-opacity="0.20" />
<rect width="1" height="1" x="11" y="20" fill="#e6e6e6"                     fill-opacity="0.20" />
<rect width="1" height="1" x="12" y="20" fill="#e6e6e6"                     fill-opacity="0.20" />
<rect width="1" height="1" x="13" y="20" fill="#e6e6e6"                     fill-opacity="0.20" />
<rect width="1" height="1" x="14" y="20" fill="#e6e6e6"                     fill-opacity="0.20" />
<rect width="1" height="1" x="15" y="20" fill="#e6e6e6"                     fill-opacity="0.20" />
<rect width="1" height="1" x="16" y="20" fill="#e6e6e6"                     fill-opacity="0.20" />
<rect width="1" height="1" x="17" y="20" fill="#e6e6e6"                     fill-opacity="0.20" />
<rect width="1" height="1" x="18" y="20" fill="#e6e6e6"                     fill-opacity="0.22" />
<rect width="1" height="1" x="19" y="20" fill="#e6e6e6"                     fill-opacity="0.07" />
<rect width="1" height="1" x="20" y="21" fill="#e6e6e6"                     fill-opacity="0.00" />
</svg>
