<?xml version="1.0" encoding="UTF-8" standalone="no"?>
<svg id="svg2" xmlns="http://www.w3.org/2000/svg" version="1.1"                 width="24" height="24" viewBox="0 0 24 24">
<rect width="1" height="1" x="3" y="1" fill="#e6e6e6"                     fill-opacity="0.02" />
<rect width="1" height="1" x="4" y="1" fill="#e6e6e6"                     fill-opacity="0.03" />
<rect width="1" height="1" x="5" y="1" fill="#e6e6e6"                     fill-opacity="0.03" />
<rect width="1" height="1" x="6" y="1" fill="#e6e6e6"                     fill-opacity="0.03" />
<rect width="1" height="1" x="7" y="1" fill="#e6e6e6"                     fill-opacity="0.03" />
<rect width="1" height="1" x="8" y="1" fill="#e6e6e6"                     fill-opacity="0.04" />
<rect width="1" height="1" x="14" y="1" fill="#e6e6e6"                     fill-opacity="0.00" />
<rect width="1" height="1" x="15" y="1" fill="#e6e6e6"                     fill-opacity="0.04" />
<rect width="1" height="1" x="16" y="1" fill="#e6e6e6"                     fill-opacity="0.03" />
<rect width="1" height="1" x="17" y="1" fill="#e6e6e6"                     fill-opacity="0.03" />
<rect width="1" height="1" x="18" y="1" fill="#e6e6e6"                     fill-opacity="0.03" />
<rect width="1" height="1" x="19" y="1" fill="#e6e6e6"                     fill-opacity="0.04" />
<rect width="1" height="1" x="2" y="2" fill="#e6e6e6"                     fill-opacity="0.47" />
<rect width="1" height="1" x="3" y="2" fill="#e6e6e6"                     fill-opacity="0.86" />
<rect width="1" height="1" x="4" y="2" fill="#e6e6e6"                     fill-opacity="0.90" />
<rect width="1" height="1" x="5" y="2" fill="#e6e6e6"                     fill-opacity="0.89" />
<rect width="1" height="1" x="6" y="2" fill="#e6e6e6"                     fill-opacity="0.89" />
<rect width="1" height="1" x="7" y="2" fill="#e6e6e6"                     fill-opacity="0.90" />
<rect width="1" height="1" x="8" y="2" fill="#e6e6e6"                     fill-opacity="0.90" />
<rect width="1" height="1" x="9" y="2" fill="#e6e6e6"                     fill-opacity="0.75" />
<rect width="1" height="1" x="10" y="2" fill="#e6e6e6"                     fill-opacity="0.16" />
<rect width="1" height="1" x="13" y="2" fill="#e6e6e6"                     fill-opacity="0.29" />
<rect width="1" height="1" x="14" y="2" fill="#e6e6e6"                     fill-opacity="0.83" />
<rect width="1" height="1" x="15" y="2" fill="#e6e6e6"                     fill-opacity="0.91" />
<rect width="1" height="1" x="16" y="2" fill="#e6e6e6"                     fill-opacity="0.90" />
<rect width="1" height="1" x="17" y="2" fill="#e6e6e6"                     fill-opacity="0.89" />
<rect width="1" height="1" x="18" y="2" fill="#e6e6e6"                     fill-opacity="0.90" />
<rect width="1" height="1" x="19" y="2" fill="#e6e6e6"                     fill-opacity="0.91" />
<rect width="1" height="1" x="20" y="2" fill="#e6e6e6"                     fill-opacity="0.83" />
<rect width="1" height="1" x="21" y="2" fill="#e6e6e6"                     fill-opacity="0.31" />
<rect width="1" height="1" x="1" y="3" fill="#e6e6e6"                     fill-opacity="0.03" />
<rect width="1" height="1" x="2" y="3" fill="#e6e6e6"                     fill-opacity="0.91" />
<rect width="1" height="1" x="3" y="3" fill="#e6e6e6"                     fill-opacity="1.00" />
<rect width="1" height="1" x="4" y="3" fill="#e6e6e6"                     fill-opacity="0.69" />
<rect width="1" height="1" x="5" y="3" fill="#e6e6e6"                     fill-opacity="0.71" />
<rect width="1" height="1" x="6" y="3" fill="#e6e6e6"                     fill-opacity="0.72" />
<rect width="1" height="1" x="7" y="3" fill="#e6e6e6"                     fill-opacity="0.69" />
<rect width="1" height="1" x="8" y="3" fill="#e6e6e6"                     fill-opacity="0.78" />
<rect width="1" height="1" x="9" y="3" fill="#e6e6e6"                     fill-opacity="1.00" />
<rect width="1" height="1" x="10" y="3" fill="#e6e6e6"                     fill-opacity="0.42" />
<rect width="1" height="1" x="13" y="3" fill="#e6e6e6"                     fill-opacity="0.64" />
<rect width="1" height="1" x="14" y="3" fill="#e6e6e6"                     fill-opacity="1.00" />
<rect width="1" height="1" x="15" y="3" fill="#e6e6e6"                     fill-opacity="0.71" />
<rect width="1" height="1" x="16" y="3" fill="#e6e6e6"                     fill-opacity="0.70" />
<rect width="1" height="1" x="17" y="3" fill="#e6e6e6"                     fill-opacity="0.72" />
<rect width="1" height="1" x="18" y="3" fill="#e6e6e6"                     fill-opacity="0.69" />
<rect width="1" height="1" x="19" y="3" fill="#e6e6e6"                     fill-opacity="0.72" />
<rect width="1" height="1" x="20" y="3" fill="#e6e6e6"                     fill-opacity="1.00" />
<rect width="1" height="1" x="21" y="3" fill="#e6e6e6"                     fill-opacity="0.68" />
<rect width="1" height="1" x="1" y="4" fill="#e6e6e6"                     fill-opacity="0.04" />
<rect width="1" height="1" x="2" y="4" fill="#e6e6e6"                     fill-opacity="0.92" />
<rect width="1" height="1" x="3" y="4" fill="#e6e6e6"                     fill-opacity="0.67" />
<rect width="1" height="1" x="8" y="4" fill="#e6e6e6"                     fill-opacity="0.12" />
<rect width="1" height="1" x="9" y="4" fill="#e6e6e6"                     fill-opacity="1.00" />
<rect width="1" height="1" x="10" y="4" fill="#e6e6e6"                     fill-opacity="0.43" />
<rect width="1" height="1" x="13" y="4" fill="#e6e6e6"                     fill-opacity="0.65" />
<rect width="1" height="1" x="14" y="4" fill="#e6e6e6"                     fill-opacity="0.94" />
<rect width="1" height="1" x="20" y="4" fill="#e6e6e6"                     fill-opacity="0.90" />
<rect width="1" height="1" x="21" y="4" fill="#e6e6e6"                     fill-opacity="0.71" />
<rect width="1" height="1" x="1" y="5" fill="#e6e6e6"                     fill-opacity="0.04" />
<rect width="1" height="1" x="2" y="5" fill="#e6e6e6"                     fill-opacity="0.91" />
<rect width="1" height="1" x="3" y="5" fill="#e6e6e6"                     fill-opacity="0.69" />
<rect width="1" height="1" x="8" y="5" fill="#e6e6e6"                     fill-opacity="0.18" />
<rect width="1" height="1" x="9" y="5" fill="#e6e6e6"                     fill-opacity="1.00" />
<rect width="1" height="1" x="10" y="5" fill="#e6e6e6"                     fill-opacity="0.42" />
<rect width="1" height="1" x="13" y="5" fill="#e6e6e6"                     fill-opacity="0.64" />
<rect width="1" height="1" x="14" y="5" fill="#e6e6e6"                     fill-opacity="0.94" />
<rect width="1" height="1" x="15" y="5" fill="#e6e6e6"                     fill-opacity="0.03" />
<rect width="1" height="1" x="19" y="5" fill="#e6e6e6"                     fill-opacity="0.04" />
<rect width="1" height="1" x="20" y="5" fill="#e6e6e6"                     fill-opacity="0.91" />
<rect width="1" height="1" x="21" y="5" fill="#e6e6e6"                     fill-opacity="0.70" />
<rect width="1" height="1" x="1" y="6" fill="#e6e6e6"                     fill-opacity="0.04" />
<rect width="1" height="1" x="2" y="6" fill="#e6e6e6"                     fill-opacity="0.91" />
<rect width="1" height="1" x="3" y="6" fill="#e6e6e6"                     fill-opacity="0.70" />
<rect width="1" height="1" x="6" y="6" fill="#e6e6e6"                     fill-opacity="0.00" />
<rect width="1" height="1" x="8" y="6" fill="#e6e6e6"                     fill-opacity="0.18" />
<rect width="1" height="1" x="9" y="6" fill="#e6e6e6"                     fill-opacity="1.00" />
<rect width="1" height="1" x="10" y="6" fill="#e6e6e6"                     fill-opacity="0.42" />
<rect width="1" height="1" x="13" y="6" fill="#e6e6e6"                     fill-opacity="0.64" />
<rect width="1" height="1" x="14" y="6" fill="#e6e6e6"                     fill-opacity="0.94" />
<rect width="1" height="1" x="15" y="6" fill="#e6e6e6"                     fill-opacity="0.03" />
<rect width="1" height="1" x="19" y="6" fill="#e6e6e6"                     fill-opacity="0.04" />
<rect width="1" height="1" x="20" y="6" fill="#e6e6e6"                     fill-opacity="0.91" />
<rect width="1" height="1" x="21" y="6" fill="#e6e6e6"                     fill-opacity="0.70" />
<rect width="1" height="1" x="1" y="7" fill="#e6e6e6"                     fill-opacity="0.04" />
<rect width="1" height="1" x="2" y="7" fill="#e6e6e6"                     fill-opacity="0.91" />
<rect width="1" height="1" x="3" y="7" fill="#e6e6e6"                     fill-opacity="0.70" />
<rect width="1" height="1" x="6" y="7" fill="#e6e6e6"                     fill-opacity="0.00" />
<rect width="1" height="1" x="8" y="7" fill="#e6e6e6"                     fill-opacity="0.18" />
<rect width="1" height="1" x="9" y="7" fill="#e6e6e6"                     fill-opacity="1.00" />
<rect width="1" height="1" x="10" y="7" fill="#e6e6e6"                     fill-opacity="0.42" />
<rect width="1" height="1" x="13" y="7" fill="#e6e6e6"                     fill-opacity="0.64" />
<rect width="1" height="1" x="14" y="7" fill="#e6e6e6"                     fill-opacity="0.94" />
<rect width="1" height="1" x="15" y="7" fill="#e6e6e6"                     fill-opacity="0.03" />
<rect width="1" height="1" x="19" y="7" fill="#e6e6e6"                     fill-opacity="0.04" />
<rect width="1" height="1" x="20" y="7" fill="#e6e6e6"                     fill-opacity="0.91" />
<rect width="1" height="1" x="21" y="7" fill="#e6e6e6"                     fill-opacity="0.70" />
<rect width="1" height="1" x="1" y="8" fill="#e6e6e6"                     fill-opacity="0.04" />
<rect width="1" height="1" x="2" y="8" fill="#e6e6e6"                     fill-opacity="0.91" />
<rect width="1" height="1" x="3" y="8" fill="#e6e6e6"                     fill-opacity="0.70" />
<rect width="1" height="1" x="6" y="8" fill="#e6e6e6"                     fill-opacity="0.00" />
<rect width="1" height="1" x="8" y="8" fill="#e6e6e6"                     fill-opacity="0.18" />
<rect width="1" height="1" x="9" y="8" fill="#e6e6e6"                     fill-opacity="1.00" />
<rect width="1" height="1" x="10" y="8" fill="#e6e6e6"                     fill-opacity="0.42" />
<rect width="1" height="1" x="13" y="8" fill="#e6e6e6"                     fill-opacity="0.64" />
<rect width="1" height="1" x="14" y="8" fill="#e6e6e6"                     fill-opacity="0.94" />
<rect width="1" height="1" x="15" y="8" fill="#e6e6e6"                     fill-opacity="0.03" />
<rect width="1" height="1" x="19" y="8" fill="#e6e6e6"                     fill-opacity="0.04" />
<rect width="1" height="1" x="20" y="8" fill="#e6e6e6"                     fill-opacity="0.91" />
<rect width="1" height="1" x="21" y="8" fill="#e6e6e6"                     fill-opacity="0.70" />
<rect width="1" height="1" x="1" y="9" fill="#e6e6e6"                     fill-opacity="0.04" />
<rect width="1" height="1" x="2" y="9" fill="#e6e6e6"                     fill-opacity="0.91" />
<rect width="1" height="1" x="3" y="9" fill="#e6e6e6"                     fill-opacity="0.70" />
<rect width="1" height="1" x="6" y="9" fill="#e6e6e6"                     fill-opacity="0.00" />
<rect width="1" height="1" x="8" y="9" fill="#e6e6e6"                     fill-opacity="0.18" />
<rect width="1" height="1" x="9" y="9" fill="#e6e6e6"                     fill-opacity="1.00" />
<rect width="1" height="1" x="10" y="9" fill="#e6e6e6"                     fill-opacity="0.42" />
<rect width="1" height="1" x="13" y="9" fill="#e6e6e6"                     fill-opacity="0.64" />
<rect width="1" height="1" x="14" y="9" fill="#e6e6e6"                     fill-opacity="0.94" />
<rect width="1" height="1" x="15" y="9" fill="#e6e6e6"                     fill-opacity="0.03" />
<rect width="1" height="1" x="19" y="9" fill="#e6e6e6"                     fill-opacity="0.04" />
<rect width="1" height="1" x="20" y="9" fill="#e6e6e6"                     fill-opacity="0.91" />
<rect width="1" height="1" x="21" y="9" fill="#e6e6e6"                     fill-opacity="0.70" />
<rect width="1" height="1" x="1" y="10" fill="#e6e6e6"                     fill-opacity="0.04" />
<rect width="1" height="1" x="2" y="10" fill="#e6e6e6"                     fill-opacity="0.91" />
<rect width="1" height="1" x="3" y="10" fill="#e6e6e6"                     fill-opacity="0.70" />
<rect width="1" height="1" x="6" y="10" fill="#e6e6e6"                     fill-opacity="0.00" />
<rect width="1" height="1" x="8" y="10" fill="#e6e6e6"                     fill-opacity="0.18" />
<rect width="1" height="1" x="9" y="10" fill="#e6e6e6"                     fill-opacity="1.00" />
<rect width="1" height="1" x="10" y="10" fill="#e6e6e6"                     fill-opacity="0.42" />
<rect width="1" height="1" x="13" y="10" fill="#e6e6e6"                     fill-opacity="0.64" />
<rect width="1" height="1" x="14" y="10" fill="#e6e6e6"                     fill-opacity="0.94" />
<rect width="1" height="1" x="15" y="10" fill="#e6e6e6"                     fill-opacity="0.03" />
<rect width="1" height="1" x="19" y="10" fill="#e6e6e6"                     fill-opacity="0.04" />
<rect width="1" height="1" x="20" y="10" fill="#e6e6e6"                     fill-opacity="0.91" />
<rect width="1" height="1" x="21" y="10" fill="#e6e6e6"                     fill-opacity="0.70" />
<rect width="1" height="1" x="1" y="11" fill="#e6e6e6"                     fill-opacity="0.04" />
<rect width="1" height="1" x="2" y="11" fill="#e6e6e6"                     fill-opacity="0.91" />
<rect width="1" height="1" x="3" y="11" fill="#e6e6e6"                     fill-opacity="0.70" />
<rect width="1" height="1" x="6" y="11" fill="#e6e6e6"                     fill-opacity="0.00" />
<rect width="1" height="1" x="8" y="11" fill="#e6e6e6"                     fill-opacity="0.18" />
<rect width="1" height="1" x="9" y="11" fill="#e6e6e6"                     fill-opacity="1.00" />
<rect width="1" height="1" x="10" y="11" fill="#e6e6e6"                     fill-opacity="0.42" />
<rect width="1" height="1" x="13" y="11" fill="#e6e6e6"                     fill-opacity="0.64" />
<rect width="1" height="1" x="14" y="11" fill="#e6e6e6"                     fill-opacity="0.94" />
<rect width="1" height="1" x="15" y="11" fill="#e6e6e6"                     fill-opacity="0.03" />
<rect width="1" height="1" x="19" y="11" fill="#e6e6e6"                     fill-opacity="0.04" />
<rect width="1" height="1" x="20" y="11" fill="#e6e6e6"                     fill-opacity="0.91" />
<rect width="1" height="1" x="21" y="11" fill="#e6e6e6"                     fill-opacity="0.70" />
<rect width="1" height="1" x="1" y="12" fill="#e6e6e6"                     fill-opacity="0.04" />
<rect width="1" height="1" x="2" y="12" fill="#e6e6e6"                     fill-opacity="0.91" />
<rect width="1" height="1" x="3" y="12" fill="#e6e6e6"                     fill-opacity="0.70" />
<rect width="1" height="1" x="6" y="12" fill="#e6e6e6"                     fill-opacity="0.00" />
<rect width="1" height="1" x="8" y="12" fill="#e6e6e6"                     fill-opacity="0.18" />
<rect width="1" height="1" x="9" y="12" fill="#e6e6e6"                     fill-opacity="1.00" />
<rect width="1" height="1" x="10" y="12" fill="#e6e6e6"                     fill-opacity="0.42" />
<rect width="1" height="1" x="13" y="12" fill="#e6e6e6"                     fill-opacity="0.64" />
<rect width="1" height="1" x="14" y="12" fill="#e6e6e6"                     fill-opacity="0.94" />
<rect width="1" height="1" x="15" y="12" fill="#e6e6e6"                     fill-opacity="0.03" />
<rect width="1" height="1" x="19" y="12" fill="#e6e6e6"                     fill-opacity="0.04" />
<rect width="1" height="1" x="20" y="12" fill="#e6e6e6"                     fill-opacity="0.91" />
<rect width="1" height="1" x="21" y="12" fill="#e6e6e6"                     fill-opacity="0.70" />
<rect width="1" height="1" x="1" y="13" fill="#e6e6e6"                     fill-opacity="0.04" />
<rect width="1" height="1" x="2" y="13" fill="#e6e6e6"                     fill-opacity="0.91" />
<rect width="1" height="1" x="3" y="13" fill="#e6e6e6"                     fill-opacity="0.70" />
<rect width="1" height="1" x="6" y="13" fill="#e6e6e6"                     fill-opacity="0.00" />
<rect width="1" height="1" x="8" y="13" fill="#e6e6e6"                     fill-opacity="0.18" />
<rect width="1" height="1" x="9" y="13" fill="#e6e6e6"                     fill-opacity="1.00" />
<rect width="1" height="1" x="10" y="13" fill="#e6e6e6"                     fill-opacity="0.42" />
<rect width="1" height="1" x="13" y="13" fill="#e6e6e6"                     fill-opacity="0.64" />
<rect width="1" height="1" x="14" y="13" fill="#e6e6e6"                     fill-opacity="0.94" />
<rect width="1" height="1" x="15" y="13" fill="#e6e6e6"                     fill-opacity="0.03" />
<rect width="1" height="1" x="19" y="13" fill="#e6e6e6"                     fill-opacity="0.04" />
<rect width="1" height="1" x="20" y="13" fill="#e6e6e6"                     fill-opacity="0.91" />
<rect width="1" height="1" x="21" y="13" fill="#e6e6e6"                     fill-opacity="0.70" />
<rect width="1" height="1" x="1" y="14" fill="#e6e6e6"                     fill-opacity="0.04" />
<rect width="1" height="1" x="2" y="14" fill="#e6e6e6"                     fill-opacity="0.91" />
<rect width="1" height="1" x="3" y="14" fill="#e6e6e6"                     fill-opacity="0.70" />
<rect width="1" height="1" x="6" y="14" fill="#e6e6e6"                     fill-opacity="0.00" />
<rect width="1" height="1" x="8" y="14" fill="#e6e6e6"                     fill-opacity="0.18" />
<rect width="1" height="1" x="9" y="14" fill="#e6e6e6"                     fill-opacity="1.00" />
<rect width="1" height="1" x="10" y="14" fill="#e6e6e6"                     fill-opacity="0.42" />
<rect width="1" height="1" x="13" y="14" fill="#e6e6e6"                     fill-opacity="0.64" />
<rect width="1" height="1" x="14" y="14" fill="#e6e6e6"                     fill-opacity="0.94" />
<rect width="1" height="1" x="15" y="14" fill="#e6e6e6"                     fill-opacity="0.03" />
<rect width="1" height="1" x="19" y="14" fill="#e6e6e6"                     fill-opacity="0.04" />
<rect width="1" height="1" x="20" y="14" fill="#e6e6e6"                     fill-opacity="0.91" />
<rect width="1" height="1" x="21" y="14" fill="#e6e6e6"                     fill-opacity="0.70" />
<rect width="1" height="1" x="1" y="15" fill="#e6e6e6"                     fill-opacity="0.04" />
<rect width="1" height="1" x="2" y="15" fill="#e6e6e6"                     fill-opacity="0.91" />
<rect width="1" height="1" x="3" y="15" fill="#e6e6e6"                     fill-opacity="0.70" />
<rect width="1" height="1" x="6" y="15" fill="#e6e6e6"                     fill-opacity="0.00" />
<rect width="1" height="1" x="8" y="15" fill="#e6e6e6"                     fill-opacity="0.18" />
<rect width="1" height="1" x="9" y="15" fill="#e6e6e6"                     fill-opacity="1.00" />
<rect width="1" height="1" x="10" y="15" fill="#e6e6e6"                     fill-opacity="0.42" />
<rect width="1" height="1" x="13" y="15" fill="#e6e6e6"                     fill-opacity="0.64" />
<rect width="1" height="1" x="14" y="15" fill="#e6e6e6"                     fill-opacity="0.94" />
<rect width="1" height="1" x="15" y="15" fill="#e6e6e6"                     fill-opacity="0.03" />
<rect width="1" height="1" x="19" y="15" fill="#e6e6e6"                     fill-opacity="0.04" />
<rect width="1" height="1" x="20" y="15" fill="#e6e6e6"                     fill-opacity="0.91" />
<rect width="1" height="1" x="21" y="15" fill="#e6e6e6"                     fill-opacity="0.70" />
<rect width="1" height="1" x="1" y="16" fill="#e6e6e6"                     fill-opacity="0.04" />
<rect width="1" height="1" x="2" y="16" fill="#e6e6e6"                     fill-opacity="0.91" />
<rect width="1" height="1" x="3" y="16" fill="#e6e6e6"                     fill-opacity="0.70" />
<rect width="1" height="1" x="6" y="16" fill="#e6e6e6"                     fill-opacity="0.00" />
<rect width="1" height="1" x="8" y="16" fill="#e6e6e6"                     fill-opacity="0.18" />
<rect width="1" height="1" x="9" y="16" fill="#e6e6e6"                     fill-opacity="1.00" />
<rect width="1" height="1" x="10" y="16" fill="#e6e6e6"                     fill-opacity="0.42" />
<rect width="1" height="1" x="13" y="16" fill="#e6e6e6"                     fill-opacity="0.64" />
<rect width="1" height="1" x="14" y="16" fill="#e6e6e6"                     fill-opacity="0.94" />
<rect width="1" height="1" x="15" y="16" fill="#e6e6e6"                     fill-opacity="0.03" />
<rect width="1" height="1" x="19" y="16" fill="#e6e6e6"                     fill-opacity="0.04" />
<rect width="1" height="1" x="20" y="16" fill="#e6e6e6"                     fill-opacity="0.91" />
<rect width="1" height="1" x="21" y="16" fill="#e6e6e6"                     fill-opacity="0.70" />
<rect width="1" height="1" x="1" y="17" fill="#e6e6e6"                     fill-opacity="0.04" />
<rect width="1" height="1" x="2" y="17" fill="#e6e6e6"                     fill-opacity="0.91" />
<rect width="1" height="1" x="3" y="17" fill="#e6e6e6"                     fill-opacity="0.70" />
<rect width="1" height="1" x="6" y="17" fill="#e6e6e6"                     fill-opacity="0.00" />
<rect width="1" height="1" x="8" y="17" fill="#e6e6e6"                     fill-opacity="0.19" />
<rect width="1" height="1" x="9" y="17" fill="#e6e6e6"                     fill-opacity="1.00" />
<rect width="1" height="1" x="10" y="17" fill="#e6e6e6"                     fill-opacity="0.42" />
<rect width="1" height="1" x="13" y="17" fill="#e6e6e6"                     fill-opacity="0.64" />
<rect width="1" height="1" x="14" y="17" fill="#e6e6e6"                     fill-opacity="0.94" />
<rect width="1" height="1" x="15" y="17" fill="#e6e6e6"                     fill-opacity="0.03" />
<rect width="1" height="1" x="19" y="17" fill="#e6e6e6"                     fill-opacity="0.04" />
<rect width="1" height="1" x="20" y="17" fill="#e6e6e6"                     fill-opacity="0.91" />
<rect width="1" height="1" x="21" y="17" fill="#e6e6e6"                     fill-opacity="0.70" />
<rect width="1" height="1" x="1" y="18" fill="#e6e6e6"                     fill-opacity="0.04" />
<rect width="1" height="1" x="2" y="18" fill="#e6e6e6"                     fill-opacity="0.91" />
<rect width="1" height="1" x="3" y="18" fill="#e6e6e6"                     fill-opacity="0.69" />
<rect width="1" height="1" x="8" y="18" fill="#e6e6e6"                     fill-opacity="0.16" />
<rect width="1" height="1" x="9" y="18" fill="#e6e6e6"                     fill-opacity="1.00" />
<rect width="1" height="1" x="10" y="18" fill="#e6e6e6"                     fill-opacity="0.42" />
<rect width="1" height="1" x="13" y="18" fill="#e6e6e6"                     fill-opacity="0.64" />
<rect width="1" height="1" x="14" y="18" fill="#e6e6e6"                     fill-opacity="0.94" />
<rect width="1" height="1" x="15" y="18" fill="#e6e6e6"                     fill-opacity="0.00" />
<rect width="1" height="1" x="19" y="18" fill="#e6e6e6"                     fill-opacity="0.01" />
<rect width="1" height="1" x="20" y="18" fill="#e6e6e6"                     fill-opacity="0.90" />
<rect width="1" height="1" x="21" y="18" fill="#e6e6e6"                     fill-opacity="0.70" />
<rect width="1" height="1" x="1" y="19" fill="#e6e6e6"                     fill-opacity="0.04" />
<rect width="1" height="1" x="2" y="19" fill="#e6e6e6"                     fill-opacity="0.92" />
<rect width="1" height="1" x="3" y="19" fill="#e6e6e6"                     fill-opacity="0.71" />
<rect width="1" height="1" x="5" y="19" fill="#e6e6e6"                     fill-opacity="0.03" />
<rect width="1" height="1" x="6" y="19" fill="#e6e6e6"                     fill-opacity="0.04" />
<rect width="1" height="1" x="8" y="19" fill="#e6e6e6"                     fill-opacity="0.18" />
<rect width="1" height="1" x="9" y="19" fill="#e6e6e6"                     fill-opacity="1.00" />
<rect width="1" height="1" x="10" y="19" fill="#e6e6e6"                     fill-opacity="0.44" />
<rect width="1" height="1" x="13" y="19" fill="#e6e6e6"                     fill-opacity="0.65" />
<rect width="1" height="1" x="14" y="19" fill="#e6e6e6"                     fill-opacity="0.96" />
<rect width="1" height="1" x="15" y="19" fill="#e6e6e6"                     fill-opacity="0.04" />
<rect width="1" height="1" x="16" y="19" fill="#e6e6e6"                     fill-opacity="0.02" />
<rect width="1" height="1" x="17" y="19" fill="#e6e6e6"                     fill-opacity="0.03" />
<rect width="1" height="1" x="18" y="19" fill="#e6e6e6"                     fill-opacity="0.01" />
<rect width="1" height="1" x="19" y="19" fill="#e6e6e6"                     fill-opacity="0.04" />
<rect width="1" height="1" x="20" y="19" fill="#e6e6e6"                     fill-opacity="0.92" />
<rect width="1" height="1" x="21" y="19" fill="#e6e6e6"                     fill-opacity="0.71" />
<rect width="1" height="1" x="1" y="20" fill="#e6e6e6"                     fill-opacity="0.02" />
<rect width="1" height="1" x="2" y="20" fill="#e6e6e6"                     fill-opacity="0.85" />
<rect width="1" height="1" x="3" y="20" fill="#e6e6e6"                     fill-opacity="1.00" />
<rect width="1" height="1" x="4" y="20" fill="#e6e6e6"                     fill-opacity="0.87" />
<rect width="1" height="1" x="5" y="20" fill="#e6e6e6"                     fill-opacity="0.89" />
<rect width="1" height="1" x="6" y="20" fill="#e6e6e6"                     fill-opacity="0.90" />
<rect width="1" height="1" x="7" y="20" fill="#e6e6e6"                     fill-opacity="0.87" />
<rect width="1" height="1" x="8" y="20" fill="#e6e6e6"                     fill-opacity="0.94" />
<rect width="1" height="1" x="9" y="20" fill="#e6e6e6"                     fill-opacity="1.00" />
<rect width="1" height="1" x="10" y="20" fill="#e6e6e6"                     fill-opacity="0.38" />
<rect width="1" height="1" x="13" y="20" fill="#e6e6e6"                     fill-opacity="0.60" />
<rect width="1" height="1" x="14" y="20" fill="#e6e6e6"                     fill-opacity="1.00" />
<rect width="1" height="1" x="15" y="20" fill="#e6e6e6"                     fill-opacity="0.89" />
<rect width="1" height="1" x="16" y="20" fill="#e6e6e6"                     fill-opacity="0.89" />
<rect width="1" height="1" x="17" y="20" fill="#e6e6e6"                     fill-opacity="0.90" />
<rect width="1" height="1" x="18" y="20" fill="#e6e6e6"                     fill-opacity="0.88" />
<rect width="1" height="1" x="19" y="20" fill="#e6e6e6"                     fill-opacity="0.90" />
<rect width="1" height="1" x="20" y="20" fill="#e6e6e6"                     fill-opacity="1.00" />
<rect width="1" height="1" x="21" y="20" fill="#e6e6e6"                     fill-opacity="0.61" />
<rect width="1" height="1" x="2" y="21" fill="#e6e6e6"                     fill-opacity="0.30" />
<rect width="1" height="1" x="3" y="21" fill="#e6e6e6"                     fill-opacity="0.67" />
<rect width="1" height="1" x="4" y="21" fill="#e6e6e6"                     fill-opacity="0.73" />
<rect width="1" height="1" x="5" y="21" fill="#e6e6e6"                     fill-opacity="0.72" />
<rect width="1" height="1" x="6" y="21" fill="#e6e6e6"                     fill-opacity="0.71" />
<rect width="1" height="1" x="7" y="21" fill="#e6e6e6"                     fill-opacity="0.72" />
<rect width="1" height="1" x="8" y="21" fill="#e6e6e6"                     fill-opacity="0.74" />
<rect width="1" height="1" x="9" y="21" fill="#e6e6e6"                     fill-opacity="0.53" />
<rect width="1" height="1" x="10" y="21" fill="#e6e6e6"                     fill-opacity="0.08" />
<rect width="1" height="1" x="13" y="21" fill="#e6e6e6"                     fill-opacity="0.17" />
<rect width="1" height="1" x="14" y="21" fill="#e6e6e6"                     fill-opacity="0.62" />
<rect width="1" height="1" x="15" y="21" fill="#e6e6e6"                     fill-opacity="0.74" />
<rect width="1" height="1" x="16" y="21" fill="#e6e6e6"                     fill-opacity="0.72" />
<rect width="1" height="1" x="17" y="21" fill="#e6e6e6"                     fill-opacity="0.71" />
<rect width="1" height="1" x="18" y="21" fill="#e6e6e6"                     fill-opacity="0.72" />
<rect width="1" height="1" x="19" y="21" fill="#e6e6e6"                     fill-opacity="0.73" />
<rect width="1" height="1" x="20" y="21" fill="#e6e6e6"                     fill-opacity="0.60" />
<rect width="1" height="1" x="21" y="21" fill="#e6e6e6"                     fill-opacity="0.18" />
<rect width="1" height="1" x="23" y="21" fill="#e6e6e6"                     fill-opacity="0.00" />
</svg>
