<?xml version="1.0" encoding="UTF-8" standalone="no"?>
<svg id="svg2" xmlns="http://www.w3.org/2000/svg" version="1.1"                 width="24" height="24" viewBox="0 0 24 24">
<rect width="1" height="1" x="1" y="20" fill="#e6e6e6"                     fill-opacity="0.01" />
<rect width="1" height="1" x="2" y="20" fill="#e6e6e6"                     fill-opacity="0.15" />
<rect width="1" height="1" x="3" y="20" fill="#e6e6e6"                     fill-opacity="0.18" />
<rect width="1" height="1" x="4" y="20" fill="#e6e6e6"                     fill-opacity="0.18" />
<rect width="1" height="1" x="5" y="20" fill="#e6e6e6"                     fill-opacity="0.18" />
<rect width="1" height="1" x="6" y="20" fill="#e6e6e6"                     fill-opacity="0.18" />
<rect width="1" height="1" x="7" y="20" fill="#e6e6e6"                     fill-opacity="0.18" />
<rect width="1" height="1" x="8" y="20" fill="#e6e6e6"                     fill-opacity="0.18" />
<rect width="1" height="1" x="9" y="20" fill="#e6e6e6"                     fill-opacity="0.18" />
<rect width="1" height="1" x="10" y="20" fill="#e6e6e6"                     fill-opacity="0.18" />
<rect width="1" height="1" x="11" y="20" fill="#e6e6e6"                     fill-opacity="0.18" />
<rect width="1" height="1" x="12" y="20" fill="#e6e6e6"                     fill-opacity="0.18" />
<rect width="1" height="1" x="13" y="20" fill="#e6e6e6"                     fill-opacity="0.18" />
<rect width="1" height="1" x="14" y="20" fill="#e6e6e6"                     fill-opacity="0.18" />
<rect width="1" height="1" x="15" y="20" fill="#e6e6e6"                     fill-opacity="0.18" />
<rect width="1" height="1" x="16" y="20" fill="#e6e6e6"                     fill-opacity="0.18" />
<rect width="1" height="1" x="17" y="20" fill="#e6e6e6"                     fill-opacity="0.18" />
<rect width="1" height="1" x="18" y="20" fill="#e6e6e6"                     fill-opacity="0.18" />
<rect width="1" height="1" x="19" y="20" fill="#e6e6e6"                     fill-opacity="0.18" />
<rect width="1" height="1" x="20" y="20" fill="#e6e6e6"                     fill-opacity="0.18" />
<rect width="1" height="1" x="21" y="20" fill="#e6e6e6"                     fill-opacity="0.12" />
<rect width="1" height="1" x="1" y="21" fill="#e6e6e6"                     fill-opacity="0.05" />
<rect width="1" height="1" x="2" y="21" fill="#e6e6e6"                     fill-opacity="0.88" />
<rect width="1" height="1" x="3" y="21" fill="#e6e6e6"                     fill-opacity="1.00" />
<rect width="1" height="1" x="4" y="21" fill="#e6e6e6"                     fill-opacity="1.00" />
<rect width="1" height="1" x="5" y="21" fill="#e6e6e6"                     fill-opacity="1.00" />
<rect width="1" height="1" x="6" y="21" fill="#e6e6e6"                     fill-opacity="1.00" />
<rect width="1" height="1" x="7" y="21" fill="#e6e6e6"                     fill-opacity="1.00" />
<rect width="1" height="1" x="8" y="21" fill="#e6e6e6"                     fill-opacity="1.00" />
<rect width="1" height="1" x="9" y="21" fill="#e6e6e6"                     fill-opacity="1.00" />
<rect width="1" height="1" x="10" y="21" fill="#e6e6e6"                     fill-opacity="1.00" />
<rect width="1" height="1" x="11" y="21" fill="#e6e6e6"                     fill-opacity="1.00" />
<rect width="1" height="1" x="12" y="21" fill="#e6e6e6"                     fill-opacity="1.00" />
<rect width="1" height="1" x="13" y="21" fill="#e6e6e6"                     fill-opacity="1.00" />
<rect width="1" height="1" x="14" y="21" fill="#e6e6e6"                     fill-opacity="1.00" />
<rect width="1" height="1" x="15" y="21" fill="#e6e6e6"                     fill-opacity="1.00" />
<rect width="1" height="1" x="16" y="21" fill="#e6e6e6"                     fill-opacity="1.00" />
<rect width="1" height="1" x="17" y="21" fill="#e6e6e6"                     fill-opacity="1.00" />
<rect width="1" height="1" x="18" y="21" fill="#e6e6e6"                     fill-opacity="1.00" />
<rect width="1" height="1" x="19" y="21" fill="#e6e6e6"                     fill-opacity="1.00" />
<rect width="1" height="1" x="20" y="21" fill="#e6e6e6"                     fill-opacity="1.00" />
<rect width="1" height="1" x="21" y="21" fill="#e6e6e6"                     fill-opacity="0.67" />
<rect width="1" height="1" x="1" y="22" fill="#e6e6e6"                     fill-opacity="0.02" />
<rect width="1" height="1" x="2" y="22" fill="#e6e6e6"                     fill-opacity="0.35" />
<rect width="1" height="1" x="3" y="22" fill="#e6e6e6"                     fill-opacity="0.47" />
<rect width="1" height="1" x="4" y="22" fill="#e6e6e6"                     fill-opacity="0.42" />
<rect width="1" height="1" x="5" y="22" fill="#e6e6e6"                     fill-opacity="0.42" />
<rect width="1" height="1" x="6" y="22" fill="#e6e6e6"                     fill-opacity="0.42" />
<rect width="1" height="1" x="7" y="22" fill="#e6e6e6"                     fill-opacity="0.42" />
<rect width="1" height="1" x="8" y="22" fill="#e6e6e6"                     fill-opacity="0.42" />
<rect width="1" height="1" x="9" y="22" fill="#e6e6e6"                     fill-opacity="0.42" />
<rect width="1" height="1" x="10" y="22" fill="#e6e6e6"                     fill-opacity="0.42" />
<rect width="1" height="1" x="11" y="22" fill="#e6e6e6"                     fill-opacity="0.42" />
<rect width="1" height="1" x="12" y="22" fill="#e6e6e6"                     fill-opacity="0.42" />
<rect width="1" height="1" x="13" y="22" fill="#e6e6e6"                     fill-opacity="0.42" />
<rect width="1" height="1" x="14" y="22" fill="#e6e6e6"                     fill-opacity="0.42" />
<rect width="1" height="1" x="15" y="22" fill="#e6e6e6"                     fill-opacity="0.42" />
<rect width="1" height="1" x="16" y="22" fill="#e6e6e6"                     fill-opacity="0.42" />
<rect width="1" height="1" x="17" y="22" fill="#e6e6e6"                     fill-opacity="0.42" />
<rect width="1" height="1" x="18" y="22" fill="#e6e6e6"                     fill-opacity="0.42" />
<rect width="1" height="1" x="19" y="22" fill="#e6e6e6"                     fill-opacity="0.42" />
<rect width="1" height="1" x="20" y="22" fill="#e6e6e6"                     fill-opacity="0.47" />
<rect width="1" height="1" x="21" y="22" fill="#e6e6e6"                     fill-opacity="0.26" />
</svg>
