<?xml version="1.0" encoding="UTF-8" standalone="no"?>
<svg id="svg2" xmlns="http://www.w3.org/2000/svg" version="1.1"                 width="24" height="24" viewBox="0 0 24 24">
<rect width="1" height="1" x="16" y="5" fill="#e6e6e6"                     fill-opacity="0.00" />
<rect width="1" height="1" x="19" y="5" fill="#e6e6e6"                     fill-opacity="0.62" />
<rect width="1" height="1" x="20" y="5" fill="#e6e6e6"                     fill-opacity="0.62" />
<rect width="1" height="1" x="18" y="6" fill="#e6e6e6"                     fill-opacity="0.55" />
<rect width="1" height="1" x="19" y="6" fill="#e6e6e6"                     fill-opacity="1.00" />
<rect width="1" height="1" x="20" y="6" fill="#e6e6e6"                     fill-opacity="0.59" />
<rect width="1" height="1" x="17" y="7" fill="#e6e6e6"                     fill-opacity="0.57" />
<rect width="1" height="1" x="18" y="7" fill="#e6e6e6"                     fill-opacity="1.00" />
<rect width="1" height="1" x="19" y="7" fill="#e6e6e6"                     fill-opacity="0.57" />
<rect width="1" height="1" x="13" y="8" fill="#e6e6e6"                     fill-opacity="0.00" />
<rect width="1" height="1" x="16" y="8" fill="#e6e6e6"                     fill-opacity="0.60" />
<rect width="1" height="1" x="17" y="8" fill="#e6e6e6"                     fill-opacity="1.00" />
<rect width="1" height="1" x="18" y="8" fill="#e6e6e6"                     fill-opacity="0.54" />
<rect width="1" height="1" x="15" y="9" fill="#e6e6e6"                     fill-opacity="0.55" />
<rect width="1" height="1" x="16" y="9" fill="#e6e6e6"                     fill-opacity="1.00" />
<rect width="1" height="1" x="17" y="9" fill="#e6e6e6"                     fill-opacity="0.56" />
<rect width="1" height="1" x="2" y="10" fill="#e6e6e6"                     fill-opacity="0.01" />
<rect width="1" height="1" x="3" y="10" fill="#e6e6e6"                     fill-opacity="0.18" />
<rect width="1" height="1" x="4" y="10" fill="#e6e6e6"                     fill-opacity="0.09" />
<rect width="1" height="1" x="6" y="10" fill="#e6e6e6"                     fill-opacity="0.00" />
<rect width="1" height="1" x="14" y="10" fill="#e6e6e6"                     fill-opacity="0.57" />
<rect width="1" height="1" x="15" y="10" fill="#e6e6e6"                     fill-opacity="1.00" />
<rect width="1" height="1" x="16" y="10" fill="#e6e6e6"                     fill-opacity="0.57" />
<rect width="1" height="1" x="19" y="10" fill="#e6e6e6"                     fill-opacity="0.00" />
<rect width="1" height="1" x="2" y="11" fill="#e6e6e6"                     fill-opacity="0.10" />
<rect width="1" height="1" x="3" y="11" fill="#e6e6e6"                     fill-opacity="0.98" />
<rect width="1" height="1" x="4" y="11" fill="#e6e6e6"                     fill-opacity="0.78" />
<rect width="1" height="1" x="5" y="11" fill="#e6e6e6"                     fill-opacity="0.01" />
<rect width="1" height="1" x="7" y="11" fill="#e6e6e6"                     fill-opacity="0.00" />
<rect width="1" height="1" x="10" y="11" fill="#e6e6e6"                     fill-opacity="0.00" />
<rect width="1" height="1" x="13" y="11" fill="#e6e6e6"                     fill-opacity="0.60" />
<rect width="1" height="1" x="14" y="11" fill="#e6e6e6"                     fill-opacity="1.00" />
<rect width="1" height="1" x="15" y="11" fill="#e6e6e6"                     fill-opacity="0.54" />
<rect width="1" height="1" x="3" y="12" fill="#e6e6e6"                     fill-opacity="0.48" />
<rect width="1" height="1" x="4" y="12" fill="#e6e6e6"                     fill-opacity="1.00" />
<rect width="1" height="1" x="5" y="12" fill="#e6e6e6"                     fill-opacity="0.71" />
<rect width="1" height="1" x="6" y="12" fill="#e6e6e6"                     fill-opacity="0.06" />
<rect width="1" height="1" x="8" y="12" fill="#e6e6e6"                     fill-opacity="0.00" />
<rect width="1" height="1" x="12" y="12" fill="#e6e6e6"                     fill-opacity="0.55" />
<rect width="1" height="1" x="13" y="12" fill="#e6e6e6"                     fill-opacity="1.00" />
<rect width="1" height="1" x="14" y="12" fill="#e6e6e6"                     fill-opacity="0.56" />
<rect width="1" height="1" x="4" y="13" fill="#e6e6e6"                     fill-opacity="0.35" />
<rect width="1" height="1" x="5" y="13" fill="#e6e6e6"                     fill-opacity="1.00" />
<rect width="1" height="1" x="6" y="13" fill="#e6e6e6"                     fill-opacity="0.83" />
<rect width="1" height="1" x="7" y="13" fill="#e6e6e6"                     fill-opacity="0.08" />
<rect width="1" height="1" x="11" y="13" fill="#e6e6e6"                     fill-opacity="0.57" />
<rect width="1" height="1" x="12" y="13" fill="#e6e6e6"                     fill-opacity="1.00" />
<rect width="1" height="1" x="13" y="13" fill="#e6e6e6"                     fill-opacity="0.57" />
<rect width="1" height="1" x="16" y="13" fill="#e6e6e6"                     fill-opacity="0.00" />
<rect width="1" height="1" x="3" y="14" fill="#e6e6e6"                     fill-opacity="0.00" />
<rect width="1" height="1" x="5" y="14" fill="#e6e6e6"                     fill-opacity="0.32" />
<rect width="1" height="1" x="6" y="14" fill="#e6e6e6"                     fill-opacity="1.00" />
<rect width="1" height="1" x="7" y="14" fill="#e6e6e6"                     fill-opacity="0.86" />
<rect width="1" height="1" x="8" y="14" fill="#e6e6e6"                     fill-opacity="0.09" />
<rect width="1" height="1" x="10" y="14" fill="#e6e6e6"                     fill-opacity="0.60" />
<rect width="1" height="1" x="11" y="14" fill="#e6e6e6"                     fill-opacity="1.00" />
<rect width="1" height="1" x="12" y="14" fill="#e6e6e6"                     fill-opacity="0.54" />
<rect width="1" height="1" x="6" y="15" fill="#e6e6e6"                     fill-opacity="0.28" />
<rect width="1" height="1" x="7" y="15" fill="#e6e6e6"                     fill-opacity="0.98" />
<rect width="1" height="1" x="8" y="15" fill="#e6e6e6"                     fill-opacity="0.80" />
<rect width="1" height="1" x="9" y="15" fill="#e6e6e6"                     fill-opacity="0.62" />
<rect width="1" height="1" x="10" y="15" fill="#e6e6e6"                     fill-opacity="1.00" />
<rect width="1" height="1" x="11" y="15" fill="#e6e6e6"                     fill-opacity="0.56" />
<rect width="1" height="1" x="7" y="16" fill="#e6e6e6"                     fill-opacity="0.20" />
<rect width="1" height="1" x="8" y="16" fill="#e6e6e6"                     fill-opacity="0.96" />
<rect width="1" height="1" x="9" y="16" fill="#e6e6e6"                     fill-opacity="1.00" />
<rect width="1" height="1" x="10" y="16" fill="#e6e6e6"                     fill-opacity="0.56" />
<rect width="1" height="1" x="13" y="16" fill="#e6e6e6"                     fill-opacity="0.00" />
<rect width="1" height="1" x="6" y="17" fill="#e6e6e6"                     fill-opacity="0.00" />
<rect width="1" height="1" x="8" y="17" fill="#e6e6e6"                     fill-opacity="0.27" />
<rect width="1" height="1" x="9" y="17" fill="#e6e6e6"                     fill-opacity="0.45" />
<rect width="1" height="1" x="7" y="18" fill="#e6e6e6"                     fill-opacity="0.00" />
<rect width="1" height="1" x="7" y="19" fill="#e6e6e6"                     fill-opacity="0.00" />
</svg>
