<?xml version="1.0" encoding="UTF-8" standalone="no"?>
<svg id="svg2" xmlns="http://www.w3.org/2000/svg" version="1.1"                 width="24" height="24" viewBox="0 0 24 24">
<rect width="1" height="1" x="10" y="3" fill="#e6e6e6"                     fill-opacity="0.03" />
<rect width="1" height="1" x="11" y="3" fill="#e6e6e6"                     fill-opacity="0.63" />
<rect width="1" height="1" x="12" y="3" fill="#e6e6e6"                     fill-opacity="0.49" />
<rect width="1" height="1" x="10" y="4" fill="#e6e6e6"                     fill-opacity="0.04" />
<rect width="1" height="1" x="11" y="4" fill="#e6e6e6"                     fill-opacity="0.96" />
<rect width="1" height="1" x="12" y="4" fill="#e6e6e6"                     fill-opacity="0.76" />
<rect width="1" height="1" x="10" y="5" fill="#e6e6e6"                     fill-opacity="0.04" />
<rect width="1" height="1" x="11" y="5" fill="#e6e6e6"                     fill-opacity="0.90" />
<rect width="1" height="1" x="12" y="5" fill="#e6e6e6"                     fill-opacity="0.69" />
<rect width="1" height="1" x="10" y="6" fill="#e6e6e6"                     fill-opacity="0.04" />
<rect width="1" height="1" x="11" y="6" fill="#e6e6e6"                     fill-opacity="0.91" />
<rect width="1" height="1" x="12" y="6" fill="#e6e6e6"                     fill-opacity="0.70" />
<rect width="1" height="1" x="10" y="7" fill="#e6e6e6"                     fill-opacity="0.04" />
<rect width="1" height="1" x="11" y="7" fill="#e6e6e6"                     fill-opacity="0.91" />
<rect width="1" height="1" x="12" y="7" fill="#e6e6e6"                     fill-opacity="0.70" />
<rect width="1" height="1" x="8" y="8" fill="#e6e6e6"                     fill-opacity="0.00" />
<rect width="1" height="1" x="10" y="8" fill="#e6e6e6"                     fill-opacity="0.04" />
<rect width="1" height="1" x="11" y="8" fill="#e6e6e6"                     fill-opacity="0.91" />
<rect width="1" height="1" x="12" y="8" fill="#e6e6e6"                     fill-opacity="0.70" />
<rect width="1" height="1" x="10" y="9" fill="#e6e6e6"                     fill-opacity="0.01" />
<rect width="1" height="1" x="11" y="9" fill="#e6e6e6"                     fill-opacity="0.90" />
<rect width="1" height="1" x="12" y="9" fill="#e6e6e6"                     fill-opacity="0.69" />
<rect width="1" height="1" x="3" y="10" fill="#e6e6e6"                     fill-opacity="0.03" />
<rect width="1" height="1" x="4" y="10" fill="#e6e6e6"                     fill-opacity="0.05" />
<rect width="1" height="1" x="5" y="10" fill="#e6e6e6"                     fill-opacity="0.04" />
<rect width="1" height="1" x="6" y="10" fill="#e6e6e6"                     fill-opacity="0.04" />
<rect width="1" height="1" x="7" y="10" fill="#e6e6e6"                     fill-opacity="0.04" />
<rect width="1" height="1" x="8" y="10" fill="#e6e6e6"                     fill-opacity="0.04" />
<rect width="1" height="1" x="9" y="10" fill="#e6e6e6"                     fill-opacity="0.02" />
<rect width="1" height="1" x="10" y="10" fill="#e6e6e6"                     fill-opacity="0.06" />
<rect width="1" height="1" x="11" y="10" fill="#e6e6e6"                     fill-opacity="0.91" />
<rect width="1" height="1" x="12" y="10" fill="#e6e6e6"                     fill-opacity="0.70" />
<rect width="1" height="1" x="13" y="10" fill="#e6e6e6"                     fill-opacity="0.00" />
<rect width="1" height="1" x="14" y="10" fill="#e6e6e6"                     fill-opacity="0.04" />
<rect width="1" height="1" x="15" y="10" fill="#e6e6e6"                     fill-opacity="0.04" />
<rect width="1" height="1" x="16" y="10" fill="#e6e6e6"                     fill-opacity="0.04" />
<rect width="1" height="1" x="17" y="10" fill="#e6e6e6"                     fill-opacity="0.04" />
<rect width="1" height="1" x="18" y="10" fill="#e6e6e6"                     fill-opacity="0.04" />
<rect width="1" height="1" x="19" y="10" fill="#e6e6e6"                     fill-opacity="0.05" />
<rect width="1" height="1" x="20" y="10" fill="#e6e6e6"                     fill-opacity="0.02" />
<rect width="1" height="1" x="3" y="11" fill="#e6e6e6"                     fill-opacity="0.63" />
<rect width="1" height="1" x="4" y="11" fill="#e6e6e6"                     fill-opacity="0.93" />
<rect width="1" height="1" x="5" y="11" fill="#e6e6e6"                     fill-opacity="0.90" />
<rect width="1" height="1" x="6" y="11" fill="#e6e6e6"                     fill-opacity="0.91" />
<rect width="1" height="1" x="7" y="11" fill="#e6e6e6"                     fill-opacity="0.91" />
<rect width="1" height="1" x="8" y="11" fill="#e6e6e6"                     fill-opacity="0.91" />
<rect width="1" height="1" x="9" y="11" fill="#e6e6e6"                     fill-opacity="0.90" />
<rect width="1" height="1" x="10" y="11" fill="#e6e6e6"                     fill-opacity="0.91" />
<rect width="1" height="1" x="11" y="11" fill="#e6e6e6"                     fill-opacity="1.00" />
<rect width="1" height="1" x="12" y="11" fill="#e6e6e6"                     fill-opacity="0.97" />
<rect width="1" height="1" x="13" y="11" fill="#e6e6e6"                     fill-opacity="0.89" />
<rect width="1" height="1" x="14" y="11" fill="#e6e6e6"                     fill-opacity="0.91" />
<rect width="1" height="1" x="15" y="11" fill="#e6e6e6"                     fill-opacity="0.91" />
<rect width="1" height="1" x="16" y="11" fill="#e6e6e6"                     fill-opacity="0.91" />
<rect width="1" height="1" x="17" y="11" fill="#e6e6e6"                     fill-opacity="0.91" />
<rect width="1" height="1" x="18" y="11" fill="#e6e6e6"                     fill-opacity="0.90" />
<rect width="1" height="1" x="19" y="11" fill="#e6e6e6"                     fill-opacity="0.93" />
<rect width="1" height="1" x="20" y="11" fill="#e6e6e6"                     fill-opacity="0.44" />
<rect width="1" height="1" x="3" y="12" fill="#e6e6e6"                     fill-opacity="0.49" />
<rect width="1" height="1" x="4" y="12" fill="#e6e6e6"                     fill-opacity="0.75" />
<rect width="1" height="1" x="5" y="12" fill="#e6e6e6"                     fill-opacity="0.69" />
<rect width="1" height="1" x="6" y="12" fill="#e6e6e6"                     fill-opacity="0.70" />
<rect width="1" height="1" x="7" y="12" fill="#e6e6e6"                     fill-opacity="0.70" />
<rect width="1" height="1" x="8" y="12" fill="#e6e6e6"                     fill-opacity="0.70" />
<rect width="1" height="1" x="9" y="12" fill="#e6e6e6"                     fill-opacity="0.69" />
<rect width="1" height="1" x="10" y="12" fill="#e6e6e6"                     fill-opacity="0.70" />
<rect width="1" height="1" x="11" y="12" fill="#e6e6e6"                     fill-opacity="0.98" />
<rect width="1" height="1" x="12" y="12" fill="#e6e6e6"                     fill-opacity="0.91" />
<rect width="1" height="1" x="13" y="12" fill="#e6e6e6"                     fill-opacity="0.68" />
<rect width="1" height="1" x="14" y="12" fill="#e6e6e6"                     fill-opacity="0.69" />
<rect width="1" height="1" x="15" y="12" fill="#e6e6e6"                     fill-opacity="0.70" />
<rect width="1" height="1" x="16" y="12" fill="#e6e6e6"                     fill-opacity="0.70" />
<rect width="1" height="1" x="17" y="12" fill="#e6e6e6"                     fill-opacity="0.70" />
<rect width="1" height="1" x="18" y="12" fill="#e6e6e6"                     fill-opacity="0.69" />
<rect width="1" height="1" x="19" y="12" fill="#e6e6e6"                     fill-opacity="0.75" />
<rect width="1" height="1" x="20" y="12" fill="#e6e6e6"                     fill-opacity="0.35" />
<rect width="1" height="1" x="11" y="13" fill="#e6e6e6"                     fill-opacity="0.91" />
<rect width="1" height="1" x="12" y="13" fill="#e6e6e6"                     fill-opacity="0.68" />
<rect width="1" height="1" x="10" y="14" fill="#e6e6e6"                     fill-opacity="0.04" />
<rect width="1" height="1" x="11" y="14" fill="#e6e6e6"                     fill-opacity="0.91" />
<rect width="1" height="1" x="12" y="14" fill="#e6e6e6"                     fill-opacity="0.70" />
<rect width="1" height="1" x="10" y="15" fill="#e6e6e6"                     fill-opacity="0.04" />
<rect width="1" height="1" x="11" y="15" fill="#e6e6e6"                     fill-opacity="0.91" />
<rect width="1" height="1" x="12" y="15" fill="#e6e6e6"                     fill-opacity="0.70" />
<rect width="1" height="1" x="10" y="16" fill="#e6e6e6"                     fill-opacity="0.04" />
<rect width="1" height="1" x="11" y="16" fill="#e6e6e6"                     fill-opacity="0.91" />
<rect width="1" height="1" x="12" y="16" fill="#e6e6e6"                     fill-opacity="0.70" />
<rect width="1" height="1" x="10" y="17" fill="#e6e6e6"                     fill-opacity="0.04" />
<rect width="1" height="1" x="11" y="17" fill="#e6e6e6"                     fill-opacity="0.91" />
<rect width="1" height="1" x="12" y="17" fill="#e6e6e6"                     fill-opacity="0.70" />
<rect width="1" height="1" x="10" y="18" fill="#e6e6e6"                     fill-opacity="0.04" />
<rect width="1" height="1" x="11" y="18" fill="#e6e6e6"                     fill-opacity="0.91" />
<rect width="1" height="1" x="12" y="18" fill="#e6e6e6"                     fill-opacity="0.69" />
<rect width="1" height="1" x="10" y="19" fill="#e6e6e6"                     fill-opacity="0.04" />
<rect width="1" height="1" x="11" y="19" fill="#e6e6e6"                     fill-opacity="0.98" />
<rect width="1" height="1" x="12" y="19" fill="#e6e6e6"                     fill-opacity="0.76" />
<rect width="1" height="1" x="10" y="20" fill="#e6e6e6"                     fill-opacity="0.02" />
<rect width="1" height="1" x="11" y="20" fill="#e6e6e6"                     fill-opacity="0.44" />
<rect width="1" height="1" x="12" y="20" fill="#e6e6e6"                     fill-opacity="0.35" />
</svg>
