<?xml version="1.0" encoding="UTF-8" standalone="no"?>
<svg id="svg2" xmlns="http://www.w3.org/2000/svg" version="1.1"                 width="16" height="16" viewBox="0 0 16 16">
<rect width="1" height="1" x="6" y="0" fill="#e6e6e6"                     fill-opacity="0.01" />
<rect width="1" height="1" x="9" y="0" fill="#e6e6e6"                     fill-opacity="0.00" />
<rect width="1" height="1" x="5" y="1" fill="#e6e6e6"                     fill-opacity="0.01" />
<rect width="1" height="1" x="7" y="1" fill="#e6e6e6"                     fill-opacity="0.11" />
<rect width="1" height="1" x="8" y="1" fill="#e6e6e6"                     fill-opacity="0.04" />
<rect width="1" height="1" x="10" y="1" fill="#e6e6e6"                     fill-opacity="0.01" />
<rect width="1" height="1" x="4" y="2" fill="#e6e6e6"                     fill-opacity="0.02" />
<rect width="1" height="1" x="6" y="2" fill="#e6e6e6"                     fill-opacity="0.16" />
<rect width="1" height="1" x="7" y="2" fill="#e6e6e6"                     fill-opacity="0.93" />
<rect width="1" height="1" x="8" y="2" fill="#e6e6e6"                     fill-opacity="0.72" />
<rect width="1" height="1" x="11" y="2" fill="#e6e6e6"                     fill-opacity="0.01" />
<rect width="1" height="1" x="3" y="3" fill="#e6e6e6"                     fill-opacity="0.02" />
<rect width="1" height="1" x="5" y="3" fill="#e6e6e6"                     fill-opacity="0.16" />
<rect width="1" height="1" x="6" y="3" fill="#e6e6e6"                     fill-opacity="0.90" />
<rect width="1" height="1" x="7" y="3" fill="#e6e6e6"                     fill-opacity="0.45" />
<rect width="1" height="1" x="8" y="3" fill="#e6e6e6"                     fill-opacity="0.66" />
<rect width="1" height="1" x="9" y="3" fill="#e6e6e6"                     fill-opacity="0.75" />
<rect width="1" height="1" x="12" y="3" fill="#e6e6e6"                     fill-opacity="0.01" />
<rect width="1" height="1" x="2" y="4" fill="#e6e6e6"                     fill-opacity="0.02" />
<rect width="1" height="1" x="4" y="4" fill="#e6e6e6"                     fill-opacity="0.16" />
<rect width="1" height="1" x="5" y="4" fill="#e6e6e6"                     fill-opacity="0.90" />
<rect width="1" height="1" x="6" y="4" fill="#e6e6e6"                     fill-opacity="0.44" />
<rect width="1" height="1" x="8" y="4" fill="#e6e6e6"                     fill-opacity="0.00" />
<rect width="1" height="1" x="9" y="4" fill="#e6e6e6"                     fill-opacity="0.71" />
<rect width="1" height="1" x="10" y="4" fill="#e6e6e6"                     fill-opacity="0.74" />
<rect width="1" height="1" x="13" y="4" fill="#e6e6e6"                     fill-opacity="0.01" />
<rect width="1" height="1" x="1" y="5" fill="#e6e6e6"                     fill-opacity="0.01" />
<rect width="1" height="1" x="3" y="5" fill="#e6e6e6"                     fill-opacity="0.16" />
<rect width="1" height="1" x="4" y="5" fill="#e6e6e6"                     fill-opacity="0.90" />
<rect width="1" height="1" x="5" y="5" fill="#e6e6e6"                     fill-opacity="0.44" />
<rect width="1" height="1" x="10" y="5" fill="#e6e6e6"                     fill-opacity="0.70" />
<rect width="1" height="1" x="11" y="5" fill="#e6e6e6"                     fill-opacity="0.73" />
<rect width="1" height="1" x="14" y="5" fill="#e6e6e6"                     fill-opacity="0.00" />
<rect width="1" height="1" x="0" y="6" fill="#e6e6e6"                     fill-opacity="0.01" />
<rect width="1" height="1" x="2" y="6" fill="#e6e6e6"                     fill-opacity="0.17" />
<rect width="1" height="1" x="3" y="6" fill="#e6e6e6"                     fill-opacity="0.90" />
<rect width="1" height="1" x="4" y="6" fill="#e6e6e6"                     fill-opacity="0.44" />
<rect width="1" height="1" x="7" y="6" fill="#e6e6e6"                     fill-opacity="0.11" />
<rect width="1" height="1" x="8" y="6" fill="#e6e6e6"                     fill-opacity="0.05" />
<rect width="1" height="1" x="10" y="6" fill="#e6e6e6"                     fill-opacity="0.00" />
<rect width="1" height="1" x="11" y="6" fill="#e6e6e6"                     fill-opacity="0.71" />
<rect width="1" height="1" x="12" y="6" fill="#e6e6e6"                     fill-opacity="0.73" />
<rect width="1" height="1" x="13" y="6" fill="#e6e6e6"                     fill-opacity="0.01" />
<rect width="1" height="1" x="1" y="7" fill="#e6e6e6"                     fill-opacity="0.08" />
<rect width="1" height="1" x="2" y="7" fill="#e6e6e6"                     fill-opacity="0.85" />
<rect width="1" height="1" x="3" y="7" fill="#e6e6e6"                     fill-opacity="0.44" />
<rect width="1" height="1" x="6" y="7" fill="#e6e6e6"                     fill-opacity="0.16" />
<rect width="1" height="1" x="7" y="7" fill="#e6e6e6"                     fill-opacity="0.92" />
<rect width="1" height="1" x="8" y="7" fill="#e6e6e6"                     fill-opacity="0.71" />
<rect width="1" height="1" x="9" y="7" fill="#e6e6e6"                     fill-opacity="0.01" />
<rect width="1" height="1" x="11" y="7" fill="#e6e6e6"                     fill-opacity="0.00" />
<rect width="1" height="1" x="12" y="7" fill="#e6e6e6"                     fill-opacity="0.71" />
<rect width="1" height="1" x="13" y="7" fill="#e6e6e6"                     fill-opacity="0.63" />
<rect width="1" height="1" x="15" y="7" fill="#e6e6e6"                     fill-opacity="0.00" />
<rect width="1" height="1" x="1" y="8" fill="#e6e6e6"                     fill-opacity="0.05" />
<rect width="1" height="1" x="2" y="8" fill="#e6e6e6"                     fill-opacity="0.21" />
<rect width="1" height="1" x="5" y="8" fill="#e6e6e6"                     fill-opacity="0.17" />
<rect width="1" height="1" x="6" y="8" fill="#e6e6e6"                     fill-opacity="0.89" />
<rect width="1" height="1" x="7" y="8" fill="#e6e6e6"                     fill-opacity="0.47" />
<rect width="1" height="1" x="8" y="8" fill="#e6e6e6"                     fill-opacity="0.67" />
<rect width="1" height="1" x="9" y="8" fill="#e6e6e6"                     fill-opacity="0.72" />
<rect width="1" height="1" x="10" y="8" fill="#e6e6e6"                     fill-opacity="0.01" />
<rect width="1" height="1" x="12" y="8" fill="#e6e6e6"                     fill-opacity="0.05" />
<rect width="1" height="1" x="13" y="8" fill="#e6e6e6"                     fill-opacity="0.21" />
<rect width="1" height="1" x="4" y="9" fill="#e6e6e6"                     fill-opacity="0.16" />
<rect width="1" height="1" x="5" y="9" fill="#e6e6e6"                     fill-opacity="0.90" />
<rect width="1" height="1" x="6" y="9" fill="#e6e6e6"                     fill-opacity="0.45" />
<rect width="1" height="1" x="9" y="9" fill="#e6e6e6"                     fill-opacity="0.72" />
<rect width="1" height="1" x="10" y="9" fill="#e6e6e6"                     fill-opacity="0.72" />
<rect width="1" height="1" x="11" y="9" fill="#e6e6e6"                     fill-opacity="0.01" />
<rect width="1" height="1" x="1" y="10" fill="#e6e6e6"                     fill-opacity="0.01" />
<rect width="1" height="1" x="3" y="10" fill="#e6e6e6"                     fill-opacity="0.16" />
<rect width="1" height="1" x="4" y="10" fill="#e6e6e6"                     fill-opacity="0.90" />
<rect width="1" height="1" x="5" y="10" fill="#e6e6e6"                     fill-opacity="0.45" />
<rect width="1" height="1" x="7" y="10" fill="#e6e6e6"                     fill-opacity="0.02" />
<rect width="1" height="1" x="10" y="10" fill="#e6e6e6"                     fill-opacity="0.72" />
<rect width="1" height="1" x="11" y="10" fill="#e6e6e6"                     fill-opacity="0.72" />
<rect width="1" height="1" x="12" y="10" fill="#e6e6e6"                     fill-opacity="0.00" />
<rect width="1" height="1" x="14" y="10" fill="#e6e6e6"                     fill-opacity="0.00" />
<rect width="1" height="1" x="0" y="11" fill="#e6e6e6"                     fill-opacity="0.01" />
<rect width="1" height="1" x="2" y="11" fill="#e6e6e6"                     fill-opacity="0.16" />
<rect width="1" height="1" x="3" y="11" fill="#e6e6e6"                     fill-opacity="0.90" />
<rect width="1" height="1" x="4" y="11" fill="#e6e6e6"                     fill-opacity="0.45" />
<rect width="1" height="1" x="6" y="11" fill="#e6e6e6"                     fill-opacity="0.01" />
<rect width="1" height="1" x="8" y="11" fill="#e6e6e6"                     fill-opacity="0.01" />
<rect width="1" height="1" x="11" y="11" fill="#e6e6e6"                     fill-opacity="0.72" />
<rect width="1" height="1" x="12" y="11" fill="#e6e6e6"                     fill-opacity="0.72" />
<rect width="1" height="1" x="13" y="11" fill="#e6e6e6"                     fill-opacity="0.02" />
<rect width="1" height="1" x="1" y="12" fill="#e6e6e6"                     fill-opacity="0.08" />
<rect width="1" height="1" x="2" y="12" fill="#e6e6e6"                     fill-opacity="0.86" />
<rect width="1" height="1" x="3" y="12" fill="#e6e6e6"                     fill-opacity="0.45" />
<rect width="1" height="1" x="5" y="12" fill="#e6e6e6"                     fill-opacity="0.01" />
<rect width="1" height="1" x="9" y="12" fill="#e6e6e6"                     fill-opacity="0.01" />
<rect width="1" height="1" x="12" y="12" fill="#e6e6e6"                     fill-opacity="0.73" />
<rect width="1" height="1" x="13" y="12" fill="#e6e6e6"                     fill-opacity="0.64" />
<rect width="1" height="1" x="15" y="12" fill="#e6e6e6"                     fill-opacity="0.00" />
<rect width="1" height="1" x="1" y="13" fill="#e6e6e6"                     fill-opacity="0.06" />
<rect width="1" height="1" x="2" y="13" fill="#e6e6e6"                     fill-opacity="0.21" />
<rect width="1" height="1" x="10" y="13" fill="#e6e6e6"                     fill-opacity="0.01" />
<rect width="1" height="1" x="12" y="13" fill="#e6e6e6"                     fill-opacity="0.04" />
<rect width="1" height="1" x="13" y="13" fill="#e6e6e6"                     fill-opacity="0.22" />
<rect width="1" height="1" x="3" y="14" fill="#e6e6e6"                     fill-opacity="0.00" />
<rect width="1" height="1" x="11" y="14" fill="#e6e6e6"                     fill-opacity="0.00" />
<rect width="1" height="1" x="2" y="15" fill="#e6e6e6"                     fill-opacity="0.00" />
<rect width="1" height="1" x="13" y="15" fill="#e6e6e6"                     fill-opacity="0.00" />
</svg>
