<?xml version="1.0" encoding="UTF-8" standalone="no"?>
<svg id="svg2" xmlns="http://www.w3.org/2000/svg" version="1.1"                 width="16" height="16" viewBox="0 0 16 16">
<rect width="1" height="1" x="12" y="1" fill="#e6e6e6"                     fill-opacity="0.00" />
<rect width="1" height="1" x="13" y="1" fill="#e6e6e6"                     fill-opacity="0.00" />
<rect width="1" height="1" x="11" y="2" fill="#e6e6e6"                     fill-opacity="0.01" />
<rect width="1" height="1" x="10" y="3" fill="#e6e6e6"                     fill-opacity="0.01" />
<rect width="1" height="1" x="12" y="3" fill="#e6e6e6"                     fill-opacity="0.20" />
<rect width="1" height="1" x="13" y="3" fill="#e6e6e6"                     fill-opacity="0.45" />
<rect width="1" height="1" x="9" y="4" fill="#e6e6e6"                     fill-opacity="0.01" />
<rect width="1" height="1" x="11" y="4" fill="#e6e6e6"                     fill-opacity="0.16" />
<rect width="1" height="1" x="12" y="4" fill="#e6e6e6"                     fill-opacity="0.90" />
<rect width="1" height="1" x="13" y="4" fill="#e6e6e6"                     fill-opacity="0.47" />
<rect width="1" height="1" x="15" y="4" fill="#e6e6e6"                     fill-opacity="0.00" />
<rect width="1" height="1" x="3" y="5" fill="#e6e6e6"                     fill-opacity="0.00" />
<rect width="1" height="1" x="8" y="5" fill="#e6e6e6"                     fill-opacity="0.01" />
<rect width="1" height="1" x="10" y="5" fill="#e6e6e6"                     fill-opacity="0.16" />
<rect width="1" height="1" x="11" y="5" fill="#e6e6e6"                     fill-opacity="0.90" />
<rect width="1" height="1" x="12" y="5" fill="#e6e6e6"                     fill-opacity="0.45" />
<rect width="1" height="1" x="14" y="5" fill="#e6e6e6"                     fill-opacity="0.00" />
<rect width="1" height="1" x="1" y="6" fill="#e6e6e6"                     fill-opacity="0.00" />
<rect width="1" height="1" x="4" y="6" fill="#e6e6e6"                     fill-opacity="0.01" />
<rect width="1" height="1" x="7" y="6" fill="#e6e6e6"                     fill-opacity="0.01" />
<rect width="1" height="1" x="9" y="6" fill="#e6e6e6"                     fill-opacity="0.16" />
<rect width="1" height="1" x="10" y="6" fill="#e6e6e6"                     fill-opacity="0.89" />
<rect width="1" height="1" x="11" y="6" fill="#e6e6e6"                     fill-opacity="0.45" />
<rect width="1" height="1" x="13" y="6" fill="#e6e6e6"                     fill-opacity="0.01" />
<rect width="1" height="1" x="1" y="7" fill="#e6e6e6"                     fill-opacity="0.10" />
<rect width="1" height="1" x="2" y="7" fill="#e6e6e6"                     fill-opacity="0.73" />
<rect width="1" height="1" x="3" y="7" fill="#e6e6e6"                     fill-opacity="0.18" />
<rect width="1" height="1" x="5" y="7" fill="#e6e6e6"                     fill-opacity="0.02" />
<rect width="1" height="1" x="6" y="7" fill="#e6e6e6"                     fill-opacity="0.01" />
<rect width="1" height="1" x="8" y="7" fill="#e6e6e6"                     fill-opacity="0.16" />
<rect width="1" height="1" x="9" y="7" fill="#e6e6e6"                     fill-opacity="0.90" />
<rect width="1" height="1" x="10" y="7" fill="#e6e6e6"                     fill-opacity="0.45" />
<rect width="1" height="1" x="12" y="7" fill="#e6e6e6"                     fill-opacity="0.01" />
<rect width="1" height="1" x="2" y="8" fill="#e6e6e6"                     fill-opacity="0.46" />
<rect width="1" height="1" x="3" y="8" fill="#e6e6e6"                     fill-opacity="0.91" />
<rect width="1" height="1" x="4" y="8" fill="#e6e6e6"                     fill-opacity="0.19" />
<rect width="1" height="1" x="7" y="8" fill="#e6e6e6"                     fill-opacity="0.16" />
<rect width="1" height="1" x="8" y="8" fill="#e6e6e6"                     fill-opacity="0.90" />
<rect width="1" height="1" x="9" y="8" fill="#e6e6e6"                     fill-opacity="0.45" />
<rect width="1" height="1" x="11" y="8" fill="#e6e6e6"                     fill-opacity="0.01" />
<rect width="1" height="1" x="3" y="9" fill="#e6e6e6"                     fill-opacity="0.40" />
<rect width="1" height="1" x="4" y="9" fill="#e6e6e6"                     fill-opacity="0.93" />
<rect width="1" height="1" x="5" y="9" fill="#e6e6e6"                     fill-opacity="0.22" />
<rect width="1" height="1" x="6" y="9" fill="#e6e6e6"                     fill-opacity="0.14" />
<rect width="1" height="1" x="7" y="9" fill="#e6e6e6"                     fill-opacity="0.90" />
<rect width="1" height="1" x="8" y="9" fill="#e6e6e6"                     fill-opacity="0.45" />
<rect width="1" height="1" x="10" y="9" fill="#e6e6e6"                     fill-opacity="0.01" />
<rect width="1" height="1" x="2" y="10" fill="#e6e6e6"                     fill-opacity="0.01" />
<rect width="1" height="1" x="4" y="10" fill="#e6e6e6"                     fill-opacity="0.35" />
<rect width="1" height="1" x="5" y="10" fill="#e6e6e6"                     fill-opacity="0.90" />
<rect width="1" height="1" x="6" y="10" fill="#e6e6e6"                     fill-opacity="0.90" />
<rect width="1" height="1" x="7" y="10" fill="#e6e6e6"                     fill-opacity="0.45" />
<rect width="1" height="1" x="9" y="10" fill="#e6e6e6"                     fill-opacity="0.01" />
<rect width="1" height="1" x="3" y="11" fill="#e6e6e6"                     fill-opacity="0.01" />
<rect width="1" height="1" x="5" y="11" fill="#e6e6e6"                     fill-opacity="0.31" />
<rect width="1" height="1" x="6" y="11" fill="#e6e6e6"                     fill-opacity="0.43" />
<rect width="1" height="1" x="8" y="11" fill="#e6e6e6"                     fill-opacity="0.01" />
<rect width="1" height="1" x="4" y="12" fill="#e6e6e6"                     fill-opacity="0.01" />
<rect width="1" height="1" x="7" y="12" fill="#e6e6e6"                     fill-opacity="0.00" />
<rect width="1" height="1" x="5" y="13" fill="#e6e6e6"                     fill-opacity="0.00" />
<rect width="1" height="1" x="6" y="13" fill="#e6e6e6"                     fill-opacity="0.01" />
</svg>
