<?xml version="1.0" encoding="UTF-8" standalone="no"?>
<svg id="svg2" xmlns="http://www.w3.org/2000/svg" version="1.1"                 width="16" height="16" viewBox="0 0 16 16">
<rect width="1" height="1" x="0" y="2" fill="#d2d2d2"                     fill-opacity="0.01" />
<rect width="1" height="1" x="1" y="3" fill="#d2d2d2"                     fill-opacity="0.01" />
<rect width="1" height="1" x="14" y="3" fill="#d2d2d2"                     fill-opacity="0.00" />
<rect width="1" height="1" x="1" y="5" fill="#d2d2d2"                     fill-opacity="0.05" />
<rect width="1" height="1" x="2" y="5" fill="#d2d2d2"                     fill-opacity="0.21" />
<rect width="1" height="1" x="12" y="5" fill="#d2d2d2"                     fill-opacity="0.05" />
<rect width="1" height="1" x="13" y="5" fill="#d2d2d2"                     fill-opacity="0.21" />
<rect width="1" height="1" x="1" y="6" fill="#d2d2d2"                     fill-opacity="0.08" />
<rect width="1" height="1" x="2" y="6" fill="#d2d2d2"                     fill-opacity="0.85" />
<rect width="1" height="1" x="3" y="6" fill="#d2d2d2"                     fill-opacity="0.44" />
<rect width="1" height="1" x="11" y="6" fill="#d2d2d2"                     fill-opacity="0.00" />
<rect width="1" height="1" x="12" y="6" fill="#d2d2d2"                     fill-opacity="0.71" />
<rect width="1" height="1" x="13" y="6" fill="#d2d2d2"                     fill-opacity="0.63" />
<rect width="1" height="1" x="15" y="6" fill="#d2d2d2"                     fill-opacity="0.00" />
<rect width="1" height="1" x="0" y="7" fill="#d2d2d2"                     fill-opacity="0.01" />
<rect width="1" height="1" x="2" y="7" fill="#d2d2d2"                     fill-opacity="0.17" />
<rect width="1" height="1" x="3" y="7" fill="#d2d2d2"                     fill-opacity="0.90" />
<rect width="1" height="1" x="4" y="7" fill="#d2d2d2"                     fill-opacity="0.44" />
<rect width="1" height="1" x="8" y="7" fill="#d2d2d2"                     fill-opacity="0.02" />
<rect width="1" height="1" x="10" y="7" fill="#d2d2d2"                     fill-opacity="0.00" />
<rect width="1" height="1" x="11" y="7" fill="#d2d2d2"                     fill-opacity="0.71" />
<rect width="1" height="1" x="12" y="7" fill="#d2d2d2"                     fill-opacity="0.73" />
<rect width="1" height="1" x="13" y="7" fill="#d2d2d2"                     fill-opacity="0.01" />
<rect width="1" height="1" x="1" y="8" fill="#d2d2d2"                     fill-opacity="0.01" />
<rect width="1" height="1" x="3" y="8" fill="#d2d2d2"                     fill-opacity="0.16" />
<rect width="1" height="1" x="4" y="8" fill="#d2d2d2"                     fill-opacity="0.90" />
<rect width="1" height="1" x="5" y="8" fill="#d2d2d2"                     fill-opacity="0.44" />
<rect width="1" height="1" x="10" y="8" fill="#d2d2d2"                     fill-opacity="0.70" />
<rect width="1" height="1" x="11" y="8" fill="#d2d2d2"                     fill-opacity="0.73" />
<rect width="1" height="1" x="14" y="8" fill="#d2d2d2"                     fill-opacity="0.00" />
<rect width="1" height="1" x="2" y="9" fill="#d2d2d2"                     fill-opacity="0.02" />
<rect width="1" height="1" x="4" y="9" fill="#d2d2d2"                     fill-opacity="0.16" />
<rect width="1" height="1" x="5" y="9" fill="#d2d2d2"                     fill-opacity="0.90" />
<rect width="1" height="1" x="6" y="9" fill="#d2d2d2"                     fill-opacity="0.44" />
<rect width="1" height="1" x="8" y="9" fill="#d2d2d2"                     fill-opacity="0.00" />
<rect width="1" height="1" x="9" y="9" fill="#d2d2d2"                     fill-opacity="0.71" />
<rect width="1" height="1" x="10" y="9" fill="#d2d2d2"                     fill-opacity="0.74" />
<rect width="1" height="1" x="13" y="9" fill="#d2d2d2"                     fill-opacity="0.01" />
<rect width="1" height="1" x="3" y="10" fill="#d2d2d2"                     fill-opacity="0.02" />
<rect width="1" height="1" x="5" y="10" fill="#d2d2d2"                     fill-opacity="0.16" />
<rect width="1" height="1" x="6" y="10" fill="#d2d2d2"                     fill-opacity="0.90" />
<rect width="1" height="1" x="7" y="10" fill="#d2d2d2"                     fill-opacity="0.45" />
<rect width="1" height="1" x="8" y="10" fill="#d2d2d2"                     fill-opacity="0.66" />
<rect width="1" height="1" x="9" y="10" fill="#d2d2d2"                     fill-opacity="0.75" />
<rect width="1" height="1" x="12" y="10" fill="#d2d2d2"                     fill-opacity="0.01" />
<rect width="1" height="1" x="4" y="11" fill="#d2d2d2"                     fill-opacity="0.02" />
<rect width="1" height="1" x="6" y="11" fill="#d2d2d2"                     fill-opacity="0.16" />
<rect width="1" height="1" x="7" y="11" fill="#d2d2d2"                     fill-opacity="0.93" />
<rect width="1" height="1" x="8" y="11" fill="#d2d2d2"                     fill-opacity="0.72" />
<rect width="1" height="1" x="11" y="11" fill="#d2d2d2"                     fill-opacity="0.01" />
<rect width="1" height="1" x="5" y="12" fill="#d2d2d2"                     fill-opacity="0.01" />
<rect width="1" height="1" x="7" y="12" fill="#d2d2d2"                     fill-opacity="0.11" />
<rect width="1" height="1" x="8" y="12" fill="#d2d2d2"                     fill-opacity="0.04" />
<rect width="1" height="1" x="10" y="12" fill="#d2d2d2"                     fill-opacity="0.01" />
<rect width="1" height="1" x="6" y="13" fill="#d2d2d2"                     fill-opacity="0.01" />
<rect width="1" height="1" x="9" y="13" fill="#d2d2d2"                     fill-opacity="0.00" />
</svg>
