<?xml version="1.0" encoding="UTF-8" standalone="no"?>
<svg id="svg2" xmlns="http://www.w3.org/2000/svg" version="1.1"                 width="16" height="16" viewBox="0 0 16 16">
<rect width="1" height="1" x="2" y="0" fill="#e6e6e6"                     fill-opacity="0.01" />
<rect width="1" height="1" x="4" y="0" fill="#e6e6e6"                     fill-opacity="0.02" />
<rect width="1" height="1" x="5" y="0" fill="#e6e6e6"                     fill-opacity="0.35" />
<rect width="1" height="1" x="6" y="0" fill="#e6e6e6"                     fill-opacity="0.56" />
<rect width="1" height="1" x="7" y="0" fill="#e6e6e6"                     fill-opacity="0.64" />
<rect width="1" height="1" x="8" y="0" fill="#e6e6e6"                     fill-opacity="0.62" />
<rect width="1" height="1" x="9" y="0" fill="#e6e6e6"                     fill-opacity="0.51" />
<rect width="1" height="1" x="10" y="0" fill="#e6e6e6"                     fill-opacity="0.24" />
<rect width="1" height="1" x="13" y="0" fill="#e6e6e6"                     fill-opacity="0.01" />
<rect width="1" height="1" x="1" y="1" fill="#e6e6e6"                     fill-opacity="0.00" />
<rect width="1" height="1" x="3" y="1" fill="#e6e6e6"                     fill-opacity="0.31" />
<rect width="1" height="1" x="4" y="1" fill="#e6e6e6"                     fill-opacity="0.82" />
<rect width="1" height="1" x="5" y="1" fill="#e6e6e6"                     fill-opacity="0.78" />
<rect width="1" height="1" x="6" y="1" fill="#e6e6e6"                     fill-opacity="0.57" />
<rect width="1" height="1" x="7" y="1" fill="#e6e6e6"                     fill-opacity="0.43" />
<rect width="1" height="1" x="8" y="1" fill="#e6e6e6"                     fill-opacity="0.46" />
<rect width="1" height="1" x="9" y="1" fill="#e6e6e6"                     fill-opacity="0.64" />
<rect width="1" height="1" x="10" y="1" fill="#e6e6e6"                     fill-opacity="0.84" />
<rect width="1" height="1" x="11" y="1" fill="#e6e6e6"                     fill-opacity="0.71" />
<rect width="1" height="1" x="12" y="1" fill="#e6e6e6"                     fill-opacity="0.11" />
<rect width="1" height="1" x="14" y="1" fill="#e6e6e6"                     fill-opacity="0.01" />
<rect width="1" height="1" x="0" y="2" fill="#e6e6e6"                     fill-opacity="0.01" />
<rect width="1" height="1" x="2" y="2" fill="#e6e6e6"                     fill-opacity="0.43" />
<rect width="1" height="1" x="3" y="2" fill="#e6e6e6"                     fill-opacity="0.91" />
<rect width="1" height="1" x="4" y="2" fill="#e6e6e6"                     fill-opacity="0.36" />
<rect width="1" height="1" x="10" y="2" fill="#e6e6e6"                     fill-opacity="0.05" />
<rect width="1" height="1" x="11" y="2" fill="#e6e6e6"                     fill-opacity="0.58" />
<rect width="1" height="1" x="12" y="2" fill="#e6e6e6"                     fill-opacity="0.88" />
<rect width="1" height="1" x="13" y="2" fill="#e6e6e6"                     fill-opacity="0.17" />
<rect width="1" height="1" x="15" y="2" fill="#e6e6e6"                     fill-opacity="0.01" />
<rect width="1" height="1" x="1" y="3" fill="#e6e6e6"                     fill-opacity="0.31" />
<rect width="1" height="1" x="2" y="3" fill="#e6e6e6"                     fill-opacity="0.91" />
<rect width="1" height="1" x="3" y="3" fill="#e6e6e6"                     fill-opacity="0.16" />
<rect width="1" height="1" x="5" y="3" fill="#e6e6e6"                     fill-opacity="0.00" />
<rect width="1" height="1" x="6" y="3" fill="#e6e6e6"                     fill-opacity="0.01" />
<rect width="1" height="1" x="7" y="3" fill="#e6e6e6"                     fill-opacity="0.02" />
<rect width="1" height="1" x="8" y="3" fill="#e6e6e6"                     fill-opacity="0.01" />
<rect width="1" height="1" x="9" y="3" fill="#e6e6e6"                     fill-opacity="0.01" />
<rect width="1" height="1" x="12" y="3" fill="#e6e6e6"                     fill-opacity="0.46" />
<rect width="1" height="1" x="13" y="3" fill="#e6e6e6"                     fill-opacity="0.85" />
<rect width="1" height="1" x="14" y="3" fill="#e6e6e6"                     fill-opacity="0.06" />
<rect width="1" height="1" x="0" y="4" fill="#e6e6e6"                     fill-opacity="0.02" />
<rect width="1" height="1" x="1" y="4" fill="#e6e6e6"                     fill-opacity="0.82" />
<rect width="1" height="1" x="2" y="4" fill="#e6e6e6"                     fill-opacity="0.36" />
<rect width="1" height="1" x="4" y="4" fill="#e6e6e6"                     fill-opacity="0.02" />
<rect width="1" height="1" x="5" y="4" fill="#e6e6e6"                     fill-opacity="0.00" />
<rect width="1" height="1" x="9" y="4" fill="#e6e6e6"                     fill-opacity="0.01" />
<rect width="1" height="1" x="10" y="4" fill="#e6e6e6"                     fill-opacity="0.00" />
<rect width="1" height="1" x="11" y="4" fill="#e6e6e6"                     fill-opacity="0.01" />
<rect width="1" height="1" x="13" y="4" fill="#e6e6e6"                     fill-opacity="0.68" />
<rect width="1" height="1" x="14" y="4" fill="#e6e6e6"                     fill-opacity="0.56" />
<rect width="1" height="1" x="0" y="5" fill="#e6e6e6"                     fill-opacity="0.35" />
<rect width="1" height="1" x="1" y="5" fill="#e6e6e6"                     fill-opacity="0.78" />
<rect width="1" height="1" x="3" y="5" fill="#e6e6e6"                     fill-opacity="0.00" />
<rect width="1" height="1" x="4" y="5" fill="#e6e6e6"                     fill-opacity="0.00" />
<rect width="1" height="1" x="7" y="5" fill="#e6e6e6"                     fill-opacity="0.53" />
<rect width="1" height="1" x="8" y="5" fill="#e6e6e6"                     fill-opacity="0.33" />
<rect width="1" height="1" x="10" y="5" fill="#e6e6e6"                     fill-opacity="0.02" />
<rect width="1" height="1" x="11" y="5" fill="#e6e6e6"                     fill-opacity="0.01" />
<rect width="1" height="1" x="13" y="5" fill="#e6e6e6"                     fill-opacity="0.19" />
<rect width="1" height="1" x="14" y="5" fill="#e6e6e6"                     fill-opacity="0.84" />
<rect width="1" height="1" x="15" y="5" fill="#e6e6e6"                     fill-opacity="0.07" />
<rect width="1" height="1" x="0" y="6" fill="#e6e6e6"                     fill-opacity="0.56" />
<rect width="1" height="1" x="1" y="6" fill="#e6e6e6"                     fill-opacity="0.57" />
<rect width="1" height="1" x="3" y="6" fill="#e6e6e6"                     fill-opacity="0.01" />
<rect width="1" height="1" x="6" y="6" fill="#e6e6e6"                     fill-opacity="0.56" />
<rect width="1" height="1" x="7" y="6" fill="#e6e6e6"                     fill-opacity="0.88" />
<rect width="1" height="1" x="8" y="6" fill="#e6e6e6"                     fill-opacity="0.87" />
<rect width="1" height="1" x="9" y="6" fill="#e6e6e6"                     fill-opacity="0.31" />
<rect width="1" height="1" x="11" y="6" fill="#e6e6e6"                     fill-opacity="0.02" />
<rect width="1" height="1" x="13" y="6" fill="#e6e6e6"                     fill-opacity="0.02" />
<rect width="1" height="1" x="14" y="6" fill="#e6e6e6"                     fill-opacity="0.80" />
<rect width="1" height="1" x="15" y="6" fill="#e6e6e6"                     fill-opacity="0.24" />
<rect width="1" height="1" x="0" y="7" fill="#e6e6e6"                     fill-opacity="0.64" />
<rect width="1" height="1" x="1" y="7" fill="#e6e6e6"                     fill-opacity="0.43" />
<rect width="1" height="1" x="5" y="7" fill="#e6e6e6"                     fill-opacity="0.57" />
<rect width="1" height="1" x="6" y="7" fill="#e6e6e6"                     fill-opacity="0.83" />
<rect width="1" height="1" x="7" y="7" fill="#e6e6e6"                     fill-opacity="0.04" />
<rect width="1" height="1" x="8" y="7" fill="#e6e6e6"                     fill-opacity="0.27" />
<rect width="1" height="1" x="9" y="7" fill="#e6e6e6"                     fill-opacity="0.91" />
<rect width="1" height="1" x="10" y="7" fill="#e6e6e6"                     fill-opacity="0.30" />
<rect width="1" height="1" x="12" y="7" fill="#e6e6e6"                     fill-opacity="0.01" />
<rect width="1" height="1" x="14" y="7" fill="#e6e6e6"                     fill-opacity="0.69" />
<rect width="1" height="1" x="15" y="7" fill="#e6e6e6"                     fill-opacity="0.39" />
<rect width="1" height="1" x="0" y="8" fill="#e6e6e6"                     fill-opacity="0.62" />
<rect width="1" height="1" x="1" y="8" fill="#e6e6e6"                     fill-opacity="0.47" />
<rect width="1" height="1" x="4" y="8" fill="#e6e6e6"                     fill-opacity="0.57" />
<rect width="1" height="1" x="5" y="8" fill="#e6e6e6"                     fill-opacity="0.82" />
<rect width="1" height="1" x="6" y="8" fill="#e6e6e6"                     fill-opacity="0.07" />
<rect width="1" height="1" x="9" y="8" fill="#e6e6e6"                     fill-opacity="0.29" />
<rect width="1" height="1" x="10" y="8" fill="#e6e6e6"                     fill-opacity="0.92" />
<rect width="1" height="1" x="11" y="8" fill="#e6e6e6"                     fill-opacity="0.31" />
<rect width="1" height="1" x="14" y="8" fill="#e6e6e6"                     fill-opacity="0.72" />
<rect width="1" height="1" x="15" y="8" fill="#e6e6e6"                     fill-opacity="0.35" />
<rect width="1" height="1" x="0" y="9" fill="#e6e6e6"                     fill-opacity="0.51" />
<rect width="1" height="1" x="1" y="9" fill="#e6e6e6"                     fill-opacity="0.64" />
<rect width="1" height="1" x="3" y="9" fill="#e6e6e6"                     fill-opacity="0.01" />
<rect width="1" height="1" x="4" y="9" fill="#e6e6e6"                     fill-opacity="0.40" />
<rect width="1" height="1" x="5" y="9" fill="#e6e6e6"                     fill-opacity="0.13" />
<rect width="1" height="1" x="7" y="9" fill="#e6e6e6"                     fill-opacity="0.01" />
<rect width="1" height="1" x="8" y="9" fill="#e6e6e6"                     fill-opacity="0.01" />
<rect width="1" height="1" x="10" y="9" fill="#e6e6e6"                     fill-opacity="0.31" />
<rect width="1" height="1" x="11" y="9" fill="#e6e6e6"                     fill-opacity="0.27" />
<rect width="1" height="1" x="13" y="9" fill="#e6e6e6"                     fill-opacity="0.05" />
<rect width="1" height="1" x="14" y="9" fill="#e6e6e6"                     fill-opacity="0.84" />
<rect width="1" height="1" x="15" y="9" fill="#e6e6e6"                     fill-opacity="0.18" />
<rect width="1" height="1" x="0" y="10" fill="#e6e6e6"                     fill-opacity="0.24" />
<rect width="1" height="1" x="1" y="10" fill="#e6e6e6"                     fill-opacity="0.84" />
<rect width="1" height="1" x="2" y="10" fill="#e6e6e6"                     fill-opacity="0.05" />
<rect width="1" height="1" x="6" y="10" fill="#e6e6e6"                     fill-opacity="0.01" />
<rect width="1" height="1" x="9" y="10" fill="#e6e6e6"                     fill-opacity="0.01" />
<rect width="1" height="1" x="13" y="10" fill="#e6e6e6"                     fill-opacity="0.32" />
<rect width="1" height="1" x="14" y="10" fill="#e6e6e6"                     fill-opacity="0.79" />
<rect width="1" height="1" x="15" y="10" fill="#e6e6e6"                     fill-opacity="0.01" />
<rect width="1" height="1" x="1" y="11" fill="#e6e6e6"                     fill-opacity="0.71" />
<rect width="1" height="1" x="2" y="11" fill="#e6e6e6"                     fill-opacity="0.58" />
<rect width="1" height="1" x="4" y="11" fill="#e6e6e6"                     fill-opacity="0.02" />
<rect width="1" height="1" x="5" y="11" fill="#e6e6e6"                     fill-opacity="0.01" />
<rect width="1" height="1" x="9" y="11" fill="#e6e6e6"                     fill-opacity="0.00" />
<rect width="1" height="1" x="10" y="11" fill="#e6e6e6"                     fill-opacity="0.02" />
<rect width="1" height="1" x="13" y="11" fill="#e6e6e6"                     fill-opacity="0.84" />
<rect width="1" height="1" x="14" y="11" fill="#e6e6e6"                     fill-opacity="0.38" />
<rect width="1" height="1" x="1" y="12" fill="#e6e6e6"                     fill-opacity="0.11" />
<rect width="1" height="1" x="2" y="12" fill="#e6e6e6"                     fill-opacity="0.88" />
<rect width="1" height="1" x="3" y="12" fill="#e6e6e6"                     fill-opacity="0.46" />
<rect width="1" height="1" x="12" y="12" fill="#e6e6e6"                     fill-opacity="0.74" />
<rect width="1" height="1" x="13" y="12" fill="#e6e6e6"                     fill-opacity="0.66" />
<rect width="1" height="1" x="0" y="13" fill="#e6e6e6"                     fill-opacity="0.01" />
<rect width="1" height="1" x="2" y="13" fill="#e6e6e6"                     fill-opacity="0.17" />
<rect width="1" height="1" x="3" y="13" fill="#e6e6e6"                     fill-opacity="0.85" />
<rect width="1" height="1" x="4" y="13" fill="#e6e6e6"                     fill-opacity="0.68" />
<rect width="1" height="1" x="5" y="13" fill="#e6e6e6"                     fill-opacity="0.18" />
<rect width="1" height="1" x="6" y="13" fill="#e6e6e6"                     fill-opacity="0.03" />
<rect width="1" height="1" x="9" y="13" fill="#e6e6e6"                     fill-opacity="0.05" />
<rect width="1" height="1" x="10" y="13" fill="#e6e6e6"                     fill-opacity="0.32" />
<rect width="1" height="1" x="11" y="13" fill="#e6e6e6"                     fill-opacity="0.84" />
<rect width="1" height="1" x="12" y="13" fill="#e6e6e6"                     fill-opacity="0.66" />
<rect width="1" height="1" x="13" y="13" fill="#e6e6e6"                     fill-opacity="0.01" />
<rect width="1" height="1" x="15" y="13" fill="#e6e6e6"                     fill-opacity="0.00" />
<rect width="1" height="1" x="1" y="14" fill="#e6e6e6"                     fill-opacity="0.01" />
<rect width="1" height="1" x="3" y="14" fill="#e6e6e6"                     fill-opacity="0.06" />
<rect width="1" height="1" x="4" y="14" fill="#e6e6e6"                     fill-opacity="0.56" />
<rect width="1" height="1" x="5" y="14" fill="#e6e6e6"                     fill-opacity="0.84" />
<rect width="1" height="1" x="6" y="14" fill="#e6e6e6"                     fill-opacity="0.80" />
<rect width="1" height="1" x="7" y="14" fill="#e6e6e6"                     fill-opacity="0.69" />
<rect width="1" height="1" x="8" y="14" fill="#e6e6e6"                     fill-opacity="0.72" />
<rect width="1" height="1" x="9" y="14" fill="#e6e6e6"                     fill-opacity="0.84" />
<rect width="1" height="1" x="10" y="14" fill="#e6e6e6"                     fill-opacity="0.80" />
<rect width="1" height="1" x="11" y="14" fill="#e6e6e6"                     fill-opacity="0.38" />
<rect width="1" height="1" x="14" y="14" fill="#e6e6e6"                     fill-opacity="0.00" />
<rect width="1" height="1" x="2" y="15" fill="#e6e6e6"                     fill-opacity="0.01" />
<rect width="1" height="1" x="5" y="15" fill="#e6e6e6"                     fill-opacity="0.07" />
<rect width="1" height="1" x="6" y="15" fill="#e6e6e6"                     fill-opacity="0.24" />
<rect width="1" height="1" x="7" y="15" fill="#e6e6e6"                     fill-opacity="0.39" />
<rect width="1" height="1" x="8" y="15" fill="#e6e6e6"                     fill-opacity="0.35" />
<rect width="1" height="1" x="9" y="15" fill="#e6e6e6"                     fill-opacity="0.18" />
<rect width="1" height="1" x="10" y="15" fill="#e6e6e6"                     fill-opacity="0.02" />
<rect width="1" height="1" x="13" y="15" fill="#e6e6e6"                     fill-opacity="0.00" />
</svg>
