<?xml version="1.0" encoding="UTF-8" standalone="no"?>
<svg id="svg2" xmlns="http://www.w3.org/2000/svg" version="1.1"                 width="16" height="16" viewBox="0 0 16 16">
<rect width="1" height="1" x="7" y="0" fill="#e6e6e6"                     fill-opacity="0.41" />
<rect width="1" height="1" x="8" y="0" fill="#e6e6e6"                     fill-opacity="0.24" />
<rect width="1" height="1" x="10" y="0" fill="#e6e6e6"                     fill-opacity="0.01" />
<rect width="1" height="1" x="5" y="1" fill="#e6e6e6"                     fill-opacity="0.00" />
<rect width="1" height="1" x="7" y="1" fill="#e6e6e6"                     fill-opacity="0.74" />
<rect width="1" height="1" x="8" y="1" fill="#e6e6e6"                     fill-opacity="0.43" />
<rect width="1" height="1" x="10" y="1" fill="#e6e6e6"                     fill-opacity="0.02" />
<rect width="1" height="1" x="5" y="2" fill="#e6e6e6"                     fill-opacity="0.00" />
<rect width="1" height="1" x="7" y="2" fill="#e6e6e6"                     fill-opacity="0.68" />
<rect width="1" height="1" x="8" y="2" fill="#e6e6e6"                     fill-opacity="0.40" />
<rect width="1" height="1" x="10" y="2" fill="#e6e6e6"                     fill-opacity="0.01" />
<rect width="1" height="1" x="5" y="3" fill="#e6e6e6"                     fill-opacity="0.00" />
<rect width="1" height="1" x="7" y="3" fill="#e6e6e6"                     fill-opacity="0.69" />
<rect width="1" height="1" x="8" y="3" fill="#e6e6e6"                     fill-opacity="0.40" />
<rect width="1" height="1" x="10" y="3" fill="#e6e6e6"                     fill-opacity="0.01" />
<rect width="1" height="1" x="5" y="4" fill="#e6e6e6"                     fill-opacity="0.00" />
<rect width="1" height="1" x="7" y="4" fill="#e6e6e6"                     fill-opacity="0.69" />
<rect width="1" height="1" x="8" y="4" fill="#e6e6e6"                     fill-opacity="0.40" />
<rect width="1" height="1" x="10" y="4" fill="#e6e6e6"                     fill-opacity="0.01" />
<rect width="1" height="1" x="5" y="5" fill="#e6e6e6"                     fill-opacity="0.00" />
<rect width="1" height="1" x="7" y="5" fill="#e6e6e6"                     fill-opacity="0.69" />
<rect width="1" height="1" x="8" y="5" fill="#e6e6e6"                     fill-opacity="0.40" />
<rect width="1" height="1" x="10" y="5" fill="#e6e6e6"                     fill-opacity="0.01" />
<rect width="1" height="1" x="5" y="6" fill="#e6e6e6"                     fill-opacity="0.00" />
<rect width="1" height="1" x="7" y="6" fill="#e6e6e6"                     fill-opacity="0.69" />
<rect width="1" height="1" x="8" y="6" fill="#e6e6e6"                     fill-opacity="0.40" />
<rect width="1" height="1" x="10" y="6" fill="#e6e6e6"                     fill-opacity="0.01" />
<rect width="1" height="1" x="5" y="7" fill="#e6e6e6"                     fill-opacity="0.00" />
<rect width="1" height="1" x="7" y="7" fill="#e6e6e6"                     fill-opacity="0.69" />
<rect width="1" height="1" x="8" y="7" fill="#e6e6e6"                     fill-opacity="0.40" />
<rect width="1" height="1" x="10" y="7" fill="#e6e6e6"                     fill-opacity="0.01" />
<rect width="1" height="1" x="3" y="8" fill="#e6e6e6"                     fill-opacity="0.00" />
<rect width="1" height="1" x="4" y="8" fill="#e6e6e6"                     fill-opacity="0.01" />
<rect width="1" height="1" x="5" y="8" fill="#e6e6e6"                     fill-opacity="0.00" />
<rect width="1" height="1" x="7" y="8" fill="#e6e6e6"                     fill-opacity="0.69" />
<rect width="1" height="1" x="8" y="8" fill="#e6e6e6"                     fill-opacity="0.40" />
<rect width="1" height="1" x="10" y="8" fill="#e6e6e6"                     fill-opacity="0.02" />
<rect width="1" height="1" x="11" y="8" fill="#e6e6e6"                     fill-opacity="0.01" />
<rect width="1" height="1" x="2" y="9" fill="#e6e6e6"                     fill-opacity="0.00" />
<rect width="1" height="1" x="5" y="9" fill="#e6e6e6"                     fill-opacity="0.01" />
<rect width="1" height="1" x="7" y="9" fill="#e6e6e6"                     fill-opacity="0.69" />
<rect width="1" height="1" x="8" y="9" fill="#e6e6e6"                     fill-opacity="0.40" />
<rect width="1" height="1" x="3" y="10" fill="#e6e6e6"                     fill-opacity="0.12" />
<rect width="1" height="1" x="4" y="10" fill="#e6e6e6"                     fill-opacity="0.33" />
<rect width="1" height="1" x="7" y="10" fill="#e6e6e6"                     fill-opacity="0.69" />
<rect width="1" height="1" x="8" y="10" fill="#e6e6e6"                     fill-opacity="0.41" />
<rect width="1" height="1" x="10" y="10" fill="#e6e6e6"                     fill-opacity="0.07" />
<rect width="1" height="1" x="11" y="10" fill="#e6e6e6"                     fill-opacity="0.35" />
<rect width="1" height="1" x="12" y="10" fill="#e6e6e6"                     fill-opacity="0.00" />
<rect width="1" height="1" x="1" y="11" fill="#e6e6e6"                     fill-opacity="0.00" />
<rect width="1" height="1" x="3" y="11" fill="#e6e6e6"                     fill-opacity="0.10" />
<rect width="1" height="1" x="4" y="11" fill="#e6e6e6"                     fill-opacity="0.87" />
<rect width="1" height="1" x="5" y="11" fill="#e6e6e6"                     fill-opacity="0.49" />
<rect width="1" height="1" x="7" y="11" fill="#e6e6e6"                     fill-opacity="0.70" />
<rect width="1" height="1" x="8" y="11" fill="#e6e6e6"                     fill-opacity="0.38" />
<rect width="1" height="1" x="10" y="11" fill="#e6e6e6"                     fill-opacity="0.76" />
<rect width="1" height="1" x="11" y="11" fill="#e6e6e6"                     fill-opacity="0.67" />
<rect width="1" height="1" x="13" y="11" fill="#e6e6e6"                     fill-opacity="0.00" />
<rect width="1" height="1" x="2" y="12" fill="#e6e6e6"                     fill-opacity="0.01" />
<rect width="1" height="1" x="4" y="12" fill="#e6e6e6"                     fill-opacity="0.13" />
<rect width="1" height="1" x="5" y="12" fill="#e6e6e6"                     fill-opacity="0.89" />
<rect width="1" height="1" x="6" y="12" fill="#e6e6e6"                     fill-opacity="0.44" />
<rect width="1" height="1" x="7" y="12" fill="#e6e6e6"                     fill-opacity="0.64" />
<rect width="1" height="1" x="8" y="12" fill="#e6e6e6"                     fill-opacity="0.44" />
<rect width="1" height="1" x="9" y="12" fill="#e6e6e6"                     fill-opacity="0.66" />
<rect width="1" height="1" x="10" y="12" fill="#e6e6e6"                     fill-opacity="0.72" />
<rect width="1" height="1" x="3" y="13" fill="#e6e6e6"                     fill-opacity="0.01" />
<rect width="1" height="1" x="5" y="13" fill="#e6e6e6"                     fill-opacity="0.15" />
<rect width="1" height="1" x="6" y="13" fill="#e6e6e6"                     fill-opacity="0.85" />
<rect width="1" height="1" x="7" y="13" fill="#e6e6e6"                     fill-opacity="0.95" />
<rect width="1" height="1" x="8" y="13" fill="#e6e6e6"                     fill-opacity="0.96" />
<rect width="1" height="1" x="9" y="13" fill="#e6e6e6"                     fill-opacity="0.66" />
<rect width="1" height="1" x="12" y="13" fill="#e6e6e6"                     fill-opacity="0.00" />
<rect width="1" height="1" x="4" y="14" fill="#e6e6e6"                     fill-opacity="0.02" />
<rect width="1" height="1" x="6" y="14" fill="#e6e6e6"                     fill-opacity="0.13" />
<rect width="1" height="1" x="7" y="14" fill="#e6e6e6"                     fill-opacity="0.88" />
<rect width="1" height="1" x="8" y="14" fill="#e6e6e6"                     fill-opacity="0.67" />
<rect width="1" height="1" x="11" y="14" fill="#e6e6e6"                     fill-opacity="0.01" />
<rect width="1" height="1" x="5" y="15" fill="#e6e6e6"                     fill-opacity="0.01" />
<rect width="1" height="1" x="7" y="15" fill="#e6e6e6"                     fill-opacity="0.09" />
<rect width="1" height="1" x="8" y="15" fill="#e6e6e6"                     fill-opacity="0.04" />
<rect width="1" height="1" x="10" y="15" fill="#e6e6e6"                     fill-opacity="0.01" />
</svg>
