<?xml version="1.0" encoding="UTF-8" standalone="no"?>
<svg id="svg2" xmlns="http://www.w3.org/2000/svg" version="1.1"                 width="10" height="10" viewBox="0 0 10 10">
<rect width="1" height="1" x="7" y="0" fill="#8d999f"                     fill-opacity="0.21" />
<rect width="1" height="1" x="8" y="0" fill="#8d999f"                     fill-opacity="0.44" />
<rect width="1" height="1" x="9" y="0" fill="#8d999f"                     fill-opacity="0.21" />
<rect width="1" height="1" x="7" y="1" fill="#8d999f"                     fill-opacity="0.61" />
<rect width="1" height="1" x="8" y="1" fill="#8d999f"                     fill-opacity="1.00" />
<rect width="1" height="1" x="9" y="1" fill="#8d999f"                     fill-opacity="0.61" />
<rect width="1" height="1" x="7" y="2" fill="#8d999f"                     fill-opacity="0.28" />
<rect width="1" height="1" x="8" y="2" fill="#8d999f"                     fill-opacity="0.62" />
<rect width="1" height="1" x="9" y="2" fill="#8d999f"                     fill-opacity="0.28" />
<rect width="1" height="1" x="4" y="3" fill="#8d999f"                     fill-opacity="0.09" />
<rect width="1" height="1" x="5" y="3" fill="#8d999f"                     fill-opacity="0.10" />
<rect width="1" height="1" x="6" y="3" fill="#8d999f"                     fill-opacity="0.00" />
<rect width="1" height="1" x="7" y="3" fill="#8d999f"                     fill-opacity="0.01" />
<rect width="1" height="1" x="8" y="3" fill="#8d999f"                     fill-opacity="0.08" />
<rect width="1" height="1" x="9" y="3" fill="#8d999f"                     fill-opacity="0.02" />
<rect width="1" height="1" x="3" y="4" fill="#8d999f"                     fill-opacity="0.07" />
<rect width="1" height="1" x="4" y="4" fill="#8d999f"                     fill-opacity="0.87" />
<rect width="1" height="1" x="5" y="4" fill="#8d999f"                     fill-opacity="0.95" />
<rect width="1" height="1" x="6" y="4" fill="#8d999f"                     fill-opacity="0.10" />
<rect width="1" height="1" x="7" y="4" fill="#8d999f"                     fill-opacity="0.41" />
<rect width="1" height="1" x="8" y="4" fill="#8d999f"                     fill-opacity="0.96" />
<rect width="1" height="1" x="9" y="4" fill="#8d999f"                     fill-opacity="0.49" />
<rect width="1" height="1" x="3" y="5" fill="#8d999f"                     fill-opacity="0.07" />
<rect width="1" height="1" x="4" y="5" fill="#8d999f"                     fill-opacity="0.90" />
<rect width="1" height="1" x="5" y="5" fill="#8d999f"                     fill-opacity="0.98" />
<rect width="1" height="1" x="6" y="5" fill="#8d999f"                     fill-opacity="0.11" />
<rect width="1" height="1" x="7" y="5" fill="#8d999f"                     fill-opacity="0.43" />
<rect width="1" height="1" x="8" y="5" fill="#8d999f"                     fill-opacity="1.00" />
<rect width="1" height="1" x="9" y="5" fill="#8d999f"                     fill-opacity="0.51" />
<rect width="1" height="1" x="3" y="6" fill="#8d999f"                     fill-opacity="0.00" />
<rect width="1" height="1" x="4" y="6" fill="#8d999f"                     fill-opacity="0.07" />
<rect width="1" height="1" x="5" y="6" fill="#8d999f"                     fill-opacity="0.08" />
<rect width="1" height="1" x="7" y="6" fill="#8d999f"                     fill-opacity="0.03" />
<rect width="1" height="1" x="8" y="6" fill="#8d999f"                     fill-opacity="0.12" />
<rect width="1" height="1" x="9" y="6" fill="#8d999f"                     fill-opacity="0.04" />
<rect width="1" height="1" x="0" y="7" fill="#8d999f"                     fill-opacity="0.22" />
<rect width="1" height="1" x="1" y="7" fill="#8d999f"                     fill-opacity="0.64" />
<rect width="1" height="1" x="2" y="7" fill="#8d999f"                     fill-opacity="0.32" />
<rect width="1" height="1" x="4" y="7" fill="#8d999f"                     fill-opacity="0.45" />
<rect width="1" height="1" x="5" y="7" fill="#8d999f"                     fill-opacity="0.50" />
<rect width="1" height="1" x="6" y="7" fill="#8d999f"                     fill-opacity="0.04" />
<rect width="1" height="1" x="7" y="7" fill="#8d999f"                     fill-opacity="0.21" />
<rect width="1" height="1" x="8" y="7" fill="#8d999f"                     fill-opacity="0.55" />
<rect width="1" height="1" x="9" y="7" fill="#8d999f"                     fill-opacity="0.25" />
<rect width="1" height="1" x="0" y="8" fill="#8d999f"                     fill-opacity="0.47" />
<rect width="1" height="1" x="1" y="8" fill="#8d999f"                     fill-opacity="1.00" />
<rect width="1" height="1" x="2" y="8" fill="#8d999f"                     fill-opacity="0.68" />
<rect width="1" height="1" x="3" y="8" fill="#8d999f"                     fill-opacity="0.03" />
<rect width="1" height="1" x="4" y="8" fill="#8d999f"                     fill-opacity="1.00" />
<rect width="1" height="1" x="5" y="8" fill="#8d999f"                     fill-opacity="1.00" />
<rect width="1" height="1" x="6" y="8" fill="#8d999f"                     fill-opacity="0.13" />
<rect width="1" height="1" x="7" y="8" fill="#8d999f"                     fill-opacity="0.51" />
<rect width="1" height="1" x="8" y="8" fill="#8d999f"                     fill-opacity="1.00" />
<rect width="1" height="1" x="9" y="8" fill="#8d999f"                     fill-opacity="0.60" />
<rect width="1" height="1" x="0" y="9" fill="#8d999f"                     fill-opacity="0.19" />
<rect width="1" height="1" x="1" y="9" fill="#8d999f"                     fill-opacity="0.55" />
<rect width="1" height="1" x="2" y="9" fill="#8d999f"                     fill-opacity="0.29" />
<rect width="1" height="1" x="3" y="9" fill="#8d999f"                     fill-opacity="0.01" />
<rect width="1" height="1" x="4" y="9" fill="#8d999f"                     fill-opacity="0.46" />
<rect width="1" height="1" x="5" y="9" fill="#8d999f"                     fill-opacity="0.51" />
<rect width="1" height="1" x="6" y="9" fill="#8d999f"                     fill-opacity="0.04" />
<rect width="1" height="1" x="7" y="9" fill="#8d999f"                     fill-opacity="0.22" />
<rect width="1" height="1" x="8" y="9" fill="#8d999f"                     fill-opacity="0.54" />
<rect width="1" height="1" x="9" y="9" fill="#8d999f"                     fill-opacity="0.25" />
</svg>
