<?xml version="1.0" encoding="UTF-8" standalone="no"?>
<svg id="svg2" xmlns="http://www.w3.org/2000/svg" version="1.1"                 width="16" height="16" viewBox="0 0 16 16">
<rect width="1" height="1" x="1" y="11" fill="#e6e6e6"                     fill-opacity="0.00" />
<rect width="1" height="1" x="2" y="11" fill="#e6e6e6"                     fill-opacity="0.01" />
<rect width="1" height="1" x="3" y="11" fill="#e6e6e6"                     fill-opacity="0.01" />
<rect width="1" height="1" x="4" y="11" fill="#e6e6e6"                     fill-opacity="0.01" />
<rect width="1" height="1" x="5" y="11" fill="#e6e6e6"                     fill-opacity="0.01" />
<rect width="1" height="1" x="6" y="11" fill="#e6e6e6"                     fill-opacity="0.01" />
<rect width="1" height="1" x="7" y="11" fill="#e6e6e6"                     fill-opacity="0.01" />
<rect width="1" height="1" x="8" y="11" fill="#e6e6e6"                     fill-opacity="0.01" />
<rect width="1" height="1" x="9" y="11" fill="#e6e6e6"                     fill-opacity="0.01" />
<rect width="1" height="1" x="10" y="11" fill="#e6e6e6"                     fill-opacity="0.01" />
<rect width="1" height="1" x="11" y="11" fill="#e6e6e6"                     fill-opacity="0.01" />
<rect width="1" height="1" x="12" y="11" fill="#e6e6e6"                     fill-opacity="0.01" />
<rect width="1" height="1" x="13" y="11" fill="#e6e6e6"                     fill-opacity="0.01" />
<rect width="1" height="1" x="1" y="13" fill="#e6e6e6"                     fill-opacity="0.14" />
<rect width="1" height="1" x="2" y="13" fill="#e6e6e6"                     fill-opacity="0.21" />
<rect width="1" height="1" x="3" y="13" fill="#e6e6e6"                     fill-opacity="0.20" />
<rect width="1" height="1" x="4" y="13" fill="#e6e6e6"                     fill-opacity="0.20" />
<rect width="1" height="1" x="5" y="13" fill="#e6e6e6"                     fill-opacity="0.20" />
<rect width="1" height="1" x="6" y="13" fill="#e6e6e6"                     fill-opacity="0.20" />
<rect width="1" height="1" x="7" y="13" fill="#e6e6e6"                     fill-opacity="0.20" />
<rect width="1" height="1" x="8" y="13" fill="#e6e6e6"                     fill-opacity="0.20" />
<rect width="1" height="1" x="9" y="13" fill="#e6e6e6"                     fill-opacity="0.20" />
<rect width="1" height="1" x="10" y="13" fill="#e6e6e6"                     fill-opacity="0.20" />
<rect width="1" height="1" x="11" y="13" fill="#e6e6e6"                     fill-opacity="0.20" />
<rect width="1" height="1" x="12" y="13" fill="#e6e6e6"                     fill-opacity="0.20" />
<rect width="1" height="1" x="13" y="13" fill="#e6e6e6"                     fill-opacity="0.21" />
<rect width="1" height="1" x="14" y="13" fill="#e6e6e6"                     fill-opacity="0.07" />
<rect width="1" height="1" x="1" y="14" fill="#e6e6e6"                     fill-opacity="0.54" />
<rect width="1" height="1" x="2" y="14" fill="#e6e6e6"                     fill-opacity="0.85" />
<rect width="1" height="1" x="3" y="14" fill="#e6e6e6"                     fill-opacity="0.80" />
<rect width="1" height="1" x="4" y="14" fill="#e6e6e6"                     fill-opacity="0.81" />
<rect width="1" height="1" x="5" y="14" fill="#e6e6e6"                     fill-opacity="0.81" />
<rect width="1" height="1" x="6" y="14" fill="#e6e6e6"                     fill-opacity="0.81" />
<rect width="1" height="1" x="7" y="14" fill="#e6e6e6"                     fill-opacity="0.81" />
<rect width="1" height="1" x="8" y="14" fill="#e6e6e6"                     fill-opacity="0.81" />
<rect width="1" height="1" x="9" y="14" fill="#e6e6e6"                     fill-opacity="0.81" />
<rect width="1" height="1" x="10" y="14" fill="#e6e6e6"                     fill-opacity="0.81" />
<rect width="1" height="1" x="11" y="14" fill="#e6e6e6"                     fill-opacity="0.81" />
<rect width="1" height="1" x="12" y="14" fill="#e6e6e6"                     fill-opacity="0.81" />
<rect width="1" height="1" x="13" y="14" fill="#e6e6e6"                     fill-opacity="0.83" />
<rect width="1" height="1" x="14" y="14" fill="#e6e6e6"                     fill-opacity="0.29" />
<rect width="1" height="1" x="1" y="15" fill="#e6e6e6"                     fill-opacity="0.02" />
<rect width="1" height="1" x="2" y="15" fill="#e6e6e6"                     fill-opacity="0.03" />
<rect width="1" height="1" x="3" y="15" fill="#e6e6e6"                     fill-opacity="0.03" />
<rect width="1" height="1" x="4" y="15" fill="#e6e6e6"                     fill-opacity="0.03" />
<rect width="1" height="1" x="5" y="15" fill="#e6e6e6"                     fill-opacity="0.03" />
<rect width="1" height="1" x="6" y="15" fill="#e6e6e6"                     fill-opacity="0.03" />
<rect width="1" height="1" x="7" y="15" fill="#e6e6e6"                     fill-opacity="0.03" />
<rect width="1" height="1" x="8" y="15" fill="#e6e6e6"                     fill-opacity="0.03" />
<rect width="1" height="1" x="9" y="15" fill="#e6e6e6"                     fill-opacity="0.03" />
<rect width="1" height="1" x="10" y="15" fill="#e6e6e6"                     fill-opacity="0.03" />
<rect width="1" height="1" x="11" y="15" fill="#e6e6e6"                     fill-opacity="0.03" />
<rect width="1" height="1" x="12" y="15" fill="#e6e6e6"                     fill-opacity="0.03" />
<rect width="1" height="1" x="13" y="15" fill="#e6e6e6"                     fill-opacity="0.03" />
<rect width="1" height="1" x="14" y="15" fill="#e6e6e6"                     fill-opacity="0.01" />
</svg>
