<?xml version="1.0" encoding="UTF-8" standalone="no"?>
<svg id="svg2" xmlns="http://www.w3.org/2000/svg" version="1.1"                 width="16" height="16" viewBox="0 0 16 16">
<rect width="1" height="1" x="2" y="0" fill="#e6e6e6"                     fill-opacity="0.00" />
<rect width="1" height="1" x="3" y="0" fill="#e6e6e6"                     fill-opacity="0.01" />
<rect width="1" height="1" x="4" y="0" fill="#e6e6e6"                     fill-opacity="0.01" />
<rect width="1" height="1" x="5" y="0" fill="#e6e6e6"                     fill-opacity="0.01" />
<rect width="1" height="1" x="6" y="0" fill="#e6e6e6"                     fill-opacity="0.01" />
<rect width="1" height="1" x="7" y="0" fill="#e6e6e6"                     fill-opacity="0.01" />
<rect width="1" height="1" x="8" y="0" fill="#e6e6e6"                     fill-opacity="0.01" />
<rect width="1" height="1" x="9" y="0" fill="#e6e6e6"                     fill-opacity="0.01" />
<rect width="1" height="1" x="10" y="0" fill="#e6e6e6"                     fill-opacity="0.01" />
<rect width="1" height="1" x="11" y="0" fill="#e6e6e6"                     fill-opacity="0.01" />
<rect width="1" height="1" x="12" y="0" fill="#e6e6e6"                     fill-opacity="0.01" />
<rect width="1" height="1" x="2" y="2" fill="#e6e6e6"                     fill-opacity="0.17" />
<rect width="1" height="1" x="3" y="2" fill="#e6e6e6"                     fill-opacity="0.29" />
<rect width="1" height="1" x="4" y="2" fill="#e6e6e6"                     fill-opacity="0.27" />
<rect width="1" height="1" x="5" y="2" fill="#e6e6e6"                     fill-opacity="0.27" />
<rect width="1" height="1" x="6" y="2" fill="#e6e6e6"                     fill-opacity="0.27" />
<rect width="1" height="1" x="7" y="2" fill="#e6e6e6"                     fill-opacity="0.27" />
<rect width="1" height="1" x="8" y="2" fill="#e6e6e6"                     fill-opacity="0.27" />
<rect width="1" height="1" x="9" y="2" fill="#e6e6e6"                     fill-opacity="0.27" />
<rect width="1" height="1" x="10" y="2" fill="#e6e6e6"                     fill-opacity="0.27" />
<rect width="1" height="1" x="11" y="2" fill="#e6e6e6"                     fill-opacity="0.27" />
<rect width="1" height="1" x="12" y="2" fill="#e6e6e6"                     fill-opacity="0.28" />
<rect width="1" height="1" x="13" y="2" fill="#e6e6e6"                     fill-opacity="0.09" />
<rect width="1" height="1" x="0" y="3" fill="#e6e6e6"                     fill-opacity="0.00" />
<rect width="1" height="1" x="2" y="3" fill="#e6e6e6"                     fill-opacity="0.51" />
<rect width="1" height="1" x="3" y="3" fill="#e6e6e6"                     fill-opacity="0.85" />
<rect width="1" height="1" x="4" y="3" fill="#e6e6e6"                     fill-opacity="0.78" />
<rect width="1" height="1" x="5" y="3" fill="#e6e6e6"                     fill-opacity="0.80" />
<rect width="1" height="1" x="6" y="3" fill="#e6e6e6"                     fill-opacity="0.80" />
<rect width="1" height="1" x="7" y="3" fill="#e6e6e6"                     fill-opacity="0.80" />
<rect width="1" height="1" x="8" y="3" fill="#e6e6e6"                     fill-opacity="0.80" />
<rect width="1" height="1" x="9" y="3" fill="#e6e6e6"                     fill-opacity="0.80" />
<rect width="1" height="1" x="10" y="3" fill="#e6e6e6"                     fill-opacity="0.80" />
<rect width="1" height="1" x="11" y="3" fill="#e6e6e6"                     fill-opacity="0.79" />
<rect width="1" height="1" x="12" y="3" fill="#e6e6e6"                     fill-opacity="0.83" />
<rect width="1" height="1" x="13" y="3" fill="#e6e6e6"                     fill-opacity="0.26" />
<rect width="1" height="1" x="15" y="3" fill="#e6e6e6"                     fill-opacity="0.00" />
<rect width="1" height="1" x="2" y="5" fill="#e6e6e6"                     fill-opacity="0.00" />
<rect width="1" height="1" x="3" y="5" fill="#e6e6e6"                     fill-opacity="0.01" />
<rect width="1" height="1" x="4" y="5" fill="#e6e6e6"                     fill-opacity="0.01" />
<rect width="1" height="1" x="5" y="5" fill="#e6e6e6"                     fill-opacity="0.01" />
<rect width="1" height="1" x="6" y="5" fill="#e6e6e6"                     fill-opacity="0.01" />
<rect width="1" height="1" x="7" y="5" fill="#e6e6e6"                     fill-opacity="0.01" />
<rect width="1" height="1" x="8" y="5" fill="#e6e6e6"                     fill-opacity="0.01" />
<rect width="1" height="1" x="9" y="5" fill="#e6e6e6"                     fill-opacity="0.01" />
<rect width="1" height="1" x="10" y="5" fill="#e6e6e6"                     fill-opacity="0.01" />
<rect width="1" height="1" x="11" y="5" fill="#e6e6e6"                     fill-opacity="0.01" />
<rect width="1" height="1" x="12" y="5" fill="#e6e6e6"                     fill-opacity="0.01" />
<rect width="1" height="1" x="2" y="7" fill="#e6e6e6"                     fill-opacity="0.44" />
<rect width="1" height="1" x="3" y="7" fill="#e6e6e6"                     fill-opacity="0.74" />
<rect width="1" height="1" x="4" y="7" fill="#e6e6e6"                     fill-opacity="0.68" />
<rect width="1" height="1" x="5" y="7" fill="#e6e6e6"                     fill-opacity="0.69" />
<rect width="1" height="1" x="6" y="7" fill="#e6e6e6"                     fill-opacity="0.69" />
<rect width="1" height="1" x="7" y="7" fill="#e6e6e6"                     fill-opacity="0.69" />
<rect width="1" height="1" x="8" y="7" fill="#e6e6e6"                     fill-opacity="0.69" />
<rect width="1" height="1" x="9" y="7" fill="#e6e6e6"                     fill-opacity="0.69" />
<rect width="1" height="1" x="10" y="7" fill="#e6e6e6"                     fill-opacity="0.69" />
<rect width="1" height="1" x="11" y="7" fill="#e6e6e6"                     fill-opacity="0.69" />
<rect width="1" height="1" x="12" y="7" fill="#e6e6e6"                     fill-opacity="0.72" />
<rect width="1" height="1" x="13" y="7" fill="#e6e6e6"                     fill-opacity="0.23" />
<rect width="1" height="1" x="15" y="7" fill="#e6e6e6"                     fill-opacity="0.00" />
<rect width="1" height="1" x="2" y="8" fill="#e6e6e6"                     fill-opacity="0.26" />
<rect width="1" height="1" x="3" y="8" fill="#e6e6e6"                     fill-opacity="0.43" />
<rect width="1" height="1" x="4" y="8" fill="#e6e6e6"                     fill-opacity="0.40" />
<rect width="1" height="1" x="5" y="8" fill="#e6e6e6"                     fill-opacity="0.40" />
<rect width="1" height="1" x="6" y="8" fill="#e6e6e6"                     fill-opacity="0.40" />
<rect width="1" height="1" x="7" y="8" fill="#e6e6e6"                     fill-opacity="0.40" />
<rect width="1" height="1" x="8" y="8" fill="#e6e6e6"                     fill-opacity="0.40" />
<rect width="1" height="1" x="9" y="8" fill="#e6e6e6"                     fill-opacity="0.40" />
<rect width="1" height="1" x="10" y="8" fill="#e6e6e6"                     fill-opacity="0.40" />
<rect width="1" height="1" x="11" y="8" fill="#e6e6e6"                     fill-opacity="0.40" />
<rect width="1" height="1" x="12" y="8" fill="#e6e6e6"                     fill-opacity="0.42" />
<rect width="1" height="1" x="13" y="8" fill="#e6e6e6"                     fill-opacity="0.13" />
<rect width="1" height="1" x="2" y="11" fill="#e6e6e6"                     fill-opacity="0.13" />
<rect width="1" height="1" x="3" y="11" fill="#e6e6e6"                     fill-opacity="0.22" />
<rect width="1" height="1" x="4" y="11" fill="#e6e6e6"                     fill-opacity="0.20" />
<rect width="1" height="1" x="5" y="11" fill="#e6e6e6"                     fill-opacity="0.20" />
<rect width="1" height="1" x="6" y="11" fill="#e6e6e6"                     fill-opacity="0.20" />
<rect width="1" height="1" x="7" y="11" fill="#e6e6e6"                     fill-opacity="0.20" />
<rect width="1" height="1" x="8" y="11" fill="#e6e6e6"                     fill-opacity="0.20" />
<rect width="1" height="1" x="9" y="11" fill="#e6e6e6"                     fill-opacity="0.20" />
<rect width="1" height="1" x="10" y="11" fill="#e6e6e6"                     fill-opacity="0.20" />
<rect width="1" height="1" x="11" y="11" fill="#e6e6e6"                     fill-opacity="0.20" />
<rect width="1" height="1" x="12" y="11" fill="#e6e6e6"                     fill-opacity="0.21" />
<rect width="1" height="1" x="13" y="11" fill="#e6e6e6"                     fill-opacity="0.07" />
<rect width="1" height="1" x="0" y="12" fill="#e6e6e6"                     fill-opacity="0.00" />
<rect width="1" height="1" x="2" y="12" fill="#e6e6e6"                     fill-opacity="0.51" />
<rect width="1" height="1" x="3" y="12" fill="#e6e6e6"                     fill-opacity="0.86" />
<rect width="1" height="1" x="4" y="12" fill="#e6e6e6"                     fill-opacity="0.80" />
<rect width="1" height="1" x="5" y="12" fill="#e6e6e6"                     fill-opacity="0.81" />
<rect width="1" height="1" x="6" y="12" fill="#e6e6e6"                     fill-opacity="0.81" />
<rect width="1" height="1" x="7" y="12" fill="#e6e6e6"                     fill-opacity="0.81" />
<rect width="1" height="1" x="8" y="12" fill="#e6e6e6"                     fill-opacity="0.81" />
<rect width="1" height="1" x="9" y="12" fill="#e6e6e6"                     fill-opacity="0.81" />
<rect width="1" height="1" x="10" y="12" fill="#e6e6e6"                     fill-opacity="0.81" />
<rect width="1" height="1" x="11" y="12" fill="#e6e6e6"                     fill-opacity="0.80" />
<rect width="1" height="1" x="12" y="12" fill="#e6e6e6"                     fill-opacity="0.85" />
<rect width="1" height="1" x="13" y="12" fill="#e6e6e6"                     fill-opacity="0.27" />
<rect width="1" height="1" x="15" y="12" fill="#e6e6e6"                     fill-opacity="0.00" />
<rect width="1" height="1" x="2" y="13" fill="#e6e6e6"                     fill-opacity="0.02" />
<rect width="1" height="1" x="3" y="13" fill="#e6e6e6"                     fill-opacity="0.03" />
<rect width="1" height="1" x="4" y="13" fill="#e6e6e6"                     fill-opacity="0.03" />
<rect width="1" height="1" x="5" y="13" fill="#e6e6e6"                     fill-opacity="0.03" />
<rect width="1" height="1" x="6" y="13" fill="#e6e6e6"                     fill-opacity="0.03" />
<rect width="1" height="1" x="7" y="13" fill="#e6e6e6"                     fill-opacity="0.03" />
<rect width="1" height="1" x="8" y="13" fill="#e6e6e6"                     fill-opacity="0.03" />
<rect width="1" height="1" x="9" y="13" fill="#e6e6e6"                     fill-opacity="0.03" />
<rect width="1" height="1" x="10" y="13" fill="#e6e6e6"                     fill-opacity="0.03" />
<rect width="1" height="1" x="11" y="13" fill="#e6e6e6"                     fill-opacity="0.03" />
<rect width="1" height="1" x="12" y="13" fill="#e6e6e6"                     fill-opacity="0.03" />
<rect width="1" height="1" x="13" y="13" fill="#e6e6e6"                     fill-opacity="0.01" />
<rect width="1" height="1" x="3" y="15" fill="#e6e6e6"                     fill-opacity="0.00" />
<rect width="1" height="1" x="4" y="15" fill="#e6e6e6"                     fill-opacity="0.00" />
<rect width="1" height="1" x="5" y="15" fill="#e6e6e6"                     fill-opacity="0.00" />
<rect width="1" height="1" x="6" y="15" fill="#e6e6e6"                     fill-opacity="0.00" />
<rect width="1" height="1" x="7" y="15" fill="#e6e6e6"                     fill-opacity="0.00" />
<rect width="1" height="1" x="8" y="15" fill="#e6e6e6"                     fill-opacity="0.00" />
<rect width="1" height="1" x="9" y="15" fill="#e6e6e6"                     fill-opacity="0.00" />
<rect width="1" height="1" x="10" y="15" fill="#e6e6e6"                     fill-opacity="0.00" />
<rect width="1" height="1" x="11" y="15" fill="#e6e6e6"                     fill-opacity="0.00" />
<rect width="1" height="1" x="12" y="15" fill="#e6e6e6"                     fill-opacity="0.00" />
</svg>
