<?xml version="1.0" encoding="UTF-8" standalone="no"?>
<svg id="svg2" xmlns="http://www.w3.org/2000/svg" version="1.1"                 width="16" height="16" viewBox="0 0 16 16">
<rect width="1" height="1" x="5" y="0" fill="#e6e6e6"                     fill-opacity="0.00" />
<rect width="1" height="1" x="7" y="0" fill="#e6e6e6"                     fill-opacity="0.31" />
<rect width="1" height="1" x="8" y="0" fill="#e6e6e6"                     fill-opacity="0.38" />
<rect width="1" height="1" x="10" y="0" fill="#e6e6e6"                     fill-opacity="0.01" />
<rect width="1" height="1" x="5" y="1" fill="#e6e6e6"                     fill-opacity="0.01" />
<rect width="1" height="1" x="7" y="1" fill="#e6e6e6"                     fill-opacity="0.53" />
<rect width="1" height="1" x="8" y="1" fill="#e6e6e6"                     fill-opacity="0.65" />
<rect width="1" height="1" x="10" y="1" fill="#e6e6e6"                     fill-opacity="0.01" />
<rect width="1" height="1" x="5" y="2" fill="#e6e6e6"                     fill-opacity="0.01" />
<rect width="1" height="1" x="7" y="2" fill="#e6e6e6"                     fill-opacity="0.49" />
<rect width="1" height="1" x="8" y="2" fill="#e6e6e6"                     fill-opacity="0.60" />
<rect width="1" height="1" x="10" y="2" fill="#e6e6e6"                     fill-opacity="0.01" />
<rect width="1" height="1" x="5" y="3" fill="#e6e6e6"                     fill-opacity="0.01" />
<rect width="1" height="1" x="7" y="3" fill="#e6e6e6"                     fill-opacity="0.49" />
<rect width="1" height="1" x="8" y="3" fill="#e6e6e6"                     fill-opacity="0.61" />
<rect width="1" height="1" x="10" y="3" fill="#e6e6e6"                     fill-opacity="0.01" />
<rect width="1" height="1" x="5" y="4" fill="#e6e6e6"                     fill-opacity="0.01" />
<rect width="1" height="1" x="7" y="4" fill="#e6e6e6"                     fill-opacity="0.49" />
<rect width="1" height="1" x="8" y="4" fill="#e6e6e6"                     fill-opacity="0.61" />
<rect width="1" height="1" x="10" y="4" fill="#e6e6e6"                     fill-opacity="0.01" />
<rect width="1" height="1" x="5" y="5" fill="#e6e6e6"                     fill-opacity="0.01" />
<rect width="1" height="1" x="7" y="5" fill="#e6e6e6"                     fill-opacity="0.49" />
<rect width="1" height="1" x="8" y="5" fill="#e6e6e6"                     fill-opacity="0.61" />
<rect width="1" height="1" x="10" y="5" fill="#e6e6e6"                     fill-opacity="0.01" />
<rect width="1" height="1" x="4" y="6" fill="#e6e6e6"                     fill-opacity="0.01" />
<rect width="1" height="1" x="5" y="6" fill="#e6e6e6"                     fill-opacity="0.01" />
<rect width="1" height="1" x="7" y="6" fill="#e6e6e6"                     fill-opacity="0.49" />
<rect width="1" height="1" x="8" y="6" fill="#e6e6e6"                     fill-opacity="0.61" />
<rect width="1" height="1" x="10" y="6" fill="#e6e6e6"                     fill-opacity="0.01" />
<rect width="1" height="1" x="11" y="6" fill="#e6e6e6"                     fill-opacity="0.01" />
<rect width="1" height="1" x="7" y="7" fill="#e6e6e6"                     fill-opacity="0.49" />
<rect width="1" height="1" x="8" y="7" fill="#e6e6e6"                     fill-opacity="0.61" />
<rect width="1" height="1" x="10" y="7" fill="#e6e6e6"                     fill-opacity="0.01" />
<rect width="1" height="1" x="4" y="8" fill="#e6e6e6"                     fill-opacity="0.29" />
<rect width="1" height="1" x="5" y="8" fill="#e6e6e6"                     fill-opacity="0.06" />
<rect width="1" height="1" x="7" y="8" fill="#e6e6e6"                     fill-opacity="0.50" />
<rect width="1" height="1" x="8" y="8" fill="#e6e6e6"                     fill-opacity="0.61" />
<rect width="1" height="1" x="10" y="8" fill="#e6e6e6"                     fill-opacity="0.00" />
<rect width="1" height="1" x="11" y="8" fill="#e6e6e6"                     fill-opacity="0.31" />
<rect width="1" height="1" x="12" y="8" fill="#e6e6e6"                     fill-opacity="0.04" />
<rect width="1" height="1" x="4" y="9" fill="#e6e6e6"                     fill-opacity="0.65" />
<rect width="1" height="1" x="5" y="9" fill="#e6e6e6"                     fill-opacity="0.75" />
<rect width="1" height="1" x="7" y="9" fill="#e6e6e6"                     fill-opacity="0.47" />
<rect width="1" height="1" x="8" y="9" fill="#e6e6e6"                     fill-opacity="0.61" />
<rect width="1" height="1" x="10" y="9" fill="#e6e6e6"                     fill-opacity="0.60" />
<rect width="1" height="1" x="11" y="9" fill="#e6e6e6"                     fill-opacity="0.80" />
<rect width="1" height="1" x="12" y="9" fill="#e6e6e6"                     fill-opacity="0.03" />
<rect width="1" height="1" x="4" y="10" fill="#e6e6e6"                     fill-opacity="0.01" />
<rect width="1" height="1" x="5" y="10" fill="#e6e6e6"                     fill-opacity="0.71" />
<rect width="1" height="1" x="6" y="10" fill="#e6e6e6"                     fill-opacity="0.67" />
<rect width="1" height="1" x="7" y="10" fill="#e6e6e6"                     fill-opacity="0.51" />
<rect width="1" height="1" x="8" y="10" fill="#e6e6e6"                     fill-opacity="0.57" />
<rect width="1" height="1" x="9" y="10" fill="#e6e6e6"                     fill-opacity="0.51" />
<rect width="1" height="1" x="10" y="10" fill="#e6e6e6"                     fill-opacity="0.85" />
<rect width="1" height="1" x="11" y="10" fill="#e6e6e6"                     fill-opacity="0.07" />
<rect width="1" height="1" x="13" y="10" fill="#e6e6e6"                     fill-opacity="0.00" />
<rect width="1" height="1" x="3" y="11" fill="#e6e6e6"                     fill-opacity="0.01" />
<rect width="1" height="1" x="5" y="11" fill="#e6e6e6"                     fill-opacity="0.00" />
<rect width="1" height="1" x="6" y="11" fill="#e6e6e6"                     fill-opacity="0.68" />
<rect width="1" height="1" x="7" y="11" fill="#e6e6e6"                     fill-opacity="0.99" />
<rect width="1" height="1" x="8" y="11" fill="#e6e6e6"                     fill-opacity="0.97" />
<rect width="1" height="1" x="9" y="11" fill="#e6e6e6"                     fill-opacity="0.78" />
<rect width="1" height="1" x="10" y="11" fill="#e6e6e6"                     fill-opacity="0.07" />
<rect width="1" height="1" x="12" y="11" fill="#e6e6e6"                     fill-opacity="0.01" />
<rect width="1" height="1" x="1" y="12" fill="#e6e6e6"                     fill-opacity="0.00" />
<rect width="1" height="1" x="2" y="12" fill="#e6e6e6"                     fill-opacity="0.00" />
<rect width="1" height="1" x="3" y="12" fill="#e6e6e6"                     fill-opacity="0.00" />
<rect width="1" height="1" x="4" y="12" fill="#e6e6e6"                     fill-opacity="0.01" />
<rect width="1" height="1" x="7" y="12" fill="#e6e6e6"                     fill-opacity="0.69" />
<rect width="1" height="1" x="8" y="12" fill="#e6e6e6"                     fill-opacity="0.84" />
<rect width="1" height="1" x="9" y="12" fill="#e6e6e6"                     fill-opacity="0.07" />
<rect width="1" height="1" x="11" y="12" fill="#e6e6e6"                     fill-opacity="0.02" />
<rect width="1" height="1" x="13" y="12" fill="#e6e6e6"                     fill-opacity="0.00" />
<rect width="1" height="1" x="14" y="12" fill="#e6e6e6"                     fill-opacity="0.00" />
<rect width="1" height="1" x="8" y="13" fill="#e6e6e6"                     fill-opacity="0.03" />
<rect width="1" height="1" x="0" y="14" fill="#e6e6e6"                     fill-opacity="0.42" />
<rect width="1" height="1" x="1" y="14" fill="#e6e6e6"                     fill-opacity="0.71" />
<rect width="1" height="1" x="2" y="14" fill="#e6e6e6"                     fill-opacity="0.65" />
<rect width="1" height="1" x="3" y="14" fill="#e6e6e6"                     fill-opacity="0.67" />
<rect width="1" height="1" x="4" y="14" fill="#e6e6e6"                     fill-opacity="0.67" />
<rect width="1" height="1" x="5" y="14" fill="#e6e6e6"                     fill-opacity="0.66" />
<rect width="1" height="1" x="6" y="14" fill="#e6e6e6"                     fill-opacity="0.67" />
<rect width="1" height="1" x="7" y="14" fill="#e6e6e6"                     fill-opacity="0.66" />
<rect width="1" height="1" x="8" y="14" fill="#e6e6e6"                     fill-opacity="0.65" />
<rect width="1" height="1" x="9" y="14" fill="#e6e6e6"                     fill-opacity="0.67" />
<rect width="1" height="1" x="10" y="14" fill="#e6e6e6"                     fill-opacity="0.66" />
<rect width="1" height="1" x="11" y="14" fill="#e6e6e6"                     fill-opacity="0.67" />
<rect width="1" height="1" x="12" y="14" fill="#e6e6e6"                     fill-opacity="0.67" />
<rect width="1" height="1" x="13" y="14" fill="#e6e6e6"                     fill-opacity="0.66" />
<rect width="1" height="1" x="14" y="14" fill="#e6e6e6"                     fill-opacity="0.69" />
<rect width="1" height="1" x="15" y="14" fill="#e6e6e6"                     fill-opacity="0.25" />
<rect width="1" height="1" x="0" y="15" fill="#e6e6e6"                     fill-opacity="0.27" />
<rect width="1" height="1" x="1" y="15" fill="#e6e6e6"                     fill-opacity="0.47" />
<rect width="1" height="1" x="2" y="15" fill="#e6e6e6"                     fill-opacity="0.43" />
<rect width="1" height="1" x="3" y="15" fill="#e6e6e6"                     fill-opacity="0.44" />
<rect width="1" height="1" x="4" y="15" fill="#e6e6e6"                     fill-opacity="0.44" />
<rect width="1" height="1" x="5" y="15" fill="#e6e6e6"                     fill-opacity="0.44" />
<rect width="1" height="1" x="6" y="15" fill="#e6e6e6"                     fill-opacity="0.44" />
<rect width="1" height="1" x="7" y="15" fill="#e6e6e6"                     fill-opacity="0.44" />
<rect width="1" height="1" x="8" y="15" fill="#e6e6e6"                     fill-opacity="0.44" />
<rect width="1" height="1" x="9" y="15" fill="#e6e6e6"                     fill-opacity="0.44" />
<rect width="1" height="1" x="10" y="15" fill="#e6e6e6"                     fill-opacity="0.44" />
<rect width="1" height="1" x="11" y="15" fill="#e6e6e6"                     fill-opacity="0.44" />
<rect width="1" height="1" x="12" y="15" fill="#e6e6e6"                     fill-opacity="0.44" />
<rect width="1" height="1" x="13" y="15" fill="#e6e6e6"                     fill-opacity="0.44" />
<rect width="1" height="1" x="14" y="15" fill="#e6e6e6"                     fill-opacity="0.45" />
<rect width="1" height="1" x="15" y="15" fill="#e6e6e6"                     fill-opacity="0.16" />
</svg>
