<?xml version="1.0" encoding="UTF-8" standalone="no"?>
<svg id="svg2" xmlns="http://www.w3.org/2000/svg" version="1.1"                 width="16" height="16" viewBox="0 0 16 16">
<rect width="1" height="1" x="3" y="0" fill="#e6e6e6"                     fill-opacity="0.21" />
<rect width="1" height="1" x="4" y="0" fill="#e6e6e6"                     fill-opacity="0.53" />
<rect width="1" height="1" x="5" y="0" fill="#e6e6e6"                     fill-opacity="0.64" />
<rect width="1" height="1" x="6" y="0" fill="#e6e6e6"                     fill-opacity="0.62" />
<rect width="1" height="1" x="7" y="0" fill="#e6e6e6"                     fill-opacity="0.45" />
<rect width="1" height="1" x="8" y="0" fill="#e6e6e6"                     fill-opacity="0.07" />
<rect width="1" height="1" x="10" y="0" fill="#e6e6e6"                     fill-opacity="0.01" />
<rect width="1" height="1" x="2" y="1" fill="#e6e6e6"                     fill-opacity="0.54" />
<rect width="1" height="1" x="3" y="1" fill="#e6e6e6"                     fill-opacity="0.87" />
<rect width="1" height="1" x="4" y="1" fill="#e6e6e6"                     fill-opacity="0.62" />
<rect width="1" height="1" x="5" y="1" fill="#e6e6e6"                     fill-opacity="0.43" />
<rect width="1" height="1" x="6" y="1" fill="#e6e6e6"                     fill-opacity="0.47" />
<rect width="1" height="1" x="7" y="1" fill="#e6e6e6"                     fill-opacity="0.71" />
<rect width="1" height="1" x="8" y="1" fill="#e6e6e6"                     fill-opacity="0.86" />
<rect width="1" height="1" x="9" y="1" fill="#e6e6e6"                     fill-opacity="0.29" />
<rect width="1" height="1" x="11" y="1" fill="#e6e6e6"                     fill-opacity="0.01" />
<rect width="1" height="1" x="1" y="2" fill="#e6e6e6"                     fill-opacity="0.54" />
<rect width="1" height="1" x="2" y="2" fill="#e6e6e6"                     fill-opacity="0.84" />
<rect width="1" height="1" x="3" y="2" fill="#e6e6e6"                     fill-opacity="0.11" />
<rect width="1" height="1" x="8" y="2" fill="#e6e6e6"                     fill-opacity="0.33" />
<rect width="1" height="1" x="9" y="2" fill="#e6e6e6"                     fill-opacity="0.92" />
<rect width="1" height="1" x="10" y="2" fill="#e6e6e6"                     fill-opacity="0.24" />
<rect width="1" height="1" x="12" y="2" fill="#e6e6e6"                     fill-opacity="0.01" />
<rect width="1" height="1" x="0" y="3" fill="#e6e6e6"                     fill-opacity="0.21" />
<rect width="1" height="1" x="1" y="3" fill="#e6e6e6"                     fill-opacity="0.87" />
<rect width="1" height="1" x="2" y="3" fill="#e6e6e6"                     fill-opacity="0.11" />
<rect width="1" height="1" x="4" y="3" fill="#e6e6e6"                     fill-opacity="0.02" />
<rect width="1" height="1" x="5" y="3" fill="#e6e6e6"                     fill-opacity="0.00" />
<rect width="1" height="1" x="6" y="3" fill="#e6e6e6"                     fill-opacity="0.01" />
<rect width="1" height="1" x="7" y="3" fill="#e6e6e6"                     fill-opacity="0.01" />
<rect width="1" height="1" x="9" y="3" fill="#e6e6e6"                     fill-opacity="0.42" />
<rect width="1" height="1" x="10" y="3" fill="#e6e6e6"                     fill-opacity="0.78" />
<rect width="1" height="1" x="0" y="4" fill="#e6e6e6"                     fill-opacity="0.53" />
<rect width="1" height="1" x="1" y="4" fill="#e6e6e6"                     fill-opacity="0.62" />
<rect width="1" height="1" x="3" y="4" fill="#e6e6e6"                     fill-opacity="0.02" />
<rect width="1" height="1" x="7" y="4" fill="#e6e6e6"                     fill-opacity="0.00" />
<rect width="1" height="1" x="9" y="4" fill="#e6e6e6"                     fill-opacity="0.04" />
<rect width="1" height="1" x="10" y="4" fill="#e6e6e6"                     fill-opacity="0.83" />
<rect width="1" height="1" x="11" y="4" fill="#e6e6e6"                     fill-opacity="0.20" />
<rect width="1" height="1" x="13" y="4" fill="#e6e6e6"                     fill-opacity="0.01" />
<rect width="1" height="1" x="0" y="5" fill="#e6e6e6"                     fill-opacity="0.64" />
<rect width="1" height="1" x="1" y="5" fill="#e6e6e6"                     fill-opacity="0.43" />
<rect width="1" height="1" x="3" y="5" fill="#e6e6e6"                     fill-opacity="0.00" />
<rect width="1" height="1" x="10" y="5" fill="#e6e6e6"                     fill-opacity="0.70" />
<rect width="1" height="1" x="11" y="5" fill="#e6e6e6"                     fill-opacity="0.36" />
<rect width="1" height="1" x="13" y="5" fill="#e6e6e6"                     fill-opacity="0.01" />
<rect width="1" height="1" x="0" y="6" fill="#e6e6e6"                     fill-opacity="0.62" />
<rect width="1" height="1" x="1" y="6" fill="#e6e6e6"                     fill-opacity="0.47" />
<rect width="1" height="1" x="3" y="6" fill="#e6e6e6"                     fill-opacity="0.01" />
<rect width="1" height="1" x="10" y="6" fill="#e6e6e6"                     fill-opacity="0.74" />
<rect width="1" height="1" x="11" y="6" fill="#e6e6e6"                     fill-opacity="0.33" />
<rect width="1" height="1" x="13" y="6" fill="#e6e6e6"                     fill-opacity="0.01" />
<rect width="1" height="1" x="0" y="7" fill="#e6e6e6"                     fill-opacity="0.45" />
<rect width="1" height="1" x="1" y="7" fill="#e6e6e6"                     fill-opacity="0.71" />
<rect width="1" height="1" x="3" y="7" fill="#e6e6e6"                     fill-opacity="0.01" />
<rect width="1" height="1" x="4" y="7" fill="#e6e6e6"                     fill-opacity="0.00" />
<rect width="1" height="1" x="7" y="7" fill="#e6e6e6"                     fill-opacity="0.01" />
<rect width="1" height="1" x="9" y="7" fill="#e6e6e6"                     fill-opacity="0.10" />
<rect width="1" height="1" x="10" y="7" fill="#e6e6e6"                     fill-opacity="0.87" />
<rect width="1" height="1" x="11" y="7" fill="#e6e6e6"                     fill-opacity="0.15" />
<rect width="1" height="1" x="13" y="7" fill="#e6e6e6"                     fill-opacity="0.00" />
<rect width="1" height="1" x="0" y="8" fill="#e6e6e6"                     fill-opacity="0.07" />
<rect width="1" height="1" x="1" y="8" fill="#e6e6e6"                     fill-opacity="0.86" />
<rect width="1" height="1" x="2" y="8" fill="#e6e6e6"                     fill-opacity="0.33" />
<rect width="1" height="1" x="9" y="8" fill="#e6e6e6"                     fill-opacity="0.64" />
<rect width="1" height="1" x="10" y="8" fill="#e6e6e6"                     fill-opacity="0.65" />
<rect width="1" height="1" x="13" y="8" fill="#e6e6e6"                     fill-opacity="0.01" />
<rect width="1" height="1" x="1" y="9" fill="#e6e6e6"                     fill-opacity="0.29" />
<rect width="1" height="1" x="2" y="9" fill="#e6e6e6"                     fill-opacity="0.92" />
<rect width="1" height="1" x="3" y="9" fill="#e6e6e6"                     fill-opacity="0.42" />
<rect width="1" height="1" x="4" y="9" fill="#e6e6e6"                     fill-opacity="0.04" />
<rect width="1" height="1" x="7" y="9" fill="#e6e6e6"                     fill-opacity="0.11" />
<rect width="1" height="1" x="8" y="9" fill="#e6e6e6"                     fill-opacity="0.64" />
<rect width="1" height="1" x="9" y="9" fill="#e6e6e6"                     fill-opacity="1.00" />
<rect width="1" height="1" x="10" y="9" fill="#e6e6e6"                     fill-opacity="0.84" />
<rect width="1" height="1" x="11" y="9" fill="#e6e6e6"                     fill-opacity="0.59" />
<rect width="1" height="1" x="12" y="9" fill="#e6e6e6"                     fill-opacity="0.10" />
<rect width="1" height="1" x="14" y="9" fill="#e6e6e6"                     fill-opacity="0.01" />
<rect width="1" height="1" x="0" y="10" fill="#e6e6e6"                     fill-opacity="0.01" />
<rect width="1" height="1" x="2" y="10" fill="#e6e6e6"                     fill-opacity="0.23" />
<rect width="1" height="1" x="3" y="10" fill="#e6e6e6"                     fill-opacity="0.78" />
<rect width="1" height="1" x="4" y="10" fill="#e6e6e6"                     fill-opacity="0.83" />
<rect width="1" height="1" x="5" y="10" fill="#e6e6e6"                     fill-opacity="0.70" />
<rect width="1" height="1" x="6" y="10" fill="#e6e6e6"                     fill-opacity="0.74" />
<rect width="1" height="1" x="7" y="10" fill="#e6e6e6"                     fill-opacity="0.87" />
<rect width="1" height="1" x="8" y="10" fill="#e6e6e6"                     fill-opacity="0.64" />
<rect width="1" height="1" x="9" y="10" fill="#e6e6e6"                     fill-opacity="0.84" />
<rect width="1" height="1" x="10" y="10" fill="#e6e6e6"                     fill-opacity="0.42" />
<rect width="1" height="1" x="11" y="10" fill="#e6e6e6"                     fill-opacity="0.61" />
<rect width="1" height="1" x="12" y="10" fill="#e6e6e6"                     fill-opacity="0.87" />
<rect width="1" height="1" x="13" y="10" fill="#e6e6e6"                     fill-opacity="0.13" />
<rect width="1" height="1" x="15" y="10" fill="#e6e6e6"                     fill-opacity="0.01" />
<rect width="1" height="1" x="1" y="11" fill="#e6e6e6"                     fill-opacity="0.01" />
<rect width="1" height="1" x="4" y="11" fill="#e6e6e6"                     fill-opacity="0.20" />
<rect width="1" height="1" x="5" y="11" fill="#e6e6e6"                     fill-opacity="0.36" />
<rect width="1" height="1" x="6" y="11" fill="#e6e6e6"                     fill-opacity="0.33" />
<rect width="1" height="1" x="7" y="11" fill="#e6e6e6"                     fill-opacity="0.15" />
<rect width="1" height="1" x="9" y="11" fill="#e6e6e6"                     fill-opacity="0.56" />
<rect width="1" height="1" x="10" y="11" fill="#e6e6e6"                     fill-opacity="0.64" />
<rect width="1" height="1" x="12" y="11" fill="#e6e6e6"                     fill-opacity="0.49" />
<rect width="1" height="1" x="13" y="11" fill="#e6e6e6"                     fill-opacity="0.89" />
<rect width="1" height="1" x="14" y="11" fill="#e6e6e6"                     fill-opacity="0.14" />
<rect width="1" height="1" x="2" y="12" fill="#e6e6e6"                     fill-opacity="0.01" />
<rect width="1" height="1" x="9" y="12" fill="#e6e6e6"                     fill-opacity="0.08" />
<rect width="1" height="1" x="10" y="12" fill="#e6e6e6"                     fill-opacity="0.86" />
<rect width="1" height="1" x="11" y="12" fill="#e6e6e6"                     fill-opacity="0.53" />
<rect width="1" height="1" x="13" y="12" fill="#e6e6e6"                     fill-opacity="0.48" />
<rect width="1" height="1" x="14" y="12" fill="#e6e6e6"                     fill-opacity="0.82" />
<rect width="1" height="1" x="15" y="12" fill="#e6e6e6"                     fill-opacity="0.07" />
<rect width="1" height="1" x="4" y="13" fill="#e6e6e6"                     fill-opacity="0.01" />
<rect width="1" height="1" x="5" y="13" fill="#e6e6e6"                     fill-opacity="0.01" />
<rect width="1" height="1" x="6" y="13" fill="#e6e6e6"                     fill-opacity="0.01" />
<rect width="1" height="1" x="7" y="13" fill="#e6e6e6"                     fill-opacity="0.00" />
<rect width="1" height="1" x="8" y="13" fill="#e6e6e6"                     fill-opacity="0.01" />
<rect width="1" height="1" x="10" y="13" fill="#e6e6e6"                     fill-opacity="0.11" />
<rect width="1" height="1" x="11" y="13" fill="#e6e6e6"                     fill-opacity="0.87" />
<rect width="1" height="1" x="12" y="13" fill="#e6e6e6"                     fill-opacity="0.52" />
<rect width="1" height="1" x="14" y="13" fill="#e6e6e6"                     fill-opacity="0.81" />
<rect width="1" height="1" x="15" y="13" fill="#e6e6e6"                     fill-opacity="0.37" />
<rect width="1" height="1" x="9" y="14" fill="#e6e6e6"                     fill-opacity="0.01" />
<rect width="1" height="1" x="11" y="14" fill="#e6e6e6"                     fill-opacity="0.11" />
<rect width="1" height="1" x="12" y="14" fill="#e6e6e6"                     fill-opacity="0.81" />
<rect width="1" height="1" x="13" y="14" fill="#e6e6e6"                     fill-opacity="0.83" />
<rect width="1" height="1" x="14" y="14" fill="#e6e6e6"                     fill-opacity="0.79" />
<rect width="1" height="1" x="15" y="14" fill="#e6e6e6"                     fill-opacity="0.12" />
<rect width="1" height="1" x="10" y="15" fill="#e6e6e6"                     fill-opacity="0.01" />
<rect width="1" height="1" x="12" y="15" fill="#e6e6e6"                     fill-opacity="0.05" />
<rect width="1" height="1" x="13" y="15" fill="#e6e6e6"                     fill-opacity="0.34" />
<rect width="1" height="1" x="14" y="15" fill="#e6e6e6"                     fill-opacity="0.11" />
</svg>
