<?xml version="1.0" encoding="UTF-8" standalone="no"?>
<svg id="svg2" xmlns="http://www.w3.org/2000/svg" version="1.1"                 width="16" height="16" viewBox="0 0 16 16">
<rect width="1" height="1" x="1" y="3" fill="#e6e6e6"                     fill-opacity="0.00" />
<rect width="1" height="1" x="2" y="3" fill="#e6e6e6"                     fill-opacity="0.01" />
<rect width="1" height="1" x="7" y="3" fill="#e6e6e6"                     fill-opacity="0.00" />
<rect width="1" height="1" x="8" y="3" fill="#e6e6e6"                     fill-opacity="0.00" />
<rect width="1" height="1" x="12" y="3" fill="#e6e6e6"                     fill-opacity="0.00" />
<rect width="1" height="1" x="13" y="3" fill="#e6e6e6"                     fill-opacity="0.01" />
<rect width="1" height="1" x="0" y="4" fill="#e6e6e6"                     fill-opacity="0.00" />
<rect width="1" height="1" x="9" y="4" fill="#e6e6e6"                     fill-opacity="0.00" />
<rect width="1" height="1" x="11" y="4" fill="#e6e6e6"                     fill-opacity="0.00" />
<rect width="1" height="1" x="15" y="4" fill="#e6e6e6"                     fill-opacity="0.00" />
<rect width="1" height="1" x="1" y="5" fill="#e6e6e6"                     fill-opacity="0.07" />
<rect width="1" height="1" x="2" y="5" fill="#e6e6e6"                     fill-opacity="0.18" />
<rect width="1" height="1" x="3" y="5" fill="#e6e6e6"                     fill-opacity="0.01" />
<rect width="1" height="1" x="7" y="5" fill="#e6e6e6"                     fill-opacity="0.16" />
<rect width="1" height="1" x="8" y="5" fill="#e6e6e6"                     fill-opacity="0.11" />
<rect width="1" height="1" x="12" y="5" fill="#e6e6e6"                     fill-opacity="0.07" />
<rect width="1" height="1" x="13" y="5" fill="#e6e6e6"                     fill-opacity="0.18" />
<rect width="1" height="1" x="14" y="5" fill="#e6e6e6"                     fill-opacity="0.01" />
<rect width="1" height="1" x="0" y="6" fill="#e6e6e6"                     fill-opacity="0.19" />
<rect width="1" height="1" x="1" y="6" fill="#e6e6e6"                     fill-opacity="0.82" />
<rect width="1" height="1" x="2" y="6" fill="#e6e6e6"                     fill-opacity="0.89" />
<rect width="1" height="1" x="3" y="6" fill="#e6e6e6"                     fill-opacity="0.65" />
<rect width="1" height="1" x="4" y="6" fill="#e6e6e6"                     fill-opacity="0.02" />
<rect width="1" height="1" x="6" y="6" fill="#e6e6e6"                     fill-opacity="0.54" />
<rect width="1" height="1" x="7" y="6" fill="#e6e6e6"                     fill-opacity="0.88" />
<rect width="1" height="1" x="8" y="6" fill="#e6e6e6"                     fill-opacity="0.85" />
<rect width="1" height="1" x="9" y="6" fill="#e6e6e6"                     fill-opacity="0.31" />
<rect width="1" height="1" x="11" y="6" fill="#e6e6e6"                     fill-opacity="0.19" />
<rect width="1" height="1" x="12" y="6" fill="#e6e6e6"                     fill-opacity="0.81" />
<rect width="1" height="1" x="13" y="6" fill="#e6e6e6"                     fill-opacity="0.89" />
<rect width="1" height="1" x="14" y="6" fill="#e6e6e6"                     fill-opacity="0.66" />
<rect width="1" height="1" x="15" y="6" fill="#e6e6e6"                     fill-opacity="0.02" />
<rect width="1" height="1" x="0" y="7" fill="#e6e6e6"                     fill-opacity="0.63" />
<rect width="1" height="1" x="1" y="7" fill="#e6e6e6"                     fill-opacity="0.55" />
<rect width="1" height="1" x="3" y="7" fill="#e6e6e6"                     fill-opacity="0.82" />
<rect width="1" height="1" x="4" y="7" fill="#e6e6e6"                     fill-opacity="0.30" />
<rect width="1" height="1" x="5" y="7" fill="#e6e6e6"                     fill-opacity="0.10" />
<rect width="1" height="1" x="6" y="7" fill="#e6e6e6"                     fill-opacity="0.89" />
<rect width="1" height="1" x="7" y="7" fill="#e6e6e6"                     fill-opacity="0.03" />
<rect width="1" height="1" x="8" y="7" fill="#e6e6e6"                     fill-opacity="0.36" />
<rect width="1" height="1" x="9" y="7" fill="#e6e6e6"                     fill-opacity="0.80" />
<rect width="1" height="1" x="11" y="7" fill="#e6e6e6"                     fill-opacity="0.67" />
<rect width="1" height="1" x="12" y="7" fill="#e6e6e6"                     fill-opacity="0.52" />
<rect width="1" height="1" x="14" y="7" fill="#e6e6e6"                     fill-opacity="0.81" />
<rect width="1" height="1" x="15" y="7" fill="#e6e6e6"                     fill-opacity="0.33" />
<rect width="1" height="1" x="0" y="8" fill="#e6e6e6"                     fill-opacity="0.53" />
<rect width="1" height="1" x="1" y="8" fill="#e6e6e6"                     fill-opacity="0.72" />
<rect width="1" height="1" x="2" y="8" fill="#e6e6e6"                     fill-opacity="0.28" />
<rect width="1" height="1" x="3" y="8" fill="#e6e6e6"                     fill-opacity="0.85" />
<rect width="1" height="1" x="4" y="8" fill="#e6e6e6"                     fill-opacity="0.21" />
<rect width="1" height="1" x="5" y="8" fill="#e6e6e6"                     fill-opacity="0.06" />
<rect width="1" height="1" x="6" y="8" fill="#e6e6e6"                     fill-opacity="0.86" />
<rect width="1" height="1" x="7" y="8" fill="#e6e6e6"                     fill-opacity="0.36" />
<rect width="1" height="1" x="8" y="8" fill="#e6e6e6"                     fill-opacity="0.59" />
<rect width="1" height="1" x="9" y="8" fill="#e6e6e6"                     fill-opacity="0.69" />
<rect width="1" height="1" x="11" y="8" fill="#e6e6e6"                     fill-opacity="0.55" />
<rect width="1" height="1" x="12" y="8" fill="#e6e6e6"                     fill-opacity="0.71" />
<rect width="1" height="1" x="13" y="8" fill="#e6e6e6"                     fill-opacity="0.29" />
<rect width="1" height="1" x="14" y="8" fill="#e6e6e6"                     fill-opacity="0.85" />
<rect width="1" height="1" x="15" y="8" fill="#e6e6e6"                     fill-opacity="0.24" />
<rect width="1" height="1" x="0" y="9" fill="#e6e6e6"                     fill-opacity="0.05" />
<rect width="1" height="1" x="1" y="9" fill="#e6e6e6"                     fill-opacity="0.61" />
<rect width="1" height="1" x="2" y="9" fill="#e6e6e6"                     fill-opacity="0.82" />
<rect width="1" height="1" x="3" y="9" fill="#e6e6e6"                     fill-opacity="0.40" />
<rect width="1" height="1" x="6" y="9" fill="#e6e6e6"                     fill-opacity="0.30" />
<rect width="1" height="1" x="7" y="9" fill="#e6e6e6"                     fill-opacity="0.79" />
<rect width="1" height="1" x="8" y="9" fill="#e6e6e6"                     fill-opacity="0.68" />
<rect width="1" height="1" x="9" y="9" fill="#e6e6e6"                     fill-opacity="0.12" />
<rect width="1" height="1" x="11" y="9" fill="#e6e6e6"                     fill-opacity="0.05" />
<rect width="1" height="1" x="12" y="9" fill="#e6e6e6"                     fill-opacity="0.60" />
<rect width="1" height="1" x="13" y="9" fill="#e6e6e6"                     fill-opacity="0.82" />
<rect width="1" height="1" x="14" y="9" fill="#e6e6e6"                     fill-opacity="0.41" />
<rect width="1" height="1" x="10" y="10" fill="#e6e6e6"                     fill-opacity="0.00" />
<rect width="1" height="1" x="1" y="11" fill="#e6e6e6"                     fill-opacity="0.00" />
<rect width="1" height="1" x="2" y="11" fill="#e6e6e6"                     fill-opacity="0.00" />
<rect width="1" height="1" x="3" y="11" fill="#e6e6e6"                     fill-opacity="0.00" />
<rect width="1" height="1" x="6" y="11" fill="#e6e6e6"                     fill-opacity="0.00" />
<rect width="1" height="1" x="7" y="11" fill="#e6e6e6"                     fill-opacity="0.00" />
<rect width="1" height="1" x="8" y="11" fill="#e6e6e6"                     fill-opacity="0.00" />
<rect width="1" height="1" x="9" y="11" fill="#e6e6e6"                     fill-opacity="0.00" />
<rect width="1" height="1" x="12" y="11" fill="#e6e6e6"                     fill-opacity="0.00" />
<rect width="1" height="1" x="13" y="11" fill="#e6e6e6"                     fill-opacity="0.00" />
<rect width="1" height="1" x="14" y="11" fill="#e6e6e6"                     fill-opacity="0.00" />
</svg>
