<?xml version="1.0" encoding="UTF-8" standalone="no"?>
<svg id="svg2" xmlns="http://www.w3.org/2000/svg" version="1.1"                 width="16" height="16" viewBox="0 0 16 16">
<rect width="1" height="1" x="14" y="1" fill="#e6e6e6"                     fill-opacity="0.01" />
<rect width="1" height="1" x="2" y="2" fill="#e6e6e6"                     fill-opacity="0.02" />
<rect width="1" height="1" x="3" y="2" fill="#e6e6e6"                     fill-opacity="0.04" />
<rect width="1" height="1" x="4" y="2" fill="#e6e6e6"                     fill-opacity="0.05" />
<rect width="1" height="1" x="5" y="2" fill="#e6e6e6"                     fill-opacity="0.05" />
<rect width="1" height="1" x="6" y="2" fill="#e6e6e6"                     fill-opacity="0.05" />
<rect width="1" height="1" x="7" y="2" fill="#e6e6e6"                     fill-opacity="0.05" />
<rect width="1" height="1" x="8" y="2" fill="#e6e6e6"                     fill-opacity="0.05" />
<rect width="1" height="1" x="9" y="2" fill="#e6e6e6"                     fill-opacity="0.05" />
<rect width="1" height="1" x="10" y="2" fill="#e6e6e6"                     fill-opacity="0.05" />
<rect width="1" height="1" x="11" y="2" fill="#e6e6e6"                     fill-opacity="0.03" />
<rect width="1" height="1" x="12" y="2" fill="#e6e6e6"                     fill-opacity="0.04" />
<rect width="1" height="1" x="0" y="3" fill="#e6e6e6"                     fill-opacity="0.00" />
<rect width="1" height="1" x="2" y="3" fill="#e6e6e6"                     fill-opacity="0.55" />
<rect width="1" height="1" x="3" y="3" fill="#e6e6e6"                     fill-opacity="0.88" />
<rect width="1" height="1" x="4" y="3" fill="#e6e6e6"                     fill-opacity="0.79" />
<rect width="1" height="1" x="5" y="3" fill="#e6e6e6"                     fill-opacity="0.80" />
<rect width="1" height="1" x="6" y="3" fill="#e6e6e6"                     fill-opacity="0.80" />
<rect width="1" height="1" x="7" y="3" fill="#e6e6e6"                     fill-opacity="0.80" />
<rect width="1" height="1" x="8" y="3" fill="#e6e6e6"                     fill-opacity="0.80" />
<rect width="1" height="1" x="9" y="3" fill="#e6e6e6"                     fill-opacity="0.80" />
<rect width="1" height="1" x="10" y="3" fill="#e6e6e6"                     fill-opacity="0.80" />
<rect width="1" height="1" x="11" y="3" fill="#e6e6e6"                     fill-opacity="0.85" />
<rect width="1" height="1" x="12" y="3" fill="#e6e6e6"                     fill-opacity="0.82" />
<rect width="1" height="1" x="13" y="3" fill="#e6e6e6"                     fill-opacity="0.81" />
<rect width="1" height="1" x="14" y="3" fill="#e6e6e6"                     fill-opacity="0.38" />
<rect width="1" height="1" x="0" y="4" fill="#e6e6e6"                     fill-opacity="0.00" />
<rect width="1" height="1" x="2" y="4" fill="#e6e6e6"                     fill-opacity="0.69" />
<rect width="1" height="1" x="3" y="4" fill="#e6e6e6"                     fill-opacity="0.55" />
<rect width="1" height="1" x="4" y="4" fill="#e6e6e6"                     fill-opacity="0.16" />
<rect width="1" height="1" x="5" y="4" fill="#e6e6e6"                     fill-opacity="0.21" />
<rect width="1" height="1" x="6" y="4" fill="#e6e6e6"                     fill-opacity="0.21" />
<rect width="1" height="1" x="7" y="4" fill="#e6e6e6"                     fill-opacity="0.21" />
<rect width="1" height="1" x="8" y="4" fill="#e6e6e6"                     fill-opacity="0.21" />
<rect width="1" height="1" x="9" y="4" fill="#e6e6e6"                     fill-opacity="0.21" />
<rect width="1" height="1" x="10" y="4" fill="#e6e6e6"                     fill-opacity="0.17" />
<rect width="1" height="1" x="11" y="4" fill="#e6e6e6"                     fill-opacity="0.78" />
<rect width="1" height="1" x="12" y="4" fill="#e6e6e6"                     fill-opacity="0.53" />
<rect width="1" height="1" x="13" y="4" fill="#e6e6e6"                     fill-opacity="0.29" />
<rect width="1" height="1" x="14" y="4" fill="#e6e6e6"                     fill-opacity="0.87" />
<rect width="1" height="1" x="15" y="4" fill="#e6e6e6"                     fill-opacity="0.19" />
<rect width="1" height="1" x="0" y="5" fill="#e6e6e6"                     fill-opacity="0.00" />
<rect width="1" height="1" x="2" y="5" fill="#e6e6e6"                     fill-opacity="0.67" />
<rect width="1" height="1" x="3" y="5" fill="#e6e6e6"                     fill-opacity="0.37" />
<rect width="1" height="1" x="11" y="5" fill="#e6e6e6"                     fill-opacity="0.68" />
<rect width="1" height="1" x="12" y="5" fill="#e6e6e6"                     fill-opacity="0.32" />
<rect width="1" height="1" x="14" y="5" fill="#e6e6e6"                     fill-opacity="0.77" />
<rect width="1" height="1" x="15" y="5" fill="#e6e6e6"                     fill-opacity="0.36" />
<rect width="1" height="1" x="0" y="6" fill="#e6e6e6"                     fill-opacity="0.00" />
<rect width="1" height="1" x="2" y="6" fill="#e6e6e6"                     fill-opacity="0.67" />
<rect width="1" height="1" x="3" y="6" fill="#e6e6e6"                     fill-opacity="0.40" />
<rect width="1" height="1" x="5" y="6" fill="#e6e6e6"                     fill-opacity="0.02" />
<rect width="1" height="1" x="6" y="6" fill="#e6e6e6"                     fill-opacity="0.01" />
<rect width="1" height="1" x="7" y="6" fill="#e6e6e6"                     fill-opacity="0.01" />
<rect width="1" height="1" x="8" y="6" fill="#e6e6e6"                     fill-opacity="0.01" />
<rect width="1" height="1" x="9" y="6" fill="#e6e6e6"                     fill-opacity="0.01" />
<rect width="1" height="1" x="11" y="6" fill="#e6e6e6"                     fill-opacity="0.69" />
<rect width="1" height="1" x="12" y="6" fill="#e6e6e6"                     fill-opacity="0.68" />
<rect width="1" height="1" x="13" y="6" fill="#e6e6e6"                     fill-opacity="0.60" />
<rect width="1" height="1" x="14" y="6" fill="#e6e6e6"                     fill-opacity="0.83" />
<rect width="1" height="1" x="15" y="6" fill="#e6e6e6"                     fill-opacity="0.08" />
<rect width="1" height="1" x="0" y="7" fill="#e6e6e6"                     fill-opacity="0.00" />
<rect width="1" height="1" x="2" y="7" fill="#e6e6e6"                     fill-opacity="0.67" />
<rect width="1" height="1" x="3" y="7" fill="#e6e6e6"                     fill-opacity="0.39" />
<rect width="1" height="1" x="5" y="7" fill="#e6e6e6"                     fill-opacity="0.01" />
<rect width="1" height="1" x="9" y="7" fill="#e6e6e6"                     fill-opacity="0.01" />
<rect width="1" height="1" x="11" y="7" fill="#e6e6e6"                     fill-opacity="0.67" />
<rect width="1" height="1" x="12" y="7" fill="#e6e6e6"                     fill-opacity="0.81" />
<rect width="1" height="1" x="13" y="7" fill="#e6e6e6"                     fill-opacity="0.53" />
<rect width="1" height="1" x="14" y="7" fill="#e6e6e6"                     fill-opacity="0.13" />
<rect width="1" height="1" x="0" y="8" fill="#e6e6e6"                     fill-opacity="0.01" />
<rect width="1" height="1" x="2" y="8" fill="#e6e6e6"                     fill-opacity="0.65" />
<rect width="1" height="1" x="3" y="8" fill="#e6e6e6"                     fill-opacity="0.45" />
<rect width="1" height="1" x="5" y="8" fill="#e6e6e6"                     fill-opacity="0.03" />
<rect width="1" height="1" x="6" y="8" fill="#e6e6e6"                     fill-opacity="0.02" />
<rect width="1" height="1" x="7" y="8" fill="#e6e6e6"                     fill-opacity="0.02" />
<rect width="1" height="1" x="8" y="8" fill="#e6e6e6"                     fill-opacity="0.02" />
<rect width="1" height="1" x="9" y="8" fill="#e6e6e6"                     fill-opacity="0.02" />
<rect width="1" height="1" x="11" y="8" fill="#e6e6e6"                     fill-opacity="0.73" />
<rect width="1" height="1" x="12" y="8" fill="#e6e6e6"                     fill-opacity="0.34" />
<rect width="1" height="1" x="15" y="8" fill="#e6e6e6"                     fill-opacity="0.00" />
<rect width="1" height="1" x="0" y="9" fill="#e6e6e6"                     fill-opacity="0.01" />
<rect width="1" height="1" x="2" y="9" fill="#e6e6e6"                     fill-opacity="0.39" />
<rect width="1" height="1" x="3" y="9" fill="#e6e6e6"                     fill-opacity="0.84" />
<rect width="1" height="1" x="4" y="9" fill="#e6e6e6"                     fill-opacity="0.03" />
<rect width="1" height="1" x="10" y="9" fill="#e6e6e6"                     fill-opacity="0.29" />
<rect width="1" height="1" x="11" y="9" fill="#e6e6e6"                     fill-opacity="0.87" />
<rect width="1" height="1" x="12" y="9" fill="#e6e6e6"                     fill-opacity="0.12" />
<rect width="1" height="1" x="14" y="9" fill="#e6e6e6"                     fill-opacity="0.01" />
<rect width="1" height="1" x="0" y="10" fill="#e6e6e6"                     fill-opacity="0.01" />
<rect width="1" height="1" x="1" y="10" fill="#e6e6e6"                     fill-opacity="0.01" />
<rect width="1" height="1" x="2" y="10" fill="#e6e6e6"                     fill-opacity="0.00" />
<rect width="1" height="1" x="3" y="10" fill="#e6e6e6"                     fill-opacity="0.65" />
<rect width="1" height="1" x="4" y="10" fill="#e6e6e6"                     fill-opacity="0.86" />
<rect width="1" height="1" x="5" y="10" fill="#e6e6e6"                     fill-opacity="0.50" />
<rect width="1" height="1" x="6" y="10" fill="#e6e6e6"                     fill-opacity="0.47" />
<rect width="1" height="1" x="7" y="10" fill="#e6e6e6"                     fill-opacity="0.48" />
<rect width="1" height="1" x="8" y="10" fill="#e6e6e6"                     fill-opacity="0.47" />
<rect width="1" height="1" x="9" y="10" fill="#e6e6e6"                     fill-opacity="0.59" />
<rect width="1" height="1" x="10" y="10" fill="#e6e6e6"                     fill-opacity="0.92" />
<rect width="1" height="1" x="11" y="10" fill="#e6e6e6"                     fill-opacity="0.39" />
<rect width="1" height="1" x="13" y="10" fill="#e6e6e6"                     fill-opacity="0.02" />
<rect width="1" height="1" x="14" y="10" fill="#e6e6e6"                     fill-opacity="0.01" />
<rect width="1" height="1" x="4" y="11" fill="#e6e6e6"                     fill-opacity="0.29" />
<rect width="1" height="1" x="5" y="11" fill="#e6e6e6"                     fill-opacity="0.57" />
<rect width="1" height="1" x="6" y="11" fill="#e6e6e6"                     fill-opacity="0.57" />
<rect width="1" height="1" x="7" y="11" fill="#e6e6e6"                     fill-opacity="0.57" />
<rect width="1" height="1" x="8" y="11" fill="#e6e6e6"                     fill-opacity="0.58" />
<rect width="1" height="1" x="9" y="11" fill="#e6e6e6"                     fill-opacity="0.52" />
<rect width="1" height="1" x="10" y="11" fill="#e6e6e6"                     fill-opacity="0.14" />
<rect width="1" height="1" x="0" y="12" fill="#e6e6e6"                     fill-opacity="0.17" />
<rect width="1" height="1" x="1" y="12" fill="#e6e6e6"                     fill-opacity="0.29" />
<rect width="1" height="1" x="2" y="12" fill="#e6e6e6"                     fill-opacity="0.27" />
<rect width="1" height="1" x="3" y="12" fill="#e6e6e6"                     fill-opacity="0.27" />
<rect width="1" height="1" x="4" y="12" fill="#e6e6e6"                     fill-opacity="0.22" />
<rect width="1" height="1" x="5" y="12" fill="#e6e6e6"                     fill-opacity="0.21" />
<rect width="1" height="1" x="6" y="12" fill="#e6e6e6"                     fill-opacity="0.22" />
<rect width="1" height="1" x="7" y="12" fill="#e6e6e6"                     fill-opacity="0.22" />
<rect width="1" height="1" x="8" y="12" fill="#e6e6e6"                     fill-opacity="0.22" />
<rect width="1" height="1" x="9" y="12" fill="#e6e6e6"                     fill-opacity="0.21" />
<rect width="1" height="1" x="10" y="12" fill="#e6e6e6"                     fill-opacity="0.24" />
<rect width="1" height="1" x="11" y="12" fill="#e6e6e6"                     fill-opacity="0.28" />
<rect width="1" height="1" x="12" y="12" fill="#e6e6e6"                     fill-opacity="0.27" />
<rect width="1" height="1" x="13" y="12" fill="#e6e6e6"                     fill-opacity="0.27" />
<rect width="1" height="1" x="14" y="12" fill="#e6e6e6"                     fill-opacity="0.28" />
<rect width="1" height="1" x="15" y="12" fill="#e6e6e6"                     fill-opacity="0.10" />
<rect width="1" height="1" x="0" y="13" fill="#e6e6e6"                     fill-opacity="0.50" />
<rect width="1" height="1" x="1" y="13" fill="#e6e6e6"                     fill-opacity="0.85" />
<rect width="1" height="1" x="2" y="13" fill="#e6e6e6"                     fill-opacity="0.78" />
<rect width="1" height="1" x="3" y="13" fill="#e6e6e6"                     fill-opacity="0.80" />
<rect width="1" height="1" x="4" y="13" fill="#e6e6e6"                     fill-opacity="0.80" />
<rect width="1" height="1" x="5" y="13" fill="#e6e6e6"                     fill-opacity="0.80" />
<rect width="1" height="1" x="6" y="13" fill="#e6e6e6"                     fill-opacity="0.80" />
<rect width="1" height="1" x="7" y="13" fill="#e6e6e6"                     fill-opacity="0.80" />
<rect width="1" height="1" x="8" y="13" fill="#e6e6e6"                     fill-opacity="0.80" />
<rect width="1" height="1" x="9" y="13" fill="#e6e6e6"                     fill-opacity="0.80" />
<rect width="1" height="1" x="10" y="13" fill="#e6e6e6"                     fill-opacity="0.80" />
<rect width="1" height="1" x="11" y="13" fill="#e6e6e6"                     fill-opacity="0.80" />
<rect width="1" height="1" x="12" y="13" fill="#e6e6e6"                     fill-opacity="0.80" />
<rect width="1" height="1" x="13" y="13" fill="#e6e6e6"                     fill-opacity="0.79" />
<rect width="1" height="1" x="14" y="13" fill="#e6e6e6"                     fill-opacity="0.82" />
<rect width="1" height="1" x="15" y="13" fill="#e6e6e6"                     fill-opacity="0.30" />
<rect width="1" height="1" x="1" y="15" fill="#e6e6e6"                     fill-opacity="0.00" />
<rect width="1" height="1" x="2" y="15" fill="#e6e6e6"                     fill-opacity="0.00" />
<rect width="1" height="1" x="3" y="15" fill="#e6e6e6"                     fill-opacity="0.00" />
<rect width="1" height="1" x="4" y="15" fill="#e6e6e6"                     fill-opacity="0.00" />
<rect width="1" height="1" x="5" y="15" fill="#e6e6e6"                     fill-opacity="0.00" />
<rect width="1" height="1" x="6" y="15" fill="#e6e6e6"                     fill-opacity="0.00" />
<rect width="1" height="1" x="7" y="15" fill="#e6e6e6"                     fill-opacity="0.00" />
<rect width="1" height="1" x="8" y="15" fill="#e6e6e6"                     fill-opacity="0.00" />
<rect width="1" height="1" x="9" y="15" fill="#e6e6e6"                     fill-opacity="0.00" />
<rect width="1" height="1" x="10" y="15" fill="#e6e6e6"                     fill-opacity="0.00" />
<rect width="1" height="1" x="11" y="15" fill="#e6e6e6"                     fill-opacity="0.00" />
<rect width="1" height="1" x="12" y="15" fill="#e6e6e6"                     fill-opacity="0.00" />
<rect width="1" height="1" x="13" y="15" fill="#e6e6e6"                     fill-opacity="0.00" />
<rect width="1" height="1" x="14" y="15" fill="#e6e6e6"                     fill-opacity="0.00" />
</svg>
