<?xml version="1.0" encoding="UTF-8" standalone="no"?>
<svg id="svg2" xmlns="http://www.w3.org/2000/svg" version="1.1"                 width="16" height="16" viewBox="0 0 16 16">
<rect width="1" height="1" x="0" y="0" fill="#e6e6e6"                     fill-opacity="0.04" />
<rect width="1" height="1" x="1" y="0" fill="#e6e6e6"                     fill-opacity="0.23" />
<rect width="1" height="1" x="2" y="0" fill="#e6e6e6"                     fill-opacity="0.25" />
<rect width="1" height="1" x="3" y="0" fill="#e6e6e6"                     fill-opacity="0.25" />
<rect width="1" height="1" x="4" y="0" fill="#e6e6e6"                     fill-opacity="0.25" />
<rect width="1" height="1" x="5" y="0" fill="#e6e6e6"                     fill-opacity="0.25" />
<rect width="1" height="1" x="6" y="0" fill="#e6e6e6"                     fill-opacity="0.25" />
<rect width="1" height="1" x="7" y="0" fill="#e6e6e6"                     fill-opacity="0.25" />
<rect width="1" height="1" x="8" y="0" fill="#e6e6e6"                     fill-opacity="0.25" />
<rect width="1" height="1" x="9" y="0" fill="#e6e6e6"                     fill-opacity="0.25" />
<rect width="1" height="1" x="10" y="0" fill="#e6e6e6"                     fill-opacity="0.25" />
<rect width="1" height="1" x="11" y="0" fill="#e6e6e6"                     fill-opacity="0.25" />
<rect width="1" height="1" x="12" y="0" fill="#e6e6e6"                     fill-opacity="0.25" />
<rect width="1" height="1" x="13" y="0" fill="#e6e6e6"                     fill-opacity="0.26" />
<rect width="1" height="1" x="14" y="0" fill="#e6e6e6"                     fill-opacity="0.17" />
<rect width="1" height="1" x="0" y="1" fill="#e6e6e6"                     fill-opacity="0.51" />
<rect width="1" height="1" x="1" y="1" fill="#e6e6e6"                     fill-opacity="0.90" />
<rect width="1" height="1" x="2" y="1" fill="#e6e6e6"                     fill-opacity="0.76" />
<rect width="1" height="1" x="3" y="1" fill="#e6e6e6"                     fill-opacity="0.79" />
<rect width="1" height="1" x="4" y="1" fill="#e6e6e6"                     fill-opacity="0.78" />
<rect width="1" height="1" x="5" y="1" fill="#e6e6e6"                     fill-opacity="0.78" />
<rect width="1" height="1" x="6" y="1" fill="#e6e6e6"                     fill-opacity="0.78" />
<rect width="1" height="1" x="7" y="1" fill="#e6e6e6"                     fill-opacity="0.78" />
<rect width="1" height="1" x="8" y="1" fill="#e6e6e6"                     fill-opacity="0.78" />
<rect width="1" height="1" x="9" y="1" fill="#e6e6e6"                     fill-opacity="0.78" />
<rect width="1" height="1" x="10" y="1" fill="#e6e6e6"                     fill-opacity="0.78" />
<rect width="1" height="1" x="11" y="1" fill="#e6e6e6"                     fill-opacity="0.78" />
<rect width="1" height="1" x="12" y="1" fill="#e6e6e6"                     fill-opacity="0.78" />
<rect width="1" height="1" x="13" y="1" fill="#e6e6e6"                     fill-opacity="0.78" />
<rect width="1" height="1" x="14" y="1" fill="#e6e6e6"                     fill-opacity="0.89" />
<rect width="1" height="1" x="15" y="1" fill="#e6e6e6"                     fill-opacity="0.25" />
<rect width="1" height="1" x="0" y="2" fill="#e6e6e6"                     fill-opacity="0.69" />
<rect width="1" height="1" x="1" y="2" fill="#e6e6e6"                     fill-opacity="0.39" />
<rect width="1" height="1" x="14" y="2" fill="#e6e6e6"                     fill-opacity="0.67" />
<rect width="1" height="1" x="15" y="2" fill="#e6e6e6"                     fill-opacity="0.45" />
<rect width="1" height="1" x="0" y="3" fill="#e6e6e6"                     fill-opacity="0.66" />
<rect width="1" height="1" x="1" y="3" fill="#e6e6e6"                     fill-opacity="0.40" />
<rect width="1" height="1" x="3" y="3" fill="#e6e6e6"                     fill-opacity="0.01" />
<rect width="1" height="1" x="4" y="3" fill="#e6e6e6"                     fill-opacity="0.00" />
<rect width="1" height="1" x="5" y="3" fill="#e6e6e6"                     fill-opacity="0.00" />
<rect width="1" height="1" x="6" y="3" fill="#e6e6e6"                     fill-opacity="0.00" />
<rect width="1" height="1" x="7" y="3" fill="#e6e6e6"                     fill-opacity="0.00" />
<rect width="1" height="1" x="8" y="3" fill="#e6e6e6"                     fill-opacity="0.00" />
<rect width="1" height="1" x="9" y="3" fill="#e6e6e6"                     fill-opacity="0.00" />
<rect width="1" height="1" x="10" y="3" fill="#e6e6e6"                     fill-opacity="0.00" />
<rect width="1" height="1" x="11" y="3" fill="#e6e6e6"                     fill-opacity="0.00" />
<rect width="1" height="1" x="12" y="3" fill="#e6e6e6"                     fill-opacity="0.01" />
<rect width="1" height="1" x="14" y="3" fill="#e6e6e6"                     fill-opacity="0.66" />
<rect width="1" height="1" x="15" y="3" fill="#e6e6e6"                     fill-opacity="0.44" />
<rect width="1" height="1" x="0" y="4" fill="#e6e6e6"                     fill-opacity="0.67" />
<rect width="1" height="1" x="1" y="4" fill="#e6e6e6"                     fill-opacity="0.40" />
<rect width="1" height="1" x="3" y="4" fill="#e6e6e6"                     fill-opacity="0.01" />
<rect width="1" height="1" x="12" y="4" fill="#e6e6e6"                     fill-opacity="0.00" />
<rect width="1" height="1" x="14" y="4" fill="#e6e6e6"                     fill-opacity="0.67" />
<rect width="1" height="1" x="15" y="4" fill="#e6e6e6"                     fill-opacity="0.44" />
<rect width="1" height="1" x="0" y="5" fill="#e6e6e6"                     fill-opacity="0.67" />
<rect width="1" height="1" x="1" y="5" fill="#e6e6e6"                     fill-opacity="0.40" />
<rect width="1" height="1" x="3" y="5" fill="#e6e6e6"                     fill-opacity="0.01" />
<rect width="1" height="1" x="4" y="5" fill="#e6e6e6"                     fill-opacity="0.00" />
<rect width="1" height="1" x="7" y="5" fill="#e6e6e6"                     fill-opacity="0.00" />
<rect width="1" height="1" x="10" y="5" fill="#e6e6e6"                     fill-opacity="0.00" />
<rect width="1" height="1" x="11" y="5" fill="#e6e6e6"                     fill-opacity="0.00" />
<rect width="1" height="1" x="12" y="5" fill="#e6e6e6"                     fill-opacity="0.00" />
<rect width="1" height="1" x="14" y="5" fill="#e6e6e6"                     fill-opacity="0.67" />
<rect width="1" height="1" x="15" y="5" fill="#e6e6e6"                     fill-opacity="0.44" />
<rect width="1" height="1" x="0" y="6" fill="#e6e6e6"                     fill-opacity="0.67" />
<rect width="1" height="1" x="1" y="6" fill="#e6e6e6"                     fill-opacity="0.40" />
<rect width="1" height="1" x="3" y="6" fill="#e6e6e6"                     fill-opacity="0.01" />
<rect width="1" height="1" x="6" y="6" fill="#e6e6e6"                     fill-opacity="0.00" />
<rect width="1" height="1" x="9" y="6" fill="#e6e6e6"                     fill-opacity="0.00" />
<rect width="1" height="1" x="12" y="6" fill="#e6e6e6"                     fill-opacity="0.00" />
<rect width="1" height="1" x="14" y="6" fill="#e6e6e6"                     fill-opacity="0.67" />
<rect width="1" height="1" x="15" y="6" fill="#e6e6e6"                     fill-opacity="0.44" />
<rect width="1" height="1" x="0" y="7" fill="#e6e6e6"                     fill-opacity="0.67" />
<rect width="1" height="1" x="1" y="7" fill="#e6e6e6"                     fill-opacity="0.40" />
<rect width="1" height="1" x="4" y="7" fill="#e6e6e6"                     fill-opacity="0.47" />
<rect width="1" height="1" x="5" y="7" fill="#e6e6e6"                     fill-opacity="0.28" />
<rect width="1" height="1" x="7" y="7" fill="#e6e6e6"                     fill-opacity="0.49" />
<rect width="1" height="1" x="8" y="7" fill="#e6e6e6"                     fill-opacity="0.28" />
<rect width="1" height="1" x="10" y="7" fill="#e6e6e6"                     fill-opacity="0.48" />
<rect width="1" height="1" x="11" y="7" fill="#e6e6e6"                     fill-opacity="0.28" />
<rect width="1" height="1" x="14" y="7" fill="#e6e6e6"                     fill-opacity="0.67" />
<rect width="1" height="1" x="15" y="7" fill="#e6e6e6"                     fill-opacity="0.44" />
<rect width="1" height="1" x="0" y="8" fill="#e6e6e6"                     fill-opacity="0.66" />
<rect width="1" height="1" x="1" y="8" fill="#e6e6e6"                     fill-opacity="0.40" />
<rect width="1" height="1" x="3" y="8" fill="#e6e6e6"                     fill-opacity="0.00" />
<rect width="1" height="1" x="4" y="8" fill="#e6e6e6"                     fill-opacity="0.28" />
<rect width="1" height="1" x="5" y="8" fill="#e6e6e6"                     fill-opacity="0.16" />
<rect width="1" height="1" x="7" y="8" fill="#e6e6e6"                     fill-opacity="0.29" />
<rect width="1" height="1" x="8" y="8" fill="#e6e6e6"                     fill-opacity="0.18" />
<rect width="1" height="1" x="10" y="8" fill="#e6e6e6"                     fill-opacity="0.29" />
<rect width="1" height="1" x="11" y="8" fill="#e6e6e6"                     fill-opacity="0.17" />
<rect width="1" height="1" x="14" y="8" fill="#e6e6e6"                     fill-opacity="0.67" />
<rect width="1" height="1" x="15" y="8" fill="#e6e6e6"                     fill-opacity="0.44" />
<rect width="1" height="1" x="0" y="9" fill="#e6e6e6"                     fill-opacity="0.66" />
<rect width="1" height="1" x="1" y="9" fill="#e6e6e6"                     fill-opacity="0.36" />
<rect width="1" height="1" x="6" y="9" fill="#e6e6e6"                     fill-opacity="0.02" />
<rect width="1" height="1" x="14" y="9" fill="#e6e6e6"                     fill-opacity="0.64" />
<rect width="1" height="1" x="15" y="9" fill="#e6e6e6"                     fill-opacity="0.44" />
<rect width="1" height="1" x="0" y="10" fill="#e6e6e6"                     fill-opacity="0.67" />
<rect width="1" height="1" x="1" y="10" fill="#e6e6e6"                     fill-opacity="0.58" />
<rect width="1" height="1" x="2" y="10" fill="#e6e6e6"                     fill-opacity="0.20" />
<rect width="1" height="1" x="3" y="10" fill="#e6e6e6"                     fill-opacity="0.24" />
<rect width="1" height="1" x="4" y="10" fill="#e6e6e6"                     fill-opacity="0.08" />
<rect width="1" height="1" x="7" y="10" fill="#e6e6e6"                     fill-opacity="0.18" />
<rect width="1" height="1" x="8" y="10" fill="#e6e6e6"                     fill-opacity="0.27" />
<rect width="1" height="1" x="9" y="10" fill="#e6e6e6"                     fill-opacity="0.25" />
<rect width="1" height="1" x="10" y="10" fill="#e6e6e6"                     fill-opacity="0.26" />
<rect width="1" height="1" x="11" y="10" fill="#e6e6e6"                     fill-opacity="0.26" />
<rect width="1" height="1" x="12" y="10" fill="#e6e6e6"                     fill-opacity="0.25" />
<rect width="1" height="1" x="13" y="10" fill="#e6e6e6"                     fill-opacity="0.22" />
<rect width="1" height="1" x="14" y="10" fill="#e6e6e6"                     fill-opacity="0.78" />
<rect width="1" height="1" x="15" y="10" fill="#e6e6e6"                     fill-opacity="0.43" />
<rect width="1" height="1" x="0" y="11" fill="#e6e6e6"                     fill-opacity="0.35" />
<rect width="1" height="1" x="1" y="11" fill="#e6e6e6"                     fill-opacity="0.82" />
<rect width="1" height="1" x="2" y="11" fill="#e6e6e6"                     fill-opacity="0.77" />
<rect width="1" height="1" x="3" y="11" fill="#e6e6e6"                     fill-opacity="0.92" />
<rect width="1" height="1" x="4" y="11" fill="#e6e6e6"                     fill-opacity="0.36" />
<rect width="1" height="1" x="6" y="11" fill="#e6e6e6"                     fill-opacity="0.38" />
<rect width="1" height="1" x="7" y="11" fill="#e6e6e6"                     fill-opacity="0.89" />
<rect width="1" height="1" x="8" y="11" fill="#e6e6e6"                     fill-opacity="0.78" />
<rect width="1" height="1" x="9" y="11" fill="#e6e6e6"                     fill-opacity="0.78" />
<rect width="1" height="1" x="10" y="11" fill="#e6e6e6"                     fill-opacity="0.78" />
<rect width="1" height="1" x="11" y="11" fill="#e6e6e6"                     fill-opacity="0.78" />
<rect width="1" height="1" x="12" y="11" fill="#e6e6e6"                     fill-opacity="0.78" />
<rect width="1" height="1" x="13" y="11" fill="#e6e6e6"                     fill-opacity="0.80" />
<rect width="1" height="1" x="14" y="11" fill="#e6e6e6"                     fill-opacity="0.75" />
<rect width="1" height="1" x="15" y="11" fill="#e6e6e6"                     fill-opacity="0.13" />
<rect width="1" height="1" x="3" y="12" fill="#e6e6e6"                     fill-opacity="0.70" />
<rect width="1" height="1" x="4" y="12" fill="#e6e6e6"                     fill-opacity="0.34" />
<rect width="1" height="1" x="5" y="12" fill="#e6e6e6"                     fill-opacity="0.29" />
<rect width="1" height="1" x="6" y="12" fill="#e6e6e6"                     fill-opacity="0.93" />
<rect width="1" height="1" x="7" y="12" fill="#e6e6e6"                     fill-opacity="0.26" />
<rect width="1" height="1" x="0" y="13" fill="#e6e6e6"                     fill-opacity="0.00" />
<rect width="1" height="1" x="1" y="13" fill="#e6e6e6"                     fill-opacity="0.01" />
<rect width="1" height="1" x="3" y="13" fill="#e6e6e6"                     fill-opacity="0.64" />
<rect width="1" height="1" x="4" y="13" fill="#e6e6e6"                     fill-opacity="0.75" />
<rect width="1" height="1" x="5" y="13" fill="#e6e6e6"                     fill-opacity="0.84" />
<rect width="1" height="1" x="6" y="13" fill="#e6e6e6"                     fill-opacity="0.26" />
<rect width="1" height="1" x="8" y="13" fill="#e6e6e6"                     fill-opacity="0.01" />
<rect width="1" height="1" x="9" y="13" fill="#e6e6e6"                     fill-opacity="0.00" />
<rect width="1" height="1" x="10" y="13" fill="#e6e6e6"                     fill-opacity="0.00" />
<rect width="1" height="1" x="11" y="13" fill="#e6e6e6"                     fill-opacity="0.00" />
<rect width="1" height="1" x="12" y="13" fill="#e6e6e6"                     fill-opacity="0.00" />
<rect width="1" height="1" x="14" y="13" fill="#e6e6e6"                     fill-opacity="0.00" />
<rect width="1" height="1" x="1" y="14" fill="#e6e6e6"                     fill-opacity="0.01" />
<rect width="1" height="1" x="3" y="14" fill="#e6e6e6"                     fill-opacity="0.70" />
<rect width="1" height="1" x="4" y="14" fill="#e6e6e6"                     fill-opacity="1.00" />
<rect width="1" height="1" x="5" y="14" fill="#e6e6e6"                     fill-opacity="0.22" />
<rect width="1" height="1" x="7" y="14" fill="#e6e6e6"                     fill-opacity="0.02" />
<rect width="1" height="1" x="3" y="15" fill="#e6e6e6"                     fill-opacity="0.28" />
<rect width="1" height="1" x="4" y="15" fill="#e6e6e6"                     fill-opacity="0.20" />
<rect width="1" height="1" x="6" y="15" fill="#e6e6e6"                     fill-opacity="0.01" />
</svg>
